<svg xmlns="http://www.w3.org/2000/svg" width="7.639" height="7.261" viewBox="0 0 7.639 7.261">
  <g id="Group_111" data-name="Group 111" transform="translate(-171.261 -201.1)">
    <circle id="Ellipse_35" data-name="Ellipse 35" cx="3.6" cy="3.6" r="3.6" transform="translate(171.5 201.1)" fill="#eedc00"/>
    <path id="Path_280" data-name="Path 280" d="M172,206.5a3.627,3.627,0,0,0,4.9,1.4,3.159,3.159,0,0,0,1.4-1.4,4.027,4.027,0,0,1-4.4.8,3.937,3.937,0,0,1-1.8-4.4,3.563,3.563,0,0,0-.1,3.6Z" opacity="0.1"/>
    <path id="Path_281" data-name="Path 281" d="M176.8,202.1a3.147,3.147,0,0,1,1.3,1.7c0,.1.1.2.1.4s-.1.2-.2.3-.3,0-.4,0-.2-.2-.3-.3a5.956,5.956,0,0,0-2.1-1.4,4.221,4.221,0,0,1-1.2-.3c-.2-.1-.3-.2-.3-.4,0-.4.6-.6.9-.6a2.764,2.764,0,0,1,2.2.6Z" fill="#fcee21" opacity="0.6"/>
    <path id="Path_282" data-name="Path 282" d="M178.9,203.5a4.125,4.125,0,0,0-1.5-1.7c-.1,0-.1,0-.1.1a5.537,5.537,0,0,1,.2,1.8s0,.1-.1,0a8.081,8.081,0,0,0-3.1-1h-.1a21.873,21.873,0,0,0-.4,2.7s0,.1-.1,0c-.7-.3-1.5-.8-2.1-1.1h-.1a4.133,4.133,0,0,0-.2,1.9h0a3.194,3.194,0,0,1,.3-1.4h.1a6.343,6.343,0,0,0,2.4,1.4h.1a13.732,13.732,0,0,0,.5-2.8.1.1,0,0,1,.1-.1,7.444,7.444,0,0,1,2.9,1.2h.1a4.061,4.061,0,0,0,0-1.9.1.1,0,0,1,.1-.1,4.741,4.741,0,0,0,1,1Z" fill="#b6aa00"/>
    <path id="Path_283" data-name="Path 283" d="M172,206.8a8.6,8.6,0,0,0,2.7.9h0a19.853,19.853,0,0,0,.9-2.6h0a6.776,6.776,0,0,1,2.3,1.4h0a2.836,2.836,0,0,0,.8-1.1h.1a3.932,3.932,0,0,1-.9,1.7h0a10.487,10.487,0,0,0-1.9-1.5h0a14.355,14.355,0,0,1-.8,2.5h0a4.323,4.323,0,0,1-3.2-1.3c-.1,0,0-.1,0,0Z" fill="#b6aa00"/>
  </g>
</svg>
