<svg xmlns="http://www.w3.org/2000/svg" width="10.866" height="11.6" viewBox="0 0 10.866 11.6">
  <g id="Group_99" data-name="Group 99" transform="translate(-0.334 -969.8)">
    <circle id="Ellipse_22" data-name="Ellipse 22" cx="5.2" cy="5.2" r="5.2" transform="translate(0.8 970.5)" fill="#ea5069"/>
    <path id="Path_136" data-name="Path 136" d="M3,971.4a5.28,5.28,0,0,0-1.4,7.3,5.485,5.485,0,0,0,2.2,1.8,5.822,5.822,0,0,1-1.7-6.3A5.748,5.748,0,0,1,8.2,971a5.139,5.139,0,0,0-5.2.4Z" opacity="0.2"/>
    <path id="Path_137" data-name="Path 137" d="M1.4,972.4c.1-.1.2-.2.3-.2.2,0,.2.3.2.5-.1.6-.1,1.1-.2,1.7l-.3,2.4a.756.756,0,0,1-.1.4c-.1.2-.2.2-.3.2-.2,0-.3-.2-.3-.4a4.594,4.594,0,0,1-.3-2.3,5.638,5.638,0,0,1,.4-1.2,10.9,10.9,0,0,1,.6-1.1Z" fill="#d71920"/>
    <path id="Path_138" data-name="Path 138" d="M3.4,975.1a11.627,11.627,0,0,1-.4,1.8,3.956,3.956,0,0,1-1,1.5c-.2.2-.5.3-.7.6a.442.442,0,0,0,.3.7c.2,0,.3-.1.5-.2a8.073,8.073,0,0,0,2.8-7.3,2.947,2.947,0,0,0-.5-1.3,1.834,1.834,0,0,0-1-.7c-.3,0-.7,0-.6.4.1.3.5.6.7.9a2.917,2.917,0,0,1,.1,1.6c-.1.7-.1,1.3-.2,2Z" fill="#d71920"/>
    <path id="Path_139" data-name="Path 139" d="M6,977.1c.1-.2.1-.4.3-.5s.4-.2.5,0a.446.446,0,0,1,0,.5,7.182,7.182,0,0,1-2.7,3.7c-.2.1-.4.3-.6.3-.4.1-1-.2-.7-.7.2-.3.9-.5,1.2-.8a5.456,5.456,0,0,0,2-2.5Z" fill="#d71920"/>
    <path id="Path_140" data-name="Path 140" d="M6.9,972.6c-.1.9-.4,1.7-.5,2.6,0,.2,0,.4.2.5.1,0,.2-.1.3-.2a4.212,4.212,0,0,0,1-2.6,4.49,4.49,0,0,0-.8-2.7.664.664,0,0,0-.5-.4c-.2,0-.5.1-.5.3s.4.5.5.7a2.886,2.886,0,0,1,.3,1.8Z" fill="#d71920"/>
    <path id="Path_141" data-name="Path 141" d="M10.4,973.1v-.3c0-.1.2-.1.2-.1.1,0,.1.1.1.2a8.1,8.1,0,0,1,0,2.2c0,.1,0,.1-.1.2s-.1.1-.2.1-.1-.1-.1-.2v-1l.1-1.1Z" fill="#d71920"/>
    <path id="Path_142" data-name="Path 142" d="M10.1,977c0-.1.1-.3.1-.4s.2-.1.4-.1.1.2.1.3A5.731,5.731,0,0,1,8,981c-.2.1-1.1.5-1.1.1,0-.2.8-.6,1-.8a10.613,10.613,0,0,0,1.7-2,3.922,3.922,0,0,0,.5-1.3Z" fill="#d71920"/>
    <path id="Path_143" data-name="Path 143" d="M9.7,977.6a4.667,4.667,0,0,1-2.3,2.1.9.9,0,0,1-.5.1.764.764,0,0,1-.5-.2.454.454,0,0,1,0-.5c.1-.1.2-.3.3-.4a7.625,7.625,0,0,0,1.7-3.2,11.271,11.271,0,0,1,.3-1.8c.1-.2.3-.5.6-.5.6-.1.9.8.9,1.2a4.029,4.029,0,0,1-.5,3.2Z" fill="#fcee21" opacity="0.2"/>
    <path id="Path_144" data-name="Path 144" d="M8.9,973.4c.1.1.2.2.3.2s.2-.2.3-.3c.1-.3.2-2-.3-1.9-.2,0-.3.5-.4.7a5.7,5.7,0,0,0,.1,1.3Z" fill="#d71920"/>
    <path id="Path_145" data-name="Path 145" d="M8.9,974.6a.367.367,0,0,1,.1-.3c.1-.1.1-.1.2-.1s.1.2.1.3a8.206,8.206,0,0,1-3.5,6.7.52.52,0,0,1-.4.2c-.2,0-.3,0-.4-.2s.1-.4.2-.6c.8-.8,1.5-1.6,2.3-2.4a4.273,4.273,0,0,0,1.1-2.1,1.949,1.949,0,0,0,.1-.8c.1-.2.1-.5.2-.7Z" fill="#d71920"/>
  </g>
</svg>
