<svg xmlns="http://www.w3.org/2000/svg" width="10.542" height="8.6" viewBox="0 0 10.542 8.6">
  <g id="Group_104" data-name="Group 104" transform="translate(-57.5 -530.8)">
    <circle id="Ellipse_28" data-name="Ellipse 28" cx="4.3" cy="4.3" r="4.3" transform="translate(58.3 530.8)" fill="#3b00dd"/>
    <g id="Group_49" data-name="Group 49">
      <path id="Path_233" data-name="Path 233" d="M63.2,531.3a5.833,5.833,0,0,1,2.3.3c.1,0,.1.1.2.1s.1.2,0,.2a.188.188,0,0,1-.3,0,6.45,6.45,0,0,0-4.1.5c-.3.1-.7.2-.7-.2a.664.664,0,0,1,.4-.5,16.972,16.972,0,0,1,2.2-.4Z" fill="#fa2fb5"/>
      <path id="Path_234" data-name="Path 234" d="M59,533.8c.1,0,.3-.1.4,0a.1.1,0,0,0,.1.1c.1.1.3,0,.4,0a7.086,7.086,0,0,1,2.8-.9H63a.215.215,0,0,1,.2.2.4.4,0,0,1-.2.4.755.755,0,0,1-.4.1,8.98,8.98,0,0,0-2.7.7,1.446,1.446,0,0,1-.7.2c-.1,0-.2-.1-.3-.1-.3-.1-.7.2-.9.3-.1.1-.5.3-.5,0,0-.2.3-.5.4-.6a4.876,4.876,0,0,1,1.1-.4Z" fill="#3fa9f5"/>
      <path id="Path_235" data-name="Path 235" d="M64.5,534.5a11.663,11.663,0,0,0-2.6,1,.2.2,0,0,0,0,.4.367.367,0,0,1,.3.1.44.44,0,0,1,.1.5c-.1.2-.2.2-.4.3s-.3.1-.5.2c-.1,0-.2.1-.2.3a.319.319,0,0,0,.3.3,5.758,5.758,0,0,0,2.6.2,4.657,4.657,0,0,0,2-.6,3.806,3.806,0,0,0,1.4-3.3,2.622,2.622,0,0,0-.5-.9c-.4-.4-.4-.1-.7.2a4,4,0,0,1-1.8,1.3Z" fill="#efe8da" opacity="0.35"/>
      <path id="Path_236" data-name="Path 236" d="M61.7,538.5H62a.2.2,0,0,1,0,.4h-.3c-.5-.1-1-.3-1.6-.4-.2-.1-.5-.1-.8-.2a1.853,1.853,0,0,1-.7-.2c-.4-.4.2-.4.5-.3.4.1.8.4,1.2.5a3.178,3.178,0,0,0,1.4.2Z" fill="#fa2fb5"/>
      <path id="Path_237" data-name="Path 237" d="M67.7,535.4c.1-.1.3-.2.3,0,.1.1,0,.2-.1.3a4.824,4.824,0,0,1-3.2,1.5.367.367,0,0,1-.3-.1c-.5-.5,1-.5,1.2-.5a10.5,10.5,0,0,0,2.1-1.2Z" fill="#3fa9f5"/>
    </g>
  </g>
</svg>
