<svg xmlns="http://www.w3.org/2000/svg" width="16.588" height="14.991" viewBox="0 0 16.588 14.991">
  <g id="Group_112" data-name="Group 112" transform="translate(0.1 -146.273)">
    <path id="Path_284" data-name="Path 284" d="M7.5,146.7a2.232,2.232,0,0,1,1.4.3.481.481,0,0,1,.2.6.675.675,0,0,1-.6.4,3.762,3.762,0,0,1-2.1-.1,2.507,2.507,0,0,1-.7-.4c-.2-.3,0-.9.4-.9.2,0,.3.1.4.1A3.278,3.278,0,0,0,7.5,146.7Z" fill="#ff50ac"/>
    <path id="Path_285" data-name="Path 285" d="M13.2,152.1a9.852,9.852,0,0,1-.2-1.7,1.421,1.421,0,0,1,.2-.6.637.637,0,0,1,.6,0,3.318,3.318,0,0,1,1.6,1.5,4.061,4.061,0,0,1,.5,2.1,1.949,1.949,0,0,1-.1.8,1.531,1.531,0,0,1-.5.7,1.083,1.083,0,0,1-1.1,0,2.361,2.361,0,0,1-.8-.9,5.274,5.274,0,0,1-.3-1.2c0-.2.1-.4.1-.7Z" fill="#ff50ac"/>
    <path id="Path_286" data-name="Path 286" d="M14.1,157.4c.3.1.6.2.7.4a.854.854,0,0,1,0,.7,4.3,4.3,0,0,1-1.9,2.1,6.118,6.118,0,0,1-1.2.5,1,1,0,0,1-1.1-.5,2.769,2.769,0,0,1-.1-.9c0-.4.1-.9.1-1.3a2.92,2.92,0,0,1,.2-.9A1.057,1.057,0,0,1,12,157a15.524,15.524,0,0,0,2.1.4Z" fill="#ff50ac"/>
    <circle id="Ellipse_36" data-name="Ellipse 36" cx="6.9" cy="6.9" r="6.9" transform="translate(1.4 147.4)" fill="#9dff92"/>
    <g id="Group_61" data-name="Group 61">
      <path id="Path_287" data-name="Path 287" d="M15,155.7a1.375,1.375,0,0,0-1-.8,1.7,1.7,0,0,1-.7-.1.781.781,0,0,1-.4-.4.454.454,0,0,1,0-.5,1.7,1.7,0,0,0,.1-.7,1.075,1.075,0,0,0-.8-.9,1.483,1.483,0,0,0-.7-.1,2.485,2.485,0,0,1-.8-.1,1.576,1.576,0,0,1-.7-.7,4.7,4.7,0,0,0-.6-.9c-.3-.3-.8-.3-1.2-.4-.2-.1-.4-.2-.4-.4a.6.6,0,0,1,.1-.4v-.4a2.3,2.3,0,0,0-.9-1.4c-.1-.1-.2.3-.1.4.2.2.3.4.5.6a.908.908,0,0,1,.3.7c0,.3-.1.5,0,.7s.1.5.2.6c.3.3.8.3,1.2.4.3.1.5.4.7.8a2.837,2.837,0,0,0,.6.9,1.721,1.721,0,0,0,1.2.2c.4,0,1,.2,1.1.6a.661.661,0,0,1-.1.6.846.846,0,0,0,0,.7,1.141,1.141,0,0,0,.3.6.735.735,0,0,0,.6.2,1.435,1.435,0,0,1,1.3.7c0,.1.1.1.1,0s.1-.4.1-.5Z" fill="#7ac943"/>
      <path id="Path_288" data-name="Path 288" d="M13.6,158.4a2.489,2.489,0,0,1-2.6-1.2c-.2-.4-.2-.8-.6-1.1-.2-.2-.4-.1-.7-.1a.713.713,0,0,1-.6-.3,3.694,3.694,0,0,1-.7-1.4,3.293,3.293,0,0,0-.7-1.3,2.836,2.836,0,0,0-1.1-.8A1.421,1.421,0,0,0,6,152a1.854,1.854,0,0,1-.7-.2c-.2-.1-.2-.4-.2-.7-.1-.3-.2-.5-.3-.8a3.745,3.745,0,0,0-1.3-1.2c-.1-.1-.2.3,0,.4a3.179,3.179,0,0,1,1.2,1.1,4.875,4.875,0,0,1,.3.7c.1.2.1.4.2.6a1,1,0,0,0,.5.4c.2.1.5.1.7.2a7.458,7.458,0,0,1,1.2.7,3.166,3.166,0,0,1,.8,1.2,5.91,5.91,0,0,0,.6,1.4,1,1,0,0,0,.5.4c.1,0,.2.1.3.1h.4c.2,0,.3.2.4.4s.1.4.2.6a2.686,2.686,0,0,0,2.8,1.4c.2.1.1-.3,0-.3Z" fill="#7ac943"/>
      <path id="Path_289" data-name="Path 289" d="M9.8,161a1.326,1.326,0,0,0-.6-1c-.4-.2-.7-.4-1.1-.6l-1.2-.6A2.276,2.276,0,0,1,6,158c-.1-.2-.1-.4-.2-.6s-.2-.3-.3-.5a5.3,5.3,0,0,0-1-.6c-.3-.1-.8-.3-.9-.8v-.6a1.421,1.421,0,0,0-.2-.6,3.124,3.124,0,0,0-2.1-1.6c-.1,0-.1.4,0,.4a2.886,2.886,0,0,1,1.9,1.3c.1.2.2.3.2.5v.6a.764.764,0,0,0,.2.5c.1.1.3.2.5.4a11.731,11.731,0,0,1,1.1.5.781.781,0,0,1,.4.4c.1.2.2.3.2.5a.764.764,0,0,0,.2.5c.1.1.2.3.4.4a3.881,3.881,0,0,0,1.1.6c.7.3,1.9.6,2,1.5,0,.1,0,.2.1.1s.2.2.2.1Z" fill="#7ac943"/>
    </g>
    <path id="Path_290" data-name="Path 290" d="M11.5,150a1.536,1.536,0,0,1,.5-1.3,1.083,1.083,0,0,1,1.1,0,5.31,5.31,0,0,1,3.3,5.7,2.626,2.626,0,0,1-1.8,2,1.966,1.966,0,0,1-2.3-1.1,7.388,7.388,0,0,1,0-2.1C12.3,152.1,11.6,151.1,11.5,150Zm2.3,1a5.932,5.932,0,0,1,.5,2.3,1.077,1.077,0,0,0,.2.8c.5.9,1.4-.1,1.2-.8a6.6,6.6,0,0,0-1.1-2.6c-.1-.1-.2-.3-.4-.4a.365.365,0,0,0-.5.2c0,.2.1.3.1.5Z" fill="#ff7bac"/>
    <path id="Path_291" data-name="Path 291" d="M.7,151.6a2.151,2.151,0,0,1,1.5-1A2.344,2.344,0,0,1,4,151.7c.4.6.7,1.3,1.1,1.9a6.844,6.844,0,0,0,2.7,2.1A3.524,3.524,0,0,1,9.6,157a2.174,2.174,0,0,1-.3,2.3,5.222,5.222,0,0,1-1.9,1.4,5.517,5.517,0,0,1-3.1.5A4.657,4.657,0,0,1,1.2,159a9.856,9.856,0,0,1-1.3-4.2,5.655,5.655,0,0,1,.8-3.2Zm2.5,4a7.58,7.58,0,0,0,2.6,3,3.369,3.369,0,0,0,1.2.6,1.551,1.551,0,0,0,1.2-.2c.3-.3.5-.8.3-1.1-.1-.3-.5-.5-.8-.7a14.434,14.434,0,0,1-3.2-2.3c-.3-.3-.8-.7-1.2-.6-.5.1-.3.9-.1,1.3Z" fill="#ff7bac"/>
    <path id="Path_292" data-name="Path 292" d="M4.4,147.1a3.775,3.775,0,0,1,2.3-.8,8.2,8.2,0,0,1,2.2.2,2.024,2.024,0,0,1,1.4.8,2.537,2.537,0,0,1,.2,1.2,6.033,6.033,0,0,1-.6,1.9,2.189,2.189,0,0,1-.9,1,1.6,1.6,0,0,1-1.5-.2,5.73,5.73,0,0,1-1.1-1.1A5.73,5.73,0,0,0,5.3,149c-.9-.4-1.8-1-.9-1.9Zm2.5.8a8.636,8.636,0,0,0,1,1.6c.1.1.2.3.4.2a.458.458,0,0,0,.4-.5,4.3,4.3,0,0,0,0-1.6.876.876,0,0,0-.9-.7c-.3,0-.9,0-1,.4a1.083,1.083,0,0,0,.1.6Z" fill="#ff7bac"/>
  </g>
</svg>
