<svg xmlns="http://www.w3.org/2000/svg" width="28.707" height="30.075" viewBox="0 0 28.707 30.075">
  <g id="Group_101" data-name="Group 101" transform="translate(-22.956 -678.4)">
    <circle id="Ellipse_24" data-name="Ellipse 24" cx="13.1" cy="13.1" r="13.1" transform="translate(23.8 679.7)" fill="#eedc00"/>
    <path id="Path_156" data-name="Path 156" d="M39.1,705.8a13.117,13.117,0,0,0,10.8-15.1,12.711,12.711,0,0,0-3-6.4c2.3,5.4,1.5,12.1-2.8,16.2-3.8,3.5-11.9,4.9-17.1.9a13.261,13.261,0,0,0,12.1,4.4Z" opacity="0.1"/>
    <path id="Path_157" data-name="Path 157" d="M43.9,705.2c-.3.1-.7.3-.9.1-.4-.3-.2-.9.1-1.3.7-1.2,1.5-2.4,2.2-3.6,1-1.7,2.1-3.4,3.1-5.1a2.036,2.036,0,0,1,.6-.7.972.972,0,0,1,.9-.1c.4.2.3.8.2,1.2-.4,2-.5,4-1.6,5.6a10.484,10.484,0,0,1-2,2.2c-.8.6-1.8,1.1-2.6,1.7Z" fill="#b6aa00"/>
    <path id="Path_158" data-name="Path 158" d="M42.2,697a20.009,20.009,0,0,1,2.8-3.7,8.114,8.114,0,0,1,4-2.3,5.225,5.225,0,0,0,2.1-.7c.6-.5.8-1.5.2-1.9a1.656,1.656,0,0,0-1.2,0,19.754,19.754,0,0,0-13.9,13.8,7.756,7.756,0,0,0-.3,3.4,3.579,3.579,0,0,0,1.6,2.5c.7.4,1.7.7,1.7-.3,0-.9-.6-1.8-.6-2.8-.1-1.3.7-2.6,1.3-3.7a19.592,19.592,0,0,1,2.3-4.3Z" fill="#b6aa00"/>
    <path id="Path_159" data-name="Path 159" d="M38.4,689.6a2.836,2.836,0,0,1-1.1.8,1.011,1.011,0,0,1-1.2-.5,1.274,1.274,0,0,1,.5-1.1,19.728,19.728,0,0,1,9.9-5.6,4.735,4.735,0,0,1,1.7-.1c1,.2,1.9,1.5.8,2.2-.9.6-2.6.3-3.6.5a13.107,13.107,0,0,0-7,3.8Z" fill="#b6aa00"/>
    <path id="Path_160" data-name="Path 160" d="M31.5,698.9c1.1-1.9,2.6-3.6,3.8-5.4.3-.4.5-1,.1-1.3a.761.761,0,0,0-.9.1A10.934,10.934,0,0,0,28.4,704a2.356,2.356,0,0,0,.7,1.5.988.988,0,0,0,1.4-.2c.2-.4-.3-1.6-.3-2.1a7.488,7.488,0,0,1,1.3-4.3Z" fill="#b6aa00"/>
    <path id="Path_161" data-name="Path 161" d="M24,694.2c-.1.2-.2.5-.4.6s-.5.1-.6-.1,0-.4,0-.5a23.114,23.114,0,0,1,2.2-5.1,1.381,1.381,0,0,1,.3-.4c.1-.1.4-.2.5-.1.2.1.2.3.2.5-.1.3-.4.7-.5,1-.2.5-.4.9-.6,1.4L24,694.2Z" fill="#b6aa00"/>
    <path id="Path_162" data-name="Path 162" d="M28.9,685.5a4.62,4.62,0,0,1-.7.7.651.651,0,0,1-.9-.2,1.02,1.02,0,0,1,.2-.9,14.134,14.134,0,0,1,10.6-6.7c.5,0,3,0,2.5,1-.2.5-2.5.6-3,.7a17.127,17.127,0,0,0-5.9,2.9,13.519,13.519,0,0,0-2.8,2.5Z" fill="#b6aa00"/>
    <path id="Path_163" data-name="Path 163" d="M30.3,684.5a11.334,11.334,0,0,1,7.5-2.3,2.768,2.768,0,0,1,1.3.3,1.589,1.589,0,0,1,.8,1,1.426,1.426,0,0,1-.6,1.2,7.46,7.46,0,0,1-1.2.7,18.281,18.281,0,0,0-7.2,5.4c-.9,1.1-1.6,2.8-2.6,3.8a1.852,1.852,0,0,1-1.8.6c-1.4-.4-1.2-2.6-.9-3.7a13.807,13.807,0,0,1,4.7-7Z" fill="#fcee21" opacity="0.6"/>
    <path id="Path_164" data-name="Path 164" d="M27.8,695a.752.752,0,0,0-.5-.7.875.875,0,0,0-.9.5c-.5.6-2.6,4.2-1.3,4.5.6.1,1.3-.7,1.5-1.1a9.58,9.58,0,0,0,1.2-3.2Z" fill="#b6aa00"/>
    <path id="Path_165" data-name="Path 165" d="M29.1,692.3a2.091,2.091,0,0,1-.4.6c-.2.2-.5.2-.6,0-.2-.2-.1-.5,0-.8A19.981,19.981,0,0,1,43,680.6a2.055,2.055,0,0,1,1.1,0,.849.849,0,0,1,.7.8c0,.6-.6.9-1.1,1.1-2.6,1-5.2,2-7.8,2.9a11.261,11.261,0,0,0-4.7,3.7,9.063,9.063,0,0,0-1.1,1.6,14,14,0,0,1-1,1.6Z" fill="#b6aa00"/>
  </g>
</svg>
