<svg xmlns="http://www.w3.org/2000/svg" width="38.239" height="43.681" viewBox="0 0 38.239 43.681">
  <g id="Group_80" data-name="Group 80" transform="translate(-23.4 -866.8)">
    <g id="Group_6" data-name="Group 6">
      <g id="Group_5" data-name="Group 5">
        <path id="Path_18" data-name="Path 18" d="M56.5,905.8l.2,1.2-.6.7-.8-.1-.7.1-.6-.8-.1-1.5,1.4-.3Z" fill="#60515c"/>
        <path id="Path_19" data-name="Path 19" d="M55,906.9v.4h.5l.4.1.4-.5-.1-.5-.5.4Z" fill="#777076"/>
      </g>
      <path id="Path_20" data-name="Path 20" d="M54.5,903.8a5.85,5.85,0,0,1,2.8,2.8,2.045,2.045,0,0,1,0,1.1,1.445,1.445,0,0,1-1,.7,2.437,2.437,0,0,1-1.2,0c-1.2-.3-2.6-2-3.5-2.9a34.784,34.784,0,0,1-3.6-5s1.6.7,2.5,1.2a31.554,31.554,0,0,1,4,2.1Z" fill="#efe8da" opacity="0.35"/>
    </g>
    <g id="Group_8" data-name="Group 8">
      <g id="Group_7" data-name="Group 7">
        <path id="Path_21" data-name="Path 21" d="M59.4,891.5l1.1,2.6-.8,1h-.9l-1.5-.6-.9-.6-.6-1,1.3-1.3Z" fill="#60515c"/>
        <path id="Path_22" data-name="Path 22" d="M59.4,893.2l-1,.6.3.8.7.1.6-.7-.2-.5Z" fill="#777076"/>
      </g>
      <path id="Path_23" data-name="Path 23" d="M56.9,889a15.726,15.726,0,0,1,3.8,3,10.93,10.93,0,0,1,.8,1.5,2.03,2.03,0,0,1-.1,1.7,2.555,2.555,0,0,1-1.5,1.2,4.068,4.068,0,0,1-1.9,0,7.952,7.952,0,0,1-4.4-3.7,46.668,46.668,0,0,0-3-4.3c-.6-.8-1.5-1.8-2.1-2.5a9.952,9.952,0,0,0-1-1.1c-.2-.2-.7-.9-.7-.9a25.334,25.334,0,0,0,2.4,1.2c.9.3,1.8.7,2.7,1.1a22.181,22.181,0,0,1,5,2.8Z" fill="#efe8da" opacity="0.35"/>
    </g>
    <g id="Group_10" data-name="Group 10">
      <g id="Group_9" data-name="Group 9">
        <path id="Path_24" data-name="Path 24" d="M47.8,905.5l.1,2.3L46.5,909l-3-.6-1.7-2.2,1.4-1.4.1-1.5,2.7.3.4,1.1Z" fill="#60515c"/>
        <path id="Path_25" data-name="Path 25" d="M46.1,905.7l-.3,1-1,.7,1.2.8,1.2-.9V906Z" fill="#777076"/>
      </g>
      <path id="Path_26" data-name="Path 26" d="M43.1,900.1c2.2,1.1,5.2,2.6,6.1,5.9a4.236,4.236,0,0,1-.1,2.5,3.531,3.531,0,0,1-2.3,1.8,5.121,5.121,0,0,1-3-.1c-2.9-.7-5.1-3.1-6.8-5.6-1.7-2.6-10.3-13.5-10.3-13.5s6.6,4,7.9,4.6c2.8,1.4,5.4,3,8.5,4.4Z" fill="#efe8da" opacity="0.35"/>
    </g>
    <g id="Group_12" data-name="Group 12">
      <g id="Group_11" data-name="Group 11">
        <path id="Path_27" data-name="Path 27" d="M48.3,882.6l.7,3.5L47.4,888l-2.5-.1-2,.1-1.7-2.2-.3-4.4,4-1Z" fill="#60515c"/>
        <path id="Path_28" data-name="Path 28" d="M44,885.6l.2,1.3h1.2l1.4.2,1.2-1.3-.4-1.7L46,885.4Z" fill="#777076"/>
      </g>
      <path id="Path_29" data-name="Path 29" d="M43.2,877.6c2.7,1.3,6.4,3.2,7.5,7.2a4.088,4.088,0,0,1-3,5.3,7.321,7.321,0,0,1-3.6-.1c-3.5-.9-6.2-3.8-8.2-6.8-2.1-3.2-12.5-16.4-12.5-16.4s8,4.8,9.6,5.6c3.2,1.5,6.5,3.4,10.2,5.2Z" fill="#efe8da" opacity="0.35"/>
    </g>
  </g>
</svg>
