<svg xmlns="http://www.w3.org/2000/svg" width="17" height="17" viewBox="0 0 17 17">
  <g id="Group_87" data-name="Group 87" transform="translate(-125.5 -730.3)">
    <circle id="Ellipse_10" data-name="Ellipse 10" cx="8.5" cy="8.5" r="8.5" transform="translate(125.5 730.3)" fill="#ea5069"/>
    <path id="Path_61" data-name="Path 61" d="M129.6,736.2a4.18,4.18,0,0,1-.4,1,2.507,2.507,0,0,1-.4.7,1.135,1.135,0,0,1-.8.3.875.875,0,0,1-.6-.9,3.861,3.861,0,0,1,.8-2C128.9,734.6,129.7,735.4,129.6,736.2Z" fill="#d71920"/>
    <path id="Path_62" data-name="Path 62" d="M127.6,740.8a1.761,1.761,0,0,1,.8-1.8,3.287,3.287,0,0,1,1.7-.4c.4,0,.9-.1,1.2.2a1.384,1.384,0,0,1,.3,1.4,7.492,7.492,0,0,1-.4,1.6,1.445,1.445,0,0,1-.7,1,1.388,1.388,0,0,1-.9,0c-.8-.3-1.9-1-2-2Z" fill="#d71920"/>
    <path id="Path_63" data-name="Path 63" d="M132.8,735.8a.68.68,0,0,1,.4.8,1.555,1.555,0,0,1-.6.8,1.062,1.062,0,0,1-.8.1c-1.4-.2-.2-2.2,1-1.7Z" fill="#d71920"/>
    <path id="Path_64" data-name="Path 64" d="M141.3,734.6a8.47,8.47,0,0,0-11.5-3.1,8.2,8.2,0,0,0-3.2,3.2c3.8-2.2,6.6-2.4,10.1-.6,2.9,1.5,5.2,6.2,4.7,8.8a8.467,8.467,0,0,0-.1-8.3Z" opacity="0.2"/>
    <path id="Path_65" data-name="Path 65" d="M130.2,745a7.7,7.7,0,0,1-3.1-4,1.185,1.185,0,0,1-.1-.8c.1-.2.2-.6.4-.7a.972.972,0,0,1,.9.1,4.349,4.349,0,0,1,.7.6,12.657,12.657,0,0,0,4.9,3.2c.8.3,2.1.3,2.9.7a1.188,1.188,0,0,1,.8,1c0,.9-1.3,1.3-2,1.3a10.387,10.387,0,0,1-5.4-1.4Z" fill="#fcee21" opacity="0.2"/>
  </g>
</svg>
