<svg xmlns="http://www.w3.org/2000/svg" width="28.966" height="21.6" viewBox="0 0 28.966 21.6">
  <g id="Group_91" data-name="Group 91" transform="translate(-36.173 -634.6)">
    <circle id="Ellipse_14" data-name="Ellipse 14" cx="10.8" cy="10.8" r="10.8" transform="translate(39.8 634.6)" fill="#0084b6"/>
    <path id="Path_90" data-name="Path 90" d="M48.6,656a10.857,10.857,0,0,0,12.6-8.6,10.356,10.356,0,0,0-.5-5.8c.2,4.8-2.2,9.7-6.8,11.6-3.9,1.6-10.6.4-13.5-4.1a11.492,11.492,0,0,0,8.2,6.9Z" opacity="0.2"/>
    <path id="Path_91" data-name="Path 91" d="M47.7,636.6a8.817,8.817,0,0,1,6.4.4,1.8,1.8,0,0,1,.9.6,1.314,1.314,0,0,1,.3,1c-.1.4-.4.6-.8.8s-.8.1-1.1.2a16.244,16.244,0,0,0-7.1,2.1c-1,.6-2,1.8-3,2.2a1.8,1.8,0,0,1-1.6,0c-.9-.7-.2-2.3.4-3.1a10.086,10.086,0,0,1,5.6-4.2Z" fill="#fcee21" opacity="0.2"/>
    <path id="Path_92" data-name="Path 92" d="M36.7,651.9a1.421,1.421,0,0,0,.6-.2c.7-.4,1.3-.8,2-1.2-.2.2-.2.3-.2.6a.713.713,0,0,0,.3.6.947.947,0,0,0,1.1-.3,10.526,10.526,0,0,0,3-3.6,13.164,13.164,0,0,0,5.9-.7,1.329,1.329,0,0,0,1-.8.663.663,0,0,0-.2-.7c-.2-.1-.3-.4-.5-.4a13.053,13.053,0,0,0,4.7-1.2c.2-.1.3-.2.5-.3a.44.44,0,0,0,.1-.5c-.1-.3-.5-.3-.9-.3a22.637,22.637,0,0,0-5.7,1.4c.7-.6,1.4-1.2,2.1-1.7.2-.1.3-.3.4-.4a.637.637,0,0,0,0-.6.365.365,0,0,0-.5-.2c-.2.1-.4.1-.6.2a16.733,16.733,0,0,0-5,4.2,15.176,15.176,0,0,0-7.3.6,1.611,1.611,0,0,0-.7.4.778.778,0,0,0-.2.8c.1.3.5.4.8.5a12.65,12.65,0,0,0,2.8.3,11.829,11.829,0,0,0-3.7,2.6.829.829,0,0,0-.3.8,4.315,4.315,0,0,0,.5.1Z" fill="#0057b6"/>
    <path id="Path_93" data-name="Path 93" d="M56.4,648.9a1.05,1.05,0,0,0,.9.5,1.644,1.644,0,0,0,1-.2,7.587,7.587,0,0,0,4.2-4.4,4.034,4.034,0,0,0,1.1,0,.76.76,0,0,0,.6-.8.85.85,0,0,0-.3-.5,9.292,9.292,0,0,0-1-.5,3.9,3.9,0,0,0,2-1.3.663.663,0,0,0,.2-.7.536.536,0,0,0-.4-.3,1.487,1.487,0,0,0-.6.1,4.758,4.758,0,0,0-2.6,1.8.55.55,0,0,0-.5-.3,1.421,1.421,0,0,0-.6.2,4.842,4.842,0,0,0-1.7,2.7,11.4,11.4,0,0,0-6.2,1.5,1.47,1.47,0,0,0-.6.5c-.1.2-.2.5,0,.7.2.3.7.2,1,.2,1-.2,1.9-.4,2.9-.6a4.306,4.306,0,0,0-1.5,1.5.878.878,0,0,0-.1.7.52.52,0,0,0,.4.2c.2,0,.3,0,.4-.1a2.16,2.16,0,0,0,1.4-.9Z" fill="#0057b6"/>
  </g>
</svg>
