<svg xmlns="http://www.w3.org/2000/svg" width="16.9" height="16.8" viewBox="0 0 16.9 16.8">
  <g id="Group_85" data-name="Group 85" transform="translate(-19.9 -1029.4)">
    <circle id="Ellipse_8" data-name="Ellipse 8" cx="8.4" cy="8.4" r="8.4" transform="translate(20 1029.4)" fill="#008c44"/>
    <path id="Path_51" data-name="Path 51" d="M30.8,1042.3a2.694,2.694,0,0,1,.8-.7,2.507,2.507,0,0,1,.7-.4.831.831,0,0,1,.8.2,1.1,1.1,0,0,1,.1,1.1,3.436,3.436,0,0,1-1.6,1.3C30.6,1044,30.3,1042.9,30.8,1042.3Z" fill="#005221"/>
    <path id="Path_52" data-name="Path 52" d="M34.9,1039.3a1.839,1.839,0,0,1-1.7,1.2,3.371,3.371,0,0,1-1.7-.5c-.4-.2-.8-.4-.9-.8a1.485,1.485,0,0,1,.4-1.4,13.56,13.56,0,0,1,1.2-1.2,1.606,1.606,0,0,1,1.1-.5,1.234,1.234,0,0,1,.8.4c.6.8,1.2,1.9.8,2.8Z" fill="#005221"/>
    <path id="Path_53" data-name="Path 53" d="M27.9,1041a.908.908,0,0,1,0-1,1.086,1.086,0,0,1,.9-.4,1.135,1.135,0,0,1,.8.3C30.7,1041,28.7,1042.1,27.9,1041Z" fill="#005221"/>
    <path id="Path_54" data-name="Path 54" d="M19.9,1037.8a8.408,8.408,0,0,0,8.5,8.4,8.309,8.309,0,0,0,4.4-1.2c-4.4.1-6.9-1.2-9-4.5-1.8-2.8-1.4-8,.3-10a8.789,8.789,0,0,0-4.2,7.3Z" opacity="0.2"/>
    <path id="Path_55" data-name="Path 55" d="M34.7,1034.3a7.908,7.908,0,0,1,.7,5c-.1.3-.1.6-.3.8a1.012,1.012,0,0,1-.7.4.752.752,0,0,1-.7-.5,6.894,6.894,0,0,0-.3-.8,14.146,14.146,0,0,0-2.6-5.2c-.6-.7-1.6-1.3-2.1-2a1.322,1.322,0,0,1-.2-1.2c.4-.8,1.8-.5,2.4-.2a9.64,9.64,0,0,1,3.8,3.7Z" fill="#fcee21" opacity="0.2"/>
  </g>
</svg>
