<svg xmlns="http://www.w3.org/2000/svg" width="27.926" height="19.8" viewBox="0 0 27.926 19.8">
  <g id="Group_78" data-name="Group 78" transform="translate(-16.974 -215.1)">
    <ellipse id="Ellipse_3" data-name="Ellipse 3" cx="9.8" cy="9.9" rx="9.8" ry="9.9" transform="translate(21.3 215.1)" fill="#eedc00"/>
    <path id="Path_9" data-name="Path 9" d="M26.8,233.8A9.849,9.849,0,0,0,40,229.3a10.735,10.735,0,0,0,1-5.2c-1,4.3-4.3,8-8.8,8.6-3.8.5-9.4-2.2-10.8-6.9a9.674,9.674,0,0,0,5.4,8Z" opacity="0.1"/>
    <path id="Path_10" data-name="Path 10" d="M30.7,216.5a8.121,8.121,0,0,1,5.6,1.9,2.336,2.336,0,0,1,.7.7.908.908,0,0,1,0,1,1.05,1.05,0,0,1-.9.5c-.4,0-.7-.1-1-.1a15.156,15.156,0,0,0-6.7.1c-1,.2-2.2,1.1-3.2,1.2a1.419,1.419,0,0,1-1.4-.4c-.6-.9.4-2.1,1.1-2.6a8.768,8.768,0,0,1,5.8-2.3Z" fill="#fcee21" opacity="0.6"/>
    <path id="Path_11" data-name="Path 11" d="M17.3,227.3a.749.749,0,0,0,.5-.1c.7-.2,1.3-.4,2-.6a.781.781,0,0,0-.4.4c-.1.2,0,.4.2.6a1.376,1.376,0,0,0,1.1.1,7.837,7.837,0,0,0,3.5-2.5,12.257,12.257,0,0,0,5.4.8,1.16,1.16,0,0,0,1-.4.629.629,0,0,0,0-.6c-.1-.1-.2-.4-.3-.5a10.913,10.913,0,0,0,4.4.1c.2,0,.3-.1.5-.1s.3-.2.2-.4c0-.3-.4-.4-.7-.5a19.574,19.574,0,0,0-5.4-.2c.8-.3,1.5-.7,2.3-1,.2-.1.4-.1.5-.3a.764.764,0,0,0,.2-.5c0-.2-.2-.3-.4-.4h-.6a14.843,14.843,0,0,0-5.4,2.5,14.554,14.554,0,0,0-6.5-1.3,1.7,1.7,0,0,0-.7.1.822.822,0,0,0-.4.6c0,.3.3.5.6.6a9.889,9.889,0,0,0,2.4.9,12.971,12.971,0,0,0-3.9,1.4c-.2.1-.5.3-.4.6-.1.6.1.7.3.7Z" fill="#b6aa00"/>
    <path id="Path_12" data-name="Path 12" d="M35.3,229.5a1.057,1.057,0,0,0,.6.7,3.083,3.083,0,0,0,1,.1,6.675,6.675,0,0,0,4.8-2.9c.3.1.6.3.9.2s.7-.2.7-.5a.735.735,0,0,0-.2-.6c-.2-.2-.6-.5-.7-.6a3.936,3.936,0,0,0,2.1-.6.675.675,0,0,0,.4-.6c0-.2-.2-.3-.3-.4a.749.749,0,0,0-.5-.1,3.775,3.775,0,0,0-2.7,1,.43.43,0,0,0-.4-.4,1.268,1.268,0,0,0-.6.1,3.743,3.743,0,0,0-2.1,2,9.56,9.56,0,0,0-5.8-.1c-.2.1-.5.1-.6.3s-.3.4-.2.6c.1.3.5.4.9.4a24.367,24.367,0,0,0,2.7.1,5.854,5.854,0,0,0-1.7,1,.55.55,0,0,0-.3.5c0,.1.2.2.3.3s.2,0,.4,0a1.793,1.793,0,0,0,1.3-.5Z" fill="#b6aa00"/>
  </g>
</svg>
