<svg xmlns="http://www.w3.org/2000/svg" width="9.801" height="9.889" viewBox="0 0 9.801 9.889">
  <g id="Group_79" data-name="Group 79" transform="translate(-46.1 -197.211)">
    <circle id="Ellipse_4" data-name="Ellipse 4" cx="4.9" cy="4.9" r="4.9" transform="translate(46.1 197.3)" fill="#008c44"/>
    <path id="Path_13" data-name="Path 13" d="M48.5,200.5c0,.2-.2.4-.2.6-.1.1-.2.3-.3.4a.44.44,0,0,1-.5.1.6.6,0,0,1-.3-.6,2.22,2.22,0,0,1,.5-1.1c.5-.4.9.1.8.6Z" fill="#005221"/>
    <path id="Path_14" data-name="Path 14" d="M47.2,203.1a1.1,1.1,0,0,1,.6-1,1.8,1.8,0,0,1,1-.2.952.952,0,0,1,.7.2.755.755,0,0,1,.1.8l-.3.9c-.1.2-.2.5-.4.6s-.3,0-.5,0c-.6-.3-1.2-.7-1.2-1.3Z" fill="#005221"/>
    <path id="Path_15" data-name="Path 15" d="M50.4,200.4a.365.365,0,0,1,.2.5c-.1.2-.2.4-.4.4a.9.9,0,0,1-.5.1c-.8-.2,0-1.4.7-1Z" fill="#005221"/>
    <path id="Path_16" data-name="Path 16" d="M55.4,200a5,5,0,0,0-6.6-2.3,4.939,4.939,0,0,0-2,1.8c2.3-1.1,4-1.1,5.9,0a5.781,5.781,0,0,1,2.4,5.4A5.02,5.02,0,0,0,55.4,200Z" opacity="0.2"/>
    <path id="Path_17" data-name="Path 17" d="M48.5,205.6a4.208,4.208,0,0,1-1.6-2.5c0-.2-.1-.3,0-.5s.1-.3.3-.4.3,0,.5.1a.781.781,0,0,1,.4.4,6.592,6.592,0,0,0,2.7,2c.5.2,1.2.3,1.6.5a.675.675,0,0,1,.4.6c0,.5-.8.7-1.2.7a4.367,4.367,0,0,1-3.1-.9Z" fill="#fcee21" opacity="0.2"/>
  </g>
</svg>
