<svg xmlns="http://www.w3.org/2000/svg" width="7.8" height="8.426" viewBox="0 0 7.8 8.426">
  <g id="Group_93" data-name="Group 93" transform="translate(-20.6 -1086.3)">
    <circle id="Ellipse_16" data-name="Ellipse 16" cx="3.9" cy="3.9" r="3.9" transform="translate(20.6 1086.7)" fill="#0084b6"/>
    <path id="Path_98" data-name="Path 98" d="M21.9,1087.7a3.927,3.927,0,0,0-.2,5.5,4.184,4.184,0,0,0,1.8,1.1,3.956,3.956,0,0,1,2.1-7.4,3.831,3.831,0,0,0-3.7.8Z" opacity="0.2"/>
    <path id="Path_99" data-name="Path 99" d="M27.7,1091.6a2.979,2.979,0,0,1-1.5,1.8c-.1.1-.2.1-.4.2s-.3,0-.4-.1a.6.6,0,0,1-.1-.4c0-.1.1-.2.2-.4a5.813,5.813,0,0,0,.9-2.5,5.652,5.652,0,0,1,0-1.3c0-.2.1-.4.3-.4.4-.1.7.4.8.8a2.29,2.29,0,0,1,.2,2.3Z" fill="#fcee21" opacity="0.2"/>
    <path id="Path_100" data-name="Path 100" d="M23.6,1094.7a5.073,5.073,0,0,0,2.4-.4c.1,0,0-.1,0-.1a7.1,7.1,0,0,1-1.8-.8v-.1a11.221,11.221,0,0,0,2.6-2.2v-.1c-.7-.7-1.4-1.2-2.2-1.9v-.1a25.3,25.3,0,0,1,2.2-1.3v-.1a5.5,5.5,0,0,0-1.7-1.3h0a3.839,3.839,0,0,1,1.1,1.1v.1a5.531,5.531,0,0,0-2.6,1.4v.1a14.335,14.335,0,0,0,2.3,2v.1a7.62,7.62,0,0,1-2.7,2v.1a4.99,4.99,0,0,0,1.7,1.1v.1c-.4.1-.9.2-1.3.3Z" fill="#0057b6"/>
    <path id="Path_101" data-name="Path 101" d="M24.5,1086.6a9.162,9.162,0,0,0-2.4,1.9h0a7.938,7.938,0,0,0,1.9,2.2v.1a6.672,6.672,0,0,1-2.5,1.3h0a5.024,5.024,0,0,0,.5,1.3h0a4.868,4.868,0,0,1-1.1-1.8h0a18.617,18.617,0,0,0,2.4-.9v-.1a10.609,10.609,0,0,1-1.8-2.2h0a6.329,6.329,0,0,1,3-1.8Z" fill="#0057b6"/>
  </g>
</svg>
