<svg xmlns="http://www.w3.org/2000/svg" width="21.2" height="23.487" viewBox="0 0 21.2 23.487">
  <g id="Group_110" data-name="Group 110" transform="translate(-167.4 -109.213)">
    <circle id="Ellipse_34" data-name="Ellipse 34" cx="10.5" cy="10.5" r="10.5" transform="translate(167.4 110.1)" fill="#0084b6"/>
    <path id="Path_270" data-name="Path 270" d="M185.1,112.9a10.532,10.532,0,0,0-17.4,5.6c2.3-4.1,6.9-6.9,11.6-6.1,4.1.7,8.9,5.1,8.9,10.4a10.615,10.615,0,0,0-3.1-9.9Z" opacity="0.2"/>
    <path id="Path_271" data-name="Path 271" d="M187.4,125.7c-.1.2-.3.5-.6.5-.4,0-.5-.5-.5-.9-.1-1.1-.1-2.2-.2-3.4-.1-1.6-.1-3.2-.2-4.8a1.7,1.7,0,0,1,.1-.7.664.664,0,0,1,.5-.4c.4,0,.6.4.7.7.6,1.5,1.4,2.8,1.4,4.4a9.863,9.863,0,0,1-.3,2.4c-.2.8-.7,1.5-.9,2.2Z" fill="#0057b6"/>
    <path id="Path_272" data-name="Path 272" d="M182.6,121.1a11.533,11.533,0,0,1,.2-3.7,6.81,6.81,0,0,1,1.6-3.3,3.815,3.815,0,0,0,1.1-1.4c.2-.6-.1-1.4-.8-1.3-.3,0-.6.3-.8.5a15.96,15.96,0,0,0-3.1,15.4,6.983,6.983,0,0,0,1.3,2.4,2.737,2.737,0,0,0,2.2.9c.6,0,1.4-.3,1-1-.4-.6-1.2-1-1.6-1.6a6.5,6.5,0,0,1-.8-3.1,24.329,24.329,0,0,1-.3-3.8Z" fill="#0057b6"/>
    <path id="Path_273" data-name="Path 273" d="M176.8,117.9a2.1,2.1,0,0,1-.4,1.1.8.8,0,0,1-1,.2,1.344,1.344,0,0,1-.2-.9,15.622,15.622,0,0,1,4.1-8.2,2.258,2.258,0,0,1,1.1-.8c.8-.3,1.9.2,1.6,1.1-.3.8-1.6,1.3-2.2,1.9a10.283,10.283,0,0,0-3,5.6Z" fill="#0057b6"/>
    <path id="Path_274" data-name="Path 274" d="M176.3,127.2c-.1-1.8.1-3.5.1-5.3,0-.4-.1-.9-.5-.9-.3,0-.4.2-.6.5a8.624,8.624,0,0,0-1.2,5.4,8.992,8.992,0,0,0,2.4,5.1,2.589,2.589,0,0,0,1.1.7c.3,0,.9-.3.8-.7-.1-.3-.9-.9-1.1-1.3a8.785,8.785,0,0,1-1-3.5Z" fill="#0057b6"/>
    <path id="Path_275" data-name="Path 275" d="M169.3,127.4c0,.2.1.4,0,.6a.365.365,0,0,1-.5.2.52.52,0,0,1-.2-.4,21.354,21.354,0,0,1-.8-4.4V123c0-.1.2-.2.3-.3s.3.1.4.2a2.483,2.483,0,0,1,.1.9c.1.4.1.8.2,1.2l.5,2.4Z" fill="#0057b6"/>
    <path id="Path_276" data-name="Path 276" d="M168.7,119.5a2.354,2.354,0,0,1-.2.8.43.43,0,0,1-.7.2.779.779,0,0,1-.3-.7,11.448,11.448,0,0,1,4-9.2c.3-.2,1.9-1.3,2.1-.5.1.4-1.4,1.5-1.7,1.8a11.7,11.7,0,0,0-2.6,4.6,15.944,15.944,0,0,0-.6,3Z" fill="#0057b6"/>
    <path id="Path_277" data-name="Path 277" d="M175.9,128.8a8.945,8.945,0,0,1-5.1-3.6,3.128,3.128,0,0,1-.5-1,.951.951,0,0,1,1.3-1.2,3.128,3.128,0,0,1,1,.5,15.188,15.188,0,0,0,6.9,1.9c1.1.1,2.6-.4,3.6-.2a1.653,1.653,0,0,1,1.3.8c.4,1.1-1.1,2-1.9,2.3a9.921,9.921,0,0,1-6.6.5Z" fill="#fcee21" opacity="0.2"/>
    <path id="Path_278" data-name="Path 278" d="M172.2,126.2a.481.481,0,0,0-.6-.2c-.3.1-.4.5-.4.8,0,.6.2,4,1.1,3.6.4-.2.5-1,.5-1.4a8.206,8.206,0,0,0-.6-2.8Z" fill="#0057b6"/>
    <path id="Path_279" data-name="Path 279" d="M171.9,123.8c0,.2.1.4,0,.6s-.2.3-.4.3a.55.55,0,0,1-.3-.5,16.144,16.144,0,0,1,4.7-14.3,1.794,1.794,0,0,1,.7-.5.778.778,0,0,1,.8.2c.3.4,0,.9-.2,1.2l-3.9,5.4a7.983,7.983,0,0,0-1.4,4.5,8.552,8.552,0,0,0,0,1.6c-.2.4.1,1.1,0,1.5Z" fill="#0057b6"/>
  </g>
</svg>
