<svg xmlns="http://www.w3.org/2000/svg" width="41.6" height="41.8" viewBox="0 0 41.6 41.8">
  <g id="Group_96" data-name="Group 96" transform="translate(-160.9 -312.5)">
    <ellipse id="Ellipse_19" data-name="Ellipse 19" cx="20.8" cy="20.9" rx="20.8" ry="20.9" transform="translate(160.9 312.5)" fill="#0084b6"/>
    <path id="Path_116" data-name="Path 116" d="M194.2,334.9a10.434,10.434,0,0,0-.8,2.5,7.144,7.144,0,0,0-.2,2,2.087,2.087,0,0,0,1.1,1.6,2.278,2.278,0,0,0,2.6-.9,7.918,7.918,0,0,0,1.4-5c-.3-2.3-3.2-1.9-4.1-.2Z" fill="#0057b6"/>
    <path id="Path_117" data-name="Path 117" d="M191.2,347a4.649,4.649,0,0,0,1.1-4.9,8.878,8.878,0,0,0-2.7-3.4,4.215,4.215,0,0,0-2.6-1.4c-1.2,0-2.1,1.2-2.7,2.3a25.9,25.9,0,0,0-1.7,3.8,3.906,3.906,0,0,0-.1,3,2.5,2.5,0,0,0,1.7,1.3c2.1.7,5.2,1,7-.7Z" fill="#0057b6"/>
    <path id="Path_118" data-name="Path 118" d="M188.6,329.4a2.016,2.016,0,0,0-2.1,1,3.1,3.1,0,0,0-.1,2.5,3.389,3.389,0,0,0,1.4,1.5c3.3,1.5,3.9-4.2.8-5Z" fill="#0057b6"/>
    <path id="Path_119" data-name="Path 119" d="M161.5,328.6a20.937,20.937,0,0,1,25.1-15.5,20.258,20.258,0,0,1,9.8,5.5c-10.5-2.7-17.3-1-24.2,5.5-5.9,5.6-7.9,18.3-4.9,24.2a20.33,20.33,0,0,1-5.8-19.7Z" opacity="0.2"/>
    <path id="Path_120" data-name="Path 120" d="M194.9,345.5a17.5,17.5,0,0,0,4.4-11.6,5.105,5.105,0,0,0-.3-2.1,2.317,2.317,0,0,0-1.5-1.4,2.27,2.27,0,0,0-2,.8,12.226,12.226,0,0,0-1.2,1.9A31.491,31.491,0,0,1,185,344c-1.8,1.3-4.7,2.2-6.3,3.7a3.174,3.174,0,0,0-1.2,2.8c.6,2.2,4,2.1,5.7,1.8a21.673,21.673,0,0,0,11.7-6.8Z" fill="#fcee21" opacity="0.2"/>
  </g>
</svg>
