<svg xmlns="http://www.w3.org/2000/svg" width="7.4" height="7.415" viewBox="0 0 7.4 7.415">
  <g id="Group_109" data-name="Group 109" transform="translate(-48 -16.1)">
    <circle id="Ellipse_33" data-name="Ellipse 33" cx="3.7" cy="3.7" r="3.7" transform="translate(48 16.1)" fill="#eedc00"/>
    <path id="Path_265" data-name="Path 265" d="M53.7,18.8a1.38,1.38,0,0,1-.3-.4c-.1-.1-.1-.2-.2-.3s0-.2.1-.3a.446.446,0,0,1,.5,0,1.157,1.157,0,0,1,.5.7c.2.4-.3.5-.6.3Z" fill="#b6aa00"/>
    <path id="Path_266" data-name="Path 266" d="M52.5,17a.752.752,0,0,1,.5.7,1.445,1.445,0,0,1-.2.7,1.38,1.38,0,0,1-.3.4c-.2.1-.4-.1-.6-.2-.2-.2-.4-.3-.5-.5a.764.764,0,0,1-.2-.5c0-.1.1-.2.2-.3a1.325,1.325,0,0,1,1.1-.3Z" fill="#b6aa00"/>
    <path id="Path_267" data-name="Path 267" d="M53.1,20.1a.3.3,0,0,1-.4,0,.52.52,0,0,1-.2-.4.367.367,0,0,1,.1-.3c.5-.5,1,.4.5.7Z" fill="#b6aa00"/>
    <path id="Path_268" data-name="Path 268" d="M48.7,21.9a3.681,3.681,0,0,0,5.1,1,3.738,3.738,0,0,0,1.3-1.5,4.065,4.065,0,0,1-4.3.6,4.349,4.349,0,0,1-2.3-3.7A3.581,3.581,0,0,0,48.7,21.9Z" opacity="0.1"/>
    <path id="Path_269" data-name="Path 269" d="M53.2,17a3.814,3.814,0,0,1,1.5,1.6c0,.1.1.2.1.4s-.1.2-.2.3-.3,0-.4,0-.2-.1-.3-.2a4.768,4.768,0,0,0-2.2-1.2c-.4-.1-.9-.1-1.3-.2a.781.781,0,0,1-.4-.4c0-.4.5-.6.8-.6a3.688,3.688,0,0,1,2.4.3Z" fill="#fcee21" opacity="0.6"/>
  </g>
</svg>
