<svg xmlns="http://www.w3.org/2000/svg" width="44.7" height="44.116" viewBox="0 0 44.7 44.116">
  <g id="Group_76" data-name="Group 76" transform="translate(-162.9 -682.783)">
    <circle id="Ellipse_1" data-name="Ellipse 1" cx="22" cy="22" r="22" transform="translate(163.6 682.9)" fill="#008c44"/>
    <path id="Path_1" data-name="Path 1" d="M188.6,683a21.939,21.939,0,0,0-24.8,18.8,22.264,22.264,0,0,0,1.6,11.8c-1-9.7,3.6-20.1,12.6-24.4,7.8-3.7,21.5-1.9,27.9,7.1A22.234,22.234,0,0,0,188.6,683Z" opacity="0.2"/>
    <path id="Path_2" data-name="Path 2" d="M192.4,722.5a19.314,19.314,0,0,1-13.2-.1,7.814,7.814,0,0,1-2-1.1,2.27,2.27,0,0,1-.8-2,2.341,2.341,0,0,1,1.5-1.7,8.521,8.521,0,0,1,2.3-.4,31.9,31.9,0,0,0,14.2-5c1.9-1.2,3.9-3.8,6-4.8a3.078,3.078,0,0,1,3.2-.1c1.9,1.4.6,4.8-.4,6.3-1.3,2.5-4.4,6.5-10.8,8.9Z" fill="#fcee21" opacity="0.2"/>
    <path id="Path_3" data-name="Path 3" d="M163.8,715.8a25.116,25.116,0,0,0,10.4,9,.442.442,0,0,0,.6-.6,32.543,32.543,0,0,1-2.8-10.7c0-.2.2-.4.4-.3a52.644,52.644,0,0,0,19.2,3.5.265.265,0,0,0,.3-.3c.8-5.5.3-10.5.4-16.6,0-.2.2-.3.4-.3,4.6,1,9.8,3.7,13.9,5.2.2.1.4,0,.4-.2,1.1-3.6.5-8.3-.4-12-.1-.2-.2-.2-.1,0a16.76,16.76,0,0,1-.9,8.6c-.1.2-.3.2-.5.1a35.95,35.95,0,0,0-15.3-6.4c-.2,0-.3.1-.4.3a68.318,68.318,0,0,0-.7,17.5.265.265,0,0,1-.3.3c-6-.5-13.3-2-18.5-5.1a.365.365,0,0,0-.5.2c-.9,3.3.4,7.9,1.4,11.3.1.2-.2.5-.4.4-2.3-.8-4.5-2.7-6.5-4,0,0-.1-.1-.1.1Z" fill="#005221"/>
    <path id="Path_4" data-name="Path 4" d="M202.9,690.5a50.375,50.375,0,0,0-17-3.7c-.1,0-.2,0-.2.1a55.351,55.351,0,0,0-3.1,16.1.215.215,0,0,1-.2.2c-4.4-1.2-11.6-3.6-14.9-6.7a.188.188,0,0,0-.3,0,19.122,19.122,0,0,0-3.9,7.1c-.1.2-.4.2-.4-.1.7-3.6,2-8.6,4-11.2a.188.188,0,0,1,.3,0c1.2.9,9.6,6.8,12.7,7.5.1,0,.2,0,.2-.2.1-1.7,1.2-13,3-15.8,0-.1.1-.1.2-.1,1.2,0,13.5.5,19.8,6.2.1.4,0,.7-.2.6Z" fill="#005221"/>
  </g>
</svg>
