<svg xmlns="http://www.w3.org/2000/svg" width="12.179" height="11.811" viewBox="0 0 12.179 11.811">
  <g id="Group_88" data-name="Group 88" transform="translate(-117.21 -1047.454)">
    <circle id="Ellipse_11" data-name="Ellipse 11" cx="5.4" cy="5.4" r="5.4" transform="matrix(0.995, -0.099, 0.099, 0.995, 117.294, 1048.518)" fill="#d60080"/>
    <path id="Path_66" data-name="Path 66" d="M117.8,1053.4a5.378,5.378,0,0,0,8.2,4.6,5.853,5.853,0,0,1-6.3-2.2,5.794,5.794,0,0,1,.8-7,5.066,5.066,0,0,0-2.7,4.6Z" opacity="0.2"/>
    <path id="Path_67" data-name="Path 67" d="M121.8,1052.9a.78.78,0,0,1,.4.4c.1.2.1.4-.1.5s-.3,0-.5-.1a7.364,7.364,0,0,1-2.8-3.7.821.821,0,0,1-.1-.7c0-.4.5-.9.9-.5.3.3.3,1,.4,1.4A4.243,4.243,0,0,0,121.8,1052.9Z" fill="#720040"/>
    <path id="Path_68" data-name="Path 68" d="M125.9,1055.2c-.8-.3-1.6-.9-2.4-1.3a.446.446,0,0,0-.5,0c-.1.1,0,.3.1.4a4.889,4.889,0,0,0,2.2,1.8,4.781,4.781,0,0,0,2.9,0,2.09,2.09,0,0,0,.6-.4c.1-.2.1-.5-.1-.5s-.6.2-.8.2a2.692,2.692,0,0,1-2-.2Z" fill="#720040"/>
    <path id="Path_69" data-name="Path 69" d="M124.6,1056.9a.215.215,0,0,0-.2.2.265.265,0,0,0,.3.3c.3.2,1.9.8,1.9.3,0-.2-.3-.5-.5-.6-.5,0-1.2-.2-1.5-.2Z" fill="#720040"/>
    <path id="Path_70" data-name="Path 70" d="M123.4,1056.6c.1,0,.2.1.3.1s.1.2,0,.3a.188.188,0,0,1-.3,0,8.058,8.058,0,0,1-5.5-5.4.6.6,0,0,1-.1-.4.319.319,0,0,1,.3-.3.664.664,0,0,1,.5.4c.5,1,1.1,2,1.6,3a4.9,4.9,0,0,0,1.8,1.7c.2.1.5.3.7.4a.663.663,0,0,1,.7.2Z" fill="#720040"/>
    <path id="Path_71" data-name="Path 71" d="M124.4,1058.6c.1,0,.2.1.3.1s.1.2,0,.3a.139.139,0,0,1-.2,0,7.946,7.946,0,0,1-2.2-.6c-.1,0-.1-.1-.2-.1s-.1-.1-.1-.2.1-.1.2-.1.3.1.4.1c.2.1.4.1.6.2.5.1.8.2,1.2.3Z" fill="#720040"/>
    <path id="Path_72" data-name="Path 72" d="M120.7,1057.1c.1.1.2.1.3.3s.1.3,0,.4-.2,0-.4,0a5.862,5.862,0,0,1-3.3-3.9c-.1-.2-.2-1.2.2-1.1.2.1.4,1,.5,1.2a8.553,8.553,0,0,0,1.5,2.2,6.228,6.228,0,0,0,1.2.9Z" fill="#720040"/>
    <path id="Path_73" data-name="Path 73" d="M127.2,1051.1a4.451,4.451,0,0,1,.4,3.2.764.764,0,0,1-.2.5c-.1.1-.3.3-.5.2a.446.446,0,0,1-.4-.3,1.055,1.055,0,0,0-.2-.5,8.669,8.669,0,0,0-1.7-3.3,8.637,8.637,0,0,1-1.4-1.3.605.605,0,0,1-.1-.8c.3-.5,1.1-.3,1.6-.1a6.763,6.763,0,0,1,2.5,2.4Z" fill="#fcee21" opacity="0.2"/>
    <path id="Path_74" data-name="Path 74" d="M127.8,1049.8a.6.6,0,0,1,.1.4c-.1.2-.3.1-.5,0-.5-.2-1.1-.5-1.6-.7-.8-.3-1.5-.7-2.2-1-.1-.1-.2-.1-.3-.2a.367.367,0,0,1-.1-.3c.1-.2.3-.2.5-.2a6.6,6.6,0,0,1,2.4.3,3.592,3.592,0,0,1,1,.7c.3.3.4.7.7,1Z" fill="#720040"/>
    <path id="Path_75" data-name="Path 75" d="M124.6,1051a9.149,9.149,0,0,1-1.7-.9,4.428,4.428,0,0,1-1.2-1.5,2.01,2.01,0,0,0-.4-.8c-.2-.2-.7-.2-.8,0s0,.3.1.5a8.311,8.311,0,0,0,6.4,4.9,2.251,2.251,0,0,0,1.4-.1,1.22,1.22,0,0,0,.9-.8c.1-.3.2-.7-.2-.7s-.7.3-1.1.4a4.528,4.528,0,0,1-1.6-.3,7.506,7.506,0,0,1-1.8-.7Z" fill="#720040"/>
  </g>
</svg>
