<svg xmlns="http://www.w3.org/2000/svg" width="65.775" height="45.545" viewBox="0 0 65.775 45.545">
  <g id="Group_81" data-name="Group 81" transform="translate(-122.5 -1070.6)">
    <g id="Group_15" data-name="Group 15">
      <g id="Group_14" data-name="Group 14">
        <path id="Path_30" data-name="Path 30" d="M187.7,1114.2l.1.8-.4.5h-1.1l-.4-.6v-1l.9-.3Z" fill="#60515c"/>
        <path id="Path_31" data-name="Path 31" d="M186.6,1114.9l.1.3h.3l.3.1.3-.4-.1-.4-.4.3Z" fill="#777076"/>
      </g>
      <path id="Path_32" data-name="Path 32" d="M186.2,1112.7a4.546,4.546,0,0,1,2,2.1,1.1,1.1,0,0,1,0,.8.752.752,0,0,1-.7.5,2.719,2.719,0,0,1-.9,0c-.9-.2-1.9-1.5-2.5-2.1-.9-1-2.9-3.7-2.6-3.6,0,0,1.1.5,1.8.8a16.107,16.107,0,0,1,2.9,1.5Z" fill="#efe8da" opacity="0.35"/>
    </g>
    <g id="Group_17" data-name="Group 17">
      <g id="Group_16" data-name="Group 16">
        <path id="Path_33" data-name="Path 33" d="M140.6,1082.3l.5,2.4-1.2,1.5-1.8-.2-1.5.2-1.2-1.6-.2-3.2,2.9-.7Z" fill="#60515c"/>
        <path id="Path_34" data-name="Path 34" d="M137.4,1084.4l.2.9h.9l1,.2.9-1-.3-1.2-1.2.9Z" fill="#777076"/>
      </g>
      <path id="Path_35" data-name="Path 35" d="M136.9,1078.6c2,.9,4.6,2.3,5.4,5.2a3.3,3.3,0,0,1-.1,2.2,3.534,3.534,0,0,1-2,1.6,3.877,3.877,0,0,1-2.6-.1c-2.5-.6-4.5-2.8-6-5-1.5-2.3-9.1-11.9-9.1-11.9s5.8,3.5,7,4.1c2.3,1.2,4.7,2.6,7.4,3.9Z" fill="#efe8da" opacity="0.35"/>
    </g>
  </g>
</svg>
