<svg xmlns="http://www.w3.org/2000/svg" width="10.2" height="10.256" viewBox="0 0 10.2 10.256">
  <g id="Group_97" data-name="Group 97" transform="translate(-182.7 -603.544)">
    <circle id="Ellipse_20" data-name="Ellipse 20" cx="5.1" cy="5.1" r="5.1" transform="translate(182.7 603.6)" fill="#5b57a6"/>
    <path id="Path_121" data-name="Path 121" d="M186.6,611.6c.2,0,.4.1.6.1s.3.1.5.2a.4.4,0,0,1,.2.4c0,.2-.3.4-.5.5a1.676,1.676,0,0,1-1.2-.3c-.4-.3,0-.9.4-.9Z" fill="#2c2d8b"/>
    <path id="Path_122" data-name="Path 122" d="M189.6,612.4a1.314,1.314,0,0,1-1.2-.3,2.994,2.994,0,0,1-.4-1,.854.854,0,0,1,0-.7.829.829,0,0,1,.8-.3,3.4,3.4,0,0,1,1,.1,1.08,1.08,0,0,1,.7.3.9.9,0,0,1,.1.5,1.806,1.806,0,0,1-1,1.4Z" fill="#2c2d8b"/>
    <path id="Path_123" data-name="Path 123" d="M186.1,609.7a.567.567,0,0,1,1,0,.764.764,0,0,1,.2.5c-.1.8-1.4.3-1.2-.5Z" fill="#2c2d8b"/>
    <path id="Path_124" data-name="Path 124" d="M184.6,604.7a5.2,5.2,0,0,0-.8,7.2,4.606,4.606,0,0,0,2.3,1.6c-1.7-2-2.1-3.7-1.4-6a6.17,6.17,0,0,1,4.9-3.7,5.307,5.307,0,0,0-5,.9Z" opacity="0.2"/>
    <path id="Path_125" data-name="Path 125" d="M191.9,610.4a4.117,4.117,0,0,1-2.1,2.2c-.2.1-.3.2-.5.2s-.4,0-.5-.2a.454.454,0,0,1,0-.5c.1-.2.2-.3.3-.5a7.139,7.139,0,0,0,1.4-3.2c.1-.5,0-1.3.1-1.8.1-.2.2-.5.5-.6.6-.1.9.7,1,1.1a4.823,4.823,0,0,1-.2,3.3Z" fill="#fcee21" opacity="0.2"/>
  </g>
</svg>
