<svg xmlns="http://www.w3.org/2000/svg" width="14.683" height="14.6" viewBox="0 0 14.683 14.6">
  <g id="Group_83" data-name="Group 83" transform="translate(-186.1 -907.6)">
    <circle id="Ellipse_6" data-name="Ellipse 6" cx="7.3" cy="7.3" r="7.3" transform="translate(186.1 907.6)" fill="#0084b6"/>
    <path id="Path_41" data-name="Path 41" d="M191.9,910.8a5.582,5.582,0,0,1-.8.5,1.446,1.446,0,0,1-.7.2c-.3,0-.5,0-.6-.2a.92.92,0,0,1,.1-1,3.192,3.192,0,0,1,1.6-.9c.8-.1.9.9.4,1.4Z" fill="#0057b6"/>
    <path id="Path_42" data-name="Path 42" d="M188,912.8a1.623,1.623,0,0,1,1.6-.8,3.506,3.506,0,0,1,1.4.6,1.387,1.387,0,0,1,.7.8c.1.4-.2.8-.6,1.1l-1.2.9a1.209,1.209,0,0,1-1,.3c-.2-.1-.5-.2-.6-.5a2.533,2.533,0,0,1-.3-2.4Z" fill="#0057b6"/>
    <path id="Path_43" data-name="Path 43" d="M194.2,912.3a.627.627,0,0,1-.2.8.83.83,0,0,1-.8.2,1.141,1.141,0,0,1-.6-.3c-.8-1.1,1.1-1.7,1.6-.7Z" fill="#0057b6"/>
    <path id="Path_44" data-name="Path 44" d="M196.8,921.4a7.291,7.291,0,0,0,3.2-9.8,7.538,7.538,0,0,0-2.7-2.9c1.8,3.3,1.8,5.8.1,8.7-1.4,2.5-5.6,4.2-7.9,3.7a7.557,7.557,0,0,0,7.3.3Z" opacity="0.2"/>
    <path id="Path_45" data-name="Path 45" d="M188.2,911.4a6.441,6.441,0,0,1,3.6-2.5,1.7,1.7,0,0,1,.7-.1.822.822,0,0,1,.6.4.878.878,0,0,1-.1.7c-.1.2-.4.4-.5.5a10.3,10.3,0,0,0-2.9,4c-.3.7-.4,1.8-.7,2.4a1.149,1.149,0,0,1-.9.6c-.8,0-1.1-1.2-1.1-1.8a7.994,7.994,0,0,1,1.3-4.2Z" fill="#fcee21" opacity="0.2"/>
  </g>
</svg>
