<svg xmlns="http://www.w3.org/2000/svg" width="16.5" height="11.673" viewBox="0 0 16.5 11.673">
  <g id="Group_92" data-name="Group 92" transform="translate(-112.7 -918.3)">
    <circle id="Ellipse_15" data-name="Ellipse 15" cx="5.8" cy="5.8" r="5.8" transform="translate(115.4 918.3)" fill="#008c44"/>
    <path id="Path_94" data-name="Path 94" d="M117.6,928.7a5.859,5.859,0,0,0,8.2-.9,5.646,5.646,0,0,0,1.2-2.9,6.021,6.021,0,0,1-11.6-1.6,6.077,6.077,0,0,0,2.2,5.4Z" opacity="0.2"/>
    <path id="Path_95" data-name="Path 95" d="M122,919.2a5.213,5.213,0,0,1,3,1.8c.1.2.2.3.3.5a.661.661,0,0,1-.1.6c-.1.2-.4.2-.6.2a1.421,1.421,0,0,1-.6-.2,8.806,8.806,0,0,0-3.9-.8c-.6,0-1.4.3-2,.3a.669.669,0,0,1-.7-.4c-.3-.6.5-1.2.9-1.4A5.372,5.372,0,0,1,122,919.2Z" fill="#fcee21" opacity="0.2"/>
    <path id="Path_96" data-name="Path 96" d="M112.9,923.7h.3a4.87,4.87,0,0,0,1.2-.1c-.1,0-.2.1-.3.2a.187.187,0,0,0,0,.3c.1.2.4.2.6.2a4.778,4.778,0,0,0,2.3-1,7.892,7.892,0,0,0,3,1.2,1.7,1.7,0,0,0,.7-.1c.1-.1.1-.2.1-.4a1.007,1.007,0,0,0-.1-.3,7.827,7.827,0,0,0,2.5.7h.3a.215.215,0,0,0,.2-.2c0-.2-.2-.3-.3-.4a10.888,10.888,0,0,0-3.1-.8c.5-.1,1-.2,1.4-.3a.367.367,0,0,0,.3-.1c.1-.1.2-.2.2-.3a.215.215,0,0,0-.2-.2.367.367,0,0,1-.3-.1,8.075,8.075,0,0,0-3.4.8,9.714,9.714,0,0,0-3.6-1.6h-.4a.319.319,0,0,0-.3.3.52.52,0,0,0,.2.4,8.344,8.344,0,0,0,1.2.8,6.345,6.345,0,0,0-2.4.3.265.265,0,0,0-.3.3c0,.3.1.4.2.4Z" fill="#005221"/>
    <path id="Path_97" data-name="Path 97" d="M123,927.3a.55.55,0,0,0,.3.5c.2.1.3.2.5.2a3.906,3.906,0,0,0,3.1-1c.2.1.3.2.5.3a.365.365,0,0,0,.5-.2c.1-.1,0-.2,0-.3s-.3-.4-.3-.5a2.88,2.88,0,0,0,1.3-.1.319.319,0,0,0,.3-.3c0-.1-.1-.2-.1-.3s-.2-.1-.3-.1a2.464,2.464,0,0,0-1.7.2c0-.1-.1-.2-.2-.3s-.2,0-.3,0a2.371,2.371,0,0,0-1.5.9,5.591,5.591,0,0,0-3.3-.8.6.6,0,0,0-.4.1c-.1.1-.2.2-.2.3,0,.2.3.3.4.3a7.493,7.493,0,0,0,1.6.4,3.545,3.545,0,0,0-1.1.3c-.1.1-.2.2-.2.3s.1.1.1.2.1,0,.2.1c.3-.1.6-.1.8-.2Z" fill="#005221"/>
  </g>
</svg>
