<svg xmlns="http://www.w3.org/2000/svg" width="15.4" height="11" viewBox="0 0 15.4 11">
  <g id="Group_107" data-name="Group 107" transform="translate(-92.2 -31.2)">
    <circle id="Ellipse_31" data-name="Ellipse 31" cx="5.5" cy="5.5" r="5.5" transform="translate(94.6 31.2)" fill="#ea5069"/>
    <path id="Path_252" data-name="Path 252" d="M97.2,41.3a5.421,5.421,0,0,0,6.6-.6,5.685,5.685,0,0,0,1.8-3.4,6.019,6.019,0,0,1-5.8,3.6,6.141,6.141,0,0,1-5.1-5.1,5.322,5.322,0,0,0,2.5,5.5Z" opacity="0.2"/>
    <path id="Path_253" data-name="Path 253" d="M100.9,32.1a4.589,4.589,0,0,1,2.8,1.7,2.186,2.186,0,0,1,.3.5.44.44,0,0,1-.1.5c-.1.2-.3.2-.5.2a1.421,1.421,0,0,1-.6-.2,9.093,9.093,0,0,0-3.7-.8,12.253,12.253,0,0,1-1.9.2.67.67,0,0,1-.7-.4c-.2-.5.5-1.1.9-1.3A5.612,5.612,0,0,1,100.9,32.1Z" fill="#fcee21" opacity="0.2"/>
    <path id="Path_254" data-name="Path 254" d="M92.3,36.3h.3a4.869,4.869,0,0,0,1.2-.1.215.215,0,0,0-.2.2.188.188,0,0,0,0,.3c.1.2.4.2.6.2a5.393,5.393,0,0,0,2.2-.9,6.855,6.855,0,0,0,2.8,1.1c.2,0,.5,0,.6-.1a.367.367,0,0,0,.1-.3c0-.1-.1-.2-.1-.3a7.061,7.061,0,0,0,2.4.6h.3a.215.215,0,0,0,.2-.2.319.319,0,0,0-.3-.3,7.7,7.7,0,0,0-2.9-.7c.4-.1.9-.2,1.4-.3a.367.367,0,0,0,.3-.1c.1,0,.2-.2.2-.2s-.1-.2-.2-.2h-.3a8.327,8.327,0,0,0-3.2.7,7.428,7.428,0,0,0-3.4-1.5h-.4a.451.451,0,0,0-.3.3.52.52,0,0,0,.2.4,8.342,8.342,0,0,0,1.2.8,6.083,6.083,0,0,0-2.3.3.319.319,0,0,0-.3.3c-.3-.1-.2,0-.1,0Z" fill="#d71920"/>
    <path id="Path_255" data-name="Path 255" d="M101.8,39.7c0,.2.1.3.2.5s.3.2.5.2a3.484,3.484,0,0,0,2.9-1c.2.1.3.2.5.2s.4,0,.5-.2v-.3c0-.1-.2-.3-.3-.4a2.462,2.462,0,0,0,1.2-.1.319.319,0,0,0,.3-.3.349.349,0,0,0-.1-.2,1.007,1.007,0,0,0-.3-.1,2.257,2.257,0,0,0-1.6.2c0-.1-.1-.2-.2-.3s-.2,0-.3,0a2.252,2.252,0,0,0-1.4.8,5.533,5.533,0,0,0-3.1-.8.6.6,0,0,0-.4.1c-.1.1-.2.2-.2.3,0,.2.2.3.4.3.5.1,1,.3,1.5.4a2.935,2.935,0,0,0-1,.3c-.1.1-.2.2-.2.3s.1.1.1.2.1,0,.2.1c.2-.1.6-.1.8-.2Z" fill="#d71920"/>
  </g>
</svg>
