<svg xmlns="http://www.w3.org/2000/svg" width="26.4" height="26.463" viewBox="0 0 26.4 26.463">
  <g id="Group_86" data-name="Group 86" transform="translate(-143 -791.837)">
    <circle id="Ellipse_9" data-name="Ellipse 9" cx="13.2" cy="13.2" r="13.2" transform="translate(143 791.9)" fill="#5b57a6"/>
    <path id="Path_56" data-name="Path 56" d="M153.2,812.5a9.007,9.007,0,0,1,1.6.3,6.115,6.115,0,0,1,1.2.5,1.255,1.255,0,0,1,.6,1.1,1.609,1.609,0,0,1-1.3,1.2,5.2,5.2,0,0,1-3.2-.7c-1.2-.9-.1-2.4,1.1-2.4Z" fill="#2c2d8b"/>
    <path id="Path_57" data-name="Path 57" d="M160.9,814.5a3.211,3.211,0,0,1-3.1-.8,5.651,5.651,0,0,1-1.1-2.5,2.5,2.5,0,0,1,0-1.9,2.259,2.259,0,0,1,2.1-.8,21.108,21.108,0,0,1,2.6.2,2.715,2.715,0,0,1,1.7.8,1.531,1.531,0,0,1,.2,1.3c-.1,1.4-.9,3.2-2.4,3.7Z" fill="#2c2d8b"/>
    <path id="Path_58" data-name="Path 58" d="M151.9,807.7a1.292,1.292,0,0,1,1.2-.9,1.91,1.91,0,0,1,1.4.7,1.746,1.746,0,0,1,.4,1.2C154.8,811,151.4,809.6,151.9,807.7Z" fill="#2c2d8b"/>
    <path id="Path_59" data-name="Path 59" d="M147.9,794.8a13.191,13.191,0,0,0-1.9,18.6,12.923,12.923,0,0,0,5.8,4.1c-4.4-5.3-5.3-9.6-3.5-15.4,1.6-4.9,8.3-9.6,12.5-9.5a13.432,13.432,0,0,0-12.9,2.2Z" opacity="0.2"/>
    <path id="Path_60" data-name="Path 60" d="M166.7,809.3a11.546,11.546,0,0,1-5.4,5.7,2.836,2.836,0,0,1-1.3.4,1.346,1.346,0,0,1-1.2-.5,1.23,1.23,0,0,1-.1-1.3,8.345,8.345,0,0,1,.8-1.2,20.788,20.788,0,0,0,3.7-8.3c.3-1.4-.1-3.3.4-4.6a2.173,2.173,0,0,1,1.3-1.5c1.4-.3,2.3,1.7,2.6,2.8a14.109,14.109,0,0,1-.8,8.5Z" fill="#fcee21" opacity="0.2"/>
  </g>
</svg>
