<svg xmlns="http://www.w3.org/2000/svg" width="5.613" height="6.889" viewBox="0 0 5.613 6.889">
  <g id="Group_90" data-name="Group 90" transform="translate(-58.987 -1069.656)">
    <circle id="Ellipse_13" data-name="Ellipse 13" cx="2.8" cy="2.8" r="2.8" transform="translate(59 1070.4)" fill="#eedc00"/>
    <path id="Path_86" data-name="Path 86" d="M59,1073.4a2.8,2.8,0,0,0,3,2.6,2.389,2.389,0,0,0,1.4-.5,3.105,3.105,0,0,1-3.4-.9,3.019,3.019,0,0,1,.2-3.7,2.591,2.591,0,0,0-1.2,2.5Z" opacity="0.1"/>
    <path id="Path_87" data-name="Path 87" d="M63.8,1071.9a2.492,2.492,0,0,1,.3,1.7.368.368,0,0,1-.1.3c-.1.1-.1.2-.2.2a.215.215,0,0,1-.2-.2c0-.1-.1-.2-.1-.3a4.248,4.248,0,0,0-1-1.7c-.2-.2-.6-.4-.8-.6-.1-.1-.2-.3-.1-.4.1-.3.6-.2.8-.1a1.966,1.966,0,0,1,1.4,1.1Z" fill="#fcee21" opacity="0.6"/>
    <path id="Path_88" data-name="Path 88" d="M59.2,1070.1l.1.1.4.4h-.2a.1.1,0,0,0-.1.1c0,.1.1.2.1.3a2.219,2.219,0,0,0,1.1.5,3.506,3.506,0,0,0,.6,1.4c.1.1.1.2.3.2.1,0,.1,0,.2-.1,0-.1.1-.1.1-.2a2.383,2.383,0,0,0,.6,1.1l.1.1h.1a.138.138,0,0,0,0-.2,5.389,5.389,0,0,0-.7-1.3c.2.1.4.3.6.4l.1.1h.2v-.2c0-.1,0-.1-.1-.1a3.587,3.587,0,0,0-1.4-1,5.462,5.462,0,0,0-.6-1.8c0-.1-.1-.1-.1-.2-.1,0-.2-.1-.2,0a.31.31,0,0,0-.1.2,1.7,1.7,0,0,0,.1.7,3.451,3.451,0,0,0-.9-.8c-.1,0-.2-.1-.2,0a.774.774,0,0,0-.1.3Z" fill="#b6aa00"/>
    <path id="Path_89" data-name="Path 89" d="M61.3,1074.9a.31.31,0,0,0-.1.2l.1.2a2.477,2.477,0,0,0,1.4.8.368.368,0,0,0,.1.3.309.309,0,0,0,.2.1l.1-.1v-.3a1,1,0,0,0,.5.4c.1,0,.1.1.2,0,0,0,.1-.1,0-.1s0-.1-.1-.1a2.652,2.652,0,0,0-.6-.5.138.138,0,0,0,0-.2l-.1-.1a1.078,1.078,0,0,0-.8-.2,2.189,2.189,0,0,0-.8-1.4c0-.1-.1-.1-.2-.1s-.2,0-.2.1c-.1.1,0,.2,0,.3.1.2.2.5.3.7a2.19,2.19,0,0,0-.5-.3h-.2v.2a.758.758,0,0,1,.7.1Z" fill="#b6aa00"/>
  </g>
</svg>
