<svg xmlns="http://www.w3.org/2000/svg" width="17.054" height="17.351" viewBox="0 0 17.054 17.351">
  <g id="Group_108" data-name="Group 108" transform="translate(-61.846 -983.749)">
    <path id="Path_256" data-name="Path 256" d="M63.2,989.2a2,2,0,0,1,1-1.2.616.616,0,0,1,.7.1.755.755,0,0,1,.1.8,5.243,5.243,0,0,1-1.1,1.9,1.012,1.012,0,0,1-.7.4c-.4,0-.8-.4-.6-.8a1.38,1.38,0,0,0,.3-.4c.1-.3.2-.5.3-.8Z" fill="#ff50ac"/>
    <path id="Path_257" data-name="Path 257" d="M71.1,986.8a7.742,7.742,0,0,1-1.6-.7.664.664,0,0,1-.4-.5c0-.2.2-.4.3-.6a3.408,3.408,0,0,1,2.2-.7,4.394,4.394,0,0,1,2.2.7,4.233,4.233,0,0,1,.7.5,1.136,1.136,0,0,1,.3.8,1.326,1.326,0,0,1-.6,1,1.637,1.637,0,0,1-1.2.2l-1.2-.3C71.5,987.2,71.4,987,71.1,986.8Z" fill="#ff50ac"/>
    <path id="Path_258" data-name="Path 258" d="M76.5,988.8a.812.812,0,0,1,1.4,0,4.548,4.548,0,0,1,1,2.8,2.745,2.745,0,0,1-.2,1.3,1.081,1.081,0,0,1-1.1.7,1.8,1.8,0,0,1-.9-.4,4.441,4.441,0,0,1-1.1-.8,2.169,2.169,0,0,1-.7-.6,1.21,1.21,0,0,1,.2-1.4,20.034,20.034,0,0,1,1.4-1.6Z" fill="#ff50ac"/>
    <circle id="Ellipse_32" data-name="Ellipse 32" cx="7.2" cy="7.2" r="7.2" transform="translate(63.3 985.2)" fill="#9dff92"/>
    <g id="Group_56" data-name="Group 56">
      <path id="Path_259" data-name="Path 259" d="M75.5,986.9a1.845,1.845,0,0,0-1.2.5,1,1,0,0,1-.4.5c-.2.1-.3.3-.6.3s-.4,0-.6-.2c-.2-.1-.3-.4-.5-.5a1.059,1.059,0,0,0-1.3.1,1,1,0,0,0-.4.5l-.3.6a1.274,1.274,0,0,1-1.1.5,2.463,2.463,0,0,0-1.2.1c-.4.2-.6.7-1,.9a.616.616,0,0,1-.7.1,4.353,4.353,0,0,0-.7-.4,3.267,3.267,0,0,0-1.7,0c-.2,0-.1.5,0,.5a4.329,4.329,0,0,1,1.6-.1l.6.3a1.422,1.422,0,0,0,.6.2c.5-.1.7-.5,1-.9s.8-.3,1.2-.3a2.537,2.537,0,0,0,1.2-.2c.4-.3.5-.7.8-1.1s.7-.7,1.2-.5a1.2,1.2,0,0,1,.5.5.55.55,0,0,0,.5.3.878.878,0,0,0,.7-.1,1.2,1.2,0,0,0,.5-.5c.2-.2.3-.4.5-.5a1.884,1.884,0,0,1,.8-.2c.1,0,.1-.4,0-.4Z" fill="#7ac943"/>
      <path id="Path_260" data-name="Path 260" d="M77.1,989.6a2.37,2.37,0,0,1-2.3,1.7h-.7c-.2,0-.5-.1-.7,0a.7.7,0,0,0-.4.5c-.1.3-.2.3-.4.5a2.2,2.2,0,0,1-1.4.1,4.955,4.955,0,0,0-1.7-.2,3.359,3.359,0,0,0-1.4.5,2.65,2.65,0,0,0-.6.5c-.2.2-.3.4-.5.5-.2.2-.5.1-.8,0a2.921,2.921,0,0,0-.9-.2,3.453,3.453,0,0,0-1.8.5c-.1.1-.1.5,0,.4a3.022,3.022,0,0,1,1.6-.5,1.95,1.95,0,0,1,.8.1,1.884,1.884,0,0,0,.8.2c.3,0,.4-.2.6-.4a2.65,2.65,0,0,1,.6-.5,3.506,3.506,0,0,1,1.4-.6,4.194,4.194,0,0,1,1.6.1,3.812,3.812,0,0,0,1.5.1l.6-.3c.1-.1.1-.2.2-.3s.1-.2.2-.3c.2-.2.4-.1.7-.1.2,0,.5.1.7.1a2.8,2.8,0,0,0,2.6-1.9c0-.1.1-.2,0-.3-.1-.2-.2-.2-.3-.2Z" fill="#7ac943"/>
      <path id="Path_261" data-name="Path 261" d="M77.6,994.3a2.313,2.313,0,0,0-2.2.7,10.475,10.475,0,0,1-1.1.8,1.575,1.575,0,0,1-1.3.4c-.2,0-.4-.1-.7-.1a1.269,1.269,0,0,0-.6.1,3.377,3.377,0,0,0-1.1.7c-.4.3-.8.6-1.2.4l-.6-.3c-.2-.1-.4-.1-.6-.2a3.208,3.208,0,0,0-2.5,1.1.187.187,0,0,0,0,.3c0,.1.1.2.1.1a2.574,2.574,0,0,1,2.2-1,1.269,1.269,0,0,1,.6.1l.6.3a1.269,1.269,0,0,0,.6.1,1.421,1.421,0,0,0,.6-.2c.4-.2.7-.5,1.1-.7a1.422,1.422,0,0,1,.6-.2,1.269,1.269,0,0,1,.6.1.638.638,0,0,0,.6,0c.2-.1.4-.1.6-.2a4.13,4.13,0,0,0,1.1-.7c.7-.5,1.5-1.4,2.4-1a.417.417,0,0,0,.2-.6Z" fill="#7ac943"/>
    </g>
    <path id="Path_262" data-name="Path 262" d="M68.3,987.2c-.4-.2-.9-.6-.9-1.1A1.382,1.382,0,0,1,68,985a5.7,5.7,0,0,1,7-.1,2.783,2.783,0,0,1,.9,2.7,1.909,1.909,0,0,1-2.2,1.5,5.243,5.243,0,0,1-1.9-1.1C70.6,987.6,69.4,987.7,68.3,987.2Zm2.1-1.6a10.883,10.883,0,0,1,2.4.7,3.179,3.179,0,0,0,.9.3c1.1,0,.6-1.3-.1-1.5a7.046,7.046,0,0,0-2.9-.4.764.764,0,0,0-.5.2.348.348,0,0,0-.1.5c0,.2.2.2.3.2Z" fill="#ff7bac"/>
    <path id="Path_263" data-name="Path 263" d="M64.1,998a2.324,2.324,0,0,1-.1-2,2.228,2.228,0,0,1,1.9-1.1,17.656,17.656,0,0,1,2.3,0,7.26,7.26,0,0,0,3.4-1.4,4.009,4.009,0,0,1,2.2-1,2.149,2.149,0,0,1,1.9,1.4,7.15,7.15,0,0,1,.3,2.5,5.215,5.215,0,0,1-1.2,3.1,4.71,4.71,0,0,1-3.7,1.6,10.178,10.178,0,0,1-4.5-1,4.3,4.3,0,0,1-2.5-2.1Zm5-.2a8.369,8.369,0,0,0,4.1-.8,2.837,2.837,0,0,0,1.1-.8,1.469,1.469,0,0,0,.4-1.2c-.1-.5-.4-.9-.9-.9a1.777,1.777,0,0,0-1,.4,18.416,18.416,0,0,1-3.8,1.7c-.4.1-1.1.3-1.1.8-.1.6.8.7,1.2.8Z" fill="#ff7bac"/>
    <path id="Path_264" data-name="Path 264" d="M61.9,992.2a4.345,4.345,0,0,1,.5-2.5,6.223,6.223,0,0,1,1.4-1.9,2.371,2.371,0,0,1,1.5-.9,1.845,1.845,0,0,1,1.2.5,4.281,4.281,0,0,1,1.4,1.6,3.259,3.259,0,0,1,.4,1.3,2.379,2.379,0,0,1-.9,1.3,4.284,4.284,0,0,1-1.6.5,4.284,4.284,0,0,0-1.6.5c-.9.4-1.9.9-2.3-.4Zm2.1-1.8a6.561,6.561,0,0,0,2-.1c.2,0,.4-.1.4-.2a.481.481,0,0,0-.2-.6,2.751,2.751,0,0,0-1.5-.8,1.011,1.011,0,0,0-1.2.5c-.2.3-.4.8-.1,1.1a1.267,1.267,0,0,1,.6.1Z" fill="#ff7bac"/>
  </g>
</svg>
