<svg xmlns="http://www.w3.org/2000/svg" width="19.538" height="19.368" viewBox="0 0 19.538 19.368">
  <g id="Group_94" data-name="Group 94" transform="translate(-157.562 -525.6)">
    <circle id="Ellipse_17" data-name="Ellipse 17" cx="9.6" cy="9.6" r="9.6" transform="translate(157.6 525.6)" fill="#d60080"/>
    <path id="Path_102" data-name="Path 102" d="M158.9,540.1a9.509,9.509,0,0,0,13.1,3.4,9.14,9.14,0,0,0,3.6-3.7,10.406,10.406,0,0,1-11.8,2.2c-3.4-1.7-6.4-6.8-5.1-11.5a9.941,9.941,0,0,0,.2,9.6Z" opacity="0.2"/>
    <path id="Path_103" data-name="Path 103" d="M171.4,528.2a8.224,8.224,0,0,1,3.5,4.5,2.958,2.958,0,0,1,.2,1,.792.792,0,0,1-.5.8.92.92,0,0,1-1-.1,5.007,5.007,0,0,1-.8-.7,13.3,13.3,0,0,0-5.5-3.5c-.9-.3-2.4-.3-3.2-.8-.4-.2-.9-.6-.9-1.1-.1-1,1.5-1.5,2.3-1.5a9.152,9.152,0,0,1,5.9,1.4Z" fill="#fcee21" opacity="0.2"/>
    <path id="Path_104" data-name="Path 104" d="M175.3,542a10.667,10.667,0,0,0,1.8-5.7c0-.2-.2-.3-.3-.1a16.251,16.251,0,0,1-3.8,3c-.1,0-.2,0-.2-.1a23.393,23.393,0,0,0-1.9-8.3c0-.1-.1-.1-.2-.1a58.691,58.691,0,0,0-6.7,2.7c-.1,0-.2,0-.2-.1a47.161,47.161,0,0,1-.3-6.4.1.1,0,0,0-.1-.1,10.7,10.7,0,0,0-4.7,2.2c-.1.1,0,.1,0,.1a7.944,7.944,0,0,1,3.6-1.1c.1,0,.2.1.1.2a14.643,14.643,0,0,0,.1,7.2c0,.1.1.1.2.1a29.18,29.18,0,0,0,7.1-2.8c.1,0,.2,0,.2.1a21.234,21.234,0,0,1,1.2,8.2.349.349,0,0,0,.1.2c1.5-.2,3.1-1.5,4.2-2.5.1-.1.2,0,.2.1a9.356,9.356,0,0,1-.4,3.2Z" fill="#720040"/>
    <path id="Path_105" data-name="Path 105" d="M158.5,530.8a20.789,20.789,0,0,0,1.5,7.4h.1a28.229,28.229,0,0,0,7-1.5c.1,0,.1,0,.1.1.3,2,.6,5.3-.1,7.1a.1.1,0,0,0,.1.1,7.083,7.083,0,0,0,3.5.3c.1,0,.1.1,0,.2-1.6.3-3.8.7-5.2.3a.1.1,0,0,1-.1-.1c.1-.6,1.1-5,.8-6.4l-.1-.1c-.7.2-5.4,1.8-6.8,1.5h-.1c-.2-.5-2.1-5.5-.9-9,.1-.1.2,0,.2.1Z" fill="#720040"/>
  </g>
</svg>
