<svg xmlns="http://www.w3.org/2000/svg" width="7.412" height="7.4" viewBox="0 0 7.412 7.4">
  <g id="Group_84" data-name="Group 84" transform="translate(-80.988 -824.6)">
    <circle id="Ellipse_7" data-name="Ellipse 7" cx="3.7" cy="3.7" r="3.7" transform="translate(81 824.6)" fill="#d60080"/>
    <path id="Path_46" data-name="Path 46" d="M86.4,829.6a.52.52,0,0,1,.2-.4c.1-.1.1-.2.2-.3a.367.367,0,0,1,.3-.1.4.4,0,0,1,.2.4,1.234,1.234,0,0,1-.4.8c-.2.3-.6-.1-.5-.4Z" fill="#720040"/>
    <path id="Path_47" data-name="Path 47" d="M87.5,827.7a1.02,1.02,0,0,1-.5.8,1.95,1.95,0,0,1-.8.1c-.2,0-.4,0-.5-.2-.2-.2-.1-.4-.1-.6.1-.2.2-.5.3-.7a1.381,1.381,0,0,1,.3-.4h.4c.5.3.9.6.9,1Z" fill="#720040"/>
    <path id="Path_48" data-name="Path 48" d="M85,829.6c-.1-.1-.2-.2-.1-.4s.2-.3.3-.3.2-.1.4,0c.6.2-.1,1-.6.7Z" fill="#720040"/>
    <path id="Path_49" data-name="Path 49" d="M81.5,826.4a3.683,3.683,0,0,0,1.2,5,3.2,3.2,0,0,0,1.9.5c-1.6-1-2.3-2-2.3-3.7a4.174,4.174,0,0,1,2.4-3.6,3.719,3.719,0,0,0-3.2,1.8Z" opacity="0.2"/>
    <path id="Path_50" data-name="Path 50" d="M87.8,828.4a2.876,2.876,0,0,1-.9,2c-.1.1-.2.2-.3.2h-.4c-.1-.1-.2-.2-.2-.3s.1-.3.1-.4a7.067,7.067,0,0,0,.2-2.5,5.274,5.274,0,0,1-.3-1.2c0-.2,0-.4.2-.5.3-.2.8.2.9.5a2.7,2.7,0,0,1,.7,2.2Z" fill="#fcee21" opacity="0.2"/>
  </g>
</svg>
