<svg xmlns="http://www.w3.org/2000/svg" width="17.275" height="12.4" viewBox="0 0 17.275 12.4">
  <g id="Group_113" data-name="Group 113" transform="translate(-150.425 -580.9)">
    <circle id="Ellipse_37" data-name="Ellipse 37" cx="6.2" cy="6.2" r="6.2" transform="translate(153.2 580.9)" fill="#ea5069"/>
    <path id="Path_293" data-name="Path 293" d="M155.1,591.6a6.189,6.189,0,0,0,8.8-.3,7.3,7.3,0,0,0,1.6-3,6.4,6.4,0,0,1-12.2-2.6,5.991,5.991,0,0,0,1.8,5.9Z" opacity="0.2"/>
    <path id="Path_294" data-name="Path 294" d="M160.7,581.9a4.8,4.8,0,0,1,3,2.2l.3.6a.661.661,0,0,1-.1.6.471.471,0,0,1-.6.1l-.6-.3a9.744,9.744,0,0,0-4.1-1.2,16.2,16.2,0,0,1-2.2.1,1.374,1.374,0,0,1-.8-.5c-.2-.6.6-1.2,1.1-1.4a6.109,6.109,0,0,1,4-.2Z" fill="#fcee21" opacity="0.2"/>
    <path id="Path_295" data-name="Path 295" d="M150.5,585.9c.1,0,.2.1.4.1h1.3c-.1,0-.2.1-.3.2a.3.3,0,0,0,0,.4c.1.2.4.2.6.2a5.673,5.673,0,0,0,2.6-.8,8.924,8.924,0,0,0,3.1,1.5.616.616,0,0,0,.7-.1.6.6,0,0,0,.1-.4c0-.1-.1-.3-.1-.4a6.181,6.181,0,0,0,2.7.9h.3a.215.215,0,0,0,.2-.2c0-.2-.1-.3-.3-.4a12.127,12.127,0,0,0-3.2-1.1c.5-.1,1.1-.1,1.6-.2a.756.756,0,0,0,.4-.1c.1,0,.2-.2.2-.3s-.1-.2-.2-.3-.2-.1-.4-.1a9.226,9.226,0,0,0-3.7.5,9.58,9.58,0,0,0-3.7-2c-.2,0-.3-.1-.5,0a.265.265,0,0,0-.3.3c0,.2.1.3.2.5a6.418,6.418,0,0,0,1.3,1,11.332,11.332,0,0,0-2.6.1c-.2,0-.4.1-.4.3-.1.3-.1.4,0,.4Z" fill="#d71920"/>
    <path id="Path_296" data-name="Path 296" d="M161.1,590.6a.764.764,0,0,0,.2.5,1.072,1.072,0,0,0,.6.2,4.181,4.181,0,0,0,3.4-.8c.2.1.3.3.5.3s.4,0,.5-.2a.3.3,0,0,0,0-.4c-.1-.1-.2-.4-.3-.5a3.3,3.3,0,0,0,1.4,0,.319.319,0,0,0,.3-.3.354.354,0,0,0-.4-.4,2.239,2.239,0,0,0-1.8.1c0-.1-.1-.2-.2-.3s-.2-.1-.4-.1a2.469,2.469,0,0,0-1.6.8,6.986,6.986,0,0,0-3.5-1.2.6.6,0,0,0-.4.1.52.52,0,0,0-.2.4c0,.2.2.3.4.4.5.2,1.1.4,1.6.6a2.375,2.375,0,0,0-1.2.3l-.3.3a.354.354,0,0,0,.3.3,3.746,3.746,0,0,0,1.1-.1Z" fill="#d71920"/>
  </g>
</svg>
