<svg xmlns="http://www.w3.org/2000/svg" width="20.4" height="14.928" viewBox="0 0 20.4 14.928">
  <g id="Group_115" data-name="Group 115" transform="translate(-151 -405.5)">
    <circle id="Ellipse_39" data-name="Ellipse 39" cx="7.4" cy="7.4" r="7.4" transform="translate(154.2 405.5)" fill="#0084b6"/>
    <path id="Path_301" data-name="Path 301" d="M154.5,415.2a7.358,7.358,0,0,0,9.2,4.9A7.512,7.512,0,0,0,167,418a7.971,7.971,0,0,1-9.2-.4c-2.2-1.8-3.6-6.3-1.8-9.5a7.506,7.506,0,0,0-1.5,7.1Z" opacity="0.2"/>
    <path id="Path_302" data-name="Path 302" d="M165.9,408.5a6.161,6.161,0,0,1,1.8,4,2.485,2.485,0,0,1-.1.8c-.1.3-.3.5-.5.5a.952.952,0,0,1-.7-.2c-.2-.2-.3-.4-.5-.6a10.963,10.963,0,0,0-3.5-3.6c-.6-.4-1.7-.7-2.3-1.1a1.016,1.016,0,0,1-.5-1c.1-.8,1.4-.9,2-.8a6.268,6.268,0,0,1,4.3,2Z" fill="#fcee21" opacity="0.2"/>
    <path id="Path_303" data-name="Path 303" d="M151.1,411.6a.6.6,0,0,0,.4.1h1.6c-.2,0-.3.1-.3.2a.446.446,0,0,0,0,.5c.1.2.5.3.8.3a7.076,7.076,0,0,0,3.1-1,10.377,10.377,0,0,0,3.7,1.7.755.755,0,0,0,.8-.1.44.44,0,0,0,.1-.5.6.6,0,0,1-.1-.4,9.355,9.355,0,0,0,3.1,1h.4c.1,0,.2-.1.3-.2.1-.2-.2-.4-.4-.5a13.163,13.163,0,0,0-3.8-1.3,11.075,11.075,0,0,1,1.9-.2.6.6,0,0,0,.4-.1c.1-.1.2-.2.2-.3s-.1-.3-.2-.3a.6.6,0,0,0-.4-.1,10.992,10.992,0,0,0-4.4.7,10.962,10.962,0,0,0-4.4-2.3c-.2,0-.4-.1-.6,0s-.4.2-.4.4a.864.864,0,0,0,.3.6,4.428,4.428,0,0,0,1.5,1.2,11.026,11.026,0,0,0-3.1.2c-.2,0-.4.1-.4.3-.3-.1-.2.1-.1.1Z" fill="#0057b6"/>
    <path id="Path_304" data-name="Path 304" d="M163.6,417a.713.713,0,0,0,.3.6,4.872,4.872,0,0,0,.7.3,5.185,5.185,0,0,0,4-1c.2.1.4.3.6.4a.481.481,0,0,0,.6-.2.3.3,0,0,0,0-.4c-.1-.1-.3-.5-.4-.6a4.3,4.3,0,0,0,1.6,0c.2-.1.4-.1.4-.3a.6.6,0,0,0-.1-.4c-.1-.1-.2-.1-.4-.2a3.33,3.33,0,0,0-2.2.1.758.758,0,0,0-.2-.4.6.6,0,0,0-.4-.1,2.968,2.968,0,0,0-1.9,1,6.886,6.886,0,0,0-4.1-1.3.749.749,0,0,0-.5.1c-.1.1-.3.2-.3.4s.3.4.5.5c.6.2,1.3.5,1.9.7a3.53,3.53,0,0,0-1.4.3c-.1.1-.3.2-.3.3a.349.349,0,0,0,.1.2,1.007,1.007,0,0,0,.3.1,1.627,1.627,0,0,0,1.2-.1Z" fill="#0057b6"/>
  </g>
</svg>
