<svg xmlns="http://www.w3.org/2000/svg" width="15.273" height="14.03" viewBox="0 0 15.273 14.03">
  <g id="Group_98" data-name="Group 98" transform="translate(-16.75 -463.1)">
    <circle id="Ellipse_21" data-name="Ellipse 21" cx="6.9" cy="6.9" r="6.9" transform="translate(17.4 463.1)" fill="#ea5069"/>
    <path id="Path_126" data-name="Path 126" d="M18.1,473.2a6.834,6.834,0,0,0,9.3,2.9,6.176,6.176,0,0,0,2.7-2.6c-2.3,2-5.8,2.8-8.5,1.2-2.4-1.3-4.4-5.2-3.3-8.4a7.616,7.616,0,0,0-.2,6.9Z" opacity="0.2"/>
    <path id="Path_127" data-name="Path 127" d="M19.2,475.5a.764.764,0,0,1-.2-.5c.1-.2.4-.2.6-.2.7.2,1.5.3,2.2.5,1,.2,2,.5,3,.7.2,0,.3.1.5.2a.4.4,0,0,1,.2.4.713.713,0,0,1-.6.3,8.1,8.1,0,0,1-3.1.1,9.384,9.384,0,0,1-1.5-.6c-.5-.2-.6-.6-1.1-.9Z" fill="#d71920"/>
    <path id="Path_128" data-name="Path 128" d="M23.1,473.3a8.955,8.955,0,0,1,2.3.8,4.644,4.644,0,0,1,1.8,1.6,6.07,6.07,0,0,0,.7,1,.613.613,0,0,0,1-.2,1.421,1.421,0,0,0-.2-.6,10.5,10.5,0,0,0-9.2-4.7,3.287,3.287,0,0,0-1.7.4,1.722,1.722,0,0,0-1,1.2c-.1.4-.1,1,.5.8.5-.1.8-.6,1.3-.8a4.972,4.972,0,0,1,2.1.1c.7.1,1.5.2,2.4.4Z" fill="#d71920"/>
    <path id="Path_129" data-name="Path 129" d="M26.1,470.2c-.2-.1-.5-.2-.6-.4a.854.854,0,0,1,0-.7.661.661,0,0,1,.6.1,10.241,10.241,0,0,1,4.4,4.1c.1.3.3.5.3.8.1.5-.5,1.2-1,.8a5.306,5.306,0,0,1-.8-1.7,5.665,5.665,0,0,0-2.9-3Z" fill="#d71920"/>
    <path id="Path_130" data-name="Path 130" d="M20.4,468.2c1.1.2,2.2.7,3.4,1,.2.1.6.1.7-.2,0-.2-.1-.3-.2-.5a5.908,5.908,0,0,0-3.2-1.7,5.662,5.662,0,0,0-3.6.6.9.9,0,0,0-.6.6c-.1.2,0,.6.3.6a4.671,4.671,0,0,0,1-.5,17.732,17.732,0,0,1,2.2.1Z" fill="#d71920"/>
    <path id="Path_131" data-name="Path 131" d="M21.5,463.7a.6.6,0,0,1-.4-.1c-.1-.1-.2-.2-.1-.3a.367.367,0,0,1,.3-.1,13.577,13.577,0,0,1,2.9.3.367.367,0,0,1,.3.1c.1.1.1.1.1.2a.215.215,0,0,1-.2.2c-.2,0-.4-.1-.6-.1a2.2,2.2,0,0,1-.8-.1l-1.5-.1Z" fill="#d71920"/>
    <path id="Path_132" data-name="Path 132" d="M26.6,464.8c-.2-.1-.3-.1-.4-.3a.354.354,0,0,1,.5-.5,7.444,7.444,0,0,1,5.1,4.2c.1.2.5,1.5-.1,1.4-.3,0-.7-1.2-.9-1.4a9.518,9.518,0,0,0-2.4-2.5,7.572,7.572,0,0,0-1.8-.9Z" fill="#d71920"/>
    <path id="Path_133" data-name="Path 133" d="M27.3,465.3a5.963,5.963,0,0,1,2.4,3.4,1.7,1.7,0,0,1,.1.7.822.822,0,0,1-.4.6.878.878,0,0,1-.7-.1,1.2,1.2,0,0,1-.5-.5,10.537,10.537,0,0,0-3.9-2.7A15.452,15.452,0,0,1,22,466c-.3-.2-.6-.5-.6-.8,0-.8,1.1-1,1.7-1A6.051,6.051,0,0,1,27.3,465.3Z" fill="#fcee21" opacity="0.2"/>
    <path id="Path_134" data-name="Path 134" d="M21.7,465.8a.446.446,0,0,0,.3-.4c0-.2-.2-.3-.4-.4-.4-.1-2.5-.6-2.5.1,0,.3.5.5.8.6a5.605,5.605,0,0,0,1.8.1Z" fill="#d71920"/>
    <path id="Path_135" data-name="Path 135" d="M23.3,466a.756.756,0,0,1-.4-.1c-.2-.1-.2-.2-.1-.3s.2-.1.4-.1a10.737,10.737,0,0,1,8.2,5.6,1.69,1.69,0,0,1,.2.5.683.683,0,0,1-.3.5c-.3.1-.5-.1-.7-.4-.9-1.1-1.8-2.3-2.7-3.4a4.951,4.951,0,0,0-2.6-1.7c-.3-.1-.6-.2-1-.3-.3-.1-.8-.1-1-.3Z" fill="#d71920"/>
  </g>
</svg>
