<svg xmlns="http://www.w3.org/2000/svg" width="19.627" height="18.126" viewBox="0 0 19.627 18.126">
  <g id="Group_106" data-name="Group 106" transform="translate(-130.476 -628.173)">
    <path id="Path_243" data-name="Path 243" d="M139.5,628.8a3.233,3.233,0,0,1,1.7.3,1.08,1.08,0,0,1,.3.7c-.1.3-.4.4-.7.5a4.27,4.27,0,0,1-2.5-.1,1.374,1.374,0,0,1-.8-.5c-.2-.4,0-1.1.5-1.1a4.332,4.332,0,0,1,.5.1c.3.2.6.1,1,.1Z" fill="#ff50ac"/>
    <path id="Path_244" data-name="Path 244" d="M146.2,635.2a13.551,13.551,0,0,1-.2-2,1.854,1.854,0,0,1,.2-.7c.2-.2.5-.1.8,0a3.7,3.7,0,0,1,1.9,1.8,5.834,5.834,0,0,1,.6,2.6,3.4,3.4,0,0,1-.1,1,1.555,1.555,0,0,1-.6.8,1.7,1.7,0,0,1-1.4,0,1.943,1.943,0,0,1-.9-1.1,5.732,5.732,0,0,1-.4-1.4c-.1-.4.2-.5.1-1Z" fill="#ff50ac"/>
    <path id="Path_245" data-name="Path 245" d="M147.2,641.6c.3.1.7.2.8.5a.956.956,0,0,1,0,.9,4.478,4.478,0,0,1-2.2,2.5,3.506,3.506,0,0,1-1.4.6,1.286,1.286,0,0,1-1.3-.6c-.2-.3-.1-.7-.1-1.1,0-.5.1-1,.1-1.5a4.253,4.253,0,0,1,.2-1.1,1.285,1.285,0,0,1,1.5-.6,20.016,20.016,0,0,1,2.4.4Z" fill="#ff50ac"/>
    <circle id="Ellipse_30" data-name="Ellipse 30" cx="8.2" cy="8.2" r="8.2" transform="translate(132.2 629.6)" fill="#9dff92"/>
    <g id="Group_53" data-name="Group 53">
      <path id="Path_246" data-name="Path 246" d="M148.4,639.5a1.785,1.785,0,0,0-1.2-.9,2.769,2.769,0,0,1-.9-.1,1,1,0,0,1-.5-.4.637.637,0,0,1,0-.6,1.412,1.412,0,0,0,.1-.9,1.281,1.281,0,0,0-1-1.1,2.486,2.486,0,0,0-.8-.1,3.086,3.086,0,0,1-.9-.1,1.765,1.765,0,0,1-.8-.9,2.552,2.552,0,0,0-.7-1c-.4-.4-1-.3-1.4-.5-.2-.1-.5-.2-.5-.5a.9.9,0,0,1,.1-.5v-.5a3.669,3.669,0,0,0-1-1.7c-.1-.2-.2.3-.1.4.2.2.4.5.6.7a2.01,2.01,0,0,1,.4.8c.1.3-.1.6-.1.9a1.135,1.135,0,0,0,.3.8c.4.4,1,.3,1.4.5a1.765,1.765,0,0,1,.8.9,2.552,2.552,0,0,0,.7,1c.4.4.9.3,1.5.3a1.513,1.513,0,0,1,1.4.7c0,.1.1.2.1.3s-.1.3-.1.4a2.485,2.485,0,0,0-.1.8,1.612,1.612,0,0,0,.4.7,1.135,1.135,0,0,0,.8.3,1.486,1.486,0,0,1,.9.2l.6.6c.1.1.1.1.2,0s-.2-.4-.2-.5Z" fill="#7ac943"/>
      <path id="Path_247" data-name="Path 247" d="M146.7,642.7a3.194,3.194,0,0,1-1.9-.3,2.545,2.545,0,0,1-1.2-1.1c-.1-.2-.2-.5-.3-.7s-.2-.5-.4-.6c-.1-.1-.2-.1-.3-.2h-.5a.908.908,0,0,1-.7-.3,3.048,3.048,0,0,1-.8-1.6,4.812,4.812,0,0,0-.8-1.6,6.418,6.418,0,0,0-1.3-1,6.89,6.89,0,0,0-.8-.3c-.3-.1-.6-.1-.8-.3s-.2-.5-.3-.8a3.553,3.553,0,0,0-.4-.9,5.357,5.357,0,0,0-1.5-1.5c-.1-.1-.2.4-.1.5a3.531,3.531,0,0,1,1.4,1.3,1.136,1.136,0,0,1,.3.8c.1.3.1.5.2.8s.4.4.7.5.6.1.8.2a4.194,4.194,0,0,1,1.4.9,3.766,3.766,0,0,1,.9,1.5,5.094,5.094,0,0,0,.7,1.7,2.65,2.65,0,0,0,.6.5c.1,0,.2.1.4.1h.5c.2,0,.4.3.5.5s.2.5.3.7a3.25,3.25,0,0,0,1.3,1.3,2.58,2.58,0,0,0,2.1.3c.2.1.2-.4,0-.4Z" fill="#7ac943"/>
      <path id="Path_248" data-name="Path 248" d="M142.1,645.9a1.855,1.855,0,0,0-.7-1.2,3.1,3.1,0,0,0-1.3-.6,6.11,6.11,0,0,1-1.4-.7,1.949,1.949,0,0,1-1-1c-.1-.2-.1-.5-.2-.7a1,1,0,0,0-.4-.5,7.46,7.46,0,0,0-1.2-.7c-.4-.2-1-.4-1.1-.9a1.7,1.7,0,0,0-.1-.7c-.1-.2-.1-.5-.2-.7a3.3,3.3,0,0,0-2.5-1.9c-.1,0-.2.5,0,.5a3.185,3.185,0,0,1,2.2,1.5,1.421,1.421,0,0,1,.2.6,1.7,1.7,0,0,0,.1.7c.1.2.1.5.3.7a2.092,2.092,0,0,0,.6.4c.4.2.9.4,1.3.6a2.18,2.18,0,0,1,.5.4,3.332,3.332,0,0,1,.3.6c.1.2.1.5.3.7.1.2.3.3.5.5a14.8,14.8,0,0,0,1.3.8,10.1,10.1,0,0,1,1.5.7,1.673,1.673,0,0,1,.9,1.1c0,.1,0,.2.1.2s0-.4,0-.4Z" fill="#7ac943"/>
    </g>
    <path id="Path_249" data-name="Path 249" d="M144.2,632.7a1.566,1.566,0,0,1,.5-1.5,1.483,1.483,0,0,1,1.3,0c2.5.8,4.6,4.2,4,6.8a3.041,3.041,0,0,1-2.1,2.4,2.254,2.254,0,0,1-2.7-1.3,7,7,0,0,1,0-2.5c0-1.4-.8-2.6-1-3.9Zm2.8,1.2a12.663,12.663,0,0,1,.6,2.8,3.553,3.553,0,0,0,.2,1c.6,1.1,1.6-.1,1.4-1a7.1,7.1,0,0,0-1.3-3.1,1,1,0,0,0-.5-.4.481.481,0,0,0-.6.2C146.9,633.6,146.9,633.7,147,633.9Z" fill="#ff7bac"/>
    <path id="Path_250" data-name="Path 250" d="M131.3,634.6a2.47,2.47,0,0,1,1.9-1.2,2.674,2.674,0,0,1,2.1,1.3c.5.7.8,1.5,1.3,2.2a8.7,8.7,0,0,0,3.2,2.5A5.028,5.028,0,0,1,142,641a2.453,2.453,0,0,1-.3,2.7,5.548,5.548,0,0,1-2.3,1.7,6.757,6.757,0,0,1-3.7.6,5.218,5.218,0,0,1-3.6-2.7,12.762,12.762,0,0,1-1.6-5,5.95,5.95,0,0,1,.8-3.7Zm3,4.8a9.78,9.78,0,0,0,3.1,3.6,3.7,3.7,0,0,0,1.4.7,1.971,1.971,0,0,0,1.5-.3,1.237,1.237,0,0,0,.4-1.4,2.276,2.276,0,0,0-.9-.8,20.689,20.689,0,0,1-3.8-2.8c-.4-.3-.9-.9-1.4-.7-.8.3-.5,1.2-.3,1.7Z" fill="#ff7bac"/>
    <path id="Path_251" data-name="Path 251" d="M135.8,629.2a5.257,5.257,0,0,1,2.8-1,7.717,7.717,0,0,1,2.6.3,3.5,3.5,0,0,1,1.7.9,1.939,1.939,0,0,1,.2,1.5,6.311,6.311,0,0,1-.8,2.3,1.981,1.981,0,0,1-1.1,1.1,2.292,2.292,0,0,1-1.8-.2,8.3,8.3,0,0,1-1.4-1.3,7.966,7.966,0,0,0-1.3-1.3c-.9-.5-2-1.2-.9-2.3Zm3,1a8.174,8.174,0,0,0,1.2,2,.55.55,0,0,0,.5.3c.3,0,.4-.3.5-.6a3.083,3.083,0,0,0,0-1.9,1.3,1.3,0,0,0-1.1-.9c-.4,0-1.1,0-1.2.5a.661.661,0,0,0,.1.6Z" fill="#ff7bac"/>
  </g>
</svg>
