<svg xmlns="http://www.w3.org/2000/svg" width="19.402" height="18.097" viewBox="0 0 19.402 18.097">
  <g id="Group_95" data-name="Group 95" transform="translate(-155.964 -876.5)">
    <circle id="Ellipse_18" data-name="Ellipse 18" cx="8.8" cy="8.8" r="8.8" transform="translate(156.9 876.5)" fill="#ea5069"/>
    <path id="Path_106" data-name="Path 106" d="M157.9,889.4a8.791,8.791,0,0,0,15.3.5,9.738,9.738,0,0,1-10.9,1.6c-3-1.7-5.6-6.5-4.1-10.7a8.521,8.521,0,0,0-.3,8.6Z" opacity="0.2"/>
    <path id="Path_107" data-name="Path 107" d="M159.3,892.4c-.1-.2-.3-.4-.2-.6.1-.3.5-.3.8-.2.9.2,1.8.4,2.8.7l3.9.9a1.421,1.421,0,0,1,.6.2.365.365,0,0,1,.2.5.67.67,0,0,1-.7.4,8.57,8.57,0,0,1-3.9.1,15.388,15.388,0,0,1-1.9-.8c-.6-.3-1.1-.9-1.6-1.2Z" fill="#d71920"/>
    <path id="Path_108" data-name="Path 108" d="M164.1,889.6a9.979,9.979,0,0,1,2.9,1,6.422,6.422,0,0,1,2.3,2,5.382,5.382,0,0,0,.9,1.2c.4.3,1.1.2,1.2-.3a1.077,1.077,0,0,0-.2-.8,13.206,13.206,0,0,0-11.6-6,5.45,5.45,0,0,0-2.2.5,2.726,2.726,0,0,0-1.3,1.5c-.1.5-.1,1.2.6,1,.6-.2,1.1-.8,1.6-1a4.611,4.611,0,0,1,2.6.1c1.2.3,2.2.5,3.2.8Z" fill="#d71920"/>
    <path id="Path_109" data-name="Path 109" d="M168,885.6a2.177,2.177,0,0,1-.8-.5c-.2-.2-.2-.7.1-.8.2-.2.6,0,.8.1a12.772,12.772,0,0,1,5.6,5.2,2.112,2.112,0,0,1,.4,1c.1.7-.6,1.5-1.2,1-.6-.4-.7-1.6-1.1-2.2a8.233,8.233,0,0,0-3.8-3.8Z" fill="#d71920"/>
    <path id="Path_110" data-name="Path 110" d="M160.7,883.1c1.4.3,2.8.9,4.2,1.3.3.1.7.1.8-.2.1-.2-.1-.4-.2-.6a7.531,7.531,0,0,0-4.1-2.2,6.806,6.806,0,0,0-4.6.8c-.3.2-.7.4-.8.8-.1.3,0,.8.4.8.3,0,1-.5,1.3-.6a6.064,6.064,0,0,1,3-.1Z" fill="#d71920"/>
    <path id="Path_111" data-name="Path 111" d="M162.1,877.4a.9.9,0,0,1-.5-.1.247.247,0,0,1-.1-.4c.1-.1.2-.1.4-.1a15.531,15.531,0,0,1,3.7.4c.1,0,.2.1.3.1a.192.192,0,0,1,.1.3c-.1.1-.1.2-.3.2s-.5-.1-.7-.1c-.3,0-.6-.1-1-.1l-1.9-.2Z" fill="#d71920"/>
    <path id="Path_112" data-name="Path 112" d="M168.6,878.8l-.6-.3c-.2-.1-.2-.4,0-.6.1-.2.4-.1.6-.1a9.906,9.906,0,0,1,6.5,5.3c.1.3.6,1.9-.1,1.8-.3,0-.9-1.5-1.1-1.8a13.431,13.431,0,0,0-3.1-3.2,11.286,11.286,0,0,0-2.2-1.1Z" fill="#d71920"/>
    <path id="Path_113" data-name="Path 113" d="M169.6,879.5a7.736,7.736,0,0,1,3,4.3,2.768,2.768,0,0,1,.1.9.752.752,0,0,1-.5.7,1.412,1.412,0,0,1-.9-.1c-.3-.1-.5-.4-.7-.6a13.332,13.332,0,0,0-4.9-3.5,24.547,24.547,0,0,1-2.9-.8,1.329,1.329,0,0,1-.8-1c0-1,1.4-1.3,2.1-1.3a7.779,7.779,0,0,1,5.5,1.4Z" fill="#fcee21" opacity="0.2"/>
    <path id="Path_114" data-name="Path 114" d="M162.4,880c.2-.1.4-.2.3-.4,0-.2-.3-.4-.5-.5-.5-.2-3.2-.8-3.1.1,0,.4.7.7,1,.7a6.028,6.028,0,0,0,2.3.1Z" fill="#d71920"/>
    <path id="Path_115" data-name="Path 115" d="M164.4,880.3c-.2,0-.3,0-.4-.1s-.2-.3-.1-.4c.1-.2.3-.2.5-.1a13.482,13.482,0,0,1,10.4,7.1,1.445,1.445,0,0,1,.2.7.6.6,0,0,1-.3.6.875.875,0,0,1-.9-.5c-1.2-1.5-2.3-2.9-3.5-4.3a7.407,7.407,0,0,0-3.3-2.2,5.639,5.639,0,0,0-1.2-.4,12.734,12.734,0,0,1-1.4-.4Z" fill="#d71920"/>
  </g>
</svg>
