<svg xmlns="http://www.w3.org/2000/svg" width="7.4" height="7.415" viewBox="0 0 7.4 7.415">
  <g id="Group_82" data-name="Group 82" transform="translate(-116 -974.3)">
    <circle id="Ellipse_5" data-name="Ellipse 5" cx="3.7" cy="3.7" r="3.7" transform="translate(116 974.3)" fill="#5b57a6"/>
    <path id="Path_36" data-name="Path 36" d="M121.7,977a1.38,1.38,0,0,1-.3-.4c-.1-.1-.1-.2-.2-.3s0-.2.1-.3a.446.446,0,0,1,.5,0,1.157,1.157,0,0,1,.5.7c.1.4-.4.5-.6.3Z" fill="#2c2d8b"/>
    <path id="Path_37" data-name="Path 37" d="M120.4,975.2a.752.752,0,0,1,.5.7,1.445,1.445,0,0,1-.2.7,1.381,1.381,0,0,1-.3.4c-.2.1-.4-.1-.6-.2-.2-.2-.4-.3-.5-.5a.764.764,0,0,1-.2-.5c0-.1.1-.2.2-.3a1.324,1.324,0,0,1,1.1-.3Z" fill="#2c2d8b"/>
    <path id="Path_38" data-name="Path 38" d="M121.1,978.3a.3.3,0,0,1-.4,0,.52.52,0,0,1-.2-.4c0-.1.1-.2.1-.3.5-.5.9.4.5.7Z" fill="#2c2d8b"/>
    <path id="Path_39" data-name="Path 39" d="M116.7,980.1a3.681,3.681,0,0,0,5.1,1,3.738,3.738,0,0,0,1.3-1.5,4.065,4.065,0,0,1-4.3.6,4.349,4.349,0,0,1-2.3-3.7A3.362,3.362,0,0,0,116.7,980.1Z" opacity="0.2"/>
    <path id="Path_40" data-name="Path 40" d="M121.1,975.2a2.73,2.73,0,0,1,1.4,1.6c.1.1.1.2.1.4s-.1.2-.2.3-.3,0-.4,0-.2-.2-.3-.2a4.768,4.768,0,0,0-2.2-1.2c-.4-.1-.9-.1-1.3-.2a.781.781,0,0,1-.4-.4c0-.4.5-.6.8-.7a4.815,4.815,0,0,1,2.5.4Z" fill="#fcee21" opacity="0.2"/>
  </g>
</svg>
