<svg xmlns="http://www.w3.org/2000/svg" width="27.3" height="28.945" viewBox="0 0 27.3 28.945">
  <g id="Group_102" data-name="Group 102" transform="translate(-151.4 -992.192)">
    <circle id="Ellipse_25" data-name="Ellipse 25" cx="13.1" cy="13.1" r="13.1" transform="translate(151.4 994.4)" fill="#0084b6"/>
    <path id="Path_166" data-name="Path 166" d="M176.6,1012.7a13.136,13.136,0,0,0-6.9-17.3,12.214,12.214,0,0,0-7-.9c5.8,1,11,5.2,12,11.1.9,5.1-2.3,12.7-8.5,14.9a13.107,13.107,0,0,0,10.4-7.8Z" opacity="0.2"/>
    <path id="Path_167" data-name="Path 167" d="M178.7,1008.3c-.1.3-.1.7-.5.8-.4.2-.8-.3-1-.8-.6-1.3-1.2-2.5-1.9-3.8-.9-1.8-1.7-3.6-2.6-5.4a3.177,3.177,0,0,1-.3-.9c0-.3.1-.7.4-.8.4-.2.9.2,1.2.5,1.4,1.4,3.1,2.5,3.8,4.4a9.612,9.612,0,0,1,.8,2.9c.1,1,.1,2.1.1,3.1Z" fill="#0057b6"/>
    <path id="Path_168" data-name="Path 168" d="M170.9,1005.3a16.529,16.529,0,0,1-1.6-4.4,8.943,8.943,0,0,1,.2-4.6,7.945,7.945,0,0,0,.6-2.2c0-.8-.8-1.5-1.5-1.2a1.445,1.445,0,0,0-.7,1,19.769,19.769,0,0,0,4,19.2,9.342,9.342,0,0,0,2.7,2.1,3.5,3.5,0,0,0,3,0c.7-.3,1.5-1.1.6-1.6-.8-.5-1.9-.5-2.7-1a8.122,8.122,0,0,1-2.4-3.1c-.8-1.3-1.5-2.8-2.2-4.2Z" fill="#0057b6"/>
    <path id="Path_169" data-name="Path 169" d="M162.6,1004.5a3.329,3.329,0,0,1,.1,1.4.871.871,0,0,1-1,.7c-.4-.1-.6-.6-.7-1a19.273,19.273,0,0,1,.7-11.4,4.352,4.352,0,0,1,.8-1.5c.7-.7,2.3-.8,2.3.5,0,1-1.1,2.3-1.5,3.3a14.5,14.5,0,0,0-.7,8Z" fill="#0057b6"/>
    <path id="Path_170" data-name="Path 170" d="M166.7,1015.3c-1-2-1.6-4.2-2.5-6.2-.2-.4-.6-1-1-.8-.3.1-.4.5-.4.8a11.43,11.43,0,0,0,1.3,6.8,10.637,10.637,0,0,0,5.2,4.6,2.257,2.257,0,0,0,1.6.2c.4-.1.9-.8.6-1.2-.2-.4-1.5-.6-1.9-.9a7.828,7.828,0,0,1-2.9-3.3Z" fill="#0057b6"/>
    <path id="Path_171" data-name="Path 171" d="M158.7,1019.1a1.493,1.493,0,0,1,.3.7.458.458,0,0,1-.4.5c-.2,0-.3-.2-.5-.3a25.5,25.5,0,0,1-3.1-4.7c-.1-.2-.2-.3-.2-.5a.764.764,0,0,1,.2-.5.44.44,0,0,1,.5.1c.2.2.4.7.6.9a8.341,8.341,0,0,1,.8,1.2c.7.9,1.2,1.7,1.8,2.6Z" fill="#0057b6"/>
    <path id="Path_172" data-name="Path 172" d="M154.1,1010.3a2.958,2.958,0,0,1,.2,1c0,.4-.3.6-.7.6-.3,0-.5-.3-.6-.6a14.084,14.084,0,0,1,.1-12.5c.2-.4,1.6-2.5,2.2-1.6.3.4-.9,2.4-1.1,2.9a18.426,18.426,0,0,0-.8,6.6,17.493,17.493,0,0,0,.7,3.6Z" fill="#0057b6"/>
    <path id="Path_173" data-name="Path 173" d="M154.1,1008.5a11.291,11.291,0,0,1,2.1-7.6,9.014,9.014,0,0,1,.9-1,1.213,1.213,0,0,1,1.3-.1,1.64,1.64,0,0,1,.7,1.1,3.437,3.437,0,0,1-.1,1.4,19.585,19.585,0,0,0,.6,9c.4,1.3,1.6,2.8,1.8,4.2a2.116,2.116,0,0,1-.4,1.9c-1.1.9-2.8-.4-3.6-1.2a12.291,12.291,0,0,1-3.3-7.7Z" fill="#fcee21" opacity="0.2"/>
    <path id="Path_174" data-name="Path 174" d="M161.4,1016.3a.608.608,0,0,0-.8,0c-.3.3-.2.7-.1,1.1.2.7,2.2,4.5,3.1,3.6.4-.4.1-1.4-.1-1.9a8.261,8.261,0,0,0-2.1-2.8Z" fill="#0057b6"/>
    <path id="Path_175" data-name="Path 175" d="M159.9,1013.7a4.877,4.877,0,0,1,.3.7c.1.3-.1.5-.4.5a.675.675,0,0,1-.6-.4,20.244,20.244,0,0,1-1.6-18.8,1.8,1.8,0,0,1,.6-.9,1.232,1.232,0,0,1,1-.2c.5.3.4,1,.3,1.5-.6,2.7-1.1,5.4-1.8,8.1a9.963,9.963,0,0,0,.6,5.9,13.354,13.354,0,0,0,.7,1.8,10.044,10.044,0,0,1,.9,1.8Z" fill="#0057b6"/>
  </g>
</svg>
