<svg xmlns="http://www.w3.org/2000/svg" width="14.8" height="14.4" viewBox="0 0 14.8 14.4">
  <g id="Group_77" data-name="Group 77" transform="translate(-81.1 -426.1)">
    <circle id="Ellipse_2" data-name="Ellipse 2" cx="7.2" cy="7.2" r="7.2" transform="translate(81.1 426.1)" fill="#d60080"/>
    <path id="Path_5" data-name="Path 5" d="M82.1,436.9a7.221,7.221,0,0,0,12.6-.2,8.023,8.023,0,0,1-8.8,1.7c-2.5-1.2-4.8-5.2-3.8-8.6a6.948,6.948,0,0,0,0,7.1Z" opacity="0.2"/>
    <path id="Path_6" data-name="Path 6" d="M91.5,427.9a5.859,5.859,0,0,1,2.6,3.4,1.7,1.7,0,0,1,.1.7.822.822,0,0,1-.4.6.616.616,0,0,1-.7-.1c-.2-.2-.4-.3-.6-.5a11.661,11.661,0,0,0-4.2-2.7,9.385,9.385,0,0,1-2.4-.6c-.3-.2-.7-.4-.7-.8,0-.8,1.1-1.1,1.7-1.2a10.287,10.287,0,0,1,4.6,1.2Z" fill="#fcee21" opacity="0.2"/>
    <path id="Path_7" data-name="Path 7" d="M94.5,438.4a9.506,9.506,0,0,0,1.4-4.3c0-.1-.2-.2-.2-.1a11.826,11.826,0,0,1-2.8,2.2c-.1,0-.2,0-.2-.1a18.663,18.663,0,0,0-1.4-6.2l-.1-.1c-1.7.5-3.2,1.3-5.1,2-.1,0-.1,0-.1-.1a26.8,26.8,0,0,1-.2-4.9.1.1,0,0,0-.1-.1,6.776,6.776,0,0,0-3.5,1.7c-.1,0,0,.1,0,0a6.645,6.645,0,0,1,2.7-.9.1.1,0,0,1,.1.1,10.974,10.974,0,0,0,.1,5.4l.1.1a20.218,20.218,0,0,0,5.3-2.1c.1,0,.1,0,.1.1a16.671,16.671,0,0,1,.9,6.2.1.1,0,0,0,.1.1,7.581,7.581,0,0,0,3.2-1.9c.1-.1.2,0,.2.1a16.642,16.642,0,0,0-.5,2.8Z" fill="#720040"/>
    <path id="Path_8" data-name="Path 8" d="M81.8,429.9a15.1,15.1,0,0,0,1.1,5.6H83a15.75,15.75,0,0,0,5.2-1.2h.1a13.986,13.986,0,0,1-.1,5.4v.1a6.2,6.2,0,0,0,2.7.2c.1,0,.1.1,0,.1a8.725,8.725,0,0,1-3.9.2s-.1,0,0-.1c.1-.5.8-3.8.6-4.8,0,0,0-.1-.1,0-.5.2-4,1.3-5.1,1.1h-.1c-.2-.4-1.6-4.1-.7-6.8.1.1.2.1.2.2Z" fill="#720040"/>
  </g>
</svg>
