<svg xmlns="http://www.w3.org/2000/svg" width="11.82" height="12.919" viewBox="0 0 11.82 12.919">
  <g id="Group_100" data-name="Group 100" transform="translate(-94.68 -324.8)">
    <circle id="Ellipse_23" data-name="Ellipse 23" cx="5.8" cy="5.8" r="5.8" transform="translate(94.9 325.6)" fill="#008c44"/>
    <path id="Path_146" data-name="Path 146" d="M97.5,326.6a5.777,5.777,0,0,0-1.5,8,5.2,5.2,0,0,0,2.4,2,6.353,6.353,0,0,1-1.8-7,6.218,6.218,0,0,1,6.7-3.5,6.579,6.579,0,0,0-5.8.5Z" opacity="0.2"/>
    <path id="Path_147" data-name="Path 147" d="M95.7,327.8a.52.52,0,0,1,.4-.2c.2,0,.2.3.2.5-.1.6-.1,1.2-.2,1.9-.1.9-.2,1.7-.3,2.6a.6.6,0,0,1-.1.4c-.1.1-.2.2-.3.2-.2,0-.3-.3-.3-.5a7.658,7.658,0,0,1-.4-2.5,6.468,6.468,0,0,1,.4-1.3,10.912,10.912,0,0,1,.6-1.1Z" fill="#005221"/>
    <path id="Path_148" data-name="Path 148" d="M97.8,330.7a11.8,11.8,0,0,1-.4,2,3.816,3.816,0,0,1-1.2,1.7,1.575,1.575,0,0,0-.7.7c-.1.3,0,.8.3.8a.764.764,0,0,0,.5-.2,8.6,8.6,0,0,0,3-8.1,3.359,3.359,0,0,0-.5-1.4,1.357,1.357,0,0,0-1.1-.7c-.3,0-.8,0-.6.5.2.4.6.6.8,1a3.333,3.333,0,0,1,.2,1.7c-.1.6-.2,1.3-.3,2Z" fill="#005221"/>
    <path id="Path_149" data-name="Path 149" d="M100.7,333c.1-.2.1-.4.3-.5s.4-.2.6,0a.454.454,0,0,1,0,.5,9.934,9.934,0,0,1-2.9,4.1,4.348,4.348,0,0,1-.7.4c-.4.1-1.1-.3-.7-.7.2-.4,1-.6,1.3-.9a6.577,6.577,0,0,0,2.1-2.9Z" fill="#005221"/>
    <path id="Path_150" data-name="Path 150" d="M101.8,328c-.1,1-.4,1.9-.5,2.9,0,.2,0,.5.2.5a.758.758,0,0,0,.4-.2,4.357,4.357,0,0,0,1.1-2.9,5.208,5.208,0,0,0-.8-3,1.024,1.024,0,0,0-.6-.5c-.2,0-.5.1-.5.3s.4.6.5.8a5.174,5.174,0,0,1,.2,2.1Z" fill="#005221"/>
    <path id="Path_151" data-name="Path 151" d="M105.6,328.5a.354.354,0,0,1,.4-.4c.1,0,.1.1.1.2a10.445,10.445,0,0,1,0,2.5c0,.1,0,.2-.1.2s-.1.1-.2.1a.215.215,0,0,1-.2-.2v-2.4Z" fill="#005221"/>
    <path id="Path_152" data-name="Path 152" d="M105.2,332.9a.758.758,0,0,1,.2-.4c.1-.1.3-.2.4-.1s.1.2.1.4a6.17,6.17,0,0,1-3,4.6c-.2.1-1.2.6-1.2.1,0-.2.9-.7,1.1-.8a5.782,5.782,0,0,0,1.8-2.3,4.715,4.715,0,0,0,.6-1.5Z" fill="#005221"/>
    <path id="Path_153" data-name="Path 153" d="M104.8,333.5a4.853,4.853,0,0,1-2.6,2.3,1.268,1.268,0,0,1-.6.1.55.55,0,0,1-.5-.3.638.638,0,0,1,0-.6,1.756,1.756,0,0,1,.4-.5,9.184,9.184,0,0,0,1.9-3.5c.2-.6.1-1.4.3-2a.9.9,0,0,1,.6-.6c.6-.1.9.8,1,1.3a4.552,4.552,0,0,1-.5,3.8Z" fill="#fcee21" opacity="0.2"/>
    <path id="Path_154" data-name="Path 154" d="M103.9,328.9c.1.1.2.2.3.2.2,0,.2-.2.3-.4.1-.3.3-2.2-.3-2-.3,0-.4.5-.4.7a7.569,7.569,0,0,0,.1,1.5Z" fill="#005221"/>
    <path id="Path_155" data-name="Path 155" d="M103.9,330.2a.367.367,0,0,1,.1-.3c.1-.1.2-.2.3-.1.1,0,.1.2.1.3a9.378,9.378,0,0,1-3.8,7.4.758.758,0,0,1-.4.2.4.4,0,0,1-.4-.2c-.1-.2.1-.5.2-.6l2.6-2.6a5.1,5.1,0,0,0,1.2-2.3c.1-.3.1-.6.2-.9a1.477,1.477,0,0,1-.1-.9Z" fill="#005221"/>
  </g>
</svg>
