<svg xmlns="http://www.w3.org/2000/svg" width="27.428" height="26.886" viewBox="0 0 27.428 26.886">
  <g id="Group_89" data-name="Group 89" transform="translate(-15.072 -826.214)">
    <circle id="Ellipse_12" data-name="Ellipse 12" cx="12.5" cy="12.5" r="12.5" transform="translate(17.1 827.9)" fill="#d60080"/>
    <path id="Path_76" data-name="Path 76" d="M18.2,845.6A12.539,12.539,0,0,0,40,847.4c-4.4,3.4-10.7,4.4-15.6,1.4-4.2-2.6-7.5-9.8-5.1-15.6a12.5,12.5,0,0,0-1.1,12.4Z" opacity="0.2"/>
    <path id="Path_77" data-name="Path 77" d="M27,842.6a2.768,2.768,0,0,1,1.3-.3.765.765,0,0,1,.8.9c-.1.4-.5.6-.8.8a19.018,19.018,0,0,1-10.8,1.1,3.805,3.805,0,0,1-1.5-.5c-.8-.6-1.1-2.1.1-2.3,1-.2,2.4.7,3.3,1a13.2,13.2,0,0,0,7.6-.7Z" fill="#720040"/>
    <path id="Path_78" data-name="Path 78" d="M36.7,837.2a60.533,60.533,0,0,1-5.5,3.2c-.4.2-.8.7-.6,1.1a.829.829,0,0,0,.8.3,10.365,10.365,0,0,0,6.3-2.3,10.515,10.515,0,0,0,3.6-5.6,2.9,2.9,0,0,0,0-1.6c-.2-.3-.9-.7-1.2-.4s-.4,1.5-.6,2a10.048,10.048,0,0,1-2.8,3.3Z" fill="#720040"/>
    <path id="Path_79" data-name="Path 79" d="M38.3,842a.755.755,0,0,0,.1.8.92.92,0,0,0,1-.1c.6-.3,3.9-2.7,2.9-3.5-.5-.3-1.4.1-1.7.4-.6.6-2,1.6-2.3,2.4Z" fill="#720040"/>
    <path id="Path_80" data-name="Path 80" d="M36.1,843.8a.713.713,0,0,1,.6-.3c.3,0,.5,0,.6.2s-.1.5-.3.7a19.193,19.193,0,0,1-17.5,4.3,4.178,4.178,0,0,1-1-.4.806.806,0,0,1-.3-.9c.2-.5.9-.5,1.4-.5,2.6.2,5.3.3,7.9.5A10.488,10.488,0,0,0,33,846a8.634,8.634,0,0,0,1.6-1,7.888,7.888,0,0,1,1.5-1.2Z" fill="#720040"/>
    <path id="Path_81" data-name="Path 81" d="M41.4,844.2a1.275,1.275,0,0,1,.6-.4.35.35,0,0,1,.5.3c0,.2-.1.3-.2.5a26.435,26.435,0,0,1-3.9,3.6.764.764,0,0,1-.5.2.75.75,0,0,1-.5-.1.446.446,0,0,1,0-.5,5.01,5.01,0,0,1,.8-.7,9.425,9.425,0,0,0,1-1l2.2-1.9Z" fill="#720040"/>
    <path id="Path_82" data-name="Path 82" d="M33.7,849.8a3.179,3.179,0,0,1,.9-.3c.3,0,.7.2.7.5s-.2.5-.5.7A13.75,13.75,0,0,1,23,852.5c-.4-.1-2.6-1.1-1.8-1.8.4-.3,2.4.5,2.9.6a19.059,19.059,0,0,0,6.3-.2,15.065,15.065,0,0,0,3.3-1.3Z" fill="#720040"/>
    <path id="Path_83" data-name="Path 83" d="M35.9,831.7a11.184,11.184,0,0,1,4,6.4,2.769,2.769,0,0,1,.1,1.3,1.265,1.265,0,0,1-.7,1,1.531,1.531,0,0,1-1.3-.2c-.4-.2-.6-.6-.9-1a18.155,18.155,0,0,0-6.7-5.3c-1.2-.6-3-.7-4.1-1.4-.5-.3-1.1-.9-1-1.5.1-1.4,2.1-1.7,3.2-1.7a11.106,11.106,0,0,1,7.4,2.4Z" fill="#fcee21" opacity="0.2"/>
    <path id="Path_84" data-name="Path 84" d="M28.2,826.9c.3,0,.7,0,.8.3.2.4-.2.8-.6,1.1-1.1.8-2.2,1.5-3.3,2.3-1.5,1.1-3.1,2.2-4.7,3.2a2.01,2.01,0,0,1-.8.4.67.67,0,0,1-.8-.3c-.2-.4,0-.8.3-1.2,1.1-1.6,2-3.3,3.6-4.3a12.271,12.271,0,0,1,2.6-1.2,28.492,28.492,0,0,1,2.9-.3Z" fill="#720040"/>
    <path id="Path_85" data-name="Path 85" d="M26.5,834.7a24.581,24.581,0,0,1-3.9,2.2,7.388,7.388,0,0,1-4.4.5,5.023,5.023,0,0,0-2.1-.2c-.7.2-1.3,1-.9,1.6.2.3.7.4,1.1.5a18.941,18.941,0,0,0,17.5-6.7,6.383,6.383,0,0,0,1.5-2.8,3.9,3.9,0,0,0-.4-2.8c-.4-.6-1.2-1.2-1.6-.4s-.2,1.8-.5,2.7a6.757,6.757,0,0,1-2.6,2.7,31.754,31.754,0,0,1-3.7,2.7Z" fill="#720040"/>
  </g>
</svg>
