<svg width="31" height="23" viewBox="0 0 31 23" fill="none" xmlns="http://www.w3.org/2000/svg">
<path d="M25.9609 1.88839C24.0561 1.01437 22.0134 0.370405 19.8776 0.00154764C19.8387 -0.00557383 19.7998 0.0122298 19.7798 0.0477788C19.517 0.515052 19.2261 1.12458 19.0223 1.6037C16.7251 1.25977 14.4397 1.25977 12.1897 1.6037C11.9859 1.11396 11.6843 0.515052 11.4204 0.0477788C11.4004 0.0133973 11.3615 -0.00440638 11.3226 0.00154764C9.18806 0.369179 7.14536 1.01315 5.23926 1.88839C5.22274 1.89551 5.20861 1.90736 5.19921 1.92277C1.32467 7.7113 0.263218 13.3576 0.783903 18.9338C0.786238 18.9611 0.80159 18.9872 0.822779 19.0037C3.3791 20.8811 5.85538 22.0207 8.28561 22.7762C8.32449 22.788 8.3657 22.7739 8.39045 22.7418C8.96531 21.9568 9.47776 21.129 9.91713 20.2585C9.94305 20.2075 9.9183 20.147 9.8653 20.1268C9.05245 19.8185 8.27849 19.4425 7.53395 19.0156C7.47505 18.9813 7.47032 18.897 7.52455 18.8567C7.68122 18.7393 7.83795 18.6171 7.98756 18.4938C8.01465 18.4713 8.05236 18.4665 8.08417 18.4807C12.9753 20.7139 18.2706 20.7139 23.1041 18.4807C23.1359 18.4653 23.1736 18.4701 23.2018 18.4926C23.3515 18.6159 23.5082 18.7392 23.666 18.8566C23.7202 18.897 23.7166 18.9812 23.6578 19.0156C22.9132 19.4508 22.1393 19.8184 21.3253 20.1256C21.2723 20.1457 21.2487 20.2074 21.2747 20.2584C21.7235 21.1277 22.2359 21.9555 22.8002 22.7406C22.8237 22.7738 22.8661 22.788 22.905 22.7761C25.347 22.0207 27.8233 20.881 30.3796 19.0037C30.402 18.9871 30.4162 18.9622 30.4185 18.9349C31.0417 12.4882 29.3747 6.88819 25.9997 1.92388C25.9915 1.90736 25.9774 1.89551 25.9609 1.88839ZM10.6477 15.5384C9.1751 15.5384 7.9617 14.1865 7.9617 12.5262C7.9617 10.8658 9.15151 9.51391 10.6477 9.51391C12.1555 9.51391 13.3572 10.8777 13.3336 12.5262C13.3336 14.1865 12.1437 15.5384 10.6477 15.5384ZM20.5784 15.5384C19.1059 15.5384 17.8925 14.1865 17.8925 12.5262C17.8925 10.8658 19.0823 9.51391 20.5784 9.51391C22.0863 9.51391 23.2879 10.8777 23.2644 12.5262C23.2644 14.1865 22.0864 15.5384 20.5784 15.5384Z" fill="white"/>
</svg>
