<svg width="26" height="25" viewBox="0 0 26 25" fill="none" xmlns="http://www.w3.org/2000/svg">
<path d="M19 0H6.96223C3.59166 0 0.943359 2.6483 0.943359 6.01887V18.0566C0.943359 21.4272 3.59166 24.0755 6.96223 24.0755H19C22.3705 24.0755 25.0188 21.4272 25.0188 18.0566V6.01887C25.0188 2.6483 22.3705 0 19 0ZM22.6113 18.0566C22.6113 20.103 21.0464 21.6679 19 21.6679H6.96223C4.91581 21.6679 3.35091 20.103 3.35091 18.0566V6.01887C3.35091 3.97245 4.91581 2.40755 6.96223 2.40755H19C21.0464 2.40755 22.6113 3.97245 22.6113 6.01887V18.0566Z" fill="white"/>
<path d="M12.9811 6.0188C9.61058 6.0188 6.96228 8.6671 6.96228 12.0377C6.96228 15.4082 9.61058 18.0565 12.9811 18.0565C16.3517 18.0565 19 15.4082 19 12.0377C19 8.6671 16.3517 6.0188 12.9811 6.0188ZM12.9811 15.649C10.9347 15.649 9.36983 14.0841 9.36983 12.0377C9.36983 9.99125 10.9347 8.42635 12.9811 8.42635C15.0276 8.42635 16.5925 9.99125 16.5925 12.0377C16.5925 14.0841 15.0276 15.649 12.9811 15.649Z" fill="white"/>
<path d="M18.9999 7.22273C19.6647 7.22273 20.2037 6.68378 20.2037 6.01896C20.2037 5.35413 19.6647 4.81519 18.9999 4.81519C18.3351 4.81519 17.7961 5.35413 17.7961 6.01896C17.7961 6.68378 18.3351 7.22273 18.9999 7.22273Z" fill="white"/>
</svg>
