<svg width="1367" height="887" viewBox="0 0 1367 887" fill="none" xmlns="http://www.w3.org/2000/svg">
<path d="M1062.81 109.237C1058.43 106.443 1054.26 103.396 1050.11 100.281C1090.97 95.005 1131.44 87.0938 1171.27 76.5971C1213.06 65.1735 1254.15 51.3227 1294.33 35.1152C1300.23 32.7788 1306.11 30.4195 1312 28.0374C1298.6 35.7947 1285.35 43.8727 1272.26 52.2714C1243.36 70.8707 1215.36 90.8061 1188.27 112.078C1173.52 123.683 1159.09 135.716 1144.99 148.177C1116.85 137.068 1088.38 125.638 1062.81 109.237Z" stroke="url(#paint0_linear_64_468)" stroke-width="3" stroke-linecap="round" stroke-linejoin="round" stroke-dasharray="7.18 7.18"/>
<path d="M1159.61 221.658C1156.31 198.638 1153.26 175.572 1149.43 152.643C1174.65 130.379 1200.9 109.344 1228.17 89.5387C1256.04 69.3666 1284.83 50.607 1314.54 33.2599C1323.71 27.9 1332.98 22.6546 1342.36 17.5238C1316.39 40.2919 1290.42 63.0294 1264.45 85.7364C1248.28 99.7699 1232.1 113.773 1215.91 127.745L1191.3 148.887C1184.42 154.911 1175.74 160.958 1171.59 169.502C1169.44 174.283 1167.9 179.316 1167.01 184.482C1165.82 190.254 1164.72 195.935 1163.46 201.776C1162.26 208.441 1160.91 215.061 1159.61 221.658Z" fill="url(#paint1_linear_64_468)"/>
<path d="M1216.02 184.757C1213.25 187.047 1210.55 189.567 1207.84 191.995C1202.16 197.156 1196.54 202.371 1190.98 207.639C1185.42 212.908 1180.02 218.168 1174.8 223.421L1172.07 226.239L1162.91 234.553C1164.85 225.666 1166.8 216.756 1168.68 207.846C1169.78 202.715 1170.83 197.561 1171.89 192.43C1172.94 187.299 1173.77 182.672 1175.19 177.931C1176.15 174.65 1177.59 171.525 1179.45 168.654C1192.88 173.464 1206.74 177.198 1220.56 180.703C1218.98 182.054 1217.49 183.474 1216.02 184.757Z" fill="url(#paint2_linear_64_468)"/>
<path d="M1320.91 71.0081C1310.56 95.5096 1303.1 121.129 1298.66 147.352C1296.28 161.389 1294.64 175.541 1293.76 189.75C1263.6 184.757 1233.83 178.298 1204.25 170.647C1196.96 168.769 1189.69 166.753 1182.38 164.898C1185.07 161.999 1187.93 159.268 1190.95 156.721L1214.97 135.396C1246.81 107.222 1278.74 79.1625 1310.76 51.2178C1323.91 39.765 1337.09 28.3123 1350.29 16.8595C1338.72 33.8911 1328.88 52.0299 1320.91 71.0081V71.0081Z" stroke="url(#paint3_linear_64_468)" stroke-width="3" stroke-linecap="round" stroke-linejoin="round" stroke-dasharray="7.18 7.18"/>
<path d="M316.03 556.216C328.06 580.037 350.403 597.446 360.395 622.413C364.611 633.218 366.093 644.897 364.71 656.413C363.327 667.929 359.121 678.925 352.466 688.426C349.622 692.512 346.281 696.228 342.52 699.49C341.97 699.963 341.42 700.421 340.87 700.864L340.343 701.276L339.22 702.124C337.822 703.155 336.356 704.162 334.889 705.124C327.519 709.828 319.866 714.073 311.973 717.837C290.249 728.488 267.654 737.33 245.059 745.965C218.064 756.318 190.818 766.007 163.571 775.628C160.065 776.864 156.581 778.101 153.121 779.453C152.529 779.678 152.043 780.116 151.757 780.681C151.471 781.246 151.407 781.897 151.576 782.507C151.745 783.117 152.136 783.642 152.671 783.98C153.207 784.317 153.85 784.443 154.473 784.332C161.715 782.041 168.841 779.453 175.991 776.956L196.936 769.558C210.793 764.625 224.618 759.594 238.414 754.463C262.338 745.53 286.193 736.139 309.269 725.281C317.824 721.329 326.155 716.909 334.225 712.042C348.235 704.003 359.186 691.551 365.368 676.632C371.55 661.714 372.613 645.169 368.392 629.582C361.517 603.264 340.045 585.214 325.998 562.973C324.073 559.903 322.263 556.72 320.636 553.467C319.009 550.214 314.517 553.1 316.052 556.147L316.03 556.216Z" fill="white"/>
<path d="M905.745 591.147C873.05 593.232 840.225 590.594 808.284 583.313C776.249 575.992 744.835 566.181 714.329 553.971C683.897 542.175 654.061 528.775 624.018 516.154C594.365 503.602 564.437 491.485 533.776 481.796C502.541 471.878 470.207 464.204 437.529 461.799C433.313 461.501 429.073 461.295 424.834 461.181C420.594 461.066 420.549 467.755 424.834 467.846C457.97 468.671 490.786 475.68 522.478 485.071C553.249 494.555 583.494 505.665 613.087 518.353C643.13 530.882 672.875 544.122 703.123 556.124C733.581 568.554 764.887 578.796 796.803 586.772C828.509 594.74 861.144 598.408 893.829 597.675C897.862 597.537 901.895 597.308 905.928 597.01C909.961 596.713 909.663 590.94 905.928 591.215L905.745 591.147Z" fill="white"/>
<path d="M593.952 299.697C614.49 317.529 636.93 333.046 660.867 345.966C684.848 358.851 709.633 370.182 735.068 379.889C760.734 389.922 786.766 398.923 812.752 408.086C838.739 417.248 864.771 426.547 890.231 437.176C902.903 442.467 915.438 448.079 927.721 454.172C940.76 460.631 953.73 467.755 964.776 477.306C967.559 479.714 970.214 482.268 972.728 484.957C975.569 488.003 980.129 483.445 977.311 480.375C966.966 469.748 954.972 460.861 941.791 454.057C929.44 447.185 916.584 441.39 903.705 435.733C878.337 424.738 852.374 415.118 826.319 405.955C800.263 396.793 774.185 387.906 748.405 378.194C722.885 368.871 697.926 358.08 673.654 345.874C649.608 333.728 626.949 319.013 606.075 301.987C603.432 299.804 600.835 297.582 598.284 295.322C595.304 292.688 590.905 297.063 593.907 299.697H593.952Z" fill="white"/>
<path d="M1102 180.955C1077.95 193.828 1052.14 203.09 1025.39 208.441C998.504 213.788 971.151 216.428 943.739 216.321C915.315 216.196 886.918 214.521 858.676 211.304C827.396 208.029 796.207 203.791 764.904 200.608C733.906 197.109 702.711 195.655 671.522 196.255C667.604 196.255 663.685 196.53 659.789 196.782C655.894 197.034 655.733 203.219 659.789 203.036C691.237 201.741 722.737 202.613 754.065 205.647C785.528 208.487 816.854 212.633 848.249 216.046C877.159 219.451 906.223 221.393 935.329 221.864C962.996 222.283 990.64 220.089 1017.89 215.313C1044.81 210.639 1070.87 201.968 1095.21 189.59C1098.27 188.063 1101.26 186.414 1104.2 184.642C1104.69 184.354 1105.05 183.88 1105.2 183.326C1105.34 182.772 1105.26 182.183 1104.97 181.688C1104.69 181.193 1104.21 180.832 1103.66 180.686C1103.1 180.54 1102.51 180.62 1102.02 180.909L1102 180.955Z" fill="white"/>
<path d="M589.518 256.435C609.805 256.435 626.252 239.996 626.252 219.718C626.252 199.439 609.805 183 589.518 183C569.23 183 552.784 199.439 552.784 219.718C552.784 239.996 569.23 256.435 589.518 256.435Z" fill="url(#paint4_linear_64_468)"/>
<path d="M590.054 275.877C621.277 275.877 646.587 250.578 646.587 219.369C646.587 188.161 621.277 162.861 590.054 162.861C558.832 162.861 533.521 188.161 533.521 219.369C533.521 250.578 558.832 275.877 590.054 275.877Z" stroke="url(#paint5_linear_64_468)" stroke-width="3" stroke-linecap="round" stroke-linejoin="round" stroke-dasharray="7.18 7.18"/>
<path d="M982.32 619.11C1013.54 619.11 1038.85 593.811 1038.85 562.602C1038.85 531.394 1013.54 506.094 982.32 506.094C951.097 506.094 925.787 531.394 925.787 562.602C925.787 593.811 951.097 619.11 982.32 619.11Z" stroke="url(#paint6_linear_64_468)" stroke-width="3" stroke-linecap="round" stroke-linejoin="round" stroke-dasharray="7.18 7.18"/>
<path d="M397.532 488.999C406.587 459.039 389.629 427.415 359.655 418.364C329.681 409.314 298.043 426.264 288.988 456.225C279.934 486.185 296.892 517.809 326.866 526.859C356.839 535.91 388.478 518.959 397.532 488.999Z" stroke="url(#paint7_linear_64_468)" stroke-width="3" stroke-linecap="round" stroke-linejoin="round" stroke-dasharray="7.18 7.18"/>
<path d="M95.4986 865.143C124.344 853.2 138.043 820.145 126.094 791.312C114.146 762.479 81.0757 748.787 52.2299 760.73C23.3841 772.673 9.68604 805.728 21.6344 834.561C33.5827 863.394 66.6528 877.086 95.4986 865.143Z" stroke="url(#paint8_linear_64_468)" stroke-width="3" stroke-linecap="round" stroke-linejoin="round" stroke-dasharray="7.18 7.18"/>
<path d="M982.131 598.858C1002.41 598.858 1018.85 582.415 1018.84 562.132C1018.83 541.849 1002.38 525.406 982.098 525.406C961.815 525.406 945.38 541.849 945.389 562.132C945.398 582.415 961.848 598.858 982.131 598.858Z" fill="url(#paint9_linear_64_468)"/>
<path d="M73.8559 849.638C94.1349 849.638 110.571 833.192 110.567 812.905C110.563 792.618 94.1201 776.172 73.8411 776.172C53.5621 776.172 37.126 792.618 37.1301 812.905C37.1342 833.192 53.5768 849.638 73.8559 849.638Z" fill="url(#paint10_linear_64_468)"/>
<path d="M343.154 509.551C363.433 509.551 379.869 493.105 379.865 472.818C379.861 452.531 363.418 436.085 343.139 436.085C322.86 436.085 306.424 452.531 306.428 472.818C306.432 493.105 322.875 509.551 343.154 509.551Z" fill="url(#paint11_linear_64_468)"/>
<path opacity="0.15" d="M330.184 76C333.151 76 336.051 75.1203 338.518 73.4721C340.985 71.8238 342.907 69.4811 344.043 66.7402C345.178 63.9994 345.475 60.9834 344.896 58.0737C344.317 55.164 342.889 52.4912 340.791 50.3934C338.693 48.2956 336.02 46.867 333.111 46.2882C330.201 45.7094 327.185 46.0065 324.444 47.1418C321.703 48.2771 319.361 50.1997 317.712 52.6664C316.064 55.1332 315.184 58.0333 315.184 61C315.184 64.9783 316.765 68.7936 319.578 71.6066C322.391 74.4197 326.206 76 330.184 76Z" fill="#FE19C1"/>
<g filter="url(#filter0_d_64_468)">
<path d="M125.157 618.923C120.271 612.256 109.374 610.199 102.079 614.575C94.7842 618.951 92.3058 629.006 96.8412 635.886C89.5565 633.354 81.3486 640.542 82.041 647.766C82.7333 654.991 90.0682 660.485 97.7342 661.639C105.4 662.794 113.237 660.438 120.2 657.217C122.539 660.44 125.673 663.099 129.341 664.973C133.01 666.847 137.107 667.881 141.293 667.99C145.479 668.1 149.633 667.28 153.409 665.601C157.186 663.921 160.476 661.43 163.006 658.334C170.25 662.579 179.592 664.6 187.489 661.518C195.386 658.436 200.533 649.154 196.71 642.041C194.262 637.469 188.813 634.76 183.355 634.155C177.334 633.494 172.006 635.393 166.297 636.398C165.675 633.605 168.003 630.868 168.825 628.019C170.333 623.125 170.154 617.917 168.314 613.122C167.044 609.957 165.004 607.105 162.354 604.79C159.704 602.474 156.514 600.757 153.032 599.771C149.756 598.924 146.318 598.773 142.971 599.327C139.623 599.882 136.454 601.128 133.696 602.974C130.265 605.292 121.826 614.351 125.157 618.923Z" fill="#113A8A" fill-opacity="0.9" shape-rendering="crispEdges"/>
</g>
<path d="M134.577 624.613C130.322 618.719 120.834 616.9 114.483 620.769C108.131 624.637 105.973 633.527 109.922 639.61C103.579 637.371 96.4329 643.725 97.0357 650.112C97.6385 656.5 104.025 661.356 110.7 662.377C117.374 663.397 124.198 661.315 130.261 658.467C132.297 661.316 135.025 663.667 138.22 665.324C141.414 666.98 144.981 667.895 148.626 667.991C152.271 668.088 155.887 667.364 159.175 665.879C162.463 664.394 165.328 662.192 167.531 659.455C173.839 663.208 181.972 664.994 188.848 662.27C195.724 659.545 200.205 651.339 196.877 645.05C194.745 641.009 190.001 638.614 185.248 638.079C180.007 637.494 175.367 639.173 170.396 640.062C169.855 637.593 171.882 635.173 172.598 632.654C173.911 628.328 173.755 623.724 172.152 619.485C171.047 616.686 169.271 614.166 166.963 612.118C164.656 610.071 161.878 608.553 158.847 607.682C155.995 606.933 153.001 606.799 150.086 607.289C147.172 607.779 144.412 608.881 142.011 610.513C139.023 612.563 131.676 620.571 134.577 624.613Z" fill="#3F6FCB" fill-opacity="0.9"/>
<g filter="url(#filter1_d_64_468)">
<path d="M966.157 689.923C961.271 683.256 950.374 681.199 943.079 685.575C935.784 689.951 933.306 700.006 937.841 706.886C930.556 704.354 922.349 711.542 923.041 718.766C923.733 725.991 931.068 731.485 938.734 732.639C946.4 733.794 954.237 731.438 961.2 728.217C963.539 731.44 966.673 734.099 970.341 735.973C974.01 737.847 978.107 738.881 982.293 738.99C986.479 739.1 990.633 738.28 994.409 736.601C998.186 734.921 1001.48 732.43 1004.01 729.334C1011.25 733.579 1020.59 735.6 1028.49 732.518C1036.39 729.436 1041.53 720.154 1037.71 713.041C1035.26 708.469 1029.81 705.76 1024.35 705.155C1018.33 704.494 1013.01 706.393 1007.3 707.398C1006.67 704.605 1009 701.868 1009.83 699.019C1011.33 694.125 1011.15 688.917 1009.31 684.122C1008.04 680.957 1006 678.105 1003.35 675.79C1000.7 673.474 997.514 671.757 994.032 670.771C990.756 669.924 987.318 669.773 983.971 670.327C980.623 670.882 977.454 672.128 974.696 673.974C971.265 676.292 962.826 685.351 966.157 689.923Z" fill="#113A8A" fill-opacity="0.9" shape-rendering="crispEdges"/>
</g>
<path d="M975.577 695.613C971.322 689.719 961.834 687.9 955.483 691.769C949.131 695.637 946.973 704.527 950.922 710.61C944.579 708.371 937.433 714.725 938.036 721.112C938.639 727.5 945.025 732.356 951.7 733.377C958.374 734.397 965.198 732.315 971.261 729.467C973.297 732.316 976.025 734.667 979.22 736.324C982.414 737.98 985.981 738.895 989.626 738.991C993.271 739.088 996.887 738.364 1000.18 736.879C1003.46 735.394 1006.33 733.192 1008.53 730.455C1014.84 734.208 1022.97 735.994 1029.85 733.27C1036.72 730.545 1041.21 722.339 1037.88 716.05C1035.75 712.009 1031 709.614 1026.25 709.079C1021.01 708.494 1016.37 710.173 1011.4 711.062C1010.85 708.593 1012.88 706.173 1013.6 703.654C1014.91 699.328 1014.76 694.724 1013.15 690.485C1012.05 687.686 1010.27 685.166 1007.96 683.118C1005.66 681.071 1002.88 679.553 999.847 678.682C996.995 677.933 994.001 677.799 991.086 678.289C988.172 678.779 985.412 679.881 983.011 681.513C980.023 683.563 972.676 691.571 975.577 695.613Z" fill="#3F6FCB" fill-opacity="0.9"/>
<g filter="url(#filter2_d_64_468)">
<path d="M584.157 76.9226C579.271 70.2563 568.374 68.1987 561.079 72.5747C553.784 76.9506 551.306 87.0059 555.841 93.8863C548.556 91.3538 540.349 98.5415 541.041 105.766C541.733 112.991 549.068 118.485 556.734 119.639C564.4 120.794 572.237 118.438 579.2 115.217C581.539 118.44 584.673 121.099 588.341 122.973C592.01 124.847 596.107 125.881 600.293 125.99C604.479 126.1 608.633 125.28 612.409 123.601C616.186 121.921 619.476 119.43 622.006 116.334C629.25 120.579 638.592 122.6 646.489 119.518C654.386 116.436 659.533 107.154 655.71 100.041C653.262 95.4691 647.813 92.7597 642.355 92.1546C636.334 91.4935 631.006 93.3929 625.297 94.3984C624.675 91.6052 627.003 88.868 627.825 86.019C629.333 81.1254 629.154 75.9168 627.314 71.1222C626.044 67.9566 624.004 65.1053 621.354 62.7897C618.704 60.4742 615.514 58.7568 612.032 57.771C608.756 56.9244 605.318 56.7728 601.971 57.3272C598.623 57.8816 595.454 59.1279 592.696 60.9738C589.265 63.2921 580.826 72.3512 584.157 76.9226Z" fill="#113A8A" fill-opacity="0.9" shape-rendering="crispEdges"/>
</g>
<path d="M593.577 82.6128C589.322 76.7194 579.834 74.9003 573.483 78.7689C567.131 82.6375 564.973 91.5269 568.922 97.6096C562.579 95.3708 555.433 101.725 556.036 108.112C556.639 114.5 563.025 119.356 569.7 120.377C576.374 121.397 583.198 119.315 589.261 116.467C591.297 119.316 594.025 121.667 597.22 123.324C600.414 124.98 603.981 125.895 607.626 125.991C611.271 126.088 614.887 125.364 618.175 123.879C621.463 122.394 624.328 120.192 626.531 117.455C632.839 121.208 640.972 122.994 647.848 120.27C654.724 117.545 659.205 109.339 655.877 103.05C653.745 99.0089 649.001 96.6137 644.248 96.0787C639.007 95.4943 634.367 97.1734 629.396 98.0623C628.855 95.593 630.882 93.1731 631.598 90.6544C632.911 86.3282 632.755 81.7235 631.152 77.4849C630.047 74.6863 628.271 72.1655 625.963 70.1184C623.656 68.0714 620.878 66.5531 617.847 65.6816C614.995 64.9332 612.001 64.7991 609.086 65.2892C606.172 65.7794 603.412 66.8812 601.011 68.5131C598.023 70.5626 590.676 78.5713 593.577 82.6128Z" fill="#3F6FCB" fill-opacity="0.9"/>
<defs>
<filter id="filter0_d_64_468" x="72" y="599" width="136" height="99" filterUnits="userSpaceOnUse" color-interpolation-filters="sRGB">
<feFlood flood-opacity="0" result="BackgroundImageFix"/>
<feColorMatrix in="SourceAlpha" type="matrix" values="0 0 0 0 0 0 0 0 0 0 0 0 0 0 0 0 0 0 127 0" result="hardAlpha"/>
<feOffset dy="20"/>
<feGaussianBlur stdDeviation="5"/>
<feComposite in2="hardAlpha" operator="out"/>
<feColorMatrix type="matrix" values="0 0 0 0 0 0 0 0 0 0 0 0 0 0 0 0 0 0 0.2 0"/>
<feBlend mode="normal" in2="BackgroundImageFix" result="effect1_dropShadow_64_468"/>
<feBlend mode="normal" in="SourceGraphic" in2="effect1_dropShadow_64_468" result="shape"/>
</filter>
<filter id="filter1_d_64_468" x="913" y="670" width="136" height="99" filterUnits="userSpaceOnUse" color-interpolation-filters="sRGB">
<feFlood flood-opacity="0" result="BackgroundImageFix"/>
<feColorMatrix in="SourceAlpha" type="matrix" values="0 0 0 0 0 0 0 0 0 0 0 0 0 0 0 0 0 0 127 0" result="hardAlpha"/>
<feOffset dy="20"/>
<feGaussianBlur stdDeviation="5"/>
<feComposite in2="hardAlpha" operator="out"/>
<feColorMatrix type="matrix" values="0 0 0 0 0 0 0 0 0 0 0 0 0 0 0 0 0 0 0.2 0"/>
<feBlend mode="normal" in2="BackgroundImageFix" result="effect1_dropShadow_64_468"/>
<feBlend mode="normal" in="SourceGraphic" in2="effect1_dropShadow_64_468" result="shape"/>
</filter>
<filter id="filter2_d_64_468" x="531" y="57" width="136" height="99" filterUnits="userSpaceOnUse" color-interpolation-filters="sRGB">
<feFlood flood-opacity="0" result="BackgroundImageFix"/>
<feColorMatrix in="SourceAlpha" type="matrix" values="0 0 0 0 0 0 0 0 0 0 0 0 0 0 0 0 0 0 127 0" result="hardAlpha"/>
<feOffset dy="20"/>
<feGaussianBlur stdDeviation="5"/>
<feComposite in2="hardAlpha" operator="out"/>
<feColorMatrix type="matrix" values="0 0 0 0 0 0 0 0 0 0 0 0 0 0 0 0 0 0 0.2 0"/>
<feBlend mode="normal" in2="BackgroundImageFix" result="effect1_dropShadow_64_468"/>
<feBlend mode="normal" in="SourceGraphic" in2="effect1_dropShadow_64_468" result="shape"/>
</filter>
<linearGradient id="paint0_linear_64_468" x1="1181.06" y1="28.0374" x2="1181.06" y2="148.177" gradientUnits="userSpaceOnUse">
<stop stop-color="#FAFF00"/>
<stop offset="1" stop-color="#FE19C1"/>
</linearGradient>
<linearGradient id="paint1_linear_64_468" x1="1245.9" y1="17.5238" x2="1245.9" y2="221.658" gradientUnits="userSpaceOnUse">
<stop stop-color="#FAFF00"/>
<stop offset="1" stop-color="#FE19C1"/>
</linearGradient>
<linearGradient id="paint2_linear_64_468" x1="1191.73" y1="168.654" x2="1191.73" y2="234.553" gradientUnits="userSpaceOnUse">
<stop stop-color="#FAFF00"/>
<stop offset="1" stop-color="#FE19C1"/>
</linearGradient>
<linearGradient id="paint3_linear_64_468" x1="1266.34" y1="16.8595" x2="1266.34" y2="189.75" gradientUnits="userSpaceOnUse">
<stop stop-color="#FAFF00"/>
<stop offset="1" stop-color="#FE19C1"/>
</linearGradient>
<linearGradient id="paint4_linear_64_468" x1="589.518" y1="183" x2="589.518" y2="256.435" gradientUnits="userSpaceOnUse">
<stop stop-color="#FAFF00"/>
<stop offset="1" stop-color="#FE19C1"/>
</linearGradient>
<linearGradient id="paint5_linear_64_468" x1="590.054" y1="162.861" x2="590.054" y2="275.877" gradientUnits="userSpaceOnUse">
<stop stop-color="#FAFF00"/>
<stop offset="1" stop-color="#FE19C1"/>
</linearGradient>
<linearGradient id="paint6_linear_64_468" x1="982.32" y1="506.094" x2="982.32" y2="619.11" gradientUnits="userSpaceOnUse">
<stop stop-color="#FAFF00"/>
<stop offset="1" stop-color="#FE19C1"/>
</linearGradient>
<linearGradient id="paint7_linear_64_468" x1="288.988" y1="456.225" x2="397.524" y2="489.026" gradientUnits="userSpaceOnUse">
<stop stop-color="#FAFF00"/>
<stop offset="1" stop-color="#FE19C1"/>
</linearGradient>
<linearGradient id="paint8_linear_64_468" x1="52.2299" y1="760.73" x2="95.4655" y2="865.157" gradientUnits="userSpaceOnUse">
<stop stop-color="#FAFF00"/>
<stop offset="1" stop-color="#FE19C1"/>
</linearGradient>
<linearGradient id="paint9_linear_64_468" x1="982.098" y1="525.406" x2="982.098" y2="598.858" gradientUnits="userSpaceOnUse">
<stop stop-color="#FAFF00"/>
<stop offset="1" stop-color="#FE19C1"/>
</linearGradient>
<linearGradient id="paint10_linear_64_468" x1="73.8411" y1="776.172" x2="73.8411" y2="849.638" gradientUnits="userSpaceOnUse">
<stop stop-color="#FAFF00"/>
<stop offset="1" stop-color="#FE19C1"/>
</linearGradient>
<linearGradient id="paint11_linear_64_468" x1="343.139" y1="436.085" x2="343.139" y2="509.551" gradientUnits="userSpaceOnUse">
<stop stop-color="#FAFF00"/>
<stop offset="1" stop-color="#FE19C1"/>
</linearGradient>
</defs>
</svg>
