<svg xmlns="http://www.w3.org/2000/svg" xmlns:xlink="http://www.w3.org/1999/xlink" width="54" height="54" viewBox="0 0 54 54">
  <defs>
    <clipPath id="clip-_1.1">
      <rect width="54" height="54"/>
    </clipPath>
  </defs>
  <g id="_1.1" data-name="1.1" clip-path="url(#clip-_1.1)">
    <g id="Group_68" data-name="Group 68" transform="translate(-18.15 -756.95)">
      <g id="Group_42" data-name="Group 42">
        <g id="Group_40" data-name="Group 40">
          <path id="Path_176" data-name="Path 176" d="M45.7,785.8l9.8,9.8a.91.91,0,0,0,1.2,0c.4-.3.3-.8,0-1.2l-9.8-9.8a.91.91,0,0,0-1.2,0A.817.817,0,0,0,45.7,785.8Z" fill="#00556e"/>
          <path id="Path_177" data-name="Path 177" d="M48.6,810.6l-6.3-6.3a.483.483,0,0,1,0-.7l22.4-22.4a.483.483,0,0,1,.7,0l6.3,6.3a.483.483,0,0,1,0,.7L49.3,810.6A.483.483,0,0,1,48.6,810.6Z" fill="#3e7c94"/>
          <path id="Path_178" data-name="Path 178" d="M45.2,801.8c-.1.1-.2.2-.3.2a.215.215,0,0,1-.2-.2c0-.1.1-.2.1-.3a7,7,0,0,1,1.4-1.6c.2-.2,1.2-1.4,1.6-1s-2.3,2.6-2.6,2.9Z" fill="#efe8da" opacity="0.35"/>
          <path id="Path_179" data-name="Path 179" d="M48.8,809.3l-5.2-5.2a.187.187,0,0,1,0-.3l21.3-21.3a.188.188,0,0,1,.3,0l5.2,5.2a.187.187,0,0,1,0,.3L49.1,809.3A.187.187,0,0,1,48.8,809.3Z" fill="#00556e"/>
          <path id="Path_180" data-name="Path 180" d="M51.4,804.3c-.8.8-1.7,1.6-2.8,1.4a2.254,2.254,0,0,1-1.3-2.7,6.135,6.135,0,0,1,1.8-2.7l11.7-12a6.55,6.55,0,0,1,1.8-1.5,3.5,3.5,0,0,1,2.2-.6,2.071,2.071,0,0,1,1.7,1.4c.3,1.1-.9,1.8-1.5,2.5-1.1,1.2-2.2,2.3-3.3,3.5-2.2,2.3-4.3,4.5-6.5,6.8-1.3,1.3-2.5,2.6-3.8,3.9Z" opacity="0.2"/>
          <path id="Path_181" data-name="Path 181" d="M46.5,800.9l5.5,5.5.2-5.7Z" fill="none" stroke="#4e869e" stroke-linecap="round" stroke-linejoin="round" stroke-width="0.83"/>
          <path id="Path_182" data-name="Path 182" d="M62.2,785.3,62,791l5.7-.2Z" fill="none" stroke="#4e869e" stroke-linecap="round" stroke-linejoin="round" stroke-width="0.83"/>
          <path id="Path_183" data-name="Path 183" d="M56.3,791.2l5.5,5.5L62,791Z" fill="none" stroke="#4e869e" stroke-linecap="round" stroke-linejoin="round" stroke-width="0.83"/>
          <path id="Path_184" data-name="Path 184" d="M52.4,795l-.2,5.7,5.7-.2Z" fill="none" stroke="#4e869e" stroke-linecap="round" stroke-linejoin="round" stroke-width="0.83"/>
        </g>
        <g id="Group_41" data-name="Group 41">
          <path id="Path_185" data-name="Path 185" d="M33.3,773.3l9.8,9.8a.91.91,0,0,0,1.2,0c.4-.3.3-.8,0-1.2l-9.8-9.8a.91.91,0,0,0-1.2,0A.75.75,0,0,0,33.3,773.3Z" fill="#00556e"/>
          <path id="Path_186" data-name="Path 186" d="M41.4,757.1l6.3,6.3a.483.483,0,0,1,0,.7L25.3,786.5a.483.483,0,0,1-.7,0l-6.3-6.3a.483.483,0,0,1,0-.7l22.4-22.4A.483.483,0,0,1,41.4,757.1Z" fill="#3e7c94"/>
          <path id="Path_187" data-name="Path 187" d="M27.1,771.8c-.1.1-.2.2-.3.1-.1,0-.2-.2-.2-.3s.1-.2.1-.3a3.447,3.447,0,0,1,1.2-1.2.52.52,0,0,1,.4-.2c.2,0,.3,0,.4.1C28.9,770.4,27.4,771.6,27.1,771.8Z" fill="#efe8da" opacity="0.35"/>
          <path id="Path_188" data-name="Path 188" d="M41.2,758.5l5.2,5.2a.187.187,0,0,1,0,.3L25.1,785.3a.188.188,0,0,1-.3,0l-5.2-5.2a.187.187,0,0,1,0-.3l21.3-21.3A.188.188,0,0,1,41.2,758.5Z" fill="#00556e"/>
          <path id="Path_189" data-name="Path 189" d="M29.3,779.8a9.516,9.516,0,0,1-2.1,1.9,2.622,2.622,0,0,1-2.7.1,2.672,2.672,0,0,1-1-2.8,7.607,7.607,0,0,1,1.5-2.8,50.883,50.883,0,0,1,5.1-5.3c2.9-2.7,5.8-5.4,8.7-8.2a4.365,4.365,0,0,1,1.9-1.2,1.961,1.961,0,0,1,2,.9c.7,1.1.2,2-.6,2.8-1,1.2-2.1,2.4-3.1,3.5l-6.2,7.1c-1.1,1.4-2.3,2.7-3.5,4Z" opacity="0.2"/>
          <path id="Path_190" data-name="Path 190" d="M28,782.3l-5.5-5.5,5.7-.2Z" fill="none" stroke="#4e869e" stroke-linecap="round" stroke-linejoin="round" stroke-width="0.83"/>
          <path id="Path_191" data-name="Path 191" d="M43.6,766.7l-5.7.2.2-5.7Z" fill="none" stroke="#4e869e" stroke-linecap="round" stroke-linejoin="round" stroke-width="0.83"/>
          <path id="Path_192" data-name="Path 192" d="M37.7,772.6l-5.5-5.5,5.7-.2Z" fill="none" stroke="#4e869e" stroke-linecap="round" stroke-linejoin="round" stroke-width="0.83"/>
          <path id="Path_193" data-name="Path 193" d="M33.9,776.5l-5.7.2.2-5.7Z" fill="none" stroke="#4e869e" stroke-linecap="round" stroke-linejoin="round" stroke-width="0.83"/>
        </g>
        <rect id="Rectangle_1" data-name="Rectangle 1" width="1.7" height="0.9" transform="matrix(0.707, -0.707, 0.707, 0.707, 46.687, 786.702)" opacity="0.2"/>
        <rect id="Rectangle_2" data-name="Rectangle 2" width="1.7" height="0.5" transform="matrix(0.707, -0.707, 0.707, 0.707, 41.588, 781.647)" opacity="0.2"/>
      </g>
      <g id="Group_47" data-name="Group 47">
        <g id="Group_43" data-name="Group 43">
          <path id="Path_194" data-name="Path 194" d="M62.6,772.9c-5.6,5.6-12.7,13.5-15,11.2l-2.8-2.8c-2.3-2.3,5.5-9.4,11.2-15" fill="#93a8bd"/>
          <path id="Path_195" data-name="Path 195" d="M61.9,772.1c-5.6,5.6-12.8,13.4-14.6,11.6l-2.1-2.1c-1.8-1.8,6-9,11.6-14.6" fill="#efe8da" opacity="0.25"/>
          <path id="Path_196" data-name="Path 196" d="M60.6,770.9c-5.6,5.6-13,13.2-13.9,12.3l-1.1-1.1c-.9-.9,6.7-8.2,12.3-13.9" fill="#efe8da" opacity="0.25"/>
          <circle id="Ellipse_26" data-name="Ellipse 26" cx="1.6" cy="1.6" r="1.6" transform="translate(55.8 772.5)" fill="#7876a3"/>
          <line id="Line_1" data-name="Line 1" x1="6.7" y1="6.7" transform="translate(54.7 767.5)" fill="none" stroke="#d3e9f4" stroke-miterlimit="10" stroke-width="0.41"/>
          <circle id="Ellipse_27" data-name="Ellipse 27" cx="1.6" cy="1.6" r="1.6" transform="translate(56.1 772.5)" fill="#918bc3"/>
          <rect id="Rectangle_3" data-name="Rectangle 3" width="1.1" height="9.4" transform="matrix(0.707, -0.707, 0.707, 0.707, 55.683, 766.545)" opacity="0.2"/>
          <path id="Path_197" data-name="Path 197" d="M63.6,773.8,55,765.2a.187.187,0,0,1,0-.3l.9-.9a.188.188,0,0,1,.3,0l8.6,8.6a.187.187,0,0,1,0,.3l-.9.9A.187.187,0,0,1,63.6,773.8Z" fill="#e7deef"/>
        </g>
        <g id="Group_44" data-name="Group 44">
          <rect id="Rectangle_4" data-name="Rectangle 4" width="3.5" height="7.2" transform="matrix(0.707, -0.707, 0.707, 0.707, 41.205, 782.573)" fill="#515f82"/>
          <rect id="Rectangle_5" data-name="Rectangle 5" width="3.5" height="3.9" transform="matrix(0.707, -0.707, 0.707, 0.707, 42.864, 784.135)" fill="#efe8da" opacity="0.15"/>
          <rect id="Rectangle_6" data-name="Rectangle 6" width="3.5" height="3.9" transform="matrix(0.707, -0.707, 0.707, 0.707, 41.954, 783.278)" fill="#efe8da" opacity="0.15"/>
          <rect id="Rectangle_7" data-name="Rectangle 7" width="1.5" height="3.3" transform="matrix(0.707, -0.707, 0.707, 0.707, 42.397, 782.467)" fill="#373e5a"/>
        </g>
        <g id="Group_46" data-name="Group 46">
          <path id="Path_198" data-name="Path 198" d="M27.1,796.7a2.837,2.837,0,0,0,0,4l1.1,1.1a2.837,2.837,0,0,0,4,0l-5.1-5.1Z" fill="#89858e"/>
          <path id="Path_199" data-name="Path 199" d="M35.6,783,27,791.6c-2.1,2.1-1,4.2.9,6l3.4,3.4c1.8,1.8,4,3,6,.9l8.6-8.6c2.1-2.1,2.7-3.3.4-5.6l-5.1-5.1c-2.3-2.3-3.5-1.7-5.6.4Z" fill="#788da2"/>
          <g id="Group_45" data-name="Group 45">
            <path id="Path_200" data-name="Path 200" d="M35.6,783l-1.1,1.1,10.3,10.3,1.1-1.1.7-.7L36.4,782.4a2.1,2.1,0,0,0-.8.6Z" fill="#918bc3" stroke="#333" stroke-miterlimit="10" stroke-width="0.41"/>
            <rect id="Rectangle_8" data-name="Rectangle 8" width="2.6" height="14.5" transform="matrix(0.707, -0.707, 0.707, 0.707, 30.639, 788.021)" fill="#b6c4d1" stroke="#333" stroke-miterlimit="10" stroke-width="0.41"/>
            <path id="Path_201" data-name="Path 201" d="M28.6,790l-1.5,1.5-.3.3L37,802.1l.3-.3,1.5-1.5L28.6,790Z" fill="#b6c4d1" stroke="#333" stroke-miterlimit="10" stroke-width="0.41"/>
          </g>
          <path id="Path_202" data-name="Path 202" d="M45.5,786.8c.6.6-3.4,4.7-6.5,7.7-3,3-7.1,7.1-7.7,6.5" fill="none" stroke="#333" stroke-miterlimit="10" stroke-width="0.41"/>
          <path id="Path_203" data-name="Path 203" d="M42.1,783.4c-.6-.6-4.7,3.4-7.7,6.5s-7.1,7.1-6.5,7.7" fill="none" stroke="#333" stroke-miterlimit="10" stroke-width="0.41"/>
          <path id="Path_204" data-name="Path 204" d="M37.1,784.5l-8.6,8.6-.3.3c-1.7,1.9-1.1,3.5.1,4.7l2.4,2.4c1.2,1.2,2.8,1.9,4.7.2l.3-.3,8.6-8.6.7-.7c1.5-1.7,1.9-2.7.5-4.1l-3.6-3.6c-1.4-1.4-2.4-1.1-4.1.5a3.188,3.188,0,0,0-.7.6Z" fill="#efe8da" opacity="0.25"/>
          <path id="Path_205" data-name="Path 205" d="M39,786.3l-8.6,8.6-.3.3c-1.8,1.9-1.7,2.9-1.1,3.5l1.2,1.2c.6.6,1.6.7,3.5-1.1l.3-.3,8.6-8.6.7-.7c1.6-1.6,2.1-2.5,1.4-3.2l-1.8-1.8c-.7-.7-1.6-.2-3.2,1.4a4.618,4.618,0,0,0-.7.7Z" fill="#efe8da" opacity="0.25"/>
          <path id="Path_206" data-name="Path 206" d="M40.1,787.5l-8.6,8.6-.3.3c-1.8,1.9-2,2.6-1.6,2.9l.6.6c.3.3,1.1.2,2.9-1.7l.3-.3,8.6-8.6.7-.7c1.6-1.6,2.2-2.4,1.8-2.8l-.9-.9c-.4-.4-1.2.2-2.8,1.8a5.006,5.006,0,0,1-.7.8Z" fill="#fff" opacity="0.45"/>
          <path id="Path_207" data-name="Path 207" d="M27.5,797.1a2.514,2.514,0,0,0-.2,3.5l.9.9a2.616,2.616,0,0,0,3.5-.2Z" fill="#bab4c1"/>
          <path id="Path_208" data-name="Path 208" d="M28,797.6c-.7.7-1.2,2.3-.5,3l.7.7c.7.7,2.3.2,3-.5L28,797.6Z" fill="#e7deef"/>
          <path id="Path_209" data-name="Path 209" d="M35.6,783,27,791.6l-.3.3c-1.7,2-.6,4,1.1,5.7l3.4,3.4c1.8,1.8,3.8,2.8,5.7,1.2l.3-.3,8.6-8.6.7-.7c1.5-1.7,1.7-2.8-.3-4.8l-5.1-5.1c-2-2-3.2-1.8-4.8-.3a3.188,3.188,0,0,0-.7.6Z" fill="none" stroke="#9cacb7" stroke-miterlimit="10" stroke-width="0.41"/>
        </g>
      </g>
      <path id="Path_210" data-name="Path 210" d="M69.4,789.8c-.1.1-.2.1-.3.2s-.2,0-.3,0c-.1-.1.1-.2.2-.4.3-.3.8-.7,1.1-1s.1-1-.1-1.4c-.1-.1-.2-.2-.2-.3s-.1-.3,0-.4a.3.3,0,0,1,.4,0,2.4,2.4,0,0,1,.7,1.2c.3,1-.7,1.5-1.5,2.1Z" fill="#efe8da" opacity="0.35"/>
      <path id="Path_211" data-name="Path 211" d="M69.6,785.8a.494.494,0,0,1,.1.3h-.2c-.1,0-.2-.1-.3-.2-.2-.2-1.2-1.1-.8-1.1a2.94,2.94,0,0,1,1.2,1Z" fill="#efe8da" opacity="0.35"/>
      <path id="Path_212" data-name="Path 212" d="M44.9,766.7a.446.446,0,0,1-.5,0c-.1-.2,0-.4.2-.6a11.4,11.4,0,0,1,1.1-1.1.52.52,0,0,1,.4-.2c.9,0-1,1.7-1.2,1.9Z" fill="#efe8da" opacity="0.35"/>
      <path id="Path_213" data-name="Path 213" d="M44.8,761.7c.2.4.8,1.2,1.3,1.2.4,0,.4-.2.2-.5a3.45,3.45,0,0,0-.9-.8C45.1,761.3,44.3,761,44.8,761.7Z" fill="#efe8da" opacity="0.35"/>
      <path id="Path_214" data-name="Path 214" d="M19,779.2c-.2.4.2,1,.3,1.1a.188.188,0,0,0,.3,0,.367.367,0,0,0,.1-.3c0-.1-.1-.2-.1-.3,0-.2.2-.4.2-.7,0-.2-.2-.3-.4-.2a.781.781,0,0,0-.4.4Z" fill="#efe8da" opacity="0.35"/>
      <path id="Path_215" data-name="Path 215" d="M46.8,780.2a2.185,2.185,0,0,1-.3.5c-.1.1-.4.2-.5,0a.749.749,0,0,1-.1-.5,4.591,4.591,0,0,1,2.2-3.8c.4,1.1-.9,2.8-1.3,3.8Z" fill="#fff" opacity="0.45"/>
      <path id="Path_216" data-name="Path 216" d="M50.7,774.6c-.2.2-.3.4-.5.5a.481.481,0,0,1-.6-.2.878.878,0,0,1,.1-.7,10.037,10.037,0,0,1,2-2.6c.4-.4,2-2.1,2.6-1.9,1,.3-.8,1.8-1.1,2.2l-2.5,2.7Z" fill="#fff" opacity="0.45"/>
      <path id="Path_217" data-name="Path 217" d="M31.5,793.7a4.569,4.569,0,0,1-1.1,1.6,2.036,2.036,0,0,1-1.8.5,1.9,1.9,0,0,1-1-1.8,4.025,4.025,0,0,1,.9-2,46.588,46.588,0,0,1,8.2-8.4c1-.8,2.8-1,2.4.8-.2,1-1.2,1.2-1.9,1.7-2.4,1.7-4.3,4.9-5.7,7.6Z" fill="#efe8da" opacity="0.35"/>
      <path id="Path_218" data-name="Path 218" d="M36.6,801.4a2.075,2.075,0,0,1-1,.6c-.4.1-.9-.1-.9-.5-.1-.4.2-.7.5-1,2.8-2.7,5.5-5.5,8.2-8.2.3-.3,1.3-1.6,1.6-1.3.4.3-.1,1.2-.2,1.5a30.814,30.814,0,0,1-3.7,4.4c-1.5,1.6-3,3-4.5,4.5Z" fill="#efe8da" opacity="0.35"/>
      <path id="Path_219" data-name="Path 219" d="M31,801.8a.215.215,0,0,1-.2.2h-.3a2.716,2.716,0,0,1-1.7-.6.486.486,0,0,1-.3-.6c0-.2.3-.3.5-.3s.4.2.6.3a1.793,1.793,0,0,0,.7.5c.2.1.8.1.7.5Z" fill="#fff" opacity="0.65"/>
      <path id="Path_220" data-name="Path 220" d="M46.8,786.3a.764.764,0,0,1-.5.2.319.319,0,0,1-.3-.3.646.646,0,0,1,.2-.5l.4-.4c.2-.1.3-.2.5-.3.1-.1.2-.2.3-.2.5-.2.6.4.4.7a3.916,3.916,0,0,1-1,.8Z" fill="#efe8da" opacity="0.35"/>
      <path id="Path_221" data-name="Path 221" d="M63.8,772.8c0,.2,0,.3-.1.4s-.3-.1-.4-.2c-.5-.5-.9-1-1.4-1.6,0-.1-.1-.1-.1-.2V771c.1-.1.3,0,.4,0,.7.4,1.5,1,1.6,1.8Z" fill="#fff" opacity="0.65"/>
      <path id="Path_222" data-name="Path 222" d="M34.9,801.3a2.5,2.5,0,0,1-2.6-.8,1.077,1.077,0,0,1-.2-.8.536.536,0,0,1,.5-.5,1.524,1.524,0,0,1,1,.6,1.6,1.6,0,0,0,1.5.1,3.805,3.805,0,0,0,1.3-.9,2.093,2.093,0,0,1,.6-.4.878.878,0,0,1,.7.1c.5.6-.3,1.2-.7,1.4a6.344,6.344,0,0,1-2.1,1.2Z" fill="#fff" opacity="0.65"/>
      <path id="Path_223" data-name="Path 223" d="M39,798.1c-.1,0-.2.1-.3.1s-.2-.2-.2-.4.2-.4.3-.6a6.072,6.072,0,0,1,1-.7c.5-.3.8.1.5.5a4.733,4.733,0,0,1-1.3,1.1Z" fill="#fff" opacity="0.65"/>
      <path id="Path_224" data-name="Path 224" d="M64.8,791h-.2c-.1,0-.1-.1-.1-.2s.1-.1.2-.1a3.4,3.4,0,0,1,1,.1h.1l.1.1C65.9,791.2,64.9,791.1,64.8,791Z" fill="#efe8da" opacity="0.35"/>
      <path id="Path_225" data-name="Path 225" d="M64.1,791h0c-.1-.1-.1-.1,0-.1h.4v.1Z" fill="#efe8da" opacity="0.35"/>
      <path id="Path_226" data-name="Path 226" d="M58.2,791.2h0l-.1-.1h.1a1.1,1.1,0,0,1,.8,0,.1.1,0,1,1,0,.2,2.2,2.2,0,0,0-.8-.1Z" fill="#efe8da" opacity="0.35"/>
      <path id="Path_227" data-name="Path 227" d="M52.2,806.2c0,.1-.1.1-.2.2a.367.367,0,0,1-.3-.1c-.1-.1-.2-.2-.2-.3v-.1a.1.1,0,0,1,.1-.1c.1,0,.1.1.2.1a.1.1,0,0,0,.1-.1c0-.2.1-.3.1-.5a.1.1,0,0,1,.1-.1c.1,0,.1,0,.1.1.1.2,0,.3.1.5-.1,0-.1.2-.1.4Z" fill="#efe8da" opacity="0.35"/>
      <path id="Path_228" data-name="Path 228" d="M52.3,799.7h0a5.7,5.7,0,0,1-.1,1.3c0,.1,0,.2-.1.2s-.1,0-.2-.1,0-.1,0-.2c0-.5.1-1,.1-1.6v-.1h.1l.2.5Z" fill="#efe8da" opacity="0.35"/>
      <path id="Path_229" data-name="Path 229" d="M38.1,763.2c0,.1,0,.1-.1.2a.1.1,0,0,1-.1-.1v-.2a2.769,2.769,0,0,1,.1-.9c0-.1,0-.5.2-.4.2.2-.1,1.1-.1,1.4Z" fill="#efe8da" opacity="0.35"/>
      <path id="Path_230" data-name="Path 230" d="M37.5,772.4h0c0,.1,0,.1-.1.1s-.1,0-.1-.1a2.7,2.7,0,0,1-.7-.8c-.1-.1-.5-.6-.4-.7s.6.5.7.6A7.016,7.016,0,0,1,37.5,772.4Z" fill="none"/>
      <path id="Path_231" data-name="Path 231" d="M22.8,777h-.3c-.1,0-.2-.1-.1-.2,0-.1.1-.1.2-.2h.3a.349.349,0,0,1,.2.1.1.1,0,0,1-.1.1c-.1,0,0,.2-.2.2" fill="#efe8da" opacity="0.35"/>
      <path id="Path_232" data-name="Path 232" d="M23.7,776.7c.2,0,.4-.1.6,0,.1,0,.6,0,.3.2s-.5.1-.8.1c-.1,0-.3,0-.3-.1-.1-.1.1-.2.2-.2Z" fill="#efe8da" opacity="0.35"/>
    </g>
  </g>
</svg>
