<svg xmlns="http://www.w3.org/2000/svg" xmlns:xlink="http://www.w3.org/1999/xlink" width="41" height="36" viewBox="0 0 41 36">
  <defs>
    <clipPath id="clip-_2.1">
      <rect width="41" height="36"/>
    </clipPath>
  </defs>
  <g id="_2.1" data-name="2.1" clip-path="url(#clip-_2.1)">
    <g id="Group_69" data-name="Group 69" transform="translate(-101.1 -53.15)">
      <circle id="Ellipse_29" data-name="Ellipse 29" cx="17.6" cy="17.6" r="17.6" transform="translate(104.1 53.3)" fill="#3b00dd"/>
      <g id="Group_51" data-name="Group 51">
        <path id="Path_238" data-name="Path 238" d="M132.6,60a21.128,21.128,0,0,1,6.8,6.5,1.33,1.33,0,0,1,.3.8.67.67,0,0,1-.4.7c-.4.1-.7-.2-1-.5a28.717,28.717,0,0,0-14.5-8.3c-1.2-.3-2.9-1.1-1.7-2.4a2.427,2.427,0,0,1,2.4-.8,29.154,29.154,0,0,1,8.1,4Z" fill="#fa2fb5"/>
        <path id="Path_239" data-name="Path 239" d="M113,57.8c.5.2,1.1.4,1.2,1,0,.2-.1.4-.1.6,0,.6.8.8,1.4.9a35.1,35.1,0,0,1,11.3,3.8,2.836,2.836,0,0,1,1.1.8,1.305,1.305,0,0,1,.3,1.3,1.346,1.346,0,0,1-1.5.8,5.094,5.094,0,0,1-1.7-.7,44.878,44.878,0,0,0-10.5-4.1,4.721,4.721,0,0,1-2.5-1.1c-.3-.3-.6-.8-.9-1.1-1-1.1-2.6-1-3.9-1.1-.7,0-2.2-.1-1.6-1,.4-.7,2.1-.8,2.8-.8a10.555,10.555,0,0,1,4.6.7Z" fill="#3fa9f5"/>
        <path id="Path_240" data-name="Path 240" d="M129.3,73.5c-3.7-1-7.2-2.6-11-3.1a1.09,1.09,0,0,0-1.1.2,1.209,1.209,0,0,0,.1,1.4c.3.4.7.7.8,1.2a1.507,1.507,0,0,1-1,1.7,3.034,3.034,0,0,1-2.1,0,15.19,15.19,0,0,0-2-.6,1.384,1.384,0,0,0-1.4.3c-.4.5-.1,1.3.3,1.9a26.3,26.3,0,0,0,8.1,7.1,18.145,18.145,0,0,0,8,2.7,14.423,14.423,0,0,0,8-2.4,11.788,11.788,0,0,0,4.6-4.8,6.723,6.723,0,0,0,.4-4.2c-.4-2.1-1.2-1.4-2.9-.9a17.693,17.693,0,0,1-8.8-.5Z" fill="#efe8da" opacity="0.35"/>
        <path id="Path_241" data-name="Path 241" d="M110.5,79.9a2.047,2.047,0,0,1,.8.8c.2.4.3.8,0,1.1a.913.913,0,0,1-1.1.2,3.45,3.45,0,0,1-.9-.8c-1.4-1.7-2.8-3.4-4.2-5-.7-.8-1.4-1.6-2-2.4-.5-.7-1.5-1.4-1.7-2.3-.5-2.2,1.6-.8,2.2.1,1,1.4,1.6,3,2.7,4.4a17.535,17.535,0,0,0,4.2,3.9Z" fill="#fa2fb5"/>
        <path id="Path_242" data-name="Path 242" d="M137.5,83.9c.6,0,1.3.1,1.3.7,0,.4-.5.6-.9.7a18.95,18.95,0,0,1-14.1-2.7,1.943,1.943,0,0,1-.9-1.1c-.3-2.8,4.4.7,5.2,1.1a25.189,25.189,0,0,0,9.4,1.3Z" fill="#3fa9f5"/>
      </g>
    </g>
  </g>
</svg>
