<svg xmlns="http://www.w3.org/2000/svg" xmlns:xlink="http://www.w3.org/1999/xlink" width="23" height="23" viewBox="0 0 23 23">
  <defs>
    <clipPath id="clip-_3.1">
      <rect width="23" height="23"/>
    </clipPath>
  </defs>
  <g id="_3.1" data-name="3.1" clip-path="url(#clip-_3.1)">
    <g id="Group_71" data-name="Group 71" transform="translate(-24.793 -540.65)">
      <circle id="Ellipse_38" data-name="Ellipse 38" cx="11.1" cy="11.1" r="11.1" transform="translate(25.2 540.7)" fill="#008c44"/>
      <path id="Path_297" data-name="Path 297" d="M25.2,551.2a11.083,11.083,0,0,0,16.3,10.4c-4.8.9-10.2-1-12.8-5.3-2.2-3.7-1.9-10.7,2.4-14.3a11.2,11.2,0,0,0-5.9,9.2Z" opacity="0.2"/>
      <path id="Path_298" data-name="Path 298" d="M44.8,547.7a9.411,9.411,0,0,1,.5,6.6,1.905,1.905,0,0,1-.5,1,1.389,1.389,0,0,1-1,.5,1.068,1.068,0,0,1-.9-.7,6.149,6.149,0,0,1-.3-1.1,16.012,16.012,0,0,0-3.1-6.9c-.7-.9-2.1-1.8-2.6-2.8a1.566,1.566,0,0,1-.2-1.6c.6-1,2.4-.5,3.2,0a9.3,9.3,0,0,1,4.9,5Z" fill="#fcee21" opacity="0.2"/>
      <path id="Path_299" data-name="Path 299" d="M42.6,562.3a12.789,12.789,0,0,0,4.1-5.6.221.221,0,0,0-.3-.3,16.28,16.28,0,0,1-5.2,1.9.215.215,0,0,1-.2-.2,29.494,29.494,0,0,0,1-9.8c0-.1-.1-.1-.2-.2-2.8-.2-5.3.3-8.4.5a.215.215,0,0,1-.2-.2,50.443,50.443,0,0,1,2-7.2c0-.1,0-.2-.1-.2a12.292,12.292,0,0,0-6,.7c-.1,0-.1.1,0,.1a9.358,9.358,0,0,1,4.4.1c.1,0,.1.2.1.2A18.03,18.03,0,0,0,31,550a.349.349,0,0,0,.1.2,32.517,32.517,0,0,0,8.8-.4.215.215,0,0,1,.2.2c0,3-.4,6.8-1.8,9.5,0,.1,0,.2.1.2,1.7.3,3.9-.5,5.6-1.2a.215.215,0,0,1,.2.2,11.663,11.663,0,0,1-1.6,3.6Z" fill="#005221"/>
      <path id="Path_300" data-name="Path 300" d="M28.3,543.8a23.69,23.69,0,0,0-1.1,8.7.1.1,0,0,0,.1.1,28.29,28.29,0,0,0,8.2.9c.1,0,.1,0,.1.1-.4,2.2-1.3,6-2.7,7.8v.1a9.517,9.517,0,0,0,3.7,1.7c.1,0,.1.2,0,.2a17.047,17.047,0,0,1-5.8-1.5v-.1c.4-.6,3-5.1,3.3-6.7,0-.1,0-.1-.1-.1-.8,0-6.5,0-8-.9V554c0-.6-.3-6.8,2.3-10.2-.1-.2.1-.1,0,0Z" fill="#005221"/>
    </g>
  </g>
</svg>
