<svg width="42" height="42" viewBox="0 0 42 42" fill="none" xmlns="http://www.w3.org/2000/svg">
<rect width="41.5" height="41.5" rx="8" fill="#A246D3" fill-opacity="0.3"/>
<path d="M20.75 11.6C20.1149 11.6 19.6 12.1149 19.6 12.75V28.75C19.6 29.3851 20.1149 29.9 20.75 29.9C21.3851 29.9 21.9 29.3851 21.9 28.75V12.75C21.9 12.1149 21.3851 11.6 20.75 11.6Z" fill="white" stroke="white" stroke-width="0.3" stroke-linecap="round"/>
<path d="M12.75 19.6C12.1149 19.6 11.6 20.1149 11.6 20.75C11.6 21.3851 12.1149 21.9 12.75 21.9H28.75C29.3851 21.9 29.9 21.3851 29.9 20.75C29.9 20.1149 29.3851 19.6 28.75 19.6H12.75Z" fill="white" stroke="white" stroke-width="0.3" stroke-linecap="round"/>
</svg>
