<svg width="22" height="22" viewBox="0 0 22 22" fill="none" xmlns="http://www.w3.org/2000/svg">
<path d="M14.4225 11.4082C13.9027 10.5075 13.197 9.73977 12.2873 9.23394C11.1996 10.3816 9.70111 11.0263 8.11964 11.0263C6.59215 11.0263 5.13963 10.4245 4.05899 9.3449L4.05599 9.3419C2.16761 10.6625 1 12.8247 1 15.179V16.9384H1.001C1.001 17.1273 1.15395 17.2803 1.34289 17.2803L10.3679 17.3103C10.2999 17.1923 10.2609 17.0543 10.2609 16.9084L10.2619 15.8707C10.2629 15.4569 10.5788 15.111 10.9917 15.074L11.6005 15.02C11.6615 14.8401 11.7334 14.6651 11.8174 14.4942L11.4335 14.0343C11.1656 13.7135 11.1716 13.2426 11.4695 12.9437L12.1893 12.2209C12.4852 11.924 12.958 11.8881 13.2819 12.161L13.7508 12.5548C13.9187 12.4719 14.0907 12.3999 14.2686 12.3399L14.3226 11.7321C14.3326 11.6161 14.3676 11.5072 14.4205 11.4102L14.4225 11.4082ZM4.38388 1.54749C6.44719 -0.515829 9.79308 -0.515829 11.8564 1.54749C13.9197 3.6108 13.9197 6.95669 11.8564 9.02001C9.79308 11.0833 6.44719 11.0833 4.38388 9.02001C2.32056 6.95669 2.32056 3.6108 4.38388 1.54749ZM16.168 11.4502C16.3449 11.4502 16.4949 11.5852 16.5099 11.7641L16.5918 12.6878C16.9467 12.7778 17.2826 12.9177 17.5935 13.1037L18.3013 12.5089C18.4362 12.3959 18.6372 12.4029 18.7641 12.5298L19.4959 13.2636C19.6188 13.3876 19.6298 13.5865 19.5159 13.7234L18.9221 14.4352C19.108 14.7491 19.2489 15.088 19.3389 15.4439L20.2276 15.5229H20.2286C20.4186 15.5229 20.5725 15.6768 20.5725 15.8667V16.9044H20.5715C20.5715 17.0803 20.4376 17.2293 20.2586 17.2453L19.3399 17.3273C19.2499 17.6831 19.109 18.022 18.9231 18.3359L19.5059 19.0347C19.6298 19.1686 19.6268 19.3776 19.4969 19.5085L18.7771 20.2313C18.6541 20.3672 18.4452 20.3822 18.3033 20.2643L17.5955 19.6695C17.2836 19.8554 16.9487 19.9954 16.5938 20.0853L16.5129 21.003C16.5009 21.182 16.3519 21.3229 16.17 21.3229H15.1253C14.9484 21.3229 14.7984 21.188 14.7834 21.009L14.7015 20.0853C14.3466 19.9954 14.0107 19.8554 13.6998 19.6695L12.992 20.2643C12.8571 20.3772 12.6561 20.3702 12.5292 20.2433L11.7974 19.5095C11.6745 19.3856 11.6635 19.1866 11.7774 19.0497L12.3712 18.3379C12.1853 18.024 12.0443 17.6851 11.9544 17.3293L11.0657 17.2503H11.0647C10.8747 17.2503 10.7208 17.0963 10.7208 16.9064L10.7218 15.8687C10.7218 15.6928 10.8557 15.5438 11.0347 15.5279L11.9534 15.4459C12.0433 15.09 12.1843 14.7511 12.3702 14.4372L11.7874 13.7384C11.6635 13.6045 11.6665 13.3956 11.7964 13.2646L12.5162 12.5418C12.6391 12.4059 12.8481 12.3909 12.99 12.5089L13.6978 13.1037C14.0097 12.9177 14.3446 12.7778 14.6995 12.6878L14.7804 11.7701C14.7924 11.5912 14.9414 11.4502 15.1233 11.4502H16.168ZM16.4879 17.5822C17.2266 17.0573 17.3156 15.9927 16.6778 15.3529C16.4139 15.088 16.05 14.9241 15.6481 14.9241V14.9251C14.8374 14.9251 14.1876 15.5778 14.1876 16.3866C14.1876 17.1963 14.8354 17.8461 15.6461 17.8461C15.944 17.8461 16.2399 17.7581 16.4889 17.5812L16.4879 17.5822Z" fill="white"/>
</svg>
