<svg width="27" height="32" viewBox="0 0 27 32" fill="none" xmlns="http://www.w3.org/2000/svg">
<path d="M1.97498 10.3358C1.42518 10.3358 0.958697 10.5275 0.575242 10.911C0.191786 11.2945 0 11.7546 0 12.2916V20.5374C0 21.0879 0.191728 21.5539 0.575242 21.9375C0.958697 22.3209 1.42518 22.5127 1.97498 22.5127C2.52437 22.5127 2.98802 22.321 3.36554 21.9375C3.7423 21.554 3.9312 21.0879 3.9312 20.5374V12.2916C3.9312 11.7545 3.73947 11.2945 3.35596 10.911C2.97245 10.5275 2.51202 10.3358 1.97498 10.3358Z" fill="#1C1C35"/>
<path d="M17.8533 2.93372L19.2148 0.422042C19.3042 0.255759 19.2724 0.128248 19.1191 0.0385866C18.9528 -0.0387277 18.825 0.000448765 18.7357 0.153346L17.3551 2.6851C16.1403 2.148 14.8554 1.87896 13.5005 1.87896C12.1453 1.87896 10.8604 2.14806 9.646 2.6851L8.26536 0.153346C8.17564 0.000448765 8.04784 -0.0383815 7.88191 0.0385866C7.72832 0.128652 7.69653 0.255759 7.78624 0.422042L9.14784 2.93372C7.7672 3.6378 6.66761 4.61836 5.84946 5.87755C5.03132 7.13742 4.62207 8.5142 4.62207 10.0103H22.3597C22.3597 8.51454 21.9504 7.13771 21.1323 5.87755C20.3141 4.61836 19.2209 3.6378 17.8533 2.93372ZM9.98145 6.58699C9.83421 6.73458 9.65835 6.80803 9.45393 6.80803C9.2491 6.80803 9.07682 6.73458 8.93627 6.58699C8.79571 6.4401 8.72544 6.26493 8.72544 6.05981C8.72544 5.85539 8.79571 5.67988 8.93627 5.53263C9.07682 5.38574 9.2495 5.31229 9.45393 5.31229C9.65835 5.31229 9.83421 5.38574 9.98145 5.53263C10.1283 5.68022 10.2021 5.85539 10.2021 6.05981C10.2017 6.26458 10.128 6.4401 9.98145 6.58699ZM18.064 6.58699C17.9232 6.73458 17.7505 6.80803 17.5464 6.80803C17.3415 6.80803 17.1657 6.73458 17.0188 6.58699C16.8716 6.4401 16.7981 6.26493 16.7981 6.05981C16.7981 5.85539 16.8716 5.67988 17.0188 5.53263C17.1657 5.38574 17.3415 5.31229 17.5464 5.31229C17.7508 5.31229 17.9231 5.38574 18.064 5.53263C18.2047 5.68022 18.2749 5.85539 18.2749 6.05981C18.2749 6.26458 18.2046 6.4401 18.064 6.58699Z" fill="#1C1C35"/>
<path d="M4.69727 23.4715C4.69727 24.0601 4.90169 24.5584 5.31059 24.9673C5.71983 25.3762 6.21811 25.5806 6.80633 25.5806H8.22545L8.2449 29.9341C8.2449 30.4838 8.43662 30.9506 8.82008 31.3342C9.20354 31.7177 9.66402 31.9094 10.2007 31.9094C10.7502 31.9094 11.2169 31.7177 11.6005 31.3342C11.984 30.9506 12.1757 30.4839 12.1757 29.9341V25.581H14.8219V29.9341C14.8219 30.4838 15.0136 30.9506 15.3971 31.3342C15.7806 31.7177 16.247 31.9094 16.7968 31.9094C17.3463 31.9094 17.8131 31.7177 18.1966 31.3342C18.5801 30.9506 18.7718 30.4839 18.7718 29.9341V25.581H20.21C20.7852 25.581 21.2771 25.3765 21.6867 24.9676C22.0956 24.5587 22.3001 24.0604 22.3001 23.4719V10.7H4.69727V23.4715Z" fill="#1C1C35"/>
<path d="M25.0252 10.3358C24.4881 10.3358 24.028 10.5247 23.6445 10.9015C23.2611 11.2789 23.0693 11.7426 23.0693 12.2916V20.5374C23.0693 21.0879 23.261 21.5539 23.6445 21.9375C24.028 22.321 24.4885 22.5127 25.0252 22.5127C25.5747 22.5127 26.0414 22.321 26.4249 21.9375C26.8085 21.5539 27.0001 21.0879 27.0001 20.5374V12.2916C27.0001 11.7425 26.8085 11.2789 26.4249 10.9015C26.0414 10.5247 25.5747 10.3358 25.0252 10.3358Z" fill="#1C1C35"/>
</svg>
