<svg width="27" height="32" viewBox="0 0 27 32" fill="none" xmlns="http://www.w3.org/2000/svg">
<path d="M19.2016 0C19.2761 0 19.3505 0 19.4292 0C19.6119 2.25671 18.7505 3.94291 17.7037 5.16401C16.6765 6.37667 15.2699 7.5528 12.9949 7.37435C12.8432 5.14996 13.7059 3.58881 14.7514 2.37053C15.721 1.23515 17.4985 0.224828 19.2016 0Z" fill="#1C1C35"/>
<path d="M26.0884 23.4889C26.0884 23.5114 26.0884 23.5311 26.0884 23.5522C25.4491 25.4885 24.5371 27.148 23.4242 28.6881C22.4083 30.0862 21.1633 31.9677 18.9403 31.9677C17.0195 31.9677 15.7436 30.7326 13.7749 30.6989C11.6924 30.6651 10.5472 31.7317 8.64322 32.0001C8.42542 32.0001 8.20761 32.0001 7.99403 32.0001C6.59588 31.7977 5.46753 30.6904 4.6455 29.6928C2.22158 26.7447 0.348483 22.9367 0 18.0635C0 17.5858 0 17.1094 0 16.6317C0.147543 13.144 1.84218 10.3084 4.09467 8.93414C5.28345 8.20345 6.91767 7.58096 8.73736 7.85918C9.51723 7.98003 10.314 8.24701 11.0123 8.51118C11.6742 8.76552 12.5018 9.21658 13.2859 9.19269C13.8171 9.17723 14.3454 8.90041 14.8808 8.7051C16.449 8.13881 17.9862 7.48962 20.0125 7.79454C22.4476 8.1627 24.176 9.24468 25.2439 10.914C23.1839 12.2251 21.5554 14.2007 21.8336 17.5745C22.0809 20.6392 23.8626 22.4322 26.0884 23.4889Z" fill="#1C1C35"/>
</svg>
