<svg width="8" height="5" viewBox="0 0 8 5" fill="none" xmlns="http://www.w3.org/2000/svg">
<path d="M3.1667 4.29175C3.08462 4.29191 3.00332 4.27578 2.92751 4.24431C2.8517 4.21285 2.78288 4.16666 2.72504 4.10842L1.05837 2.44175C0.947969 2.32327 0.887866 2.16657 0.890722 2.00465C0.893579 1.84273 0.959173 1.68824 1.07368 1.57373C1.18819 1.45922 1.34268 1.39363 1.5046 1.39077C1.66652 1.38791 1.82322 1.44802 1.9417 1.55842L3.22504 2.84175L6.12504 0.66675C6.25764 0.567294 6.42433 0.52459 6.58842 0.548032C6.75252 0.571474 6.90058 0.659143 7.00004 0.791751C7.09949 0.924359 7.1422 1.09104 7.11875 1.25514C7.09531 1.41923 7.00764 1.56729 6.87504 1.66675L3.5417 4.16675C3.43349 4.24784 3.30192 4.29169 3.1667 4.29175Z" fill="black"/>
</svg>
