<svg width="18" height="18" viewBox="0 0 18 18" fill="none" xmlns="http://www.w3.org/2000/svg">
<path d="M16.6559 7.33921C16.3852 7.18186 16.142 6.98146 15.9359 6.74587C15.9567 6.41788 16.0348 6.09608 16.1667 5.79504C16.4092 5.11087 16.6834 4.33587 16.2434 3.73337C15.8034 3.13087 14.9725 3.15004 14.2434 3.16671C13.9212 3.19986 13.5957 3.17788 13.2809 3.10171C13.1131 2.8288 12.9933 2.52919 12.9267 2.21587C12.72 1.51171 12.4842 0.715873 11.76 0.47754C11.0617 0.25254 10.415 0.74754 9.84335 1.18254C9.59668 1.40781 9.31086 1.58602 9.00002 1.70837C8.68593 1.58702 8.39693 1.40876 8.14752 1.18254C7.57752 0.75004 6.93335 0.25004 6.23169 0.478373C5.50919 0.713373 5.27335 1.51171 5.06502 2.21587C4.99846 2.52818 4.87986 2.82707 4.71418 3.10004C4.39878 3.17601 4.07287 3.19854 3.75002 3.16671C3.01835 3.14671 2.19418 3.12504 1.75002 3.73337C1.30585 4.34171 1.58335 5.11087 1.82668 5.79421C1.96039 6.0948 2.03967 6.41674 2.06085 6.74504C1.85508 6.98094 1.61216 7.18164 1.34168 7.33921C0.731685 7.75587 0.0391846 8.23004 0.0391846 9.00004C0.0391846 9.77004 0.731685 10.2425 1.34168 10.6609C1.6121 10.8182 1.85502 11.0186 2.06085 11.2542C2.0419 11.5824 1.96487 11.9046 1.83335 12.2059C1.59168 12.8892 1.31835 13.6642 1.75752 14.2667C2.19668 14.8692 3.02502 14.85 3.75752 14.8334C4.07999 14.8002 4.40576 14.8222 4.72085 14.8984C4.88784 15.1716 5.00731 15.4711 5.07418 15.7842C5.28085 16.4884 5.51669 17.2842 6.24085 17.5225C6.35695 17.5598 6.4781 17.5789 6.60002 17.5792C7.18603 17.4951 7.73067 17.2286 8.15668 16.8175C8.40336 16.5923 8.68918 16.4141 9.00002 16.2917C9.31411 16.4131 9.60311 16.5913 9.85252 16.8175C10.4234 17.2534 11.07 17.7509 11.7692 17.5217C12.4917 17.2867 12.7275 16.4884 12.9359 15.785C13.0026 15.4722 13.1221 15.1729 13.2892 14.9C13.6034 14.8236 13.9283 14.801 14.25 14.8334C14.9817 14.8509 15.8059 14.875 16.25 14.2667C16.6942 13.6584 16.4167 12.8892 16.1734 12.205C16.0406 11.9047 15.9613 11.5835 15.9392 11.2559C16.1451 11.0198 16.3883 10.819 16.6592 10.6617C17.2692 10.245 17.9617 9.77004 17.9617 9.00004C17.9617 8.23004 17.2667 7.75671 16.6559 7.33921Z" fill="#FAFF00"/>
<path d="M8.1667 11.2918C8.08462 11.2919 8.00332 11.2758 7.92751 11.2443C7.8517 11.2128 7.78288 11.1667 7.72504 11.1084L6.05837 9.44175C5.94797 9.32327 5.88787 9.16657 5.89072 9.00465C5.89358 8.84273 5.95917 8.68824 6.07368 8.57373C6.18819 8.45922 6.34268 8.39363 6.5046 8.39077C6.66652 8.38791 6.82322 8.44802 6.9417 8.55842L8.22504 9.84175L11.125 7.66675C11.2576 7.56729 11.4243 7.52459 11.5884 7.54803C11.7525 7.57147 11.9006 7.65914 12 7.79175C12.0995 7.92436 12.1422 8.09104 12.1188 8.25514C12.0953 8.41923 12.0076 8.56729 11.875 8.66675L8.5417 11.1668C8.43349 11.2478 8.30192 11.2917 8.1667 11.2918Z" fill="black"/>
</svg>
