<svg width="10" height="16" viewBox="0 0 10 16" fill="none" xmlns="http://www.w3.org/2000/svg">
<path d="M5.46892 16.0006C5.12369 16.0006 4.84389 15.7208 4.84389 15.3756V5.49997H2.15653C1.66347 5.49997 1.22229 5.20516 1.03247 4.74884C0.841909 4.29069 0.944574 3.7676 1.29395 3.41603L4.14074 0.55239C4.49488 0.196175 4.96658 0 5.46892 0C5.97126 0 6.44296 0.196175 6.79709 0.55239L9.64388 3.41603C9.99339 3.76748 10.0961 4.29069 9.90549 4.74884C9.71566 5.20516 9.27436 5.49997 8.7813 5.49997H8.09414C7.74891 5.49997 7.46912 5.22017 7.46912 4.87494C7.46912 4.52972 7.74891 4.24992 8.09414 4.24992H8.71013L5.91059 1.43377C5.79278 1.31536 5.63604 1.25005 5.46892 1.25005C5.30192 1.25005 5.14505 1.31536 5.02725 1.43377L2.2277 4.24992H4.84389C5.53325 4.24992 6.09394 4.81073 6.09394 5.49997V15.3756C6.09394 15.7207 5.81415 16.0006 5.46892 16.0006Z" fill="white"/>
</svg>
