<svg width="22" height="22" viewBox="0 0 22 22" fill="none" xmlns="http://www.w3.org/2000/svg">
<g clip-path="url(#clip0_873_36)">
<path d="M19.3435 5.39064L16.6091 2.65625L11.5175 7.79051L14.2524 10.5252L19.3435 5.39064Z" fill="white"/>
<path d="M9.06755 12.1309C8.84616 12.6625 9.37991 13.1956 9.91115 12.9735L13.1843 11.2803L10.7593 8.85522L9.06755 12.1309Z" fill="white"/>
<path d="M21.8112 2.92305C22.063 2.67128 22.063 2.26324 21.8112 2.01147L19.9884 0.188827C19.7366 -0.0629425 19.3286 -0.0629425 19.0768 0.188827L17.5207 1.74493L20.2549 4.47932L21.8112 2.92305Z" fill="white"/>
<path d="M1.93359 18.0898H2.57812V21.3555C2.57812 21.616 2.73489 21.8514 2.97592 21.9508C3.21342 22.05 3.49222 21.9971 3.67836 21.8112L7.39969 18.0898H14.9101C15.9763 18.0898 16.8437 17.2224 16.8437 16.1562V9.75676L14.8106 11.7899C14.6332 11.9675 14.4261 12.1071 14.1938 12.2046L10.5035 14.1181C10.168 14.2629 9.91621 14.314 9.6594 14.314C9.46756 14.314 9.28259 14.277 9.10383 14.2227H4.51172C4.15538 14.2227 3.86719 13.9343 3.86719 13.5781C3.86719 13.2218 4.15538 12.9336 4.51172 12.9336H7.77549C7.64827 12.5116 7.70282 12.0546 7.87822 11.6351L9.8672 7.77231C9.92376 7.62947 10.0636 7.42168 10.2405 7.24493L12.2862 5.19922H1.93359C0.867431 5.19922 0 6.06665 0 7.13281V16.1562C0 17.2224 0.867431 18.0898 1.93359 18.0898V18.0898Z" fill="white"/>
</g>
<defs>
<clipPath id="clip0_873_36">
<rect width="22" height="22" fill="white"/>
</clipPath>
</defs>
</svg>
