<svg width="22" height="22" viewBox="0 0 22 22" fill="none" xmlns="http://www.w3.org/2000/svg">
<g clip-path="url(#clip0_873_54)">
<path d="M17.3684 12.1319V8.65822C17.3684 6.96921 16.6975 5.34937 15.5032 4.15506C14.3089 2.96075 12.689 2.28979 11 2.28979C9.311 2.28979 7.69117 2.96075 6.49686 4.15506C5.30255 5.34937 4.63159 6.96921 4.63159 8.65822V12.1319C4.63159 13.8209 5.30255 15.4407 6.49686 16.6351C7.69117 17.8294 9.311 18.5003 11 18.5003C12.689 18.5003 14.3089 17.8294 15.5032 16.6351C16.6975 15.4407 17.3684 13.8209 17.3684 12.1319ZM8.85212 14.0366C8.90594 13.9824 8.96997 13.9393 9.04052 13.9099C9.11107 13.8805 9.18674 13.8654 9.26317 13.8654C9.3396 13.8654 9.41527 13.8805 9.48582 13.9099C9.55637 13.9393 9.6204 13.9824 9.67422 14.0366C9.848 14.2113 10.0546 14.35 10.2821 14.4446C10.5096 14.5392 10.7536 14.5879 11 14.5879C11.2464 14.5879 11.4904 14.5392 11.7179 14.4446C11.9454 14.35 12.152 14.2113 12.3258 14.0366C12.4348 13.9276 12.5827 13.8664 12.7369 13.8664C12.891 13.8664 13.0389 13.9276 13.1479 14.0366C13.2569 14.1457 13.3182 14.2935 13.3182 14.4477C13.3182 14.6019 13.2569 14.7497 13.1479 14.8587C11.139 16.8445 7.90264 14.9861 8.85212 14.0366Z" fill="white"/>
<path d="M20.2632 7.50049H19.6032C19.3172 5.42193 18.2883 3.5172 16.7068 2.1384C15.1253 0.75961 13.0981 0 11 0C8.90186 0 6.87466 0.75961 5.29317 2.1384C3.71167 3.5172 2.68283 5.42193 2.39684 7.50049H1.73684C1.2762 7.50049 0.83443 7.68348 0.508709 8.0092C0.182988 8.33492 0 8.7767 0 9.23733V12.711C0 13.1717 0.182988 13.6134 0.508709 13.9392C0.83443 14.2649 1.2762 14.4479 1.73684 14.4479H3.47368C3.62723 14.4479 3.77449 14.3869 3.88306 14.2783C3.99164 14.1697 4.05263 14.0225 4.05263 13.8689V8.07944C4.05442 7.94067 4.0063 7.80588 3.91704 7.69962C3.82777 7.59335 3.70331 7.52269 3.56632 7.50049C3.84661 5.73048 4.74929 4.11856 6.11198 2.95469C7.47466 1.79081 9.20793 1.15136 11 1.15136C12.7921 1.15136 14.5253 1.79081 15.888 2.95469C17.2507 4.11856 18.1534 5.73048 18.4337 7.50049C18.2967 7.52269 18.1722 7.59335 18.083 7.69962C17.9937 7.80588 17.9456 7.94067 17.9474 8.07944V13.8689C17.9474 14.0225 18.0084 14.1697 18.1169 14.2783C18.2255 14.3869 18.3728 14.4479 18.5263 14.4479C18.5268 15.9363 18.0058 17.378 17.054 18.5223C16.1021 19.6667 14.7795 20.4414 13.3158 20.7121C13.3413 20.5072 13.3228 20.2993 13.2617 20.1021C13.2005 19.9049 13.0981 19.7231 12.9611 19.5686C12.8242 19.4141 12.6559 19.2906 12.4675 19.2063C12.2791 19.1219 12.0749 19.0787 11.8684 19.0794H10.7105C10.3267 19.0794 9.95852 19.2319 9.68708 19.5034C9.41565 19.7748 9.26316 20.1429 9.26316 20.5268C9.26316 20.9107 9.41565 21.2788 9.68708 21.5503C9.95852 21.8217 10.3267 21.9742 10.7105 21.9742H12.1579C14.154 21.9742 16.0683 21.1812 17.4798 19.7698C18.8913 18.3583 19.6842 16.444 19.6842 14.4479H20.2632C20.7238 14.4479 21.1656 14.2649 21.4913 13.9392C21.817 13.6134 22 13.1717 22 12.711V9.23733C22 8.7767 21.817 8.33492 21.4913 8.0092C21.1656 7.68348 20.7238 7.50049 20.2632 7.50049Z" fill="white"/>
</g>
<defs>
<clipPath id="clip0_873_54">
<rect width="22" height="22" fill="white"/>
</clipPath>
</defs>
</svg>
