<svg width="976" height="335" viewBox="0 0 976 335" fill="none" xmlns="http://www.w3.org/2000/svg">
<g filter="url(#filter0_d_2430_609)">
<path d="M269.84 151.37C262.8 152.48 257.09 151.12 252.58 147.45C248.19 143.63 245.94 138.15 245.94 130.84C245.94 116.1 255.9 104.71 269.85 102.51C279.41 101 286.97 104.59 292.68 113.25L310.08 98.69C302.11 85.07 287.5 78.74 269.98 81.51C243.96 85.08 222.18 109.36 222.58 134.39C222.04 159.84 244.08 176.81 269.85 172.35C287.5 169.57 302.11 158.63 310.08 142.51L292.68 133.44C286.97 143.9 279.41 149.87 269.85 151.38L269.84 151.37ZM266.32 87.4C269.47 86.9 272.03 89.05 272.03 92.21C272.03 95.37 269.47 98.32 266.32 98.82C263.17 99.32 260.6 97.17 260.6 94.01C260.6 90.85 263.16 87.9 266.32 87.4Z" fill="url(#paint0_linear_2430_609)"/>
</g>
<g filter="url(#filter1_d_2430_609)">
<path d="M365.03 66.5199C339.4 70.0299 317.36 94.3499 317.9 119.36C317.36 144.81 339.4 161.78 365.03 157.34C390.52 153.72 412.96 129.74 412.43 104.46C412.96 79.2899 390.52 61.9799 365.03 66.5199V66.5199ZM365.17 71.8099C368.32 71.3099 370.88 73.4599 370.88 76.6199C370.88 79.7799 368.33 82.7299 365.17 83.2299C362.02 83.7299 359.46 81.5799 359.46 78.4199C359.46 75.2599 362.01 72.3099 365.17 71.8099ZM365.17 136.34C358.13 137.45 352.29 136.11 347.91 132.42C343.53 128.6 341.27 122.98 341.27 115.68C341.27 101.21 351.09 89.6999 365.17 87.4899C378.71 85.3599 389.07 93.6699 389.07 108.15C389.07 122.63 378.71 134.22 365.17 136.35V136.34Z" fill="url(#paint1_linear_2430_609)"/>
</g>
<g filter="url(#filter2_d_2430_609)">
<path d="M507.36 44.0799L470.05 95.5099L432.74 55.8499L425.43 56.9999V146.23L448.27 142.63V105.99L466.32 124.26L473.63 123.11L491.82 98.9899V135.77L514.65 132.17V42.9399L507.35 44.0899L507.36 44.0799ZM438.2 89.2099C434.16 90.6099 430.69 87.6599 431.49 83.4999C431.94 81.1899 433.75 79.1099 436 78.3399C440.01 76.9699 443.45 79.8899 442.68 84.0299C442.25 86.3399 440.44 88.4399 438.19 89.2199L438.2 89.2099ZM504.8 75.3999C500.76 76.7999 497.29 73.8499 498.09 69.6899C498.54 67.3799 500.35 65.2999 502.6 64.5299C506.61 63.1599 510.05 66.0799 509.28 70.2199C508.85 72.5299 507.04 74.6299 504.79 75.4099L504.8 75.3999Z" fill="url(#paint2_linear_2430_609)"/>
</g>
<g filter="url(#filter3_d_2430_609)">
<path d="M532.191 41.7599V129.39L555.021 125.79V38.1599L532.191 41.7599ZM544.101 55.0199C540.951 55.5199 538.391 53.3699 538.391 50.2099C538.391 47.0499 540.941 44.0999 544.101 43.5999C547.261 43.0999 549.811 45.2499 549.811 48.4099C549.811 51.5699 547.261 54.5199 544.101 55.0199Z" fill="url(#paint3_linear_2430_609)"/>
</g>
<g filter="url(#filter4_d_2430_609)">
<path d="M627.381 26.7499V70.5699L579.851 32.6499L572.551 33.7999V123.03L595.381 119.43V74.9499L642.921 113.53L650.221 112.38V23.1499L627.381 26.7499V26.7499ZM594.401 66.8399C591.251 67.3399 588.691 65.1899 588.691 62.0299C588.691 58.8699 591.241 55.9199 594.401 55.4199C597.551 54.9199 600.111 57.0699 600.111 60.2299C600.111 63.3899 597.561 66.3399 594.401 66.8399Z" fill="url(#paint4_linear_2430_609)"/>
</g>
<g filter="url(#filter5_d_2430_609)">
<path d="M710.632 50.9399V70.5999L731.082 67.3799V71.4899C726.832 77.0799 720.192 81.0399 711.832 82.3599C696.302 84.8099 686.602 76.2399 686.602 61.2399C686.602 46.2399 695.772 35.3699 710.512 33.0399C720.072 31.5299 726.972 34.5599 732.682 41.6299L748.612 25.5699C740.122 14.2999 726.972 9.45993 710.902 11.9999C684.622 15.7399 662.842 39.7599 663.232 64.9299C662.842 90.3499 684.612 107.37 710.902 102.83C720.332 101.34 728.832 97.7499 736.392 92.1699C743.962 86.4599 749.812 79.6899 753.922 71.7399V44.1199L710.632 50.9399V50.9399ZM683.432 32.6299C686.582 32.1299 689.142 34.2799 689.142 37.4399C689.142 40.5999 686.592 43.5499 683.432 44.0499C680.282 44.5499 677.722 42.3999 677.722 39.2399C677.722 36.0799 680.272 33.1299 683.432 32.6299Z" fill="url(#paint5_linear_2430_609)"/>
</g>
<path d="M245.06 286.64C252.62 295.53 260.57 300.68 273.57 298.63C282.3 297.25 286.76 293.45 286.76 287.24C286.76 281.62 283.85 280.33 273.77 277.46L260.58 273.72C239.44 267.74 228.19 257.49 228.19 240.23C228.19 217.54 246.81 199.48 272.99 195.35C294.13 192.02 309.06 199.75 316.82 214.23L294.52 234.81C288.31 226.48 282.5 223.13 273.38 224.57C266.4 225.67 261.94 229.09 261.94 234.52C261.94 239.17 264.65 241.27 272.99 243.25L287.73 247.13C310.03 252.92 320.5 262.52 320.5 280.56C320.5 305.38 300.14 323.72 273.57 327.91C250.49 331.55 231.87 323.43 222.57 307.25L245.07 286.64H245.06Z" fill="url(#paint6_linear_2430_609)"/>
<path d="M401.751 175.06C438.981 168.41 471.761 193.69 470.981 230.47C471.761 267.39 438.981 302.42 401.751 307.71C364.321 314.19 332.131 289.4 332.901 252.24C332.121 215.71 364.321 180.19 401.751 175.06ZM401.941 205.67C381.381 208.91 367.031 225.72 367.031 246.86C367.031 257.53 370.331 265.73 376.731 271.32C383.131 276.71 391.661 278.66 401.941 277.04C421.721 273.92 436.851 257.19 436.851 235.85C436.851 214.51 421.721 202.55 401.941 205.67V205.67Z" fill="url(#paint7_linear_2430_609)"/>
<path d="M552.231 151.34C589.461 144.69 622.241 169.97 621.461 206.75C622.241 243.67 589.461 278.7 552.231 283.99C514.801 290.47 482.611 265.68 483.381 228.52C482.601 191.99 514.801 156.47 552.231 151.34ZM552.421 181.95C531.861 185.19 517.511 202 517.511 223.14C517.511 233.81 520.811 242.01 527.211 247.6C533.611 252.99 542.141 254.94 552.421 253.32C572.201 250.2 587.331 233.47 587.331 212.13C587.331 190.79 572.201 178.83 552.421 181.95V181.95Z" fill="url(#paint8_linear_2430_609)"/>
<path d="M753.909 121.87V252.19L743.239 253.87L673.809 197.52V262.49L640.449 267.75V137.43L651.119 135.75L720.549 191.13V127.13L753.909 121.87Z" fill="url(#paint9_linear_2430_609)"/>
<path style="mix-blend-mode:multiply" d="M975.66 110.75C975.66 110.75 760.17 201.21 490.75 262.86C221.32 324.51 0 334.01 0 334.01L975.66 110.75Z" fill="url(#paint10_linear_2430_609)"/>
<g filter="url(#filter6_d_2430_609)">
<path d="M594.131 129.89L411.291 159.85C409.291 160.18 407.541 162.07 407.361 164.08L404.451 197.82C404.281 199.83 405.751 201.19 407.751 200.86L467.351 191.1C469.351 190.77 470.821 192.13 470.651 194.14L470.121 200.32C469.831 203.64 473.771 204.56 476.201 201.73L487.121 189.03C487.871 188.16 488.881 187.56 489.901 187.4L590.591 170.9C592.591 170.57 594.341 168.68 594.521 166.67L597.431 132.93C597.601 130.92 596.131 129.56 594.131 129.89V129.89Z" fill="url(#paint11_linear_2430_609)"/>
</g>
<path d="M418.851 181.97C419.881 183.35 421.031 184.14 423.041 183.81C424.391 183.59 425.121 182.99 425.201 182.03C425.281 181.16 424.851 180.96 423.351 180.52L421.391 179.95C418.251 179.04 416.671 177.45 416.901 174.77C417.201 171.24 420.281 168.42 424.331 167.76C427.601 167.22 429.771 168.41 430.761 170.66L427.081 173.88C426.251 172.59 425.401 172.07 423.991 172.31C422.911 172.49 422.181 173.02 422.111 173.87C422.051 174.59 422.431 174.92 423.681 175.22L425.881 175.81C429.201 176.69 430.671 178.18 430.431 180.98C430.101 184.84 426.751 187.71 422.641 188.38C419.071 188.96 416.341 187.72 415.141 185.21L418.851 181.99V181.97Z" fill="white"/>
<path d="M438.44 170.41L432.5 171.38L432.9 166.71L449.93 163.92L449.53 168.59L443.59 169.56L442.28 184.79L437.12 185.63L438.43 170.4L438.44 170.41Z" fill="white"/>
<path d="M459.852 180.28L452.742 181.44L451.882 183.22L446.332 184.13L457.072 162.4L458.722 162.13L465.972 180.92L460.422 181.83L459.842 180.29L459.852 180.28ZM457.072 172.09L454.932 176.99L458.382 176.43L457.072 172.1V172.09Z" fill="white"/>
<path d="M476.172 171.72L475.512 179.35L470.352 180.19L471.002 172.62L465.262 161.4L470.962 160.47L474.052 166.8L478.342 159.26L484.012 158.33L476.182 171.71L476.172 171.72Z" fill="white"/>
<path d="M495.592 161.04L489.652 162.01L490.052 157.34L507.082 154.55L506.682 159.22L500.742 160.19L499.432 175.42L494.272 176.26L495.582 161.03L495.592 161.04Z" fill="white"/>
<path d="M509.249 154.2L514.409 153.36L513.389 165.21C513.199 167.47 514.539 168.62 516.669 168.27C518.799 167.92 520.389 166.29 520.579 164.03L521.599 152.18L526.759 151.34L525.769 162.8C525.319 168.05 521.259 172.22 516.259 173.04C511.189 173.87 507.809 170.98 508.259 165.67L509.249 154.21V154.2Z" fill="white"/>
<path d="M548.139 147.83L546.389 168.09L544.739 168.36L534.909 159.66L534.039 169.76L528.879 170.6L530.629 150.34L532.279 150.07L542.129 158.62L542.989 148.67L548.149 147.83H548.139Z" fill="white"/>
<path d="M552.091 147.18L565.821 144.93L565.421 149.6L556.841 151L556.601 153.74L562.721 152.74L562.351 157.08L556.231 158.08L555.931 161.55L564.861 160.09L564.461 164.76L550.371 167.07L552.081 147.17L552.091 147.18Z" fill="white"/>
<path d="M569.4 144.35L576.3 143.22C582.36 142.17 586.85 145.36 586.24 151.34C585.82 157.2 580.63 162.22 574.58 163.12L567.68 164.25L569.39 144.35H569.4ZM574.95 158.45C578.19 157.92 580.67 155.49 580.96 152.2C581.25 148.82 579.13 147.39 575.86 147.92L574.15 148.2L573.24 158.72L574.95 158.44V158.45Z" fill="white"/>
<ellipse cx="266" cy="93" rx="9" ry="8" fill="url(#paint12_linear_2430_609)"/>
<ellipse cx="365" cy="77" rx="9" ry="8" fill="url(#paint13_linear_2430_609)"/>
<ellipse cx="437" cy="85" rx="9" ry="8" fill="url(#paint14_linear_2430_609)"/>
<ellipse cx="503" cy="69" rx="9" ry="8" fill="url(#paint15_linear_2430_609)"/>
<ellipse cx="544" cy="51" rx="9" ry="8" fill="url(#paint16_linear_2430_609)"/>
<ellipse cx="592" cy="61" rx="9" ry="8" fill="url(#paint17_linear_2430_609)"/>
<ellipse cx="683" cy="38" rx="9" ry="8" fill="url(#paint18_linear_2430_609)"/>
<defs>
<filter id="filter0_d_2430_609" x="212.15" y="70.4511" width="119.548" height="124.23" filterUnits="userSpaceOnUse" color-interpolation-filters="sRGB">
<feFlood flood-opacity="0" result="BackgroundImageFix"/>
<feColorMatrix in="SourceAlpha" type="matrix" values="0 0 0 0 0 0 0 0 0 0 0 0 0 0 0 0 0 0 127 0" result="hardAlpha"/>
<feOffset dx="5.6" dy="5.6"/>
<feGaussianBlur stdDeviation="8.01"/>
<feColorMatrix type="matrix" values="0 0 0 0 0 0 0 0 0 0 0 0 0 0 0 0 0 0 0.75 0"/>
<feBlend mode="normal" in2="BackgroundImageFix" result="effect1_dropShadow_2430_609"/>
<feBlend mode="normal" in="SourceGraphic" in2="effect1_dropShadow_2430_609" result="shape"/>
</filter>
<filter id="filter1_d_2430_609" x="307.471" y="55.3759" width="126.591" height="124.29" filterUnits="userSpaceOnUse" color-interpolation-filters="sRGB">
<feFlood flood-opacity="0" result="BackgroundImageFix"/>
<feColorMatrix in="SourceAlpha" type="matrix" values="0 0 0 0 0 0 0 0 0 0 0 0 0 0 0 0 0 0 127 0" result="hardAlpha"/>
<feOffset dx="5.6" dy="5.6"/>
<feGaussianBlur stdDeviation="8.01"/>
<feColorMatrix type="matrix" values="0 0 0 0 0 0 0 0 0 0 0 0 0 0 0 0 0 0 0.75 0"/>
<feBlend mode="normal" in2="BackgroundImageFix" result="effect1_dropShadow_2430_609"/>
<feBlend mode="normal" in="SourceGraphic" in2="effect1_dropShadow_2430_609" result="shape"/>
</filter>
<filter id="filter2_d_2430_609" x="415.01" y="32.5199" width="121.259" height="135.33" filterUnits="userSpaceOnUse" color-interpolation-filters="sRGB">
<feFlood flood-opacity="0" result="BackgroundImageFix"/>
<feColorMatrix in="SourceAlpha" type="matrix" values="0 0 0 0 0 0 0 0 0 0 0 0 0 0 0 0 0 0 127 0" result="hardAlpha"/>
<feOffset dx="5.6" dy="5.6"/>
<feGaussianBlur stdDeviation="8.01"/>
<feColorMatrix type="matrix" values="0 0 0 0 0 0 0 0 0 0 0 0 0 0 0 0 0 0 0.75 0"/>
<feBlend mode="normal" in2="BackgroundImageFix" result="effect1_dropShadow_2430_609"/>
<feBlend mode="normal" in="SourceGraphic" in2="effect1_dropShadow_2430_609" result="shape"/>
</filter>
<filter id="filter3_d_2430_609" x="521.771" y="27.7399" width="54.8681" height="123.27" filterUnits="userSpaceOnUse" color-interpolation-filters="sRGB">
<feFlood flood-opacity="0" result="BackgroundImageFix"/>
<feColorMatrix in="SourceAlpha" type="matrix" values="0 0 0 0 0 0 0 0 0 0 0 0 0 0 0 0 0 0 127 0" result="hardAlpha"/>
<feOffset dx="5.6" dy="5.6"/>
<feGaussianBlur stdDeviation="8.01"/>
<feColorMatrix type="matrix" values="0 0 0 0 0 0 0 0 0 0 0 0 0 0 0 0 0 0 0.75 0"/>
<feBlend mode="normal" in2="BackgroundImageFix" result="effect1_dropShadow_2430_609"/>
<feBlend mode="normal" in="SourceGraphic" in2="effect1_dropShadow_2430_609" result="shape"/>
</filter>
<filter id="filter4_d_2430_609" x="562.131" y="12.7299" width="109.712" height="131.92" filterUnits="userSpaceOnUse" color-interpolation-filters="sRGB">
<feFlood flood-opacity="0" result="BackgroundImageFix"/>
<feColorMatrix in="SourceAlpha" type="matrix" values="0 0 0 0 0 0 0 0 0 0 0 0 0 0 0 0 0 0 127 0" result="hardAlpha"/>
<feOffset dx="5.6" dy="5.6"/>
<feGaussianBlur stdDeviation="8.01"/>
<feColorMatrix type="matrix" values="0 0 0 0 0 0 0 0 0 0 0 0 0 0 0 0 0 0 0.75 0"/>
<feBlend mode="normal" in2="BackgroundImageFix" result="effect1_dropShadow_2430_609"/>
<feBlend mode="normal" in="SourceGraphic" in2="effect1_dropShadow_2430_609" result="shape"/>
</filter>
<filter id="filter5_d_2430_609" x="652.807" y="0.919355" width="122.735" height="124.264" filterUnits="userSpaceOnUse" color-interpolation-filters="sRGB">
<feFlood flood-opacity="0" result="BackgroundImageFix"/>
<feColorMatrix in="SourceAlpha" type="matrix" values="0 0 0 0 0 0 0 0 0 0 0 0 0 0 0 0 0 0 127 0" result="hardAlpha"/>
<feOffset dx="5.6" dy="5.6"/>
<feGaussianBlur stdDeviation="8.01"/>
<feColorMatrix type="matrix" values="0 0 0 0 0 0 0 0 0 0 0 0 0 0 0 0 0 0 0.75 0"/>
<feBlend mode="normal" in2="BackgroundImageFix" result="effect1_dropShadow_2430_609"/>
<feBlend mode="normal" in="SourceGraphic" in2="effect1_dropShadow_2430_609" result="shape"/>
</filter>
<filter id="filter6_d_2430_609" x="401.438" y="126.841" width="213.008" height="93.5723" filterUnits="userSpaceOnUse" color-interpolation-filters="sRGB">
<feFlood flood-opacity="0" result="BackgroundImageFix"/>
<feColorMatrix in="SourceAlpha" type="matrix" values="0 0 0 0 0 0 0 0 0 0 0 0 0 0 0 0 0 0 127 0" result="hardAlpha"/>
<feOffset dx="7" dy="7"/>
<feGaussianBlur stdDeviation="5"/>
<feColorMatrix type="matrix" values="0 0 0 0 0 0 0 0 0 0 0 0 0 0 0 0 0 0 0.5 0"/>
<feBlend mode="normal" in2="BackgroundImageFix" result="effect1_dropShadow_2430_609"/>
<feBlend mode="normal" in="SourceGraphic" in2="effect1_dropShadow_2430_609" result="shape"/>
</filter>
<linearGradient id="paint0_linear_2430_609" x1="410.572" y1="152.251" x2="396.566" y2="63.4165" gradientUnits="userSpaceOnUse">
<stop stop-color="#FF9300"/>
<stop offset="0.29" stop-color="#FF9B00"/>
<stop offset="0.97" stop-color="#FFAD00"/>
</linearGradient>
<linearGradient id="paint1_linear_2430_609" x1="509.193" y1="136.701" x2="495.186" y2="47.8671" gradientUnits="userSpaceOnUse">
<stop stop-color="#FF9300"/>
<stop offset="0.29" stop-color="#FF9B00"/>
<stop offset="0.97" stop-color="#FFAD00"/>
</linearGradient>
<linearGradient id="paint2_linear_2430_609" x1="613.582" y1="118.639" x2="599.824" y2="31.379" gradientUnits="userSpaceOnUse">
<stop stop-color="#FF9300"/>
<stop offset="0.29" stop-color="#FF9B00"/>
<stop offset="0.97" stop-color="#FFAD00"/>
</linearGradient>
<linearGradient id="paint3_linear_2430_609" x1="686.973" y1="107.068" x2="673.46" y2="21.3627" gradientUnits="userSpaceOnUse">
<stop stop-color="#FF9300"/>
<stop offset="0.29" stop-color="#FF9B00"/>
<stop offset="0.97" stop-color="#FFAD00"/>
</linearGradient>
<linearGradient id="paint4_linear_2430_609" x1="754.829" y1="97.9621" x2="740.826" y2="9.14744" gradientUnits="userSpaceOnUse">
<stop stop-color="#FF9300"/>
<stop offset="0.29" stop-color="#FF9B00"/>
<stop offset="0.97" stop-color="#FFAD00"/>
</linearGradient>
<linearGradient id="paint5_linear_2430_609" x1="851.796" y1="82.6836" x2="837.79" y2="-6.15053" gradientUnits="userSpaceOnUse">
<stop stop-color="#FF9300"/>
<stop offset="0.29" stop-color="#FF9B00"/>
<stop offset="0.97" stop-color="#FFAD00"/>
</linearGradient>
<linearGradient id="paint6_linear_2430_609" x1="439.847" y1="304.133" x2="419.394" y2="174.412" gradientUnits="userSpaceOnUse">
<stop stop-color="#FF9300"/>
<stop offset="0.29" stop-color="#FF9B00"/>
<stop offset="0.97" stop-color="#FFAD00"/>
</linearGradient>
<linearGradient id="paint7_linear_2430_609" x1="569.956" y1="283.629" x2="549.5" y2="153.889" gradientUnits="userSpaceOnUse">
<stop stop-color="#FF9300"/>
<stop offset="0.29" stop-color="#FF9B00"/>
<stop offset="0.97" stop-color="#FFAD00"/>
</linearGradient>
<linearGradient id="paint8_linear_2430_609" x1="720.096" y1="259.957" x2="699.64" y2="130.216" gradientUnits="userSpaceOnUse">
<stop stop-color="#FF9300"/>
<stop offset="0.29" stop-color="#FF9B00"/>
<stop offset="0.97" stop-color="#FFAD00"/>
</linearGradient>
<linearGradient id="paint9_linear_2430_609" x1="864.516" y1="237.176" x2="844.063" y2="107.455" gradientUnits="userSpaceOnUse">
<stop stop-color="#FF9300"/>
<stop offset="0.29" stop-color="#FF9B00"/>
<stop offset="0.97" stop-color="#FFAD00"/>
</linearGradient>
<linearGradient id="paint10_linear_2430_609" x1="474.069" y1="22.1284" x2="476.987" y2="62.6483" gradientUnits="userSpaceOnUse">
<stop/>
<stop offset="1" stop-color="white" stop-opacity="0"/>
</linearGradient>
<linearGradient id="paint11_linear_2430_609" x1="689.083" y1="165.967" x2="680.542" y2="113.81" gradientUnits="userSpaceOnUse">
<stop stop-color="#71212B"/>
<stop offset="1" stop-color="#FF0000"/>
</linearGradient>
<linearGradient id="paint12_linear_2430_609" x1="295.67" y1="97.3882" x2="293.605" y2="81.8622" gradientUnits="userSpaceOnUse">
<stop stop-color="#FF9300"/>
<stop offset="0.29" stop-color="#FF9B00"/>
<stop offset="0.97" stop-color="#FFAD00"/>
</linearGradient>
<linearGradient id="paint13_linear_2430_609" x1="394.67" y1="81.3882" x2="392.605" y2="65.8622" gradientUnits="userSpaceOnUse">
<stop stop-color="#FF9300"/>
<stop offset="0.29" stop-color="#FF9B00"/>
<stop offset="0.97" stop-color="#FFAD00"/>
</linearGradient>
<linearGradient id="paint14_linear_2430_609" x1="466.67" y1="89.3882" x2="464.605" y2="73.8622" gradientUnits="userSpaceOnUse">
<stop stop-color="#FF9300"/>
<stop offset="0.29" stop-color="#FF9B00"/>
<stop offset="0.97" stop-color="#FFAD00"/>
</linearGradient>
<linearGradient id="paint15_linear_2430_609" x1="532.67" y1="73.3882" x2="530.605" y2="57.8622" gradientUnits="userSpaceOnUse">
<stop stop-color="#FF9300"/>
<stop offset="0.29" stop-color="#FF9B00"/>
<stop offset="0.97" stop-color="#FFAD00"/>
</linearGradient>
<linearGradient id="paint16_linear_2430_609" x1="573.67" y1="55.3882" x2="571.605" y2="39.8622" gradientUnits="userSpaceOnUse">
<stop stop-color="#FF9300"/>
<stop offset="0.29" stop-color="#FF9B00"/>
<stop offset="0.97" stop-color="#FFAD00"/>
</linearGradient>
<linearGradient id="paint17_linear_2430_609" x1="621.67" y1="65.3882" x2="619.605" y2="49.8622" gradientUnits="userSpaceOnUse">
<stop stop-color="#FF9300"/>
<stop offset="0.29" stop-color="#FF9B00"/>
<stop offset="0.97" stop-color="#FFAD00"/>
</linearGradient>
<linearGradient id="paint18_linear_2430_609" x1="712.67" y1="42.3882" x2="710.605" y2="26.8622" gradientUnits="userSpaceOnUse">
<stop stop-color="#FF9300"/>
<stop offset="0.29" stop-color="#FF9B00"/>
<stop offset="0.97" stop-color="#FFAD00"/>
</linearGradient>
</defs>
</svg>
