<svg width="25" height="24" viewBox="0 0 25 24" fill="none" xmlns="http://www.w3.org/2000/svg">
<path fill-rule="evenodd" clip-rule="evenodd" d="M15.0225 22.4063C15.0225 21.5262 14.322 20.8127 13.4579 20.8127H11.5421C11.1271 20.8127 10.7292 20.9806 10.4358 21.2795C10.1424 21.5783 9.97754 21.9837 9.97754 22.4063C9.97754 23.2865 10.678 24 11.5421 24H13.4579C14.322 24 15.0225 23.2865 15.0225 22.4063V22.4063ZM3.28911 18.297C3.55044 18.3173 3.8666 18.329 4.18418 18.31C4.35337 19.184 4.77368 19.9946 5.40107 20.6337C6.23398 21.4821 7.36362 21.9587 8.5415 21.9587H9.13848C9.11216 22.1054 9.09863 22.2552 9.09863 22.4063C9.09863 22.5592 9.11216 22.7088 9.13809 22.854H8.5415C7.13052 22.854 5.7773 22.283 4.77959 21.2668C3.98364 20.456 3.46592 19.4147 3.28911 18.297V18.297ZM2.84204 17.3443C2.14814 17.2252 1.50244 16.8892 0.998389 16.3757C0.359131 15.7245 0 14.8414 0 13.9205V11.8045C0 10.8837 0.359131 10.0005 0.998389 9.34934C1.63765 8.69819 2.50469 8.33232 3.40874 8.33232H3.63564C3.99834 3.66922 7.82852 0 12.5 0C17.1715 0 21.0017 3.66922 21.3644 8.33232H21.5913C22.4953 8.33232 23.3624 8.69819 24.0016 9.34934C24.6409 10.0005 25 10.8837 25 11.8045V13.9205C25 14.8414 24.6409 15.7245 24.0016 16.3757C23.3624 17.0269 22.4953 17.3927 21.5913 17.3927H20.5854C20.1682 17.3927 19.83 17.0482 19.83 16.6233V9.05793C19.83 4.93437 16.5482 1.59157 12.5 1.59157C8.45176 1.59157 5.17002 4.93437 5.17002 9.05793V16.6233C5.17002 16.9233 5.00142 17.1833 4.75542 17.3101C4.07827 17.5495 3.02813 17.3763 2.84204 17.3443V17.3443Z" fill="white"/>
</svg>
