<svg width="22" height="22" viewBox="0 0 22 22" fill="none" xmlns="http://www.w3.org/2000/svg">
<g clip-path="url(#clip0_873_18)">
<path d="M5.15625 14.8252V17.5733L7.21699 16.1992L5.15625 14.8252Z" fill="white"/>
<path d="M0 10.3984V22H11.6016V10.3984H0ZM3.86719 19.9814V12.417L9.54082 16.1992L3.86719 19.9814Z" fill="white"/>
<path d="M12.9766 7.82031V22H22V7.82031H12.9766ZM19.4219 19.4219H15.5547V18.1328H19.4219V19.4219ZM19.4219 16.8438H15.5547V15.5547H19.4219V16.8438ZM19.4219 14.2656H15.5547V12.9766H19.4219V14.2656ZM19.4219 11.6875H15.5547V10.3984H19.4219V11.6875Z" fill="white"/>
<path d="M3.22455 3.6022L4.51172 4.88937L7.08984 2.31125L11.6016 6.82297V0H0V6.80187L3.22455 3.6022Z" fill="white"/>
<path d="M7.08984 4.13403L4.51172 6.71216L3.22077 5.42121L0 8.61752V9.0234H11.6016V8.64575L7.08984 4.13403Z" fill="white"/>
<path d="M22 6.44531H12.9766V0H22V6.44531Z" fill="white"/>
</g>
<defs>
<clipPath id="clip0_873_18">
<rect width="22" height="22" fill="white"/>
</clipPath>
</defs>
</svg>
