<svg width="22" height="22" viewBox="0 0 22 22" fill="none" xmlns="http://www.w3.org/2000/svg">
<g clip-path="url(#clip0_872_2)">
<path d="M8.47911 22H1.60411C0.719558 22 0 21.2804 0 20.3959V16.2709C0 15.3862 0.719558 14.6666 1.60411 14.6666H8.47911C9.36383 14.6666 10.0834 15.3862 10.0834 16.2709V20.3959C10.0834 21.2804 9.36383 22 8.47911 22Z" fill="white"/>
<path d="M8.47911 12.8335H1.60411C0.719558 12.8335 0 12.1139 0 11.2292V1.60422C0 0.71967 0.719558 0.000111262 1.60411 0.000111262H8.47911C9.36383 0.000111262 10.0834 0.71967 10.0834 1.60422V11.2292C10.0834 12.1139 9.36383 12.8335 8.47911 12.8335V12.8335Z" fill="white"/>
<path d="M20.3959 7.3335H13.5209C12.6362 7.3335 11.9166 6.61394 11.9166 5.72922V1.60422C11.9166 0.719668 12.6362 0.000109355 13.5209 0.000109355H20.3959C21.2805 0.000109355 22 0.719668 22 1.60422V5.72922C22 6.61394 21.2805 7.3335 20.3959 7.3335V7.3335Z" fill="white"/>
<path d="M20.3959 22H13.5209C12.6362 22 11.9166 21.2804 11.9166 20.3959V10.7709C11.9166 9.88617 12.6362 9.16662 13.5209 9.16662H20.3959C21.2805 9.16662 22 9.88617 22 10.7709V20.3959C22 21.2804 21.2805 22 20.3959 22V22Z" fill="white"/>
</g>
<defs>
<clipPath id="clip0_872_2">
<rect width="22" height="22" fill="white"/>
</clipPath>
</defs>
</svg>
