<svg width="10" height="16" viewBox="0 0 10 16" fill="none" xmlns="http://www.w3.org/2000/svg">
<path d="M4.53107 16.0006C4.02873 16.0006 3.55704 15.8044 3.2029 15.4482L0.356107 12.5846C0.00660585 12.233 -0.0960593 11.7099 0.0946219 11.2518C0.284326 10.7955 0.725628 10.5005 1.21869 10.5005H3.90605V0.625024C3.90605 0.279796 4.18584 0 4.53107 0C4.8763 0 5.1561 0.279796 5.1561 0.625024V10.5006C5.1561 11.1899 4.59528 11.7507 3.90605 11.7507H1.28986L4.08941 14.5668C4.20721 14.6853 4.36407 14.7506 4.53107 14.7506C4.69807 14.7506 4.85494 14.6853 4.97274 14.5668L7.77229 11.7507H7.1563C6.81107 11.7507 6.53127 11.4709 6.53127 11.1257C6.53127 10.7804 6.81107 10.5006 7.1563 10.5006H7.84346C8.33652 10.5006 8.7777 10.7955 8.96752 11.2518C9.15808 11.7099 9.05554 12.2331 8.70604 12.5846L5.85925 15.4482C5.50511 15.8044 5.03341 16.0006 4.53107 16.0006Z" fill="white"/>
</svg>
