<svg width="205" height="205" viewBox="0 0 205 205" fill="none" xmlns="http://www.w3.org/2000/svg">
<g clip-path="url(#clip0_15_118)">
<rect width="205" height="205" fill="#D9D9D9"/>
<path d="M142.804 76.6356C142.804 76.6356 149.684 75.7999 150.306 82.3497C150.928 88.8995 148.732 93.9334 144.65 96.1102C144.65 96.1102 143.776 96.5378 141.774 96.8876L142.804 76.6551V76.6356Z" fill="#FFB69F"/>
<path d="M64.9638 76.6356C64.9638 76.6356 58.0836 75.7999 57.4617 82.3497C56.8397 88.8995 59.0359 93.9334 63.1174 96.1102C63.1174 96.1102 63.9921 96.5378 65.9939 96.8876L64.9638 76.6551V76.6356Z" fill="#FFB69F"/>
<path d="M10 205.109C10 205.109 10 177.627 26.0928 172.205C42.1855 166.782 78.5497 145.966 78.5497 145.966H103.155V205.109H10V205.109Z" fill="#F49037"/>
<path d="M194.794 205.109C194.794 205.109 194.794 177.627 178.701 172.205C162.608 166.782 126.632 145.966 126.632 145.966H101.638V205.109H194.794V205.109Z" fill="#F49037"/>
<path d="M84.6719 126.956L82.3979 145.964H122.397L119.909 126.956H84.6719Z" fill="#FFB69F"/>
<path d="M102.397 157.336C113.443 157.336 122.397 153.447 122.397 148.649C122.397 143.851 113.443 139.961 102.397 139.961C91.352 139.961 82.3979 143.851 82.3979 148.649C82.3979 153.447 91.352 157.336 102.397 157.336Z" fill="#FFB69F"/>
<path d="M83.1553 139.666C83.1553 139.666 110.462 142.173 120.083 130.201V116.44L85.4681 119.764L83.1553 139.666V139.666Z" fill="#FF9988"/>
<path d="M104.03 132.476C126.046 132.476 143.893 109.66 143.893 81.5156C143.893 53.3709 126.046 30.5552 104.03 30.5552C82.0148 30.5552 64.1677 53.3709 64.1677 81.5156C64.1677 109.66 82.0148 132.476 104.03 132.476Z" fill="#FFB69F"/>
<path d="M138.839 40.8189C138.839 40.8189 138.878 40.7217 138.839 40.6634C137.518 37.4954 135.905 21.5775 109.977 19.1675C103.33 18.5455 93.8263 19.6534 87.8012 22.5299C79.5411 26.4559 70.3091 28.7104 62.1461 28.691C61.7963 28.691 61.6602 29.1574 61.9712 29.3324L68.3461 34.4051C68.5988 34.5411 68.5793 34.9104 68.3072 35.027L60.2997 37.4565C60.0082 37.5731 60.0082 38.0007 60.2997 38.0979C61.6019 38.5254 64.906 39.9831 67.8991 41.0132C63.0013 49.6815 64.1285 62.1398 64.1285 77.1053C64.1285 77.1053 63.9731 92.615 69.2013 110.399C74.9154 129.834 87.4514 138.172 105.118 138.231C123.932 138.308 133.747 122.177 136.371 116.443C140.375 107.658 143.815 91.3323 143.834 81.5172C143.834 81.5172 151.064 56.7173 138.801 40.8189H138.839ZM122.863 112.828C118.976 114.811 120.939 104.49 113.204 104.063C110.619 103.907 101.834 103.305 94.4482 103.927C88.8313 104.412 87.4708 109.466 87.2182 112.031C87.1015 113.139 86.7128 113.644 85.6633 113.256C83.331 112.401 78.3749 109.641 76.0426 107.075C73.6326 104.432 69.279 97.299 68.8709 82.2363L69.2984 60.721C69.2984 60.721 77.9473 53.4715 79.4439 48.321C79.4439 48.321 118.082 54.5016 129.277 48.321C129.277 48.321 133.961 57.2809 139.073 59.9825C140.647 60.7988 140.375 71.0219 140.239 78.0771C140.103 79.0295 139.986 80.1179 139.928 81.4006C138.898 101.555 126.712 110.865 122.844 112.848L122.863 112.828Z" fill="#B54D4D"/>
<path d="M122.864 85.5951C124.163 85.5951 125.216 83.7678 125.216 81.5136C125.216 79.2595 124.163 77.4321 122.864 77.4321C121.565 77.4321 120.512 79.2595 120.512 81.5136C120.512 83.7678 121.565 85.5951 122.864 85.5951Z" fill="#441D39"/>
<path d="M87.5873 84.7602C88.8861 84.7602 89.939 82.9328 89.939 80.6787C89.939 78.4245 88.8861 76.5972 87.5873 76.5972C86.2885 76.5972 85.2356 78.4245 85.2356 80.6787C85.2356 82.9328 86.2885 84.7602 87.5873 84.7602Z" fill="#441D39"/>
<path d="M106.771 99.863H103.058C101.406 99.863 99.9487 99.2216 99.1713 98.1526C98.6076 97.3946 98.4521 96.5006 98.7242 95.626C99.56 92.9439 100.648 82.9345 100.648 82.8373C100.707 82.2931 101.173 81.9238 101.717 81.9821C102.242 82.0404 102.631 82.5263 102.573 83.0511C102.534 83.4787 101.445 93.3326 100.571 96.2091C100.493 96.5006 100.532 96.7532 100.726 97.0253C101.134 97.5695 102.048 97.9388 103.058 97.9388H106.771C107.315 97.9388 107.742 98.3664 107.742 98.9106C107.742 99.4548 107.315 99.8824 106.771 99.8824V99.863Z" fill="#FF9988"/>
<path d="M124.923 91.9911C128.669 91.9911 131.706 91.2949 131.706 90.4362C131.706 89.5775 128.669 88.8813 124.923 88.8813C121.177 88.8813 118.14 89.5775 118.14 90.4362C118.14 91.2949 121.177 91.9911 124.923 91.9911Z" fill="#FF9988"/>
<path d="M85.3319 91.9911C89.0781 91.9911 92.115 91.2949 92.115 90.4362C92.115 89.5775 89.0781 88.8813 85.3319 88.8813C81.5857 88.8813 78.5488 89.5775 78.5488 90.4362C78.5488 91.2949 81.5857 91.9911 85.3319 91.9911Z" fill="#FF9988"/>
<path d="M131.103 72.0296C124.631 70.1249 119.675 71.3299 116.662 71.7186C115.379 71.8741 115.107 70.2998 115.107 70.2998C114.855 69.2308 116.293 68.4923 117.304 68.2979C120.705 67.676 125.058 67.365 131.511 69.6001C132.755 70.0277 132.833 71.0772 132.833 71.0772C132.697 72.2434 131.958 72.2628 131.103 72.0101V72.0296Z" fill="#B54D4D"/>
<path d="M78.996 72.1486C85.4293 70.1273 90.4048 71.2546 93.4173 71.585C94.7001 71.7211 94.9528 70.1468 94.9528 70.1468C95.186 69.0778 93.7283 68.3587 92.7176 68.1838C89.297 67.6201 84.9434 67.3675 78.549 69.7192C77.3051 70.1662 77.2468 71.2157 77.2468 71.2157C77.4023 72.3819 78.1409 72.3819 78.9766 72.1292L78.996 72.1486Z" fill="#B54D4D"/>
<path d="M103.816 115.647C99.2296 115.647 95.5757 114.675 95.3424 114.616C94.8177 114.48 94.5262 113.936 94.6622 113.431C94.7983 112.926 95.3425 112.615 95.8478 112.751C95.945 112.77 104.885 115.141 112.096 112.323C112.601 112.129 113.165 112.381 113.359 112.867C113.554 113.373 113.301 113.936 112.815 114.131C109.841 115.297 106.654 115.666 103.836 115.666L103.816 115.647Z" fill="#9B3D3D"/>
<path d="M83.2531 139.763L98.7239 150.803L91.2412 168.722L71.2224 150.084L83.2531 139.763Z" fill="#FFA242"/>
<path d="M98.7239 150.803L99.6568 157.43L96.1389 156.983L98.7239 150.803Z" fill="#F49037"/>
<path d="M107.548 150.454L106.188 157.431L109.997 156.79L107.548 150.454Z" fill="#F49037"/>
<path d="M107.548 150.454L121.717 140.056L134.991 150.706L115.245 170.434L107.548 150.454Z" fill="#FFA242"/>
<path d="M106.168 159.977H99.6567V205.087H106.168V159.977Z" fill="white"/>
<path d="M99.5204 156.5L99.6565 160.465C99.6565 160.465 102.688 161.787 106.167 160.465L106.265 156.87L99.501 156.481L99.5204 156.5Z" fill="#FFB69F"/>
<path d="M106.168 169.501H99.6567V171.445H106.168V169.501Z" fill="#D6D6D6"/>
<path d="M106.168 178.266H99.6567V180.21H106.168V178.266Z" fill="#D6D6D6"/>
<path d="M106.168 187.032H99.6567V188.975H106.168V187.032Z" fill="#D6D6D6"/>
<path d="M106.168 195.797H99.6567V197.74H106.168V195.797Z" fill="#D6D6D6"/>
<path d="M111.707 180.154C112.652 180.154 113.418 179.388 113.418 178.443C113.418 177.499 112.652 176.733 111.707 176.733C110.763 176.733 109.997 177.499 109.997 178.443C109.997 179.388 110.763 180.154 111.707 180.154Z" fill="#FFA242"/>
<path d="M111.707 199.237C112.652 199.237 113.418 198.471 113.418 197.526C113.418 196.582 112.652 195.816 111.707 195.816C110.763 195.816 109.997 196.582 109.997 197.526C109.997 198.471 110.763 199.237 111.707 199.237Z" fill="#FFA242"/>
</g>
<defs>
<clipPath id="clip0_15_118">
<rect width="205" height="205" fill="white"/>
</clipPath>
</defs>
</svg>
