<svg width="18" height="13" viewBox="0 0 18 13" fill="none" xmlns="http://www.w3.org/2000/svg">
<path d="M15.4426 0.170445C15.3334 0.0613091 15.1854 0 15.031 0C14.8766 0 14.7286 0.0613091 14.6194 0.170445L12.7717 2.01818C11.6613 1.47568 10.4452 1.18411 9.20952 1.16417C4.47899 1.16417 0.757329 5.84521 0.601314 6.04431C0.520962 6.14679 0.477295 6.27326 0.477295 6.40349C0.477295 6.53372 0.520962 6.66019 0.601314 6.76268C1.72739 8.12357 3.06922 9.29037 4.5733 10.2166L2.97647 11.8134C2.92087 11.8671 2.87652 11.9313 2.84601 12.0023C2.8155 12.0734 2.79944 12.1498 2.79877 12.2271C2.7981 12.3044 2.81283 12.381 2.8421 12.4526C2.87137 12.5241 2.9146 12.5891 2.96926 12.6438C3.02392 12.6984 3.08891 12.7416 3.16046 12.7709C3.232 12.8002 3.30866 12.8149 3.38596 12.8142C3.46325 12.8136 3.53964 12.7975 3.61067 12.767C3.68169 12.7365 3.74593 12.6921 3.79963 12.6365L15.4426 0.9936C15.5517 0.884432 15.613 0.736387 15.613 0.582023C15.613 0.427658 15.5517 0.279613 15.4426 0.170445V0.170445ZM6.29878 6.40349C6.29971 5.6318 6.60667 4.89198 7.15234 4.34631C7.69801 3.80064 8.43783 3.49368 9.20952 3.49276C9.77709 3.49678 10.3305 3.67031 10.7988 3.99107L6.7971 7.99275C6.47634 7.52449 6.30281 6.97107 6.29878 6.40349V6.40349Z" fill="white"/>
<path d="M17.8177 6.04421C16.9467 4.98888 15.9461 4.04768 14.8394 3.24292L12.0795 6.00288C12.1025 6.13525 12.1161 6.26909 12.1202 6.4034C12.1193 7.17509 11.8123 7.91491 11.2666 8.46057C10.721 9.00624 9.98116 9.31321 9.20947 9.31413C9.07517 9.31005 8.94132 9.29643 8.80895 9.27338L6.82965 11.2527C7.5982 11.5041 8.40088 11.6356 9.20947 11.6427C13.94 11.6427 17.6617 6.96167 17.8177 6.76258C17.898 6.66009 17.9417 6.53363 17.9417 6.4034C17.9417 6.27317 17.898 6.1467 17.8177 6.04421V6.04421Z" fill="white"/>
</svg>
