<svg width="20" height="12" viewBox="0 0 20 12" fill="none" xmlns="http://www.w3.org/2000/svg">
<path d="M9.99873 2.92163C8.38677 2.92163 7.07706 4.23135 7.07706 5.8433C7.07706 7.45526 8.38677 8.76498 9.99873 8.76498C11.6107 8.76498 12.9204 7.45526 12.9204 5.8433C12.9204 4.23135 11.6107 2.92163 9.99873 2.92163ZM9.77709 4.97688C9.4144 4.97688 9.11215 5.27912 9.11215 5.64181H8.14498C8.16513 4.73508 8.89051 4.0097 9.77709 4.0097V4.97688Z" fill="white"/>
<path d="M18.8645 5.23886C17.8772 4.00974 14.351 0 9.99872 0C5.64644 0 2.12028 4.00974 1.13296 5.23886C0.850864 5.5814 0.850864 6.08514 1.13296 6.44783C2.12028 7.67695 5.64644 11.6867 9.99872 11.6867C14.351 11.6867 17.8772 7.67695 18.8645 6.44783C19.1466 6.10529 19.1466 5.60155 18.8645 5.23886ZM9.99872 10.0747C7.66138 10.0747 5.76733 8.18068 5.76733 5.84335C5.76733 3.50601 7.66138 1.61196 9.99872 1.61196C12.3361 1.61196 14.2301 3.50601 14.2301 5.84335C14.2301 8.18068 12.3361 10.0747 9.99872 10.0747Z" fill="white"/>
</svg>
