<svg width="22" height="22" viewBox="0 0 22 22" fill="none" xmlns="http://www.w3.org/2000/svg">
<path d="M21.9389 18.4748C21.938 18.4719 21.9371 18.4691 21.9362 18.4662L21.0623 15.811V9.30881C21.0623 8.24264 20.1949 7.37524 19.1287 7.37524H13.4843V10.539C13.4843 12.3159 12.0387 13.7616 10.2617 13.7616H9.80463V16.8712C9.80463 17.9374 10.672 18.8048 11.7382 18.8048H18.2979L19.9863 19.9283C20.2082 20.0785 20.4593 20.1534 20.7097 20.1534C20.9783 20.1534 21.2463 20.0673 21.4772 19.896C21.9244 19.5641 22.1056 19.0063 21.9389 18.4748V18.4748ZM17.5517 16.185C17.2187 16.3108 16.8468 16.1426 16.7211 15.8096L16.4405 15.0659H14.4784L14.1945 15.8114C14.0966 16.0686 13.8518 16.2267 13.5921 16.2267C13.5158 16.2267 13.4383 16.2131 13.3628 16.1844C13.0301 16.0576 12.8632 15.6853 12.9899 15.3526L14.7647 10.6924C14.7666 10.6875 14.7685 10.6826 14.7705 10.6777C14.8865 10.3943 15.1592 10.211 15.4655 10.2107C15.7734 10.2091 16.0448 10.3932 16.1613 10.6764C16.1637 10.6822 16.166 10.6881 16.1683 10.694L17.927 15.3544C18.0528 15.6875 17.8847 16.0594 17.5517 16.185V16.185Z" fill="white"/>
<path d="M14.9694 13.7768H15.954L15.4639 12.4783L14.9694 13.7768Z" fill="white"/>
<path d="M10.2617 1H2.8712C1.80503 1 0.937636 1.8674 0.937636 2.93357V9.47886L0.0637501 12.1343C0.0628048 12.1372 0.0619024 12.1401 0.0610001 12.143C-0.105587 12.6743 0.0757381 13.232 0.52295 13.5638C0.753818 13.7351 1.02177 13.8211 1.29028 13.8211C1.54069 13.8211 1.79158 13.7464 2.01339 13.5962L3.70195 12.4725H10.2617C11.3278 12.4725 12.1952 11.6051 12.1952 10.539V2.93361C12.1953 1.8674 11.3279 1 10.2617 1V1ZM9.25652 9.5996C9.13067 9.72541 8.96572 9.78836 8.80081 9.78836C8.63585 9.78836 8.47094 9.72545 8.34509 9.59956L8.06287 9.3173C7.59035 9.62671 7.02631 9.80739 6.42054 9.80739C4.7627 9.80739 3.41393 8.45862 3.41393 6.80078C3.41393 5.14295 4.7627 3.79417 6.42054 3.79417C8.07838 3.79417 9.42715 5.14295 9.42715 6.80078C9.42715 7.38726 9.25777 7.93459 8.96623 8.39765L9.25661 8.68803C9.50823 8.93982 9.50823 9.34789 9.25652 9.5996V9.5996Z" fill="white"/>
<path d="M6.42045 5.0835C5.47339 5.0835 4.70288 5.854 4.70288 6.80106C4.70288 7.74812 5.47339 8.51863 6.42045 8.51863C6.66799 8.51863 6.90328 8.46556 7.1161 8.37086L6.83371 8.08847C6.58201 7.83676 6.58201 7.4287 6.83371 7.17699C7.08542 6.92528 7.49349 6.92528 7.7452 7.17699L8.01254 7.44434C8.0932 7.24552 8.13801 7.02845 8.13801 6.80106C8.13801 5.85396 7.36751 5.0835 6.42045 5.0835V5.0835Z" fill="white"/>
</svg>
