<svg width="21" height="17" viewBox="0 0 21 17" fill="none" xmlns="http://www.w3.org/2000/svg">
<path d="M18.1332 16.7864C18.3321 16.7864 18.5228 16.7074 18.6635 16.5668C18.8041 16.4261 18.8831 16.2354 18.8831 16.0366V13.7046C19.4904 13.5417 20.0271 13.1831 20.4098 12.6842C20.7926 12.1853 21 11.574 21 10.9452C21 10.3164 20.7926 9.7052 20.4098 9.20631C20.0271 8.70741 19.4904 8.34873 18.8831 8.18588V0.77009C18.8831 0.571224 18.8041 0.380502 18.6635 0.239883C18.5228 0.0992628 18.3321 0.0202637 18.1332 0.0202637C17.9344 0.0202637 17.7437 0.0992628 17.603 0.239883C17.4624 0.380502 17.3834 0.571224 17.3834 0.77009V8.19337C16.7761 8.35623 16.2394 8.71491 15.8567 9.21381C15.4739 9.7127 15.2665 10.3239 15.2665 10.9527C15.2665 11.5815 15.4739 12.1928 15.8567 12.6917C16.2394 13.1906 16.7761 13.5492 17.3834 13.7121V16.0441C17.3854 16.2416 17.4653 16.4304 17.6057 16.5694C17.7461 16.7084 17.9357 16.7864 18.1332 16.7864ZM16.7611 10.9452C16.7611 10.6738 16.8415 10.4085 16.9923 10.1829C17.1431 9.95724 17.3574 9.78136 17.6081 9.67751C17.8589 9.57365 18.1348 9.54648 18.4009 9.59942C18.6671 9.65237 18.9116 9.78306 19.1035 9.97496C19.2954 10.1669 19.4261 10.4114 19.4791 10.6775C19.532 10.9437 19.5048 11.2196 19.401 11.4704C19.2971 11.7211 19.1212 11.9354 18.8956 12.0862C18.6699 12.2369 18.4046 12.3174 18.1332 12.3174C17.7693 12.3174 17.4203 12.1729 17.163 11.9155C16.9056 11.6582 16.7611 11.3092 16.7611 10.9452Z" fill="white"/>
<path d="M10.5 16.7865C10.6988 16.7865 10.8895 16.7075 11.0302 16.5669C11.1708 16.4262 11.2498 16.2355 11.2498 16.0367V5.64406C11.9218 5.46229 12.5049 5.04263 12.8906 4.46312C13.2764 3.88361 13.4385 3.18371 13.3468 2.49363C13.2551 1.80354 12.9159 1.17025 12.3922 0.711559C11.8686 0.252866 11.1961 0 10.5 0C9.80381 0 9.13136 0.252866 8.6077 0.711559C8.08403 1.17025 7.74481 1.80354 7.65313 2.49363C7.56145 3.18371 7.72356 3.88361 8.10929 4.46312C8.49503 5.04263 9.07813 5.46229 9.75013 5.64406V16.0367C9.75013 16.2355 9.82913 16.4262 9.96975 16.5669C10.1104 16.7075 10.3011 16.7865 10.5 16.7865ZM9.12777 2.89219C9.12629 2.62049 9.2055 2.35445 9.35537 2.12782C9.50525 1.90118 9.71903 1.72414 9.96963 1.61913C10.2202 1.51412 10.4964 1.48587 10.763 1.53797C11.0297 1.59007 11.2749 1.72016 11.4676 1.91176C11.6602 2.10336 11.7916 2.34784 11.8452 2.61422C11.8988 2.8806 11.872 3.15689 11.7684 3.40806C11.6648 3.65923 11.4889 3.87398 11.2631 4.02509C11.0373 4.1762 10.7717 4.25687 10.5 4.25688C10.1373 4.25688 9.78944 4.11334 9.53232 3.85763C9.2752 3.60191 9.12975 3.25482 9.12777 2.89219Z" fill="white"/>
<path d="M2.11694 11.1627V16.0366C2.11694 16.2354 2.19594 16.4261 2.33656 16.5668C2.47718 16.7074 2.6679 16.7864 2.86677 16.7864C3.06563 16.7864 3.25635 16.7074 3.39697 16.5668C3.53759 16.4261 3.61659 16.2354 3.61659 16.0366V11.1627C4.22394 10.9998 4.76059 10.6412 5.14333 10.1423C5.52608 9.64336 5.73353 9.03213 5.73353 8.40333C5.73353 7.77453 5.52608 7.16329 5.14333 6.6644C4.76059 6.1655 4.22394 5.80682 3.61659 5.64396V0.77009C3.61659 0.571224 3.53759 0.380502 3.39697 0.239883C3.25635 0.0992628 3.06563 0.0202637 2.86677 0.0202637C2.6679 0.0202637 2.47718 0.0992628 2.33656 0.239883C2.19594 0.380502 2.11694 0.571224 2.11694 0.77009V5.64396C1.50959 5.80682 0.972944 6.1655 0.5902 6.6644C0.207456 7.16329 0 7.77453 0 8.40333C0 9.03213 0.207456 9.64336 0.5902 10.1423C0.972944 10.6412 1.50959 10.9998 2.11694 11.1627ZM2.86677 7.03114C3.13847 7.02966 3.4045 7.10887 3.63114 7.25874C3.85778 7.40862 4.03482 7.6224 4.13983 7.873C4.24484 8.1236 4.27308 8.39973 4.22099 8.6664C4.16889 8.93307 4.0388 9.17827 3.8472 9.37092C3.6556 9.56358 3.41111 9.69501 3.14473 9.74857C2.87835 9.80212 2.60207 9.77539 2.3509 9.67176C2.09973 9.56813 1.88498 9.39226 1.73387 9.16644C1.58275 8.94063 1.50209 8.67504 1.50208 8.40333C1.50208 8.0407 1.64561 7.69281 1.90133 7.43569C2.15704 7.17857 2.50414 7.03312 2.86677 7.03114Z" fill="white"/>
</svg>
