<svg width="22" height="22" viewBox="0 0 22 22" fill="none" xmlns="http://www.w3.org/2000/svg">
<path d="M15.784 4.37961C15.7044 4.13513 15.4929 3.95683 15.2388 3.91993L12.8201 3.5684L11.738 1.37637C11.6246 1.14597 11.3898 1 11.1326 1C10.8754 1 10.6406 1.14597 10.5271 1.37637L9.44508 3.56844L7.02596 3.91997C6.7718 3.95691 6.56031 4.13517 6.48075 4.37965C6.4012 4.62413 6.46757 4.89256 6.6518 5.07195L8.40266 6.77817L7.98895 9.18721C7.9454 9.44068 8.04963 9.69681 8.25762 9.84786C8.46604 9.99955 8.74173 10.0182 8.96903 9.89931L11.1327 8.76185L13.296 9.89931C13.5286 10.0213 13.8032 9.99613 14.0074 9.84786C14.2154 9.69685 14.3196 9.44072 14.2761 9.18745L13.8628 6.77817L15.6132 5.07195C15.7972 4.89256 15.8631 4.62409 15.784 4.37961Z" fill="white"/>
<path d="M13.8318 11.29H8.42891C8.05592 11.29 7.75354 11.5924 7.75354 11.9654V21.6455H14.5071V11.9654C14.5071 11.5924 14.2047 11.29 13.8318 11.29Z" fill="white"/>
<path d="M1.67537 13.9912C1.30238 13.9912 1 14.2936 1 14.6666V21.1113C1 21.4062 1.23907 21.6453 1.53395 21.6453H6.40289V13.9912H1.67537Z" fill="white"/>
<path d="M20.5854 16.6926H15.8579V21.6453H20.7268C21.0218 21.6453 21.2608 21.4062 21.2608 21.1113V17.368C21.2608 16.995 20.9584 16.6926 20.5854 16.6926Z" fill="white"/>
</svg>
