<svg width="22" height="22" viewBox="0 0 22 22" fill="none" xmlns="http://www.w3.org/2000/svg">
<g clip-path="url(#clip0_880_16)">
<path d="M13.75 11.9166C13.2431 11.9166 12.8334 12.3273 12.8334 12.8332V16.5C12.8334 17.0051 12.4227 17.4166 11.9166 17.4166H9.16661V3.66661C9.16661 2.88377 8.66794 2.18436 7.91817 1.92403L7.64676 1.83322H11.9166C12.4227 1.83322 12.8334 2.24478 12.8334 2.75V5.5C12.8334 6.00589 13.2431 6.41661 13.75 6.41661C14.2569 6.41661 14.6666 6.00589 14.6666 5.5V2.75C14.6666 1.23384 13.4328 0 11.9166 0H2.0625C2.02759 0 1.99838 0.0156098 1.96448 0.0201416C1.92033 0.016449 1.8782 0 1.83339 0C0.822281 0 0 0.822113 0 1.83322V18.3332C0 19.1161 0.498672 19.8155 1.24844 20.0758L6.76506 21.9147C6.95204 21.9725 7.13802 22 7.33339 22C8.3445 22 9.16661 21.1777 9.16661 20.1666V19.25H11.9166C13.4328 19.25 14.6666 18.0162 14.6666 16.5V12.8332C14.6666 12.3273 14.2569 11.9166 13.75 11.9166V11.9166Z" fill="black"/>
<path d="M21.7315 8.51894L18.0647 4.85233C17.8027 4.59015 17.4084 4.51126 17.0657 4.65326C16.7238 4.79543 16.5 5.12995 16.5 5.50038V8.25038H12.8334C12.3273 8.25038 11.9166 8.66094 11.9166 9.16699C11.9166 9.67305 12.3273 10.0836 12.8334 10.0836H16.5V12.8336C16.5 13.204 16.7238 13.5386 17.0657 13.6807C17.4084 13.8227 17.8027 13.7438 18.0647 13.4818L21.7315 9.81505C22.0898 9.4567 22.0898 8.87729 21.7315 8.51894V8.51894Z" fill="black"/>
</g>
<defs>
<clipPath id="clip0_880_16">
<rect width="22" height="22" fill="white"/>
</clipPath>
</defs>
</svg>
