<svg width="47" height="44" viewBox="0 0 47 44" fill="none" xmlns="http://www.w3.org/2000/svg">
<path d="M44.2583 1.33325L26.6211 14.291L29.9009 6.65457L44.2583 1.33325Z" fill="#E17726" stroke="#E17726" stroke-width="0.25" stroke-linecap="round" stroke-linejoin="round"/>
<path d="M3.57812 1.33325L21.0583 14.4119L17.9356 6.65456L3.57812 1.33325Z" fill="#E27625" stroke="#E27625" stroke-width="0.25" stroke-linecap="round" stroke-linejoin="round"/>
<path d="M37.9097 31.3779L33.2168 38.4961L43.2653 41.2431L46.1438 31.5334L37.9097 31.3779Z" fill="#E27625" stroke="#E27625" stroke-width="0.25" stroke-linecap="round" stroke-linejoin="round"/>
<path d="M1.71094 31.5334L4.57196 41.2431L14.603 38.4961L9.92765 31.3779L1.71094 31.5334Z" fill="#E27625" stroke="#E27625" stroke-width="0.25" stroke-linecap="round" stroke-linejoin="round"/>
<path d="M14.0627 19.3532L11.2715 23.5343L21.2153 23.9835L20.8838 13.3582L14.0627 19.3532Z" fill="#E27625" stroke="#E27625" stroke-width="0.25" stroke-linecap="round" stroke-linejoin="round"/>
<path d="M33.7755 19.3531L26.8497 13.2371L26.623 23.9834L36.5668 23.5342L33.7755 19.3531Z" fill="#E27625" stroke="#E27625" stroke-width="0.25" stroke-linecap="round" stroke-linejoin="round"/>
<path d="M14.6035 38.496L20.6221 35.6108L15.4409 31.6025L14.6035 38.496Z" fill="#E27625" stroke="#E27625" stroke-width="0.25" stroke-linecap="round" stroke-linejoin="round"/>
<path d="M27.2168 35.6108L33.2179 38.496L32.3981 31.6025L27.2168 35.6108Z" fill="#E27625" stroke="#E27625" stroke-width="0.25" stroke-linecap="round" stroke-linejoin="round"/>
<path d="M33.2161 38.496L27.2148 35.6108L27.7034 39.4808L27.651 41.1222L33.2161 38.496Z" fill="#D5BFB2" stroke="#D5BFB2" stroke-width="0.25" stroke-linecap="round" stroke-linejoin="round"/>
<path d="M14.6016 38.496L20.1841 41.1222L20.1492 39.4808L20.6202 35.6108L14.6016 38.496Z" fill="#D5BFB2" stroke="#D5BFB2" stroke-width="0.25" stroke-linecap="round" stroke-linejoin="round"/>
<path d="M20.2902 29.0456L15.3008 27.5944L18.8248 25.9875L20.2902 29.0456Z" fill="#233447" stroke="#233447" stroke-width="0.25" stroke-linecap="round" stroke-linejoin="round"/>
<path d="M27.5469 29.0456L29.0123 25.9875L32.5537 27.5944L27.5469 29.0456Z" fill="#233447" stroke="#233447" stroke-width="0.25" stroke-linecap="round" stroke-linejoin="round"/>
<path d="M14.6031 38.4961L15.4753 31.3779L9.92773 31.5335L14.6031 38.4961Z" fill="#CC6228" stroke="#CC6228" stroke-width="0.25" stroke-linecap="round" stroke-linejoin="round"/>
<path d="M32.3613 31.3779L33.2162 38.4961L37.9089 31.5335L32.3613 31.3779Z" fill="#CC6228" stroke="#CC6228" stroke-width="0.25" stroke-linecap="round" stroke-linejoin="round"/>
<path d="M36.5649 23.5342L26.6211 23.9834L27.5457 29.0455L29.0111 25.9875L32.5525 27.5943L36.5649 23.5342Z" fill="#CC6228" stroke="#CC6228" stroke-width="0.25" stroke-linecap="round" stroke-linejoin="round"/>
<path d="M15.2994 27.5943L18.8233 25.9875L20.2888 29.0455L21.2133 23.9834L11.2695 23.5342L15.2994 27.5943Z" fill="#CC6228" stroke="#CC6228" stroke-width="0.25" stroke-linecap="round" stroke-linejoin="round"/>
<path d="M11.2695 23.5342L15.439 31.6026L15.2994 27.5943L11.2695 23.5342Z" fill="#E27525" stroke="#E27525" stroke-width="0.25" stroke-linecap="round" stroke-linejoin="round"/>
<path d="M32.5535 27.5943L32.3965 31.6026L36.5659 23.5342L32.5535 27.5943Z" fill="#E27525" stroke="#E27525" stroke-width="0.25" stroke-linecap="round" stroke-linejoin="round"/>
<path d="M21.2138 23.9834L20.2891 29.0457L21.4579 35.0234L21.7196 27.1451L21.2138 23.9834Z" fill="#E27525" stroke="#E27525" stroke-width="0.25" stroke-linecap="round" stroke-linejoin="round"/>
<path d="M26.6213 23.9834L26.1328 27.1279L26.3771 35.0234L27.5459 29.0457L26.6213 23.9834Z" fill="#E27525" stroke="#E27525" stroke-width="0.25" stroke-linecap="round" stroke-linejoin="round"/>
<path d="M27.5458 29.0454L26.377 35.0233L27.2144 35.6108L32.3956 31.6025L32.5526 27.5942L27.5458 29.0454Z" fill="#F5841F" stroke="#F5841F" stroke-width="0.25" stroke-linecap="round" stroke-linejoin="round"/>
<path d="M15.3008 27.5942L15.4404 31.6025L20.6216 35.6108L21.459 35.0233L20.2902 29.0454L15.3008 27.5942Z" fill="#F5841F" stroke="#F5841F" stroke-width="0.25" stroke-linecap="round" stroke-linejoin="round"/>
<path d="M27.6506 41.1222L27.703 39.4809L27.2494 39.1008H20.5853L20.1492 39.4809L20.1841 41.1222L14.6016 38.4961L16.5556 40.0856L20.5155 42.7981H27.3018L31.2793 40.0856L33.2157 38.4961L27.6506 41.1222Z" fill="#C0AC9D" stroke="#C0AC9D" stroke-width="0.25" stroke-linecap="round" stroke-linejoin="round"/>
<path d="M27.2158 35.6109L26.3784 35.0234H21.4589L20.6215 35.6109L20.1504 39.4809L20.5865 39.1008H27.2506L27.7042 39.4809L27.2158 35.6109Z" fill="#161616" stroke="#161616" stroke-width="0.25" stroke-linecap="round" stroke-linejoin="round"/>
<path d="M45.0089 15.1375L46.4918 7.98489L44.2588 1.33325L27.2148 13.8591L33.7742 19.3531L43.0376 22.0311L45.0787 19.6642L44.189 19.0249L45.602 17.7465L44.5205 16.9171L45.9336 15.8459L45.0089 15.1375Z" fill="#763E1A" stroke="#763E1A" stroke-width="0.25" stroke-linecap="round" stroke-linejoin="round"/>
<path d="M1.34375 7.98489L2.84404 15.1375L1.88456 15.8459L3.31506 16.9171L2.23346 17.7465L3.64652 19.0249L2.75681 19.6642L4.79791 22.0311L14.0614 19.3531L20.6207 13.8591L3.57675 1.33325L1.34375 7.98489Z" fill="#763E1A" stroke="#763E1A" stroke-width="0.25" stroke-linecap="round" stroke-linejoin="round"/>
<path d="M43.0381 22.031L33.7747 19.353L36.5659 23.5341L32.3965 31.6025L37.9092 31.5333H46.1433L43.0381 22.031Z" fill="#F5841F" stroke="#F5841F" stroke-width="0.25" stroke-linecap="round" stroke-linejoin="round"/>
<path d="M14.0622 19.353L4.79876 22.031L1.71094 31.5333H9.92765L15.4403 31.6025L11.2709 23.5341L14.0622 19.353Z" fill="#F5841F" stroke="#F5841F" stroke-width="0.25" stroke-linecap="round" stroke-linejoin="round"/>
<path d="M26.6212 23.9833L27.2143 13.8591L29.901 6.65454H17.9336L20.6201 13.8591L21.2133 23.9833L21.4401 27.1623L21.4575 35.0233H26.3771L26.3945 27.1623L26.6212 23.9833Z" fill="#F5841F" stroke="#F5841F" stroke-width="0.25" stroke-linecap="round" stroke-linejoin="round"/>
</svg>
