<svg xmlns="http://www.w3.org/2000/svg" xmlns:xlink="http://www.w3.org/1999/xlink" width="100" height="100" viewBox="0 0 100 100">
  <defs>
    <clipPath id="clip-Payment_Wallets">
      <rect width="100" height="100"/>
    </clipPath>
  </defs>
  <g id="Payment_Wallets" clip-path="url(#clip-Payment_Wallets)">
    <g id="Group_364" data-name="Group 364" transform="translate(-486.654 -409.203)">
      <path id="Path_1755" data-name="Path 1755" d="M586.654,464.855v16.02c-.3.18-.229.519-.315.781a6.562,6.562,0,0,1-3.458,4.023,1.155,1.155,0,0,0-.77,1.244q.039,6.34.01,12.68a9.3,9.3,0,0,1-3.705,7.785,10.9,10.9,0,0,1-4.455,1.814h-79.09a1.053,1.053,0,0,0-.268-.113,9.215,9.215,0,0,1-7.949-9.457q.057-26.809.016-53.618a9.765,9.765,0,0,1,.318-2.7,9.006,9.006,0,0,1,9.09-6.829c2.212-.029,4.426-.021,6.638,0a3.035,3.035,0,0,0,1.652-.456c2.461-1.459,4.939-2.889,7.412-4.328q18.038-10.5,36.073-21.007a9.1,9.1,0,0,1,8.577-.744,9.607,9.607,0,0,1,4.591,4.336q6.121,10.715,12.238,21.432a1.749,1.749,0,0,0,1.413,1,8.084,8.084,0,0,1,4.111,1.883,9.177,9.177,0,0,1,3.34,7.478c.007,4.232.013,8.464-.01,12.7a1.1,1.1,0,0,0,.723,1.187,6.565,6.565,0,0,1,3.549,4.186C586.46,464.387,586.4,464.683,586.654,464.855Zm-52.248-23.844q-19.134,0-38.268,0a4.554,4.554,0,0,0-4.929,4.848q-.028,26.955-.006,53.91a4.71,4.71,0,0,0,1.649,3.806,5.331,5.331,0,0,0,3.649,1.1q37.878-.006,75.755-.007a9.694,9.694,0,0,0,1.457-.1,4.261,4.261,0,0,0,3.773-4.091c.092-4.458.046-8.918.069-13.378,0-.467-.179-.636-.633-.617-.552.023-1.106.01-1.659,0-4.229-.054-8.465.194-12.686-.117a13.619,13.619,0,0,1,1.557-27.171c4.133-.023,8.266-.025,12.4.014.792.007,1.049-.171,1.04-1.006-.045-4.036-.014-8.073-.028-12.11a7.059,7.059,0,0,0-.174-1.739c-.551-2.114-2.327-3.339-4.792-3.34Q553.491,441.007,534.406,441.011Zm36.971,40.863v.034c2.7,0,5.4.017,8.1-.006,1.687-.014,2.609-.828,2.626-2.47q.069-6.59,0-13.182a2.279,2.279,0,0,0-2.5-2.51c-5.594.032-11.193-.241-16.78.135a9.02,9.02,0,0,0,.742,17.976C566.167,481.982,568.775,481.875,571.377,481.875Zm-58.351-45.613.06.21q4.134,0,8.267,0a1.8,1.8,0,0,0,.889-.371q16.851-9.816,33.711-19.617c.818-.474.7-.785.169-1.336-1.543-1.618-3.727-1.831-5.964-.53q-18.2,10.595-36.4,21.2C513.509,435.956,513.269,436.112,513.026,436.261Zm17.972.215a24.081,24.081,0,0,1,2.93.018c3.924.493,7.278-.694,10.593-2.811,5.2-3.32,10.624-6.281,15.974-9.358.641-.369.733-.65.327-1.253a16.616,16.616,0,0,1-1.306-2.281c-.348-.751-.674-.775-1.376-.363q-13.157,7.714-26.346,15.372C531.532,435.951,531.185,436.02,531,436.476Zm17.984,0c6.308,0,12.518-.006,18.727.008.787,0,.585-.331.343-.753-1.359-2.368-2.735-4.725-4.053-7.116-.367-.666-.642-.746-1.314-.347-4.331,2.57-8.693,5.088-13.042,7.627C549.428,436.019,549.156,436.078,548.982,436.475Z" transform="translate(0 0)" fill="#28587b"/>
      <path id="Path_1756" data-name="Path 1756" d="M763.814,630.674a4.523,4.523,0,1,1-4.506,4.547A4.542,4.542,0,0,1,763.814,630.674Z" transform="translate(-199.914 -162.359)" fill="#28587b"/>
    </g>
  </g>
</svg>
