<svg width="22" height="22" viewBox="0 0 22 22" fill="none" xmlns="http://www.w3.org/2000/svg">
<g clip-path="url(#clip0_877_2)">
<path d="M13.852 15.0742C13.852 15.6144 14.0666 16.1326 14.4486 16.5146C14.8307 16.8966 15.3488 17.1112 15.889 17.1112H19.5556V17.926H15.889C15.1327 17.926 14.4073 17.6255 13.8725 17.0907C13.3377 16.5559 13.0372 15.8305 13.0372 15.0742C13.0372 14.3179 13.3377 13.5925 13.8725 13.0577C14.4073 12.5229 15.1327 12.2224 15.889 12.2224H19.5556V13.0372H15.889C15.3488 13.0372 14.8307 13.2518 14.4486 13.6338C14.0666 14.0158 13.852 14.534 13.852 15.0742Z" fill="black"/>
<path d="M13.0372 4.88878H12.2224C12.2209 6.09264 12.6667 7.25415 13.4731 8.14796H14.6709C14.1638 7.76924 13.7521 7.27742 13.4685 6.71163C13.1849 6.14583 13.0372 5.52167 13.0372 4.88878V4.88878ZM17.1112 2.70187e-06C16.167 -0.000990234 15.2428 0.271715 14.4504 0.785108C13.658 1.2985 13.0315 2.03057 12.6465 2.8927C12.2616 3.75483 12.1348 4.71006 12.2815 5.64276C12.4282 6.57545 12.8421 7.44563 13.4731 8.14796C13.7494 8.45995 14.0659 8.73394 14.4142 8.96276C15.1378 9.44339 15.9766 9.7221 16.8439 9.77009C17.7112 9.81808 18.5756 9.6336 19.3478 9.23571C20.3227 8.73402 21.1006 7.9192 21.5566 6.92215C22.0126 5.9251 22.1203 4.80371 21.8622 3.73812C21.6042 2.67254 20.9954 1.72463 20.1338 1.04668C19.2721 0.368727 18.2076 9.42179e-05 17.1112 2.70187e-06ZM18.81 8.58795C18.2779 8.83545 17.6981 8.96338 17.1112 8.96276C17.0053 8.96276 16.8993 8.95868 16.7975 8.95053C15.775 8.86995 14.8203 8.40727 14.1235 7.6546C13.4267 6.90193 13.0389 5.91447 13.0372 4.88878C13.0366 4.15734 13.2328 3.43922 13.6054 2.8098C13.978 2.18038 14.5132 1.66288 15.1548 1.31162C15.7963 0.960365 16.5206 0.788313 17.2516 0.813528C17.9826 0.838742 18.6934 1.06029 19.3092 1.45492C19.9251 1.84955 20.4233 2.4027 20.7516 3.0563C21.08 3.70989 21.2263 4.43983 21.1752 5.16948C21.1242 5.89913 20.8776 6.60158 20.4614 7.20308C20.0453 7.80458 19.4748 8.28294 18.81 8.58795V8.58795Z" fill="black"/>
<path d="M19.963 12.2224H15.889C15.1327 12.2224 14.4073 12.5229 13.8725 13.0577C13.3377 13.5925 13.0372 14.3179 13.0372 15.0742C13.0372 15.8305 13.3377 16.5559 13.8725 17.0907C14.4073 17.6255 15.1327 17.926 15.889 17.926H19.963C20.071 17.926 20.1747 17.8831 20.2511 17.8067C20.3275 17.7303 20.3704 17.6266 20.3704 17.5186V12.6298C20.3704 12.5218 20.3275 12.4181 20.2511 12.3417C20.1747 12.2653 20.071 12.2224 19.963 12.2224ZM16.7038 16.2964C16.4621 16.2964 16.2258 16.2247 16.0248 16.0904C15.8238 15.9561 15.6672 15.7652 15.5747 15.5419C15.4821 15.3186 15.4579 15.0728 15.5051 14.8358C15.5523 14.5987 15.6687 14.3809 15.8396 14.21C16.0105 14.039 16.2283 13.9226 16.4654 13.8755C16.7025 13.8283 16.9482 13.8525 17.1715 13.945C17.3949 14.0375 17.5857 14.1942 17.72 14.3952C17.8543 14.5962 17.926 14.8325 17.926 15.0742C17.925 15.398 17.796 15.7084 17.567 15.9374C17.338 16.1663 17.0277 16.2954 16.7038 16.2964V16.2964Z" fill="black"/>
<path d="M19.5556 7.33328C19.4476 7.33328 19.344 7.29036 19.2676 7.21396C19.1912 7.13756 19.1482 7.03393 19.1482 6.92588C19.1471 5.84576 18.7175 4.81022 17.9537 4.04646C17.1899 3.28269 16.1544 2.85309 15.0743 2.85191C14.9662 2.85191 14.8626 2.80898 14.7862 2.73258C14.7098 2.65618 14.6669 2.55256 14.6669 2.44451C14.6669 2.33646 14.7098 2.23284 14.7862 2.15643C14.8626 2.08003 14.9662 2.03711 15.0743 2.03711C16.3704 2.03851 17.6131 2.55403 18.5296 3.47055C19.4461 4.38707 19.9616 5.62973 19.963 6.92588C19.963 7.03393 19.9201 7.13756 19.8437 7.21396C19.7673 7.29036 19.6637 7.33328 19.5556 7.33328Z" fill="black"/>
<path d="M17.9261 7.33333C17.818 7.33333 17.7144 7.29041 17.638 7.21401C17.5616 7.1376 17.5187 7.03398 17.5187 6.92593C17.518 6.27784 17.2603 5.65647 16.802 5.1982C16.3437 4.73993 15.7224 4.48219 15.0743 4.48154C14.9662 4.48154 14.8626 4.43862 14.7862 4.36222C14.7098 4.28582 14.6669 4.18219 14.6669 4.07415C14.6669 3.9661 14.7098 3.86247 14.7862 3.78607C14.8626 3.70967 14.9662 3.66675 15.0743 3.66675C15.9384 3.66772 16.7668 4.01141 17.3778 4.62241C17.9888 5.23342 18.3325 6.06184 18.3335 6.92593C18.3335 7.03398 18.2905 7.1376 18.2141 7.21401C18.1377 7.29041 18.0341 7.33333 17.9261 7.33333Z" fill="black"/>
<path d="M16.2965 7.33338C16.1884 7.33338 16.0848 7.29045 16.0084 7.21405C15.932 7.13765 15.8891 7.03403 15.8891 6.92598C15.8891 6.70988 15.8032 6.50263 15.6504 6.34983C15.4976 6.19703 15.2904 6.11118 15.0743 6.11118C14.9662 6.11118 14.8626 6.06826 14.7862 5.99186C14.7098 5.91546 14.6669 5.81183 14.6669 5.70378C14.6669 5.59574 14.7098 5.49211 14.7862 5.41571C14.8626 5.33931 14.9662 5.29639 15.0743 5.29639C15.5065 5.29639 15.921 5.46808 16.2266 5.77368C16.5322 6.07929 16.7039 6.49378 16.7039 6.92598C16.7039 7.03403 16.6609 7.13765 16.5845 7.21405C16.5081 7.29045 16.4045 7.33338 16.2965 7.33338Z" fill="black"/>
<path d="M15.8885 11.4071H19.5551V10.0872C19.5559 9.79069 19.4846 9.49847 19.3473 9.23571C19.2169 8.9835 19.0335 8.76252 18.8096 8.58794C18.2774 8.83544 17.6976 8.96337 17.1107 8.96275C17.0048 8.96275 16.8989 8.95868 16.797 8.95053C16.0259 8.89203 15.2879 8.61348 14.6704 8.14795H2.44439C2.30679 8.1492 2.16969 8.13138 2.03699 8.09499C1.65403 7.99491 1.3206 7.75886 1.09894 7.43093C0.87728 7.103 0.782554 6.7056 0.832447 6.31294C0.88234 5.92028 1.07344 5.55921 1.37007 5.29713C1.6667 5.03506 2.04857 4.8899 2.44439 4.88877H13.0367C13.0366 4.61513 13.0639 4.34217 13.1182 4.07397H2.44439C1.7961 4.07397 1.17436 4.33151 0.715945 4.78992C0.257533 5.24833 0 5.87007 0 6.51836V20.3699C0.0012896 20.8017 0.173392 21.2154 0.478721 21.5208C0.78405 21.8261 1.19779 21.9982 1.62959 21.9995H17.5181C18.0451 22.0114 18.5553 21.814 18.9371 21.4506C19.3189 21.0871 19.5411 20.5872 19.5551 20.0603V18.7403H16.0193C15.0741 18.7528 14.1589 18.4083 13.4565 17.7756C12.7542 17.1429 12.3164 16.2685 12.2305 15.3271C12.1965 14.8256 12.2658 14.3225 12.4342 13.8488C12.6025 13.3752 12.8663 12.9412 13.2093 12.5737C13.5522 12.2062 13.967 11.9131 14.4278 11.7124C14.8887 11.5117 15.3859 11.4078 15.8885 11.4071V11.4071Z" fill="black"/>
</g>
<defs>
<clipPath id="clip0_877_2">
<rect width="22" height="22" fill="white"/>
</clipPath>
</defs>
</svg>
