<svg width="22" height="24" viewBox="0 0 22 24" fill="none" xmlns="http://www.w3.org/2000/svg">
<path d="M21.3858 9.95892C21.3197 6.51358 20.8397 3.97246 20.8463 3.97012C20.6466 3.58058 20.2964 3.2548 19.868 3.08839C17.0555 1.9976 14.2898 0.956494 11.5935 0.0682038C11.3179 -0.0227346 11.0273 -0.0227346 10.7521 0.0682038C8.05631 0.95415 5.29112 1.99338 2.47907 3.08276C2.10078 3.22948 1.78343 3.50089 1.57671 3.8309C1.59265 3.83277 0.998739 5.6867 0.897488 9.78127C0.837488 13.8763 1.34749 15.103 1.33062 15.1044C1.60671 16.0045 2.12328 16.9199 2.86344 17.8509C3.6908 18.8906 4.80878 19.9645 6.15926 21.0201C8.39475 22.7747 10.4868 23.8233 10.5745 23.8603C10.7643 23.9531 10.9654 24.0005 11.1726 24C11.3802 24 11.5813 23.9527 11.7707 23.8594C11.8588 23.8223 13.9532 22.7705 16.1878 21.0164C17.5387 19.9598 18.6567 18.8859 19.4845 17.8467C20.2777 16.8496 20.8139 15.8713 21.0731 14.9104C21.0628 14.909 21.4378 13.4052 21.3858 9.95939V9.95892ZM12.2854 12.6463V14.8293C12.2854 15.4443 11.7871 15.9426 11.1721 15.943C10.5571 15.943 10.0584 15.4448 10.0584 14.8298V12.6772C9.25585 12.2783 8.70366 11.4505 8.70366 10.4938C8.70366 9.14751 9.79492 8.05578 11.1412 8.05578C12.4874 8.05578 13.5787 9.14704 13.5792 10.4933C13.5792 11.4261 13.0551 12.2366 12.2854 12.6463Z" fill="white"/>
</svg>
