<svg width="22" height="22" viewBox="0 0 22 22" fill="none" xmlns="http://www.w3.org/2000/svg">
<g clip-path="url(#clip0_2504_11)">
<path fill-rule="evenodd" clip-rule="evenodd" d="M11.0002 2.20019C8.57024 2.20019 6.60034 4.1701 6.60034 6.6001C6.60034 9.03005 8.57024 11 11.0002 11C13.4302 11 15.4001 9.03005 15.4001 6.6001C15.4001 4.1701 13.4302 2.20019 11.0002 2.20019ZM4.40039 6.6001C4.40039 2.9551 7.35524 0.000244141 11.0002 0.000244141C14.6452 0.000244141 17.6001 2.9551 17.6001 6.6001C17.6001 10.2451 14.6452 13.1999 11.0002 13.1999C7.35524 13.1999 4.40039 10.2451 4.40039 6.6001Z" fill="white"/>
<path fill-rule="evenodd" clip-rule="evenodd" d="M4.57745 18.4416C3.32063 18.9814 2.58947 19.8162 2.15056 21.2266C1.97006 21.8067 1.3535 22.1305 0.773426 21.95C0.193365 21.7695 -0.130534 21.153 0.0499721 20.573C0.664044 18.5996 1.81384 17.2343 3.70918 16.4202C5.50488 15.6489 7.91025 15.3999 11 15.3999C14.0898 15.3999 16.4952 15.6489 18.2909 16.4202C20.1862 17.2343 21.336 18.5996 21.9502 20.573C22.1307 21.153 21.8067 21.7695 21.2267 21.95C20.6466 22.1305 20.03 21.8067 19.8495 21.2266C19.4106 19.8162 18.6795 18.9814 17.4227 18.4416C16.0662 17.8589 14.0482 17.5999 11 17.5999C7.95194 17.5999 5.93393 17.8589 4.57745 18.4416Z" fill="white"/>
</g>
<defs>
<clipPath id="clip0_2504_11">
<rect width="22" height="22" fill="white"/>
</clipPath>
</defs>
</svg>
