<svg width="1367" height="946" viewBox="0 0 1367 946" fill="none" xmlns="http://www.w3.org/2000/svg">
<path d="M316.03 615.215C328.06 639.037 350.403 656.445 360.395 681.412C364.611 692.218 366.093 703.897 364.71 715.413C363.327 726.929 359.121 737.925 352.466 747.426C349.622 751.512 346.281 755.228 342.52 758.49C341.97 758.963 341.42 759.421 340.87 759.864L340.343 760.276L339.22 761.124C337.822 762.154 336.356 763.162 334.889 764.124C327.519 768.828 319.866 773.073 311.973 776.837C290.249 787.488 267.654 796.329 245.059 804.965C218.064 815.318 190.818 825.007 163.571 834.627C160.065 835.864 156.581 837.101 153.121 838.453C152.529 838.678 152.043 839.116 151.757 839.681C151.471 840.246 151.407 840.897 151.576 841.507C151.745 842.117 152.136 842.642 152.671 842.98C153.207 843.317 153.85 843.443 154.473 843.332C161.715 841.041 168.841 838.453 175.991 835.956L196.936 828.558C210.793 823.625 224.618 818.594 238.414 813.463C262.338 804.53 286.193 795.138 309.269 784.281C317.824 780.328 326.155 775.909 334.225 771.042C348.235 763.002 359.186 750.551 365.368 735.632C371.55 720.714 372.613 704.168 368.392 688.582C361.517 662.263 340.045 644.214 325.998 621.973C324.073 618.903 322.263 615.719 320.636 612.467C319.009 609.214 314.517 612.1 316.052 615.147L316.03 615.215Z" fill="white"/>
<path d="M905.745 650.146C873.05 652.232 840.225 649.594 808.284 642.313C776.249 634.992 744.835 625.181 714.329 612.971C683.897 601.174 654.061 587.775 624.018 575.154C594.365 562.602 564.437 550.485 533.776 540.795C502.541 530.877 470.207 523.204 437.529 520.799C433.313 520.501 429.073 520.295 424.834 520.181C420.594 520.066 420.549 526.754 424.834 526.846C457.97 527.671 490.785 534.68 522.478 544.071C553.249 553.555 583.494 564.665 613.087 577.353C643.13 589.882 672.874 603.121 703.123 615.124C733.581 627.554 764.887 637.796 796.803 645.772C828.509 653.74 861.144 657.408 893.829 656.674C897.862 656.537 901.895 656.308 905.928 656.01C909.961 655.713 909.663 649.94 905.928 650.215L905.745 650.146Z" fill="white"/>
<path d="M593.952 358.697C614.49 376.529 636.93 392.046 660.867 404.966C684.848 417.85 709.633 429.181 735.068 438.889C760.734 448.921 786.766 457.923 812.752 467.086C838.739 476.248 864.771 485.547 890.231 496.176C902.903 501.467 915.438 507.079 927.721 513.171C940.76 519.631 953.73 526.754 964.776 536.306C967.559 538.714 970.214 541.268 972.728 543.956C975.569 547.003 980.129 542.445 977.311 539.375C966.966 528.748 954.972 519.861 941.791 513.057C929.44 506.185 916.584 500.39 903.705 494.732C878.337 483.738 852.374 474.117 826.319 464.955C800.263 455.793 774.185 446.906 748.405 437.194C722.885 427.871 697.926 417.079 673.654 404.874C649.608 392.728 626.949 378.013 606.075 360.987C603.432 358.804 600.835 356.582 598.284 354.322C595.304 351.688 590.905 356.062 593.907 358.697H593.952Z" fill="white"/>
<path d="M1102 239.954C1077.95 252.828 1052.14 262.09 1025.39 267.441C998.504 272.788 971.151 275.428 943.739 275.321C915.315 275.196 886.918 273.521 858.676 270.304C827.396 267.029 796.207 262.791 764.904 259.607C733.906 256.108 702.711 254.655 671.522 255.255C667.604 255.255 663.685 255.53 659.789 255.782C655.894 256.034 655.733 262.219 659.789 262.035C691.237 260.74 722.737 261.613 754.065 264.647C785.528 267.487 816.854 271.633 848.249 275.046C877.159 278.451 906.223 280.393 935.329 280.864C962.996 281.282 990.64 279.089 1017.89 274.313C1044.81 269.638 1070.87 260.968 1095.21 248.59C1098.27 247.063 1101.26 245.414 1104.2 243.642C1104.69 243.354 1105.05 242.88 1105.2 242.326C1105.34 241.772 1105.26 241.183 1104.97 240.687C1104.69 240.192 1104.21 239.832 1103.66 239.686C1103.1 239.54 1102.51 239.62 1102.02 239.909L1102 239.954Z" fill="white"/>
<path d="M589.518 315.435C609.805 315.435 626.252 298.996 626.252 278.718C626.252 258.439 609.805 242 589.518 242C569.23 242 552.784 258.439 552.784 278.718C552.784 298.996 569.23 315.435 589.518 315.435Z" fill="url(#paint0_linear_1847_3)"/>
<path d="M590.054 334.877C621.277 334.877 646.587 309.578 646.587 278.369C646.587 247.161 621.277 221.861 590.054 221.861C558.832 221.861 533.521 247.161 533.521 278.369C533.521 309.578 558.832 334.877 590.054 334.877Z" stroke="url(#paint1_linear_1847_3)" stroke-width="3" stroke-linecap="round" stroke-linejoin="round" stroke-dasharray="7.18 7.18"/>
<path d="M982.32 678.11C1013.54 678.11 1038.85 652.81 1038.85 621.602C1038.85 590.394 1013.54 565.094 982.32 565.094C951.097 565.094 925.787 590.394 925.787 621.602C925.787 652.81 951.097 678.11 982.32 678.11Z" stroke="url(#paint2_linear_1847_3)" stroke-width="3" stroke-linecap="round" stroke-linejoin="round" stroke-dasharray="7.18 7.18"/>
<path d="M397.532 547.999C406.587 518.039 389.629 486.415 359.655 477.364C329.681 468.314 298.043 485.264 288.988 515.224C279.934 545.185 296.892 576.809 326.866 585.859C356.839 594.91 388.478 577.959 397.532 547.999Z" stroke="url(#paint3_linear_1847_3)" stroke-width="3" stroke-linecap="round" stroke-linejoin="round" stroke-dasharray="7.18 7.18"/>
<path d="M95.4986 924.143C124.344 912.2 138.043 879.144 126.094 850.312C114.146 821.479 81.0757 807.787 52.2299 819.73C23.3841 831.673 9.68604 864.728 21.6344 893.561C33.5827 922.394 66.6528 936.086 95.4986 924.143Z" stroke="url(#paint4_linear_1847_3)" stroke-width="3" stroke-linecap="round" stroke-linejoin="round" stroke-dasharray="7.18 7.18"/>
<path d="M982.131 657.858C1002.41 657.858 1018.85 641.415 1018.84 621.132C1018.83 600.849 1002.38 584.406 982.098 584.406C961.815 584.406 945.38 600.849 945.389 621.132C945.398 641.415 961.848 657.858 982.131 657.858Z" fill="url(#paint5_linear_1847_3)"/>
<path d="M73.8558 908.638C94.1348 908.638 110.571 892.192 110.567 871.905C110.563 851.617 94.1201 835.171 73.8411 835.171C53.5621 835.171 37.126 851.617 37.1301 871.905C37.1341 892.192 53.5768 908.638 73.8558 908.638Z" fill="url(#paint6_linear_1847_3)"/>
<path d="M343.154 568.551C363.433 568.551 379.869 552.105 379.865 531.818C379.861 511.531 363.418 495.085 343.139 495.085C322.86 495.085 306.424 511.531 306.428 531.818C306.432 552.105 322.875 568.551 343.154 568.551Z" fill="url(#paint7_linear_1847_3)"/>
<path opacity="0.15" d="M330.184 135C333.151 135 336.051 134.12 338.518 132.472C340.985 130.824 342.907 128.481 344.043 125.74C345.178 122.999 345.475 119.983 344.896 117.074C344.317 114.164 342.889 111.491 340.791 109.393C338.693 107.295 336.02 105.867 333.111 105.288C330.201 104.709 327.185 105.006 324.444 106.142C321.703 107.277 319.361 109.2 317.712 111.666C316.064 114.133 315.184 117.033 315.184 120C315.184 123.978 316.765 127.793 319.578 130.606C322.391 133.42 326.206 135 330.184 135Z" fill="#FE19C1"/>
<g filter="url(#filter0_d_1847_3)">
<path d="M125.157 677.923C120.271 671.256 109.374 669.199 102.079 673.575C94.7842 677.95 92.3058 688.006 96.8412 694.886C89.5565 692.354 81.3486 699.541 82.041 706.766C82.7333 713.991 90.0682 719.484 97.7342 720.639C105.4 721.793 113.237 719.438 120.2 716.216C122.539 719.44 125.673 722.099 129.341 723.973C133.01 725.846 137.107 726.881 141.293 726.99C145.479 727.099 149.633 726.28 153.409 724.601C157.186 722.921 160.476 720.43 163.006 717.334C170.25 721.579 179.592 723.6 187.489 720.518C195.386 717.436 200.533 708.154 196.71 701.04C194.262 696.469 188.813 693.76 183.355 693.154C177.334 692.493 172.006 694.393 166.297 695.398C165.675 692.605 168.003 689.868 168.825 687.019C170.333 682.125 170.154 676.917 168.314 672.122C167.044 668.956 165.004 666.105 162.354 663.79C159.704 661.474 156.514 659.757 153.032 658.771C149.756 657.924 146.318 657.773 142.971 658.327C139.623 658.881 136.454 660.128 133.696 661.974C130.265 664.292 121.826 673.351 125.157 677.923Z" fill="#113A8A" fill-opacity="0.9" shape-rendering="crispEdges"/>
</g>
<path d="M134.577 683.613C130.322 677.719 120.834 675.9 114.483 679.769C108.131 683.637 105.973 692.527 109.922 698.609C103.579 696.371 96.4329 702.725 97.0357 709.112C97.6385 715.499 104.025 720.356 110.7 721.376C117.374 722.397 124.198 720.315 130.261 717.467C132.297 720.316 135.025 722.667 138.22 724.324C141.414 725.98 144.981 726.895 148.626 726.991C152.271 727.088 155.887 726.364 159.175 724.879C162.463 723.394 165.328 721.192 167.531 718.454C173.839 722.208 181.972 723.994 188.848 721.269C195.724 718.545 200.205 710.339 196.877 704.05C194.745 700.009 190.001 697.614 185.248 697.079C180.007 696.494 175.367 698.173 170.396 699.062C169.855 696.593 171.882 694.173 172.598 691.654C173.911 687.328 173.755 682.723 172.152 678.485C171.047 675.686 169.271 673.165 166.963 671.118C164.656 669.071 161.878 667.553 158.847 666.681C155.995 665.933 153.001 665.799 150.086 666.289C147.172 666.779 144.412 667.881 142.011 669.513C139.023 671.562 131.676 679.571 134.577 683.613Z" fill="#3F6FCB" fill-opacity="0.9"/>
<g filter="url(#filter1_d_1847_3)">
<path d="M966.157 748.923C961.271 742.256 950.374 740.199 943.079 744.575C935.784 748.95 933.306 759.006 937.841 765.886C930.556 763.354 922.349 770.541 923.041 777.766C923.733 784.991 931.068 790.484 938.734 791.639C946.4 792.793 954.237 790.438 961.2 787.216C963.539 790.44 966.673 793.099 970.341 794.973C974.01 796.846 978.107 797.881 982.293 797.99C986.479 798.099 990.633 797.28 994.409 795.601C998.186 793.921 1001.48 791.43 1004.01 788.334C1011.25 792.579 1020.59 794.6 1028.49 791.518C1036.39 788.436 1041.53 779.154 1037.71 772.04C1035.26 767.469 1029.81 764.76 1024.35 764.154C1018.33 763.493 1013.01 765.393 1007.3 766.398C1006.67 763.605 1009 760.868 1009.83 758.019C1011.33 753.125 1011.15 747.917 1009.31 743.122C1008.04 739.956 1006 737.105 1003.35 734.79C1000.7 732.474 997.514 730.757 994.032 729.771C990.756 728.924 987.318 728.773 983.971 729.327C980.623 729.881 977.454 731.128 974.696 732.974C971.265 735.292 962.826 744.351 966.157 748.923Z" fill="#113A8A" fill-opacity="0.9" shape-rendering="crispEdges"/>
</g>
<path d="M975.577 754.613C971.322 748.719 961.834 746.9 955.483 750.769C949.131 754.637 946.973 763.527 950.922 769.609C944.579 767.371 937.433 773.725 938.036 780.112C938.639 786.499 945.025 791.356 951.7 792.376C958.374 793.397 965.198 791.315 971.261 788.467C973.297 791.316 976.025 793.667 979.22 795.324C982.414 796.98 985.981 797.895 989.626 797.991C993.271 798.088 996.887 797.364 1000.18 795.879C1003.46 794.394 1006.33 792.192 1008.53 789.454C1014.84 793.208 1022.97 794.994 1029.85 792.269C1036.72 789.545 1041.21 781.339 1037.88 775.05C1035.75 771.009 1031 768.614 1026.25 768.079C1021.01 767.494 1016.37 769.173 1011.4 770.062C1010.85 767.593 1012.88 765.173 1013.6 762.654C1014.91 758.328 1014.76 753.723 1013.15 749.485C1012.05 746.686 1010.27 744.165 1007.96 742.118C1005.66 740.071 1002.88 738.553 999.847 737.681C996.995 736.933 994.001 736.799 991.086 737.289C988.172 737.779 985.412 738.881 983.011 740.513C980.023 742.562 972.676 750.571 975.577 754.613Z" fill="#3F6FCB" fill-opacity="0.9"/>
<g filter="url(#filter2_d_1847_3)">
<path d="M584.157 135.923C579.271 129.256 568.374 127.199 561.079 131.575C553.784 135.95 551.306 146.006 555.841 152.886C548.556 150.354 540.349 157.541 541.041 164.766C541.733 171.991 549.068 177.484 556.734 178.639C564.4 179.793 572.237 177.438 579.2 174.216C581.539 177.44 584.673 180.099 588.341 181.973C592.01 183.846 596.107 184.881 600.293 184.99C604.479 185.099 608.633 184.28 612.409 182.601C616.186 180.921 619.476 178.43 622.006 175.334C629.25 179.579 638.592 181.6 646.489 178.518C654.386 175.436 659.533 166.154 655.71 159.04C653.262 154.469 647.813 151.76 642.355 151.154C636.334 150.493 631.006 152.393 625.297 153.398C624.675 150.605 627.003 147.868 627.825 145.019C629.333 140.125 629.154 134.917 627.314 130.122C626.044 126.956 624.004 124.105 621.354 121.79C618.704 119.474 615.514 117.757 612.032 116.771C608.756 115.924 605.318 115.773 601.971 116.327C598.623 116.881 595.454 118.128 592.696 119.974C589.265 122.292 580.826 131.351 584.157 135.923Z" fill="#113A8A" fill-opacity="0.9" shape-rendering="crispEdges"/>
</g>
<path d="M593.577 141.613C589.322 135.719 579.834 133.9 573.483 137.769C567.131 141.637 564.973 150.527 568.922 156.609C562.579 154.371 555.433 160.725 556.036 167.112C556.639 173.499 563.025 178.356 569.7 179.376C576.374 180.397 583.198 178.315 589.261 175.467C591.297 178.316 594.025 180.667 597.22 182.324C600.414 183.98 603.981 184.895 607.626 184.991C611.271 185.088 614.887 184.364 618.175 182.879C621.463 181.394 624.328 179.192 626.531 176.454C632.839 180.208 640.972 181.994 647.848 179.269C654.724 176.545 659.205 168.339 655.877 162.05C653.745 158.009 649.001 155.614 644.248 155.079C639.007 154.494 634.367 156.173 629.396 157.062C628.855 154.593 630.882 152.173 631.598 149.654C632.911 145.328 632.755 140.723 631.152 136.485C630.047 133.686 628.271 131.165 625.963 129.118C623.656 127.071 620.878 125.553 617.847 124.681C614.995 123.933 612.001 123.799 609.086 124.289C606.172 124.779 603.412 125.881 601.011 127.513C598.023 129.562 590.676 137.571 593.577 141.613Z" fill="#3F6FCB" fill-opacity="0.9"/>
<path d="M1249.28 124.322C1232.74 108.214 1211.99 97.1551 1189.44 92.4252C1193.4 84.9944 1197.36 77.5618 1201.32 70.1326C1225.1 71.9469 1247.13 79.9402 1265.07 92.8658C1259.81 103.351 1254.55 113.836 1249.28 124.322Z" fill="url(#paint8_linear_1847_3)"/>
<path d="M1242.39 137.262C1225.84 121.174 1205.07 110.121 1182.53 105.391C1186.49 97.9619 1190.45 90.531 1194.41 83.1001C1216.95 87.8476 1237.7 98.916 1254.24 115.025C1250.29 122.438 1246.34 129.852 1242.39 137.262Z" fill="url(#paint9_linear_1847_3)"/>
<path d="M1289.73 170.154C1290.85 146.331 1285.62 123.484 1274.99 104.09C1263.95 108.026 1252.89 111.964 1241.84 115.902C1252.37 129.778 1259.75 145.684 1263.57 162.517L1256.78 170.266L1264.16 165.254C1265.09 169.849 1265.76 174.507 1266.15 179.207C1274.02 176.19 1281.88 173.174 1289.73 170.154Z" fill="url(#paint10_linear_1847_3)"/>
<path d="M1228.15 121.155C1242.09 139.559 1250.51 161.518 1252.44 184.474C1260.3 181.456 1268.16 178.44 1276.02 175.42C1274.07 152.467 1265.63 130.514 1251.68 112.122C1243.83 115.135 1235.99 118.147 1228.15 121.155Z" fill="url(#paint11_linear_1847_3)"/>
<path d="M1263.06 196.35C1263.06 196.35 1261.7 216.376 1232.07 216.572C1232.07 216.572 1229.8 187.638 1254.29 187.957L1263.06 196.35Z" fill="#97CEF2"/>
<path d="M1262.01 194.702C1262.01 194.702 1259.39 210.292 1235.89 212.737C1235.89 212.737 1236.34 190.542 1255.71 188.893L1262.01 194.702Z" fill="#CEE5F1"/>
<path d="M1261.25 192.823C1261.25 192.823 1259.71 201.932 1245.98 203.363C1245.98 203.363 1246.24 190.393 1257.57 189.43L1261.25 192.823Z" fill="#F8FAEE"/>
<path d="M1251.76 182.863L1250.92 183.606C1250.46 184.013 1250.52 184.847 1251.07 185.463L1254.84 189.723L1247.99 197.538L1256.58 191.698L1263.74 199.797C1264.29 200.415 1265.11 200.58 1265.57 200.172C1266.03 199.762 1266.41 199.429 1266.41 199.429L1251.76 182.863Z" fill="url(#paint12_linear_1847_3)"/>
<path d="M1260.96 170.582C1257.58 173.574 1254.56 176.673 1251.95 179.751C1251.16 180.693 1251.2 182.228 1252.02 183.152L1259.08 191.145L1266.15 199.137C1266.97 200.064 1268.48 200.293 1269.52 199.619C1272.89 197.412 1276.34 194.791 1279.72 191.801C1294.83 178.443 1300.83 160.541 1297.71 157.004C1294.58 153.469 1276.08 157.224 1260.96 170.582Z" fill="url(#paint13_linear_1847_3)"/>
<path d="M1297.71 157.006C1296.09 155.171 1290.33 155.305 1283.07 157.708L1295.21 171.442C1298.49 164.529 1299.33 158.838 1297.71 157.006Z" fill="url(#paint14_linear_1847_3)"/>
<path opacity="0.3" d="M1252.66 178.943C1252.43 179.212 1252.18 179.481 1251.95 179.752C1251.16 180.695 1251.2 182.229 1252.02 183.153L1259.08 191.147L1266.15 199.139C1266.97 200.066 1268.48 200.295 1269.52 199.621C1272.89 197.413 1276.34 194.793 1279.72 191.803C1287.01 185.364 1292.17 177.873 1295.21 171.442L1290.85 166.51C1281.72 177.293 1267.42 188.723 1252.66 178.943Z" fill="url(#paint15_linear_1847_3)"/>
<path opacity="0.3" d="M1297.82 157.162C1296.12 159.752 1293.74 163.098 1290.85 166.51L1295.21 171.442C1298.4 164.707 1299.27 159.136 1297.82 157.162Z" fill="url(#paint16_linear_1847_3)"/>
<path opacity="0.6" d="M1294.44 159.88C1293.83 160.421 1292.89 160.363 1292.35 159.748C1291.81 159.134 1291.87 158.199 1292.48 157.657C1293.09 157.112 1294.03 157.172 1294.57 157.787C1295.11 158.4 1295.06 159.337 1294.44 159.88Z" fill="#F8FAEE"/>
<path opacity="0.6" d="M1289.19 158.946C1288.83 159.259 1288.29 159.227 1287.97 158.871C1287.66 158.514 1287.69 157.971 1288.05 157.658C1288.4 157.343 1288.95 157.374 1289.26 157.731C1289.58 158.086 1289.54 158.631 1289.19 158.946Z" fill="#F8FAEE"/>
<path opacity="0.3" d="M1265.64 200.107C1266.07 199.729 1266.41 199.429 1266.41 199.429L1251.76 182.863L1250.99 183.541L1265.64 200.107Z" fill="url(#paint17_linear_1847_3)"/>
<path d="M1180.7 103.18C1180.7 103.18 1179.34 123.206 1149.71 123.404C1149.71 123.404 1147.44 94.4686 1171.93 94.7886L1180.7 103.18Z" fill="#97CEF2"/>
<path d="M1179.65 101.534C1179.65 101.534 1177.03 117.123 1153.53 119.568C1153.53 119.568 1153.98 97.3725 1173.35 95.7241L1179.65 101.534Z" fill="#CEE5F1"/>
<path d="M1178.89 99.6547C1178.89 99.6547 1177.35 108.764 1163.62 110.195C1163.62 110.195 1163.88 97.2248 1175.21 96.2618L1178.89 99.6547Z" fill="#F8FAEE"/>
<path d="M1169.4 89.6929L1168.56 90.4344C1168.1 90.8419 1168.17 91.6753 1168.71 92.2913L1170.19 93.969L1165.64 99.1611L1171.35 95.2817L1181.38 106.626C1181.93 107.242 1182.75 107.409 1183.21 107.001C1183.67 106.592 1184.05 106.258 1184.05 106.258L1169.4 89.6929Z" fill="url(#paint18_linear_1847_3)"/>
<path d="M1178.6 77.4143C1175.22 80.404 1172.2 83.5049 1169.59 86.5827C1168.8 87.5251 1168.84 89.0565 1169.66 89.9837L1176.72 97.9771L1183.79 105.972C1184.61 106.896 1186.12 107.128 1187.16 106.453C1190.53 104.245 1193.98 101.625 1197.36 98.6349C1212.47 85.2762 1218.47 67.373 1215.34 63.836C1212.22 60.299 1193.72 64.0542 1178.6 77.4143Z" fill="url(#paint19_linear_1847_3)"/>
<path d="M1205.3 69.7292L1212.85 78.2725C1216.13 71.361 1216.96 65.6686 1215.35 63.8362C1213.73 62.0053 1207.98 62.1371 1200.71 64.5383L1203.55 67.7436L1196.66 75.6036L1205.3 69.7292Z" fill="url(#paint20_linear_1847_3)"/>
<path opacity="0.3" d="M1170.3 85.7749C1170.07 86.0453 1169.82 86.3133 1169.59 86.5827C1168.8 87.5252 1168.84 89.0565 1169.66 89.9837L1176.72 97.9772L1183.79 105.972C1184.61 106.896 1186.13 107.128 1187.16 106.453C1190.53 104.245 1193.98 101.625 1197.36 98.635C1204.65 92.1955 1209.8 84.703 1212.85 78.2738L1208.49 73.3419C1199.36 84.1251 1185.06 95.5551 1170.3 85.7749Z" fill="url(#paint21_linear_1847_3)"/>
<path opacity="0.3" d="M1215.46 63.9939C1213.76 66.5843 1211.38 69.933 1208.49 73.342L1212.85 78.2739C1216.04 71.5401 1216.92 65.9677 1215.46 63.9939Z" fill="url(#paint22_linear_1847_3)"/>
<path opacity="0.6" d="M1212.08 66.7107C1211.47 67.2528 1210.53 67.1932 1209.99 66.5801C1209.45 65.967 1209.51 65.0311 1210.12 64.4905C1210.73 63.947 1211.67 64.0053 1212.21 64.6184C1212.75 65.2315 1212.7 66.1672 1212.08 66.7107Z" fill="#F8FAEE"/>
<path opacity="0.6" d="M1206.83 65.7777C1206.47 66.0909 1205.93 66.0568 1205.61 65.7012C1205.3 65.3456 1205.33 64.8014 1205.69 64.4882C1206.04 64.1734 1206.59 64.2046 1206.9 64.5616C1207.22 64.9173 1207.18 65.463 1206.83 65.7777Z" fill="#F8FAEE"/>
<path opacity="0.3" d="M1183.28 106.939C1183.71 106.56 1184.05 106.259 1184.05 106.259L1169.4 89.6927L1168.63 90.3704L1183.28 106.939Z" fill="url(#paint23_linear_1847_3)"/>
<path d="M1209.97 167.276C1209.97 167.276 1207.54 203.351 1154.14 203.706C1154.14 203.706 1150.06 151.58 1194.18 152.155L1209.97 167.276Z" fill="#97CEF2"/>
<path d="M1208.08 164.307C1208.08 164.307 1203.36 192.388 1161.03 196.793C1161.03 196.793 1161.83 156.81 1196.74 153.839L1208.08 164.307Z" fill="#CEE5F1"/>
<path d="M1206.71 160.922C1206.71 160.922 1203.95 177.331 1179.21 179.908C1179.21 179.908 1179.68 156.542 1200.08 154.806L1206.71 160.922Z" fill="#F8FAEE"/>
<path d="M1211.21 179.555L1182.35 146.912C1180.69 145.034 1180.87 142.167 1182.75 140.506L1197.71 127.281C1199.59 125.62 1202.46 125.799 1204.12 127.677L1232.97 160.321C1234.63 162.199 1234.46 165.066 1232.58 166.727L1217.62 179.952C1215.74 181.61 1212.87 181.433 1211.21 179.555Z" fill="url(#paint24_linear_1847_3)"/>
<path opacity="0.5" d="M1229.57 169.381L1234.73 164.824C1235.42 164.214 1234.63 162.198 1232.97 160.319L1204.11 127.676C1202.45 125.797 1200.55 124.769 1199.86 125.379L1194.7 129.937L1229.57 169.381Z" fill="url(#paint25_linear_1847_3)"/>
<path d="M1232.73 152.898L1232.74 152.892C1233.6 152.133 1233.68 150.824 1232.92 149.967C1232.16 149.11 1230.85 149.031 1230 149.787L1229.99 149.796L1199.51 115.313L1194.76 119.509C1194.14 120.055 1194.08 120.996 1194.63 121.614L1213.65 143.128L1210.12 147.153L1214.55 144.146L1221.89 152.455L1215.06 158.496C1214.36 159.112 1214.3 160.175 1214.91 160.874C1215.53 161.572 1216.59 161.635 1217.29 161.02L1222.29 156.6C1223.15 155.843 1224.46 155.924 1225.21 156.78C1225.97 157.637 1225.89 158.947 1225.03 159.703L1219.95 164.195C1219 165.04 1218.91 166.502 1219.75 167.456C1220.6 168.414 1222.06 168.505 1223.02 167.659L1229.93 161.547L1237.82 170.474C1238.37 171.093 1239.31 171.151 1239.93 170.604L1244.67 166.408L1232.73 152.898Z" fill="url(#paint26_linear_1847_3)"/>
<path opacity="0.5" d="M1242.49 168.335L1244.67 166.408L1199.5 115.313L1197.33 117.238L1242.49 168.335Z" fill="url(#paint27_linear_1847_3)"/>
<path d="M1343.73 34.8259L1342.25 33.1513L1359.08 18.2693L1360.56 19.9454L1343.73 34.8259Z" fill="url(#paint28_linear_1847_3)"/>
<path d="M1362.14 20.7015C1363.27 19.7022 1363.38 17.9781 1362.38 16.8485C1361.38 15.719 1359.65 15.6122 1358.52 16.6115C1357.54 17.4765 1357.33 18.8857 1357.94 19.9824L1355.12 23.2064L1358.65 20.807C1359.67 21.6013 1361.14 21.5872 1362.14 20.7015Z" fill="url(#paint29_linear_1847_3)"/>
<path d="M1199.06 114.802L1222.09 140.86L1245.62 167.48C1246.44 168.402 1247.94 168.605 1248.97 167.923C1356.95 96.3726 1347.08 37.7613 1345.69 31.6032C1339.76 29.4727 1283.01 12.5454 1199.01 110.302C1197.94 111.551 1197.96 113.566 1199.06 114.802Z" fill="url(#paint30_linear_1847_3)"/>
<path d="M1278.06 146.785L1234.33 97.3078L1228.87 101.015L1233.22 96.0549L1223.08 84.5829C1219.69 87.8792 1216.26 91.3684 1212.77 95.0522L1225.26 109.181L1218.64 116.73L1226.94 111.088L1266.41 155.733C1270.5 152.722 1274.38 149.738 1278.06 146.785Z" fill="url(#paint31_linear_1847_3)"/>
<path d="M1226.89 99.9658C1224.82 101.793 1221.66 101.601 1219.84 99.5315C1218.01 97.4636 1218.2 94.3014 1220.27 92.4746C1222.34 90.6464 1225.5 90.8396 1227.33 92.9076C1229.16 94.977 1228.96 98.1376 1226.89 99.9658Z" fill="url(#paint32_linear_1847_3)"/>
<path opacity="0.6" d="M1225.41 95.7108C1224.69 96.3472 1223.59 96.2785 1222.96 95.5579C1222.32 94.8389 1222.39 93.74 1223.11 93.1037C1223.83 92.4673 1224.93 92.5333 1225.56 93.2523C1226.2 93.9743 1226.13 95.0745 1225.41 95.7108Z" fill="#F8FAEE"/>
<path d="M1269.18 147.807C1267.11 149.633 1263.95 149.439 1262.12 147.372C1260.29 145.304 1260.49 142.142 1262.56 140.315C1264.63 138.487 1267.79 138.681 1269.62 140.748C1271.44 142.815 1271.25 145.977 1269.18 147.807Z" fill="url(#paint33_linear_1847_3)"/>
<path opacity="0.6" d="M1267.7 143.549C1266.98 144.185 1265.88 144.118 1265.24 143.396C1264.61 142.677 1264.67 141.579 1265.39 140.943C1266.11 140.306 1267.21 140.374 1267.85 141.091C1268.49 141.812 1268.42 142.912 1267.7 143.549Z" fill="#F8FAEE"/>
<path d="M1258.61 135.846C1256.54 137.673 1253.38 137.48 1251.55 135.41C1249.72 133.341 1249.92 130.182 1251.98 128.354C1254.05 126.525 1257.21 126.717 1259.04 128.786C1260.87 130.854 1260.68 134.018 1258.61 135.846Z" fill="url(#paint34_linear_1847_3)"/>
<path opacity="0.6" d="M1257.13 131.592C1256.41 132.228 1255.31 132.158 1254.67 131.437C1254.03 130.717 1254.1 129.621 1254.82 128.984C1255.54 128.348 1256.64 128.412 1257.28 129.133C1257.92 129.853 1257.85 130.955 1257.13 131.592Z" fill="#F8FAEE"/>
<path d="M1248.04 123.886C1245.97 125.714 1242.81 125.52 1240.98 123.452C1239.15 121.384 1239.35 118.222 1241.41 116.395C1243.48 114.567 1246.64 114.759 1248.47 116.828C1250.3 118.896 1250.11 122.058 1248.04 123.886Z" fill="url(#paint35_linear_1847_3)"/>
<path opacity="0.6" d="M1246.55 119.63C1245.83 120.266 1244.74 120.197 1244.1 119.478C1243.46 118.759 1243.53 117.66 1244.25 117.024C1244.97 116.388 1246.07 116.454 1246.71 117.172C1247.34 117.893 1247.27 118.993 1246.55 119.63Z" fill="#F8FAEE"/>
<path d="M1237.46 111.927C1235.4 113.754 1232.23 113.559 1230.41 111.491C1228.58 109.424 1228.77 106.261 1230.84 104.435C1232.91 102.605 1236.07 102.798 1237.9 104.867C1239.73 106.935 1239.53 110.099 1237.46 111.927Z" fill="url(#paint36_linear_1847_3)"/>
<path opacity="0.6" d="M1235.98 107.671C1235.26 108.307 1234.17 108.239 1233.53 107.518C1232.89 106.797 1232.96 105.7 1233.68 105.064C1234.4 104.427 1235.5 104.493 1236.14 105.214C1236.77 105.934 1236.7 107.034 1235.98 107.671Z" fill="#F8FAEE"/>
<path opacity="0.3" d="M1199.01 110.302C1197.94 111.551 1197.96 113.568 1199.06 114.802L1222.09 140.859L1245.62 167.48C1246.44 168.402 1247.94 168.605 1248.97 167.923C1304.56 131.086 1328.91 97.687 1339.27 73.1024L1328.78 61.2387C1301.54 100.208 1253.14 149.127 1199.01 110.302Z" fill="url(#paint37_linear_1847_3)"/>
<path opacity="0.6" d="M1361.33 18.3792C1360.94 18.7272 1360.34 18.6896 1359.99 18.2977C1359.64 17.9026 1359.68 17.3036 1360.07 16.9556C1360.47 16.6076 1361.06 16.6437 1361.41 17.0403C1361.76 17.4307 1361.72 18.0312 1361.33 18.3792Z" fill="#F8FAEE"/>
<path d="M1302.22 103.962C1311.88 95.4194 1312.79 80.6624 1304.25 70.9991C1295.7 61.3359 1280.94 60.4267 1271.28 68.9689C1261.85 77.3073 1260.76 91.5659 1268.65 101.23L1261.89 108.951L1270.41 103.156C1279.08 111.658 1292.98 112.13 1302.22 103.962Z" fill="url(#paint38_linear_1847_3)"/>
<path d="M1297.24 98.3328C1290.69 104.126 1280.68 103.51 1274.88 96.9569C1269.09 90.4026 1269.71 80.394 1276.26 74.5989C1282.81 68.8052 1292.82 69.4234 1298.62 75.9777C1304.41 82.5304 1303.79 92.5392 1297.24 98.3328Z" fill="#97CEF2"/>
<path opacity="0.5" d="M1299.66 87.9436C1298.8 88.7046 1297.49 88.623 1296.72 87.7636C1295.96 86.9011 1296.05 85.5876 1296.91 84.8267C1297.77 84.0658 1299.08 84.1442 1299.84 85.0067C1300.6 85.8662 1300.52 87.1826 1299.66 87.9436Z" fill="#F8FAEE"/>
<path opacity="0.5" d="M1297.57 80.5883C1296.41 81.2302 1294.82 80.6245 1293.71 79.6394C1290.25 76.4902 1285.04 76.0409 1281.1 78.5489C1279.83 79.3266 1278.16 79.6489 1277.13 78.8183C1276.1 77.9994 1276.58 75.7618 1278.54 74.5134C1284.29 70.8611 1291.89 71.5167 1296.92 76.107C1298.64 77.6723 1298.72 79.961 1297.57 80.5883Z" fill="#F8FAEE"/>
<path opacity="0.5" d="M1267.11 87.8596C1268.71 87.6635 1269.66 84.022 1271.19 80.1999C1272.13 77.8573 1273.62 75.6892 1275.64 73.9027C1282.58 67.7695 1293.18 68.4217 1299.32 75.3615C1300.34 76.5194 1301.17 77.778 1301.82 79.1034C1302.91 81.3437 1304.53 83.2118 1306.13 83.0142C1307.74 82.8153 1308.64 79.8229 1307.14 76.7006C1306.26 74.8552 1305.11 73.1025 1303.69 71.4943C1295.42 62.1376 1281.13 61.2591 1271.78 69.5269C1268.26 72.6386 1265.94 76.5984 1264.85 80.8292C1263.83 84.8172 1265.51 88.06 1267.11 87.8596Z" fill="url(#paint39_linear_1847_3)"/>
<path opacity="0.5" d="M1298.62 75.9777C1292.82 69.4234 1282.81 68.8051 1276.26 74.5989C1269.71 80.394 1269.09 90.4026 1274.88 96.9569C1280.68 103.51 1290.69 104.126 1297.24 98.3328C1303.79 92.5391 1304.41 82.5304 1298.62 75.9777ZM1275.42 96.4856C1269.89 90.2361 1270.48 80.6591 1276.73 75.1343C1282.98 69.6109 1292.56 70.201 1298.08 76.4503C1303.61 82.6997 1303.02 92.2769 1296.77 97.8004C1290.52 103.324 1280.94 102.735 1275.42 96.4856Z" fill="url(#paint40_linear_1847_3)"/>
<path d="M1319.82 63.0739L1326.43 58.5831L1339.26 73.1041C1349.03 49.9306 1346.36 34.5914 1345.69 31.6046C1342.8 30.5693 1327.91 26.0415 1303.71 32.8871L1309.4 39.3198L1295.73 54.9174L1312.88 43.2597L1325.09 57.0666L1319.82 63.0739Z" fill="url(#paint41_linear_1847_3)"/>
<path opacity="0.3" d="M1346.04 33.5332C1342.07 40.7002 1336.21 50.5997 1328.78 61.2389L1339.26 73.1027C1347.68 53.1234 1346.86 38.9633 1346.04 33.5332Z" fill="url(#paint42_linear_1847_3)"/>
<path opacity="0.6" d="M1338.26 37.4516C1336.97 38.5882 1335.01 38.4659 1333.87 37.1832C1332.74 35.8973 1332.86 33.9359 1334.14 32.7993C1335.43 31.6642 1337.39 31.7834 1338.53 33.0693C1339.66 34.352 1339.54 36.315 1338.26 37.4516Z" fill="#F8FAEE"/>
<path opacity="0.6" d="M1327.25 35.4974C1326.5 36.1573 1325.36 36.086 1324.7 35.3402C1324.04 34.5944 1324.11 33.4569 1324.86 32.797C1325.61 32.1385 1326.74 32.2084 1327.4 32.9526C1328.06 33.7 1327.99 34.8389 1327.25 35.4974Z" fill="#F8FAEE"/>
<path d="M1178.79 192.835C1178.18 193.37 1177.26 193.313 1176.72 192.708C1176.19 192.103 1176.25 191.179 1176.85 190.644L1181.5 186.53C1182.11 185.997 1183.03 186.054 1183.57 186.658C1184.1 187.263 1184.04 188.186 1183.44 188.72L1178.79 192.835Z" fill="#97CEF2"/>
<path d="M1187.62 135.275C1186.82 135.979 1185.6 135.904 1184.9 135.108C1184.2 134.311 1184.27 133.096 1185.07 132.392L1189.1 128.825C1189.9 128.123 1191.11 128.198 1191.82 128.994C1192.52 129.788 1192.44 131.004 1191.65 131.707L1187.62 135.275Z" fill="#97CEF2"/>
<path d="M1256.87 218.459C1255.6 219.585 1253.66 219.464 1252.53 218.192C1251.4 216.919 1251.52 214.974 1252.8 213.85L1256.83 210.283C1258.1 209.159 1260.05 209.277 1261.17 210.551C1262.3 211.825 1262.18 213.769 1260.91 214.893L1256.87 218.459Z" fill="#97CEF2"/>
<path d="M1252.19 236.971C1251.4 237.674 1250.18 237.6 1249.48 236.804C1248.77 236.008 1248.85 234.794 1249.64 234.09L1253.1 231.033C1253.9 230.331 1255.11 230.404 1255.82 231.199C1256.52 231.995 1256.44 233.211 1255.65 233.913L1252.19 236.971Z" fill="#97CEF2"/>
<path d="M1219.36 132.531C1218.99 132.115 1219.04 131.478 1219.45 131.11L1224.24 126.875C1224.66 126.507 1225.29 126.546 1225.66 126.963C1226.03 127.38 1225.99 128.016 1225.58 128.385L1220.79 132.621C1220.37 132.988 1219.73 132.948 1219.36 132.531Z" fill="url(#paint43_linear_1847_3)"/>
<path opacity="0.3" d="M1260.18 196.138C1259.67 195.566 1259.72 194.691 1260.3 194.185L1277.46 179.01C1278.04 178.502 1278.91 178.556 1279.42 179.128C1279.92 179.702 1279.87 180.577 1279.3 181.084L1262.13 196.26C1261.56 196.767 1260.68 196.711 1260.18 196.138Z" fill="url(#paint44_linear_1847_3)"/>
<path d="M1264.86 178.545C1264.11 177.693 1264.19 176.387 1265.04 175.633L1270.86 170.489C1271.72 169.735 1273.02 169.816 1273.77 170.669C1274.53 171.524 1274.45 172.825 1273.59 173.579L1267.77 178.724C1266.92 179.477 1265.62 179.398 1264.86 178.545Z" fill="url(#paint45_linear_1847_3)"/>
<path d="M1208.95 151.656C1208.73 151.401 1208.75 151.014 1209.01 150.791L1211.39 148.689C1211.64 148.465 1212.03 148.49 1212.25 148.741C1212.48 148.994 1212.45 149.383 1212.2 149.608L1209.82 151.709C1209.56 151.934 1209.18 151.91 1208.95 151.656Z" fill="url(#paint46_linear_1847_3)"/>
<path d="M1186.23 104.335C1185.57 103.598 1185.64 102.475 1186.38 101.823L1190.1 98.5313C1190.84 97.8798 1191.96 97.9504 1192.61 98.685C1193.27 99.4212 1193.2 100.546 1192.46 101.198L1188.74 104.49C1188 105.14 1186.88 105.071 1186.23 104.335Z" fill="url(#paint47_linear_1847_3)"/>
<path d="M1267.42 67.1318C1266.95 66.5901 1267 65.7643 1267.54 65.2875L1284.92 49.9176C1285.47 49.4395 1286.29 49.4905 1286.77 50.0308C1287.25 50.5711 1287.2 51.3983 1286.66 51.8751L1269.27 67.245C1268.73 67.7231 1267.9 67.6722 1267.42 67.1318Z" fill="url(#paint48_linear_1847_3)"/>
<path d="M1182.76 115.663C1182.18 115.011 1182.24 114.015 1182.89 113.438L1185.75 110.911C1186.41 110.335 1187.4 110.396 1187.98 111.049C1188.56 111.702 1188.49 112.698 1187.84 113.275L1184.98 115.801C1184.33 116.378 1183.33 116.316 1182.76 115.663Z" fill="#F8FAEE"/>
<path d="M1284 209.875C1283.36 209.144 1283.43 208.029 1284.16 207.381L1290.94 201.387C1291.67 200.741 1292.79 200.811 1293.43 201.541C1294.08 202.271 1294.01 203.385 1293.28 204.033L1286.5 210.027C1285.77 210.673 1284.65 210.605 1284 209.875Z" fill="url(#paint49_linear_1847_3)"/>
<path d="M1174.83 213.993C1174.22 214.528 1173.3 214.471 1172.76 213.865C1172.23 213.261 1172.28 212.337 1172.89 211.803L1177.54 207.688C1178.15 207.153 1179.07 207.21 1179.61 207.815C1180.14 208.42 1180.08 209.345 1179.48 209.879L1174.83 213.993Z" fill="#CEE5F1"/>
<path d="M1320.63 183.152C1320.03 183.687 1319.1 183.629 1318.57 183.023L1318.57 183.024C1318.04 182.419 1318.09 181.496 1318.7 180.961L1323.35 176.847C1323.96 176.312 1324.88 176.368 1325.41 176.974C1325.95 177.579 1325.89 178.503 1325.29 179.036L1320.63 183.152Z" fill="url(#paint50_linear_1847_3)"/>
<path d="M1223.65 74.1238C1223.05 74.6589 1222.12 74.6015 1221.59 73.9965C1221.06 73.3916 1221.11 72.4693 1221.72 71.9344L1226.37 67.8206C1226.97 67.2869 1227.9 67.3429 1228.43 67.9479C1228.97 68.5514 1228.91 69.4765 1228.31 70.0101L1223.65 74.1238Z" fill="url(#paint51_linear_1847_3)"/>
<path d="M1176.3 127.686C1175.67 128.249 1174.69 128.19 1174.13 127.553C1173.57 126.916 1173.63 125.943 1174.26 125.382C1174.9 124.818 1175.87 124.878 1176.44 125.515C1177 126.15 1176.94 127.123 1176.3 127.686Z" fill="#CEE5F1"/>
<path d="M1201.44 216.135C1200.48 216.979 1199.02 216.89 1198.18 215.934C1197.33 214.98 1197.42 213.521 1198.38 212.679C1199.33 211.833 1200.79 211.924 1201.64 212.878C1202.48 213.834 1202.39 215.291 1201.44 216.135Z" fill="#CEE5F1"/>
<path d="M1242.9 160.895C1242.3 161.43 1241.38 161.372 1240.84 160.767C1240.31 160.164 1240.36 159.239 1240.97 158.704L1245.62 154.59C1246.23 154.056 1247.15 154.112 1247.69 154.717C1248.22 155.322 1248.16 156.246 1247.56 156.779L1242.9 160.895Z" fill="url(#paint52_linear_1847_3)"/>
<path d="M1334.89 139.229C1334.41 138.688 1334.46 137.862 1335 137.384L1352.39 122.014C1352.93 121.536 1353.75 121.587 1354.23 122.127C1354.71 122.669 1354.66 123.495 1354.12 123.973L1336.73 139.343C1336.19 139.821 1335.36 139.77 1334.89 139.229Z" fill="url(#paint53_linear_1847_3)"/>
<path d="M1257.61 63.7171C1257 64.2507 1256.08 64.1948 1255.54 63.5897C1255.01 62.9847 1255.07 62.0626 1255.67 61.5276L1260.32 57.4138C1260.93 56.8787 1261.85 56.936 1262.39 57.5411C1262.92 58.1461 1262.86 59.0697 1262.26 59.6033L1257.61 63.7171Z" fill="url(#paint54_linear_1847_3)"/>
<path d="M1331.9 145.975C1331.1 146.679 1329.89 146.603 1329.19 145.807C1328.48 145.012 1328.56 143.796 1329.36 143.094C1330.15 142.391 1331.37 142.464 1332.07 143.26C1332.77 144.055 1332.7 145.271 1331.9 145.975Z" fill="url(#paint55_linear_1847_3)"/>
<path d="M1214.11 159.892L1223.29 153.655L1222.36 152.601L1221.43 151.547L1214.11 159.892Z" fill="url(#paint56_linear_1847_3)"/>
<path d="M1319.06 172.328C1318.66 172.68 1318.05 172.642 1317.7 172.245C1317.35 171.847 1317.39 171.24 1317.79 170.887C1318.18 170.536 1318.79 170.574 1319.14 170.971C1319.49 171.369 1319.46 171.977 1319.06 172.328Z" fill="url(#paint57_linear_1847_3)"/>
<path d="M1235.44 188.807C1235.1 188.426 1235.14 187.845 1235.52 187.51L1239.08 184.355C1239.47 184.02 1240.05 184.055 1240.38 184.436C1240.72 184.816 1240.68 185.396 1240.3 185.734L1236.74 188.887C1236.35 189.224 1235.77 189.188 1235.44 188.807Z" fill="url(#paint58_linear_1847_3)"/>
<path d="M1245.15 201.206C1244.65 200.633 1244.7 199.758 1245.27 199.253L1262.44 184.077C1263.01 183.571 1263.89 183.624 1264.39 184.197C1264.9 184.769 1264.85 185.645 1264.27 186.151L1247.11 201.328C1246.53 201.834 1245.66 201.78 1245.15 201.206Z" fill="url(#paint59_linear_1847_3)"/>
<path d="M1223.76 138.684C1223.44 138.327 1223.47 137.778 1223.83 137.464L1234.56 127.979C1234.92 127.661 1235.47 127.694 1235.78 128.054C1236.1 128.411 1236.06 128.958 1235.71 129.276L1224.98 138.761C1224.62 139.077 1224.07 139.042 1223.76 138.684Z" fill="url(#paint60_linear_1847_3)"/>
<path d="M1168.82 139.421C1168.44 139.753 1167.87 139.719 1167.53 139.341C1167.2 138.965 1167.24 138.39 1167.61 138.055L1169.25 136.607C1169.63 136.274 1170.21 136.31 1170.54 136.686C1170.87 137.064 1170.84 137.639 1170.46 137.972L1168.82 139.421Z" fill="#CEE5F1"/>
<path d="M1138.5 157.413C1137.87 157.978 1136.9 157.916 1136.33 157.281C1135.77 156.644 1135.83 155.673 1136.47 155.11L1153.18 140.336C1153.82 139.773 1154.79 139.834 1155.35 140.471C1155.91 141.107 1155.85 142.08 1155.22 142.642L1138.5 157.413Z" fill="#97CEF2"/>
<path d="M1210.82 248.506C1210.18 249.069 1209.21 249.009 1208.65 248.372C1208.08 247.737 1208.14 246.764 1208.78 246.2L1225.49 231.428C1226.13 230.865 1227.1 230.924 1227.66 231.562C1228.22 232.2 1228.16 233.171 1227.53 233.734L1210.82 248.506Z" fill="#97CEF2"/>
<path d="M1135.04 187.171C1134.4 187.735 1133.43 187.673 1132.86 187.036C1132.3 186.4 1132.36 185.429 1133 184.866L1140.49 178.243C1141.13 177.681 1142.1 177.741 1142.66 178.378C1143.22 179.014 1143.17 179.986 1142.53 180.548L1135.04 187.171Z" fill="#97CEF2"/>
<path d="M1198.33 283.157C1197.69 283.721 1196.72 283.661 1196.16 283.024C1195.59 282.387 1195.65 281.415 1196.29 280.852L1213 266.08C1213.64 265.515 1214.61 265.576 1215.18 266.214C1215.74 266.849 1215.68 267.822 1215.04 268.384L1198.33 283.157Z" fill="#97CEF2"/>
<path d="M1117.55 200.575C1116.95 201.11 1116.02 201.053 1115.49 200.448C1114.96 199.843 1115.01 198.921 1115.62 198.386L1120.27 194.272C1120.88 193.737 1121.8 193.794 1122.33 194.399C1122.87 195.004 1122.81 195.928 1122.2 196.462L1117.55 200.575Z" fill="#F8FAEE"/>
<path d="M1189.23 257.392C1188.62 257.927 1187.7 257.869 1187.16 257.264C1186.63 256.66 1186.69 255.736 1187.29 255.202L1191.94 251.089C1192.55 250.553 1193.47 250.611 1194.01 251.217C1194.54 251.821 1194.49 252.745 1193.88 253.28L1189.23 257.392Z" fill="#F8FAEE"/>
<defs>
<filter id="filter0_d_1847_3" x="72" y="658" width="136" height="99" filterUnits="userSpaceOnUse" color-interpolation-filters="sRGB">
<feFlood flood-opacity="0" result="BackgroundImageFix"/>
<feColorMatrix in="SourceAlpha" type="matrix" values="0 0 0 0 0 0 0 0 0 0 0 0 0 0 0 0 0 0 127 0" result="hardAlpha"/>
<feOffset dy="20"/>
<feGaussianBlur stdDeviation="5"/>
<feComposite in2="hardAlpha" operator="out"/>
<feColorMatrix type="matrix" values="0 0 0 0 0 0 0 0 0 0 0 0 0 0 0 0 0 0 0.2 0"/>
<feBlend mode="normal" in2="BackgroundImageFix" result="effect1_dropShadow_1847_3"/>
<feBlend mode="normal" in="SourceGraphic" in2="effect1_dropShadow_1847_3" result="shape"/>
</filter>
<filter id="filter1_d_1847_3" x="913" y="729" width="136" height="99" filterUnits="userSpaceOnUse" color-interpolation-filters="sRGB">
<feFlood flood-opacity="0" result="BackgroundImageFix"/>
<feColorMatrix in="SourceAlpha" type="matrix" values="0 0 0 0 0 0 0 0 0 0 0 0 0 0 0 0 0 0 127 0" result="hardAlpha"/>
<feOffset dy="20"/>
<feGaussianBlur stdDeviation="5"/>
<feComposite in2="hardAlpha" operator="out"/>
<feColorMatrix type="matrix" values="0 0 0 0 0 0 0 0 0 0 0 0 0 0 0 0 0 0 0.2 0"/>
<feBlend mode="normal" in2="BackgroundImageFix" result="effect1_dropShadow_1847_3"/>
<feBlend mode="normal" in="SourceGraphic" in2="effect1_dropShadow_1847_3" result="shape"/>
</filter>
<filter id="filter2_d_1847_3" x="531" y="116" width="136" height="99" filterUnits="userSpaceOnUse" color-interpolation-filters="sRGB">
<feFlood flood-opacity="0" result="BackgroundImageFix"/>
<feColorMatrix in="SourceAlpha" type="matrix" values="0 0 0 0 0 0 0 0 0 0 0 0 0 0 0 0 0 0 127 0" result="hardAlpha"/>
<feOffset dy="20"/>
<feGaussianBlur stdDeviation="5"/>
<feComposite in2="hardAlpha" operator="out"/>
<feColorMatrix type="matrix" values="0 0 0 0 0 0 0 0 0 0 0 0 0 0 0 0 0 0 0.2 0"/>
<feBlend mode="normal" in2="BackgroundImageFix" result="effect1_dropShadow_1847_3"/>
<feBlend mode="normal" in="SourceGraphic" in2="effect1_dropShadow_1847_3" result="shape"/>
</filter>
<linearGradient id="paint0_linear_1847_3" x1="589.518" y1="242" x2="589.518" y2="315.435" gradientUnits="userSpaceOnUse">
<stop stop-color="#FAFF00"/>
<stop offset="1" stop-color="#FE19C1"/>
</linearGradient>
<linearGradient id="paint1_linear_1847_3" x1="590.054" y1="221.861" x2="590.054" y2="334.877" gradientUnits="userSpaceOnUse">
<stop stop-color="#FAFF00"/>
<stop offset="1" stop-color="#FE19C1"/>
</linearGradient>
<linearGradient id="paint2_linear_1847_3" x1="982.32" y1="565.094" x2="982.32" y2="678.11" gradientUnits="userSpaceOnUse">
<stop stop-color="#FAFF00"/>
<stop offset="1" stop-color="#FE19C1"/>
</linearGradient>
<linearGradient id="paint3_linear_1847_3" x1="288.988" y1="515.224" x2="397.524" y2="548.026" gradientUnits="userSpaceOnUse">
<stop stop-color="#FAFF00"/>
<stop offset="1" stop-color="#FE19C1"/>
</linearGradient>
<linearGradient id="paint4_linear_1847_3" x1="52.2299" y1="819.73" x2="95.4655" y2="924.156" gradientUnits="userSpaceOnUse">
<stop stop-color="#FAFF00"/>
<stop offset="1" stop-color="#FE19C1"/>
</linearGradient>
<linearGradient id="paint5_linear_1847_3" x1="982.098" y1="584.406" x2="982.098" y2="657.858" gradientUnits="userSpaceOnUse">
<stop stop-color="#FAFF00"/>
<stop offset="1" stop-color="#FE19C1"/>
</linearGradient>
<linearGradient id="paint6_linear_1847_3" x1="73.8411" y1="835.171" x2="73.8411" y2="908.638" gradientUnits="userSpaceOnUse">
<stop stop-color="#FAFF00"/>
<stop offset="1" stop-color="#FE19C1"/>
</linearGradient>
<linearGradient id="paint7_linear_1847_3" x1="343.139" y1="495.085" x2="343.139" y2="568.551" gradientUnits="userSpaceOnUse">
<stop stop-color="#FAFF00"/>
<stop offset="1" stop-color="#FE19C1"/>
</linearGradient>
<linearGradient id="paint8_linear_1847_3" x1="1191.72" y1="126.915" x2="1246.71" y2="78.3016" gradientUnits="userSpaceOnUse">
<stop stop-color="#2828E8"/>
<stop offset="1" stop-color="#BE81E4"/>
</linearGradient>
<linearGradient id="paint9_linear_1847_3" x1="1217.75" y1="110.759" x2="1260.77" y2="72.7229" gradientUnits="userSpaceOnUse">
<stop stop-color="#442990"/>
<stop offset="1" stop-color="#BE81E4"/>
</linearGradient>
<linearGradient id="paint10_linear_1847_3" x1="1232.21" y1="172.719" x2="1287.2" y2="124.101" gradientUnits="userSpaceOnUse">
<stop stop-color="#2828E8"/>
<stop offset="1" stop-color="#BE81E4"/>
</linearGradient>
<linearGradient id="paint11_linear_1847_3" x1="1251.43" y1="148.866" x2="1294.46" y2="110.823" gradientUnits="userSpaceOnUse">
<stop stop-color="#442990"/>
<stop offset="1" stop-color="#BE81E4"/>
</linearGradient>
<linearGradient id="paint12_linear_1847_3" x1="1240.62" y1="207.471" x2="1268.13" y2="183.149" gradientUnits="userSpaceOnUse">
<stop stop-color="#442990"/>
<stop offset="1" stop-color="#BE81E4"/>
</linearGradient>
<linearGradient id="paint13_linear_1847_3" x1="1262.9" y1="187.774" x2="1402.26" y2="64.5631" gradientUnits="userSpaceOnUse">
<stop stop-color="#ECBFF2"/>
<stop offset="1" stop-color="#BE81E4"/>
</linearGradient>
<linearGradient id="paint14_linear_1847_3" x1="1246.8" y1="202.009" x2="1317.39" y2="139.597" gradientUnits="userSpaceOnUse">
<stop stop-color="#2828E8"/>
<stop offset="1" stop-color="#BE81E4"/>
</linearGradient>
<linearGradient id="paint15_linear_1847_3" x1="1287.04" y1="192.48" x2="1272.37" y2="175.891" gradientUnits="userSpaceOnUse">
<stop stop-color="#2828E8"/>
<stop offset="1" stop-color="#BE81E4"/>
</linearGradient>
<linearGradient id="paint16_linear_1847_3" x1="1306.34" y1="175.417" x2="1291.68" y2="158.829" gradientUnits="userSpaceOnUse">
<stop stop-color="#2828E8"/>
<stop offset="1" stop-color="#BE81E4"/>
</linearGradient>
<linearGradient id="paint17_linear_1847_3" x1="1259.25" y1="190.998" x2="1274.9" y2="177.16" gradientUnits="userSpaceOnUse">
<stop stop-color="#2828E8"/>
<stop offset="1" stop-color="#BE81E4"/>
</linearGradient>
<linearGradient id="paint18_linear_1847_3" x1="1158.26" y1="114.301" x2="1185.77" y2="89.9799" gradientUnits="userSpaceOnUse">
<stop stop-color="#442990"/>
<stop offset="1" stop-color="#BE81E4"/>
</linearGradient>
<linearGradient id="paint19_linear_1847_3" x1="1180.54" y1="94.6047" x2="1319.9" y2="-28.6043" gradientUnits="userSpaceOnUse">
<stop stop-color="#ECBFF2"/>
<stop offset="1" stop-color="#BE81E4"/>
</linearGradient>
<linearGradient id="paint20_linear_1847_3" x1="1164.45" y1="108.835" x2="1235.03" y2="46.4301" gradientUnits="userSpaceOnUse">
<stop stop-color="#2828E8"/>
<stop offset="1" stop-color="#BE81E4"/>
</linearGradient>
<linearGradient id="paint21_linear_1847_3" x1="1198.07" y1="91.8349" x2="1189.21" y2="81.818" gradientUnits="userSpaceOnUse">
<stop stop-color="#2828E8"/>
<stop offset="1" stop-color="#BE81E4"/>
</linearGradient>
<linearGradient id="paint22_linear_1847_3" x1="1217.37" y1="74.7711" x2="1208.52" y2="64.7554" gradientUnits="userSpaceOnUse">
<stop stop-color="#2828E8"/>
<stop offset="1" stop-color="#BE81E4"/>
</linearGradient>
<linearGradient id="paint23_linear_1847_3" x1="1176.89" y1="97.8284" x2="1192.56" y2="83.9768" gradientUnits="userSpaceOnUse">
<stop stop-color="#2828E8"/>
<stop offset="1" stop-color="#BE81E4"/>
</linearGradient>
<linearGradient id="paint24_linear_1847_3" x1="1217.95" y1="144.514" x2="1196.06" y2="163.874" gradientUnits="userSpaceOnUse">
<stop stop-color="#442990"/>
<stop offset="1" stop-color="#BE81E4"/>
</linearGradient>
<linearGradient id="paint25_linear_1847_3" x1="1204.41" y1="156.492" x2="1188.55" y2="170.509" gradientUnits="userSpaceOnUse">
<stop stop-color="#442990"/>
<stop offset="1" stop-color="#BE81E4"/>
</linearGradient>
<linearGradient id="paint26_linear_1847_3" x1="1225.56" y1="137.792" x2="1189.62" y2="169.568" gradientUnits="userSpaceOnUse">
<stop stop-color="#442990"/>
<stop offset="1" stop-color="#BE81E4"/>
</linearGradient>
<linearGradient id="paint27_linear_1847_3" x1="1215.57" y1="146.629" x2="1209.15" y2="152.304" gradientUnits="userSpaceOnUse">
<stop stop-color="#442990"/>
<stop offset="1" stop-color="#BE81E4"/>
</linearGradient>
<linearGradient id="paint28_linear_1847_3" x1="1339.53" y1="37.0454" x2="1370.94" y2="9.2783" gradientUnits="userSpaceOnUse">
<stop stop-color="#2828E8"/>
<stop offset="1" stop-color="#BE81E4"/>
</linearGradient>
<linearGradient id="paint29_linear_1847_3" x1="1221.73" y1="141.194" x2="1361.09" y2="17.9892" gradientUnits="userSpaceOnUse">
<stop stop-color="#ECBFF2"/>
<stop offset="1" stop-color="#BE81E4"/>
</linearGradient>
<linearGradient id="paint30_linear_1847_3" x1="1313.81" y1="59.7702" x2="1212.42" y2="149.411" gradientUnits="userSpaceOnUse">
<stop stop-color="#ECBFF2"/>
<stop offset="1" stop-color="#BE81E4"/>
</linearGradient>
<linearGradient id="paint31_linear_1847_3" x1="1214.27" y1="147.779" x2="1266.45" y2="101.642" gradientUnits="userSpaceOnUse">
<stop stop-color="#2828E8"/>
<stop offset="1" stop-color="#BE81E4"/>
</linearGradient>
<linearGradient id="paint32_linear_1847_3" x1="1220.27" y1="92.474" x2="1226.89" y2="99.9652" gradientUnits="userSpaceOnUse">
<stop stop-color="#ECBFF2"/>
<stop offset="1" stop-color="#BE81E4"/>
</linearGradient>
<linearGradient id="paint33_linear_1847_3" x1="1262.56" y1="140.313" x2="1269.18" y2="147.805" gradientUnits="userSpaceOnUse">
<stop stop-color="#ECBFF2"/>
<stop offset="1" stop-color="#BE81E4"/>
</linearGradient>
<linearGradient id="paint34_linear_1847_3" x1="1251.99" y1="128.353" x2="1258.61" y2="135.845" gradientUnits="userSpaceOnUse">
<stop stop-color="#ECBFF2"/>
<stop offset="1" stop-color="#BE81E4"/>
</linearGradient>
<linearGradient id="paint35_linear_1847_3" x1="1241.41" y1="116.395" x2="1248.04" y2="123.886" gradientUnits="userSpaceOnUse">
<stop stop-color="#ECBFF2"/>
<stop offset="1" stop-color="#BE81E4"/>
</linearGradient>
<linearGradient id="paint36_linear_1847_3" x1="1230.84" y1="104.434" x2="1237.47" y2="111.927" gradientUnits="userSpaceOnUse">
<stop stop-color="#ECBFF2"/>
<stop offset="1" stop-color="#BE81E4"/>
</linearGradient>
<linearGradient id="paint37_linear_1847_3" x1="1322.99" y1="154.843" x2="1257.2" y2="80.4237" gradientUnits="userSpaceOnUse">
<stop stop-color="#2828E8"/>
<stop offset="1" stop-color="#BE81E4"/>
</linearGradient>
<linearGradient id="paint38_linear_1847_3" x1="1255.55" y1="114.047" x2="1315.2" y2="61.3089" gradientUnits="userSpaceOnUse">
<stop stop-color="#442990"/>
<stop offset="1" stop-color="#BE81E4"/>
</linearGradient>
<linearGradient id="paint39_linear_1847_3" x1="1274.16" y1="67.4151" x2="1296.1" y2="92.2202" gradientUnits="userSpaceOnUse">
<stop stop-color="#ECBFF2"/>
<stop offset="1" stop-color="#BE81E4"/>
</linearGradient>
<linearGradient id="paint40_linear_1847_3" x1="1310.68" y1="65.3138" x2="1234.42" y2="132.731" gradientUnits="userSpaceOnUse">
<stop stop-color="#442990"/>
<stop offset="1" stop-color="#BE81E4"/>
</linearGradient>
<linearGradient id="paint41_linear_1847_3" x1="1301.86" y1="70.3455" x2="1351.01" y2="26.8955" gradientUnits="userSpaceOnUse">
<stop stop-color="#2828E8"/>
<stop offset="1" stop-color="#BE81E4"/>
</linearGradient>
<linearGradient id="paint42_linear_1847_3" x1="1349.96" y1="61.5825" x2="1321.77" y2="29.7031" gradientUnits="userSpaceOnUse">
<stop stop-color="#2828E8"/>
<stop offset="1" stop-color="#BE81E4"/>
</linearGradient>
<linearGradient id="paint43_linear_1847_3" x1="1230.15" y1="122.992" x2="1203.86" y2="146.234" gradientUnits="userSpaceOnUse">
<stop stop-color="#442990"/>
<stop offset="1" stop-color="#BE81E4"/>
</linearGradient>
<linearGradient id="paint44_linear_1847_3" x1="1247.09" y1="207.713" x2="1270.88" y2="186.672" gradientUnits="userSpaceOnUse">
<stop stop-color="#2828E8"/>
<stop offset="1" stop-color="#BE81E4"/>
</linearGradient>
<linearGradient id="paint45_linear_1847_3" x1="1242.41" y1="198.397" x2="1286.07" y2="159.794" gradientUnits="userSpaceOnUse">
<stop stop-color="#ECBFF2"/>
<stop offset="1" stop-color="#BE81E4"/>
</linearGradient>
<linearGradient id="paint46_linear_1847_3" x1="1209.73" y1="150.973" x2="1198.49" y2="160.907" gradientUnits="userSpaceOnUse">
<stop stop-color="#442990"/>
<stop offset="1" stop-color="#BE81E4"/>
</linearGradient>
<linearGradient id="paint47_linear_1847_3" x1="1205.4" y1="87.3865" x2="1344.74" y2="-35.8132" gradientUnits="userSpaceOnUse">
<stop stop-color="#ECBFF2"/>
<stop offset="1" stop-color="#BE81E4"/>
</linearGradient>
<linearGradient id="paint48_linear_1847_3" x1="1222.55" y1="106.805" x2="1361.91" y2="-16.4035" gradientUnits="userSpaceOnUse">
<stop stop-color="#ECBFF2"/>
<stop offset="1" stop-color="#BE81E4"/>
</linearGradient>
<linearGradient id="paint49_linear_1847_3" x1="1300.65" y1="195.154" x2="1440.02" y2="71.9372" gradientUnits="userSpaceOnUse">
<stop stop-color="#ECBFF2"/>
<stop offset="1" stop-color="#BE81E4"/>
</linearGradient>
<linearGradient id="paint50_linear_1847_3" x1="1303.96" y1="200.798" x2="1326.83" y2="174.423" gradientUnits="userSpaceOnUse">
<stop stop-color="#2828E8"/>
<stop offset="1" stop-color="#BE81E4"/>
</linearGradient>
<linearGradient id="paint51_linear_1847_3" x1="1194.64" y1="106.006" x2="1217.51" y2="79.6276" gradientUnits="userSpaceOnUse">
<stop stop-color="#2828E8"/>
<stop offset="1" stop-color="#BE81E4"/>
</linearGradient>
<linearGradient id="paint52_linear_1847_3" x1="1242.64" y1="159.178" x2="1225.64" y2="174.207" gradientUnits="userSpaceOnUse">
<stop stop-color="#442990"/>
<stop offset="1" stop-color="#BE81E4"/>
</linearGradient>
<linearGradient id="paint53_linear_1847_3" x1="1287.92" y1="180.753" x2="1427.28" y2="57.5426" gradientUnits="userSpaceOnUse">
<stop stop-color="#ECBFF2"/>
<stop offset="1" stop-color="#BE81E4"/>
</linearGradient>
<linearGradient id="paint54_linear_1847_3" x1="1215.58" y1="98.9224" x2="1354.94" y2="-24.292" gradientUnits="userSpaceOnUse">
<stop stop-color="#ECBFF2"/>
<stop offset="1" stop-color="#BE81E4"/>
</linearGradient>
<linearGradient id="paint55_linear_1847_3" x1="1288.7" y1="181.607" x2="1428.02" y2="58.4295" gradientUnits="userSpaceOnUse">
<stop stop-color="#ECBFF2"/>
<stop offset="1" stop-color="#BE81E4"/>
</linearGradient>
<linearGradient id="paint56_linear_1847_3" x1="1241.43" y1="135.745" x2="1219.53" y2="155.103" gradientUnits="userSpaceOnUse">
<stop stop-color="#442990"/>
<stop offset="1" stop-color="#BE81E4"/>
</linearGradient>
<linearGradient id="paint57_linear_1847_3" x1="1344.62" y1="148.442" x2="1428.17" y2="74.5746" gradientUnits="userSpaceOnUse">
<stop stop-color="#2828E8"/>
<stop offset="1" stop-color="#BE81E4"/>
</linearGradient>
<linearGradient id="paint58_linear_1847_3" x1="1247.85" y1="177.838" x2="1234.3" y2="189.809" gradientUnits="userSpaceOnUse">
<stop stop-color="#442990"/>
<stop offset="1" stop-color="#BE81E4"/>
</linearGradient>
<linearGradient id="paint59_linear_1847_3" x1="1245.01" y1="201.335" x2="1288.67" y2="162.733" gradientUnits="userSpaceOnUse">
<stop stop-color="#ECBFF2"/>
<stop offset="1" stop-color="#BE81E4"/>
</linearGradient>
<linearGradient id="paint60_linear_1847_3" x1="1238.9" y1="125.297" x2="1378.26" y2="2.08918" gradientUnits="userSpaceOnUse">
<stop stop-color="#ECBFF2"/>
<stop offset="1" stop-color="#BE81E4"/>
</linearGradient>
</defs>
</svg>
