<svg width="390" height="727" viewBox="0 0 390 727" fill="none" xmlns="http://www.w3.org/2000/svg">
<path d="M152.134 531.883C163.782 532.276 175.138 527.374 186.796 528.789C191.819 529.442 196.603 531.326 200.722 534.273C204.842 537.22 208.17 541.138 210.411 545.681C211.379 547.628 212.1 549.687 212.56 551.812C212.626 552.122 212.686 552.429 212.74 552.732L212.787 553.021L212.876 553.629C212.977 554.38 213.055 555.153 213.116 555.917C213.37 559.727 213.389 563.548 213.174 567.361C212.693 577.915 211.336 588.424 209.9 598.889C208.198 611.399 206.19 623.867 204.154 636.32C203.892 637.922 203.635 639.516 203.426 641.125C203.388 641.398 203.454 641.677 203.61 641.905C203.766 642.133 204.002 642.294 204.271 642.357C204.54 642.421 204.823 642.381 205.065 642.247C205.307 642.113 205.49 641.893 205.578 641.631C206.221 638.377 206.726 635.105 207.27 631.843L208.833 622.269C209.853 615.928 210.828 609.577 211.759 603.217C213.36 592.181 214.771 581.074 215.457 569.959C215.739 565.853 215.795 561.735 215.625 557.623C215.488 550.571 213.018 543.764 208.603 538.265C204.187 532.766 198.075 528.886 191.22 527.231C179.699 524.339 168.28 528.773 156.814 529.484C155.235 529.577 153.636 529.602 152.049 529.542C150.462 529.482 150.624 531.808 152.113 531.86L152.134 531.883Z" fill="white"/>
<path d="M289.293 313.39C283.229 326.348 275.329 338.364 265.836 349.068C256.308 359.798 245.958 369.768 234.879 378.887C223.974 388.065 212.58 396.678 201.441 405.533C190.41 414.254 179.488 423.171 169.342 432.879C158.987 442.758 149.262 453.529 141.482 465.538C140.483 467.09 139.514 468.67 138.58 470.27C137.647 471.869 140.198 473.29 141.133 471.669C148.404 459.153 157.976 448.058 168.224 437.892C178.315 428.1 188.918 418.85 199.988 410.181C211.092 401.306 222.406 392.695 233.351 383.631C244.504 374.576 254.997 364.738 264.751 354.19C274.457 343.721 282.712 331.994 289.292 319.324C290.086 317.75 290.844 316.158 291.577 314.551C292.309 312.944 290.037 311.846 289.358 313.334L289.293 313.39Z" fill="white"/>
<path d="M112.24 371.612C123.38 367.49 134.032 362.154 144.004 355.7C153.971 349.221 163.513 342.108 172.569 334.406C181.798 326.683 190.71 318.604 199.673 310.576C208.636 302.548 217.661 294.531 227.075 287.012C231.761 283.27 236.541 279.648 241.453 276.223C246.663 272.586 252.114 269.114 258.09 266.89C259.596 266.329 261.131 265.849 262.689 265.45C264.452 265.002 263.663 262.299 261.896 262.734C255.655 264.465 249.734 267.192 244.362 270.811C239.138 274.099 234.221 277.805 229.351 281.55C219.816 288.956 210.682 296.879 201.705 304.934C192.727 312.988 183.85 321.109 174.719 328.943C165.793 336.758 156.421 344.051 146.653 350.784C136.954 357.442 126.563 363.031 115.662 367.45C114.271 368.004 112.875 368.532 111.474 369.035C109.84 369.623 110.592 372.226 112.23 371.629L112.24 371.612Z" fill="white"/>
<path d="M173.408 152.138C173.29 164.049 171.419 175.878 167.854 187.244C164.258 198.661 159.527 209.69 153.733 220.164C147.719 231.023 141.117 241.546 133.957 251.685C126.137 262.976 117.968 274.03 110.178 285.349C102.332 296.485 95.227 308.125 88.9104 320.195C88.0879 321.695 87.3706 323.254 86.6494 324.798C85.9282 326.343 88.2628 327.703 89.044 326.111C95.149 313.797 102.095 301.917 109.832 290.557C117.524 279.105 125.687 267.979 133.584 256.674C140.956 246.317 147.8 235.595 154.09 224.548C160.058 214.042 165.02 202.995 168.912 191.556C172.771 180.269 174.921 168.47 175.291 156.549C175.348 155.058 175.345 153.565 175.282 152.07C175.275 151.82 175.17 151.583 174.988 151.41C174.807 151.238 174.564 151.145 174.314 151.152C174.064 151.158 173.826 151.264 173.654 151.446C173.482 151.627 173.389 151.87 173.395 152.12L173.408 152.138Z" fill="white"/>
<path d="M94.7425 364.229C99.0009 356.46 96.1579 346.712 88.3925 342.455C80.627 338.199 70.8798 341.046 66.6214 348.815C62.363 356.584 65.206 366.333 72.9714 370.589C80.7369 374.846 90.4841 371.998 94.7425 364.229Z" fill="url(#paint0_linear_1847_4)"/>
<path d="M102.3 368.105C108.854 356.149 104.479 341.146 92.5276 334.595C80.5767 328.044 65.5758 332.426 59.0222 344.383C52.4685 356.339 56.8439 371.342 68.7948 377.893C80.7457 384.443 95.7466 380.061 102.3 368.105Z" stroke="url(#paint1_linear_1847_4)" stroke-width="3" stroke-linecap="round" stroke-linejoin="round" stroke-dasharray="7.18 7.18"/>
<path d="M316.074 289.936C322.628 277.98 318.253 262.977 306.302 256.427C294.351 249.876 279.35 254.258 272.796 266.214C266.243 278.171 270.618 293.173 282.569 299.724C294.52 306.275 309.521 301.893 316.074 289.936Z" stroke="url(#paint2_linear_1847_4)" stroke-width="3" stroke-linecap="round" stroke-linejoin="round" stroke-dasharray="7.18 7.18"/>
<path d="M143.502 486.563C133.93 476.807 118.26 476.663 108.503 486.242C98.7456 495.82 98.5957 511.494 108.168 521.25C117.74 531.006 133.41 531.15 143.167 521.571C152.925 511.993 153.074 496.319 143.502 486.563Z" stroke="url(#paint3_linear_1847_4)" stroke-width="3" stroke-linecap="round" stroke-linejoin="round" stroke-dasharray="7.18 7.18"/>
<path d="M224.145 681.177C225.626 667.624 215.843 655.44 202.294 653.963C188.745 652.487 176.56 662.277 175.079 675.83C173.598 689.383 183.381 701.566 196.93 703.043C210.479 704.52 222.663 694.73 224.145 681.177Z" stroke="url(#paint4_linear_1847_4)" stroke-width="3" stroke-linecap="round" stroke-linejoin="round" stroke-dasharray="7.18 7.18"/>
<path d="M308.279 285.758C312.537 277.991 309.69 268.246 301.921 263.992C294.152 259.738 284.402 262.586 280.145 270.353C275.887 278.12 278.734 287.865 286.503 292.119C294.272 296.373 304.022 293.525 308.279 285.758Z" fill="url(#paint5_linear_1847_4)"/>
<path d="M213.664 686.21C217.921 678.444 215.073 668.698 207.304 664.442C199.534 660.185 189.785 663.029 185.528 670.795C181.272 678.561 184.12 688.307 191.889 692.563C199.659 696.82 209.408 693.976 213.664 686.21Z" fill="url(#paint6_linear_1847_4)"/>
<path d="M139.958 511.701C144.215 503.935 141.367 494.189 133.598 489.932C125.828 485.676 116.079 488.52 111.822 496.286C107.566 504.051 110.414 513.797 118.183 518.054C125.953 522.311 135.702 519.466 139.958 511.701Z" fill="url(#paint7_linear_1847_4)"/>
<g filter="url(#filter0_d_1847_4)">
<path d="M255.688 616.076C252.11 616.548 249.034 620.289 249.179 624.001C249.324 627.713 252.654 630.773 256.241 630.48C253.742 632.738 254.771 637.39 257.683 638.641C260.595 639.893 264.239 638.237 266.29 635.544C268.341 632.85 269.084 629.355 269.312 626.012C271.037 625.793 272.713 625.151 274.201 624.14C275.688 623.128 276.945 621.776 277.865 620.196C278.786 618.616 279.344 616.854 279.493 615.055C279.643 613.257 279.379 611.474 278.725 609.855C281.871 607.972 284.606 604.819 285.083 601.148C285.56 597.477 283.086 593.557 279.56 593.528C277.295 593.506 275.114 595.024 273.737 596.987C272.22 599.154 271.829 601.593 271.016 603.99C269.815 603.642 269.256 602.176 268.337 601.263C266.78 599.659 264.748 598.634 262.526 598.332C261.047 598.154 259.527 598.337 258.084 598.866C256.641 599.394 255.313 600.256 254.205 601.382C253.193 602.458 252.414 603.743 251.923 605.142C251.433 606.54 251.245 608.015 251.373 609.459C251.541 611.259 253.238 616.392 255.688 616.076Z" fill="#113A8A" fill-opacity="0.9" shape-rendering="crispEdges"/>
</g>
<path d="M259.844 613.663C256.695 614.056 254.006 617.307 254.155 620.551C254.303 623.796 257.254 626.488 260.412 626.252C258.224 628.211 259.157 632.282 261.729 633.392C264.302 634.501 267.502 633.075 269.294 630.733C271.086 628.392 271.72 625.342 271.902 622.422C273.421 622.241 274.894 621.689 276.199 620.814C277.504 619.938 278.603 618.764 279.405 617.389C280.207 616.013 280.689 614.476 280.81 612.905C280.932 611.335 280.69 609.775 280.104 608.357C282.865 606.73 285.256 603.99 285.656 600.785C286.056 597.58 283.854 594.141 280.748 594.096C278.753 594.064 276.84 595.378 275.637 597.086C274.313 598.97 273.982 601.099 273.279 603.189C272.22 602.879 271.719 601.595 270.905 600.791C269.523 599.381 267.727 598.474 265.768 598.198C264.464 598.034 263.126 598.185 261.858 598.639C260.59 599.093 259.425 599.838 258.455 600.816C257.57 601.751 256.89 602.869 256.466 604.088C256.042 605.307 255.885 606.595 256.006 607.857C256.163 609.431 257.688 613.926 259.844 613.663Z" fill="#3F6FCB" fill-opacity="0.9"/>
<g filter="url(#filter1_d_1847_4)">
<path d="M339.798 310.989C336.22 311.461 333.145 315.202 333.289 318.914C333.434 322.626 336.764 325.686 340.351 325.393C337.852 327.651 338.882 332.303 341.794 333.554C344.706 334.806 348.349 333.15 350.4 330.457C352.451 327.763 353.194 324.268 353.422 320.925C355.147 320.706 356.823 320.064 358.311 319.053C359.799 318.041 361.055 316.689 361.975 315.109C362.896 313.529 363.454 311.767 363.604 309.968C363.753 308.17 363.49 306.387 362.835 304.768C365.981 302.885 368.716 299.732 369.193 296.061C369.671 292.39 367.197 288.47 363.67 288.441C361.406 288.419 359.225 289.937 357.847 291.9C356.33 294.067 355.939 296.506 355.126 298.903C353.926 298.555 353.366 297.089 352.448 296.176C350.89 294.572 348.858 293.547 346.636 293.245C345.157 293.067 343.637 293.25 342.194 293.779C340.751 294.307 339.424 295.169 338.316 296.295C337.304 297.372 336.524 298.657 336.034 300.055C335.543 301.453 335.355 302.928 335.483 304.372C335.651 306.172 337.349 311.305 339.798 310.989Z" fill="#113A8A" fill-opacity="0.9" shape-rendering="crispEdges"/>
</g>
<path d="M343.954 308.577C340.805 308.969 338.117 312.22 338.265 315.465C338.413 318.709 341.364 321.401 344.522 321.166C342.334 323.125 343.267 327.195 345.839 328.305C348.412 329.415 351.612 327.989 353.404 325.647C355.196 323.305 355.831 320.255 356.013 317.335C357.531 317.154 359.004 316.602 360.309 315.727C361.614 314.851 362.713 313.677 363.515 312.302C364.317 310.926 364.799 309.389 364.92 307.819C365.042 306.248 364.8 304.689 364.214 303.271C366.975 301.643 369.366 298.903 369.766 295.698C370.166 292.494 367.964 289.055 364.858 289.009C362.863 288.977 360.95 290.291 359.747 291.999C358.423 293.884 358.092 296.013 357.389 298.103C356.33 297.792 355.829 296.508 355.015 295.705C353.634 294.294 351.838 293.387 349.878 293.111C348.574 292.947 347.236 293.098 345.968 293.552C344.7 294.006 343.535 294.751 342.565 295.729C341.68 296.664 341 297.782 340.576 299.001C340.152 300.22 339.995 301.508 340.116 302.77C340.273 304.344 341.798 308.839 343.954 308.577Z" fill="#3F6FCB" fill-opacity="0.9"/>
<g filter="url(#filter2_d_1847_4)">
<path d="M24.8752 328.602C21.2967 329.074 18.2215 332.815 18.366 336.527C18.5105 340.239 21.8409 343.299 25.4276 343.006C22.9288 345.264 23.9584 349.916 26.8704 351.167C29.7824 352.419 33.4256 350.763 35.4768 348.07C37.528 345.377 38.2709 341.881 38.4989 338.538C40.2241 338.319 41.9002 337.677 43.3877 336.666C44.8753 335.654 46.1316 334.303 47.0521 332.722C47.9725 331.142 48.5307 329.38 48.6802 327.581C48.8297 325.783 48.5662 324 47.9116 322.381C51.0581 320.498 53.7926 317.345 54.27 313.674C54.7474 310.003 52.2732 306.084 48.7469 306.054C46.4824 306.032 44.3013 307.55 42.9238 309.513C41.4069 311.68 41.0159 314.119 40.2025 316.517C39.0024 316.168 38.4428 314.702 37.5245 313.789C35.967 312.185 33.9349 311.16 31.7125 310.858C30.2337 310.68 28.7138 310.863 27.2708 311.392C25.8278 311.921 24.5005 312.782 23.3922 313.908C22.3805 314.985 21.6006 316.27 21.1103 317.668C20.6201 319.066 20.432 320.541 20.5601 321.985C20.7275 323.785 22.4253 328.918 24.8752 328.602Z" fill="#113A8A" fill-opacity="0.9" shape-rendering="crispEdges"/>
</g>
<path d="M29.0309 326.19C25.881 326.582 23.1929 329.833 23.3412 333.077C23.4894 336.322 26.4406 339.014 29.5988 338.779C27.4101 340.737 28.3433 344.808 30.9158 345.918C33.4883 347.028 36.6884 345.601 38.4803 343.26C40.2722 340.918 40.9069 337.868 41.089 334.948C42.6076 334.767 44.0805 334.215 45.3854 333.34C46.6902 332.464 47.7893 331.29 48.5913 329.915C49.3933 328.539 49.8751 327.002 49.9967 325.432C50.1183 323.861 49.8761 322.302 49.2903 320.883C52.0516 319.256 54.4428 316.516 54.8427 313.311C55.2427 310.106 53.0409 306.668 49.9341 306.622C47.9391 306.59 46.0261 307.904 44.8236 309.612C43.4995 311.496 43.1688 313.625 42.4658 315.716C41.4065 315.405 40.9052 314.121 40.0911 313.318C38.71 311.907 36.914 311 34.9544 310.724C33.6507 310.56 32.3127 310.711 31.0444 311.165C29.7761 311.619 28.6117 312.364 27.6416 313.342C26.7564 314.277 26.0766 315.395 25.6526 316.614C25.2286 317.833 25.0712 319.121 25.1922 320.383C25.3498 321.957 26.8745 326.452 29.0309 326.19Z" fill="#3F6FCB" fill-opacity="0.9"/>
<path d="M160.044 71.4655C150.404 74.4175 141.812 80.0459 135.268 87.6866C133.254 84.6105 131.238 81.5352 129.225 78.459C134.911 69.7332 142.596 62.9744 151.313 58.8158C154.224 63.0311 157.133 67.2481 160.044 71.4655Z" fill="url(#paint8_linear_1847_4)"/>
<path d="M163.553 76.8208C153.917 79.7832 145.326 85.4141 138.783 93.0537C136.769 89.9785 134.754 86.903 132.74 83.827C139.289 76.1916 147.884 70.5678 157.524 67.6147C159.533 70.6849 161.543 73.7535 163.553 76.8208Z" fill="url(#paint9_linear_1847_4)"/>
<path d="M186.085 65.595C177.197 60.1665 167.35 57.3741 157.693 57.3729C156.881 62.4299 156.069 67.4893 155.257 72.5482C162.781 71.4281 170.422 71.9397 177.669 74.0114L179.211 78.2389L178.84 74.3619C180.795 74.9694 182.72 75.6898 184.602 76.5254C185.097 72.8817 185.592 69.2383 186.085 65.595Z" fill="url(#paint10_linear_1847_4)"/>
<path d="M154.396 78.8922C164.369 77.4175 174.545 78.8028 183.741 82.8825C184.234 79.2395 184.73 75.5962 185.223 71.9523C176.025 67.8797 165.847 66.5033 155.875 67.9871C155.381 71.6239 154.889 75.2586 154.396 78.8922Z" fill="url(#paint11_linear_1847_4)"/>
<path d="M190.517 81.3091C190.517 81.3091 197.902 86.0306 191.756 97.4215C191.756 97.4215 180.201 92.2147 185.464 82.9033L190.517 81.3091Z" fill="#97CEF2"/>
<path d="M189.666 81.365C189.666 81.365 195.086 85.6408 191.09 95.1522C191.09 95.1522 182.684 90.3228 186.12 82.5563L189.666 81.365Z" fill="#CEE5F1"/>
<path d="M188.786 81.2627C188.786 81.2627 191.953 83.7612 189.619 89.3197C189.619 89.3197 184.707 86.4973 186.715 81.959L188.786 81.2627Z" fill="#F8FAEE"/>
<path d="M182.981 82.8045L183.089 83.2817C183.149 83.5439 183.481 83.694 183.832 83.6142L186.254 83.0664L187.809 87.33L187.376 82.8127L191.98 81.7713C192.332 81.6918 192.567 81.4126 192.507 81.151C192.447 80.8876 192.399 80.6732 192.399 80.6732L182.981 82.8045Z" fill="url(#paint12_linear_1847_4)"/>
<path d="M180.21 76.7025C180.646 78.6256 181.198 80.4339 181.83 82.078C182.024 82.5799 182.62 82.8856 183.146 82.767L187.69 81.7384L192.233 80.7106C192.76 80.5921 193.166 80.0587 193.125 79.5225C192.988 77.767 192.708 75.8968 192.273 73.9735C190.33 65.3826 184.734 59.3275 182.723 59.7825C180.713 60.2373 178.267 68.1116 180.21 76.7025Z" fill="url(#paint13_linear_1847_4)"/>
<path d="M182.724 59.7822C181.681 60.0182 180.525 62.2486 179.921 65.5337L187.729 63.767C185.769 61.0622 183.765 59.5469 182.724 59.7822Z" fill="url(#paint14_linear_1847_4)"/>
<path opacity="0.3" d="M181.67 81.6357C181.723 81.7821 181.774 81.9343 181.83 82.0783C182.024 82.5802 182.621 82.8859 183.146 82.7673L187.691 81.7387L192.234 80.7109C192.761 80.5924 193.167 80.059 193.125 79.5228C192.988 77.7674 192.708 75.8971 192.274 73.9738C191.337 69.8322 189.551 66.2843 187.728 63.7676L184.925 64.4016C187.138 70.161 188.511 78.0395 181.67 81.6357Z" fill="url(#paint15_linear_1847_4)"/>
<path opacity="0.3" d="M182.807 59.773C183.442 60.9675 184.224 62.58 184.925 64.4018L187.728 63.7678C185.819 61.1327 183.868 59.629 182.807 59.773Z" fill="url(#paint16_linear_1847_4)"/>
<path opacity="0.6" d="M183.139 61.6356C183.218 61.9833 182.999 62.33 182.65 62.4085C182.301 62.4871 181.955 62.2698 181.875 61.9218C181.796 61.572 182.015 61.2257 182.364 61.1471C182.713 61.0677 183.06 61.2862 183.139 61.6356Z" fill="#F8FAEE"/>
<path opacity="0.6" d="M181.678 63.4522C181.724 63.6541 181.597 63.8557 181.395 63.9016C181.192 63.9477 180.991 63.8202 180.946 63.6183C180.9 63.4161 181.026 63.2142 181.229 63.1681C181.431 63.1218 181.632 63.25 181.678 63.4522Z" fill="#F8FAEE"/>
<path opacity="0.3" d="M192.498 81.1093C192.443 80.866 192.399 80.6736 192.399 80.6736L182.981 82.8039L183.08 83.2401L192.498 81.1093Z" fill="url(#paint17_linear_1847_4)"/>
<path d="M137.551 93.2921C137.551 93.2921 144.936 98.0137 138.791 109.405C138.791 109.405 127.235 104.198 132.498 94.8867L137.551 93.2921Z" fill="#97CEF2"/>
<path d="M136.701 93.3482C136.701 93.3482 142.121 97.6237 138.125 107.135C138.125 107.135 129.719 102.306 133.155 94.5392L136.701 93.3482Z" fill="#CEE5F1"/>
<path d="M135.821 93.2455C135.821 93.2455 138.988 95.744 136.654 101.303C136.654 101.303 131.742 98.4802 133.75 93.9419L135.821 93.2455Z" fill="#F8FAEE"/>
<path d="M130.015 94.7867L130.123 95.2636C130.182 95.5257 130.515 95.6754 130.865 95.5966L131.819 95.3809L132.852 98.2137L132.565 95.2122L139.014 93.7532C139.364 93.6739 139.6 93.395 139.541 93.1334C139.481 92.8703 139.433 92.6556 139.433 92.6556L130.015 94.7867Z" fill="url(#paint18_linear_1847_4)"/>
<path d="M127.245 88.6857C127.68 90.6085 128.233 92.4176 128.865 94.0607C129.059 94.5625 129.654 94.8681 130.181 94.7496L134.725 93.7216L139.27 92.6934C139.795 92.5747 140.202 92.0421 140.16 91.5055C140.023 89.75 139.743 87.8798 139.309 85.9565C137.365 77.3656 131.768 71.3113 129.758 71.7657C127.747 72.2207 125.301 80.094 127.245 88.6857Z" fill="url(#paint19_linear_1847_4)"/>
<path d="M129.906 76.8489L134.763 75.75C132.803 73.0451 130.799 71.53 129.758 71.7652C128.717 72.0009 127.56 74.2309 126.955 77.5162L128.777 77.1035L130.341 81.3925L129.906 76.8489Z" fill="url(#paint20_linear_1847_4)"/>
<path opacity="0.3" d="M128.705 93.6182C128.759 93.7649 128.809 93.9168 128.865 94.0605C129.059 94.5623 129.654 94.8679 130.181 94.7494L134.725 93.7214L139.27 92.6932C139.795 92.5746 140.202 92.0419 140.16 91.5053C140.023 89.7499 139.743 87.8796 139.309 85.9563C138.372 81.8147 136.585 78.267 134.763 75.7506L131.959 76.3847C134.173 82.1435 135.546 90.022 128.705 93.6182Z" fill="url(#paint21_linear_1847_4)"/>
<path opacity="0.3" d="M129.842 71.7556C130.477 72.9507 131.261 74.5633 131.96 76.385L134.763 75.751C132.855 73.1151 130.904 71.6111 129.842 71.7556Z" fill="url(#paint22_linear_1847_4)"/>
<path opacity="0.6" d="M130.173 73.6186C130.252 73.9672 130.033 74.3124 129.685 74.3913C129.336 74.4702 128.989 74.2526 128.911 73.9044C128.832 73.5549 129.051 73.2083 129.399 73.1294C129.748 73.0505 130.094 73.2691 130.173 73.6186Z" fill="#F8FAEE"/>
<path opacity="0.6" d="M128.713 75.4349C128.759 75.6368 128.631 75.838 128.429 75.8845C128.227 75.9304 128.025 75.8031 127.98 75.6012C127.934 75.399 128.061 75.1965 128.263 75.1509C128.466 75.1045 128.668 75.2321 128.713 75.4349Z" fill="#F8FAEE"/>
<path opacity="0.3" d="M139.532 93.0924C139.477 92.849 139.433 92.6558 139.433 92.6558L130.015 94.7865L130.114 95.2228L139.532 93.0924Z" fill="url(#paint23_linear_1847_4)"/>
<path d="M168.241 95.535C168.241 95.535 181.544 104.04 170.472 124.561C170.472 124.561 149.656 115.181 159.137 98.4075L168.241 95.535Z" fill="#97CEF2"/>
<path d="M166.708 95.6355C166.708 95.6355 176.47 103.337 169.271 120.473C169.271 120.473 154.128 111.773 160.319 97.7802L166.708 95.6355Z" fill="#CEE5F1"/>
<path d="M165.123 95.451C165.123 95.451 170.828 99.9517 166.622 109.965C166.622 109.965 157.773 104.882 161.39 96.7052L165.123 95.451Z" fill="#F8FAEE"/>
<path d="M173.203 97.6387L154.646 101.837C153.579 102.078 152.517 101.409 152.276 100.341L150.352 91.8359C150.11 90.7681 150.781 89.7071 151.848 89.466L170.405 85.2679C171.473 85.0263 172.534 85.6959 172.776 86.7631L174.701 95.2681C174.94 96.3368 174.27 97.3976 173.203 97.6387Z" fill="url(#paint24_linear_1847_4)"/>
<path opacity="0.5" d="M173.161 88.4725L172.498 85.5414C172.409 85.1491 171.472 85.0271 170.404 85.2687L151.847 89.4669C150.779 89.7079 149.985 90.2222 150.074 90.614L150.737 93.5451L173.161 88.4725Z" fill="url(#paint25_linear_1847_4)"/>
<path d="M167.513 83.802L167.512 83.797C167.401 83.3099 166.917 83.0041 166.43 83.1138C165.943 83.2239 165.637 83.709 165.748 84.1958L165.749 84.2011L146.146 88.6359L146.756 91.3344C146.836 91.6856 147.184 91.905 147.535 91.8261L159.766 89.0588L160.566 91.2549L160.344 88.9278L165.068 87.8589L165.947 91.7437C166.037 92.14 166.43 92.388 166.827 92.2989C167.223 92.2099 167.471 91.8156 167.382 91.4196L166.738 88.5772C166.629 88.0899 166.934 87.6062 167.421 87.4956C167.908 87.3849 168.393 87.6911 168.503 88.1775L169.157 91.0659C169.28 91.6094 169.821 91.9505 170.363 91.8276C170.907 91.7048 171.249 91.1647 171.126 90.6206L170.236 86.6898L175.312 85.5414C175.663 85.4623 175.883 85.1141 175.803 84.7625L175.193 82.0641L167.513 83.802Z" fill="url(#paint26_linear_1847_4)"/>
<path opacity="0.5" d="M175.473 83.3037L175.193 82.0645L146.146 88.6364L146.425 89.8752L175.473 83.3037Z" fill="url(#paint27_linear_1847_4)"/>
<path d="M145.596 16.5133L144.644 16.7293L142.478 7.15921L143.431 6.94364L145.596 16.5133Z" fill="url(#paint28_linear_1847_4)"/>
<path d="M144.052 6.49856C143.907 5.85568 143.269 5.45291 142.626 5.59852C141.985 5.74358 141.581 6.38198 141.727 7.02486C141.853 7.58088 142.348 7.95699 142.896 7.95356L143.538 9.71244L143.36 7.85657C143.878 7.63391 144.181 7.06801 144.052 6.49856Z" fill="url(#paint29_linear_1847_4)"/>
<path d="M145.855 88.7012L160.669 85.3493L175.802 81.926C176.327 81.807 176.719 81.2743 176.675 80.7369C171.94 24.3688 147.424 15.846 144.773 15.0868C142.713 16.9102 124.319 35.089 144.123 87.7724C144.376 88.4454 145.153 88.8601 145.855 88.7012Z" fill="url(#paint30_linear_1847_4)"/>
<path d="M174.687 65.1587L146.56 71.5224L146.833 74.3905L145.847 71.6841L139.325 73.1592C139.878 75.1465 140.492 77.1951 141.17 79.3048L149.203 77.4872L150.705 81.6062L150.287 77.242L175.668 71.4994C175.372 69.3032 175.044 67.1914 174.687 65.1587Z" fill="url(#paint31_linear_1847_4)"/>
<path d="M146.017 74.9273C146.282 76.1026 145.546 77.2722 144.369 77.5385C143.194 77.8045 142.024 77.0662 141.758 75.8909C141.492 74.7153 142.23 73.5449 143.406 73.2783C144.582 73.0126 145.751 73.7517 146.017 74.9273Z" fill="url(#paint32_linear_1847_4)"/>
<path opacity="0.6" d="M144.076 74.6017C144.169 75.0112 143.912 75.417 143.503 75.5094C143.094 75.6022 142.687 75.3458 142.595 74.9363C142.502 74.5274 142.758 74.1192 143.167 74.027C143.577 73.9349 143.984 74.1923 144.076 74.6017Z" fill="#F8FAEE"/>
<path d="M173.213 68.7756C173.479 69.9504 172.741 71.1204 171.566 71.3868C170.39 71.6529 169.22 70.914 168.954 69.7393C168.689 68.5631 169.427 67.3927 170.602 67.1272C171.777 66.8608 172.947 67.5991 173.213 68.7756Z" fill="url(#paint33_linear_1847_4)"/>
<path opacity="0.6" d="M171.272 68.4494C171.364 68.8588 171.108 69.265 170.698 69.3571C170.289 69.4498 169.883 69.1943 169.79 68.7848C169.697 68.3759 169.954 67.9687 170.362 67.8755C170.772 67.7826 171.179 68.0399 171.272 68.4494Z" fill="#F8FAEE"/>
<path d="M166.414 70.3134C166.68 71.4881 165.942 72.6591 164.766 72.9248C163.589 73.1905 162.421 72.4523 162.154 71.2772C161.888 70.1016 162.625 68.9314 163.802 68.6652C164.978 68.3986 166.148 69.1378 166.414 70.3134Z" fill="url(#paint34_linear_1847_4)"/>
<path opacity="0.6" d="M164.474 69.9878C164.566 70.3972 164.309 70.8027 163.899 70.8957C163.49 70.9881 163.084 70.7329 162.991 70.3234C162.899 69.9139 163.154 69.5066 163.564 69.4141C163.974 69.3206 164.381 69.5783 164.474 69.9878Z" fill="#F8FAEE"/>
<path d="M159.615 71.8515C159.881 73.0271 159.143 74.1966 157.967 74.4632C156.792 74.7292 155.622 73.9904 155.356 72.8151C155.09 71.6395 155.828 70.4687 157.004 70.203C158.18 69.9364 159.349 70.6753 159.615 71.8515Z" fill="url(#paint35_linear_1847_4)"/>
<path opacity="0.6" d="M157.674 71.5259C157.766 71.9349 157.51 72.3406 157.101 72.4334C156.692 72.5262 156.285 72.2698 156.193 71.8608C156.1 71.4514 156.356 71.0438 156.765 70.9516C157.174 70.8591 157.581 71.1165 157.674 71.5259Z" fill="#F8FAEE"/>
<path d="M152.817 73.3895C153.082 74.5642 152.344 75.7348 151.168 76.0008C149.993 76.2669 148.823 75.528 148.557 74.3533C148.291 73.1768 149.028 72.0069 150.204 71.7412C151.38 71.4752 152.551 72.2133 152.817 73.3895Z" fill="url(#paint36_linear_1847_4)"/>
<path opacity="0.6" d="M150.876 73.0633C150.968 73.4728 150.712 73.878 150.302 73.971C149.892 74.0635 149.486 73.8079 149.393 73.3984C149.301 72.989 149.557 72.5819 149.967 72.4889C150.376 72.3965 150.783 72.6544 150.876 73.0633Z" fill="#F8FAEE"/>
<path opacity="0.3" d="M144.123 87.7728C144.376 88.4452 145.153 88.8603 145.855 88.701L160.669 85.3491L175.802 81.9259C176.327 81.8069 176.719 81.2741 176.675 80.7367C174.237 51.7168 166.558 35.3827 159.317 26.2562L152.573 27.7818C161.779 46.3917 170.353 75.193 144.123 87.7728Z" fill="url(#paint37_linear_1847_4)"/>
<path opacity="0.6" d="M142.993 6.32103C143.043 6.54476 142.903 6.76626 142.68 6.81673C142.456 6.8676 142.234 6.72743 142.183 6.50371C142.133 6.27999 142.272 6.05815 142.498 6.00762C142.72 5.9568 142.942 6.09731 142.993 6.32103Z" fill="#F8FAEE"/>
<path d="M163.357 46.9219C162.114 41.429 156.654 37.9828 151.161 39.2256C145.667 40.4684 142.221 45.9292 143.464 51.4227C144.677 56.785 149.909 60.1951 155.267 59.2004L156.803 63.4128L156.374 58.9314C161.449 57.3963 164.546 52.1742 163.357 46.9219Z" fill="url(#paint38_linear_1847_4)"/>
<path d="M160.157 47.6454C161 51.3714 158.663 55.0752 154.938 55.9178C151.212 56.7607 147.508 54.4243 146.665 50.6974C145.822 46.9719 148.16 43.2691 151.886 42.4262C155.611 41.5836 159.315 43.9194 160.157 47.6454Z" fill="#97CEF2"/>
<path opacity="0.5" d="M156.688 44.5372C156.798 45.0266 156.491 45.5136 156.002 45.6246C155.512 45.7355 155.026 45.4281 154.915 44.9387C154.805 44.4493 155.11 43.9626 155.601 43.8518C156.09 43.7407 156.577 44.0483 156.688 44.5372Z" fill="#F8FAEE"/>
<path opacity="0.5" d="M153.432 43.794C153.435 44.3718 152.869 44.8548 152.258 45.0736C150.327 45.736 149.06 47.638 149.193 49.6744C149.225 50.3223 148.997 51.0307 148.464 51.2494C147.934 51.4714 147.177 50.8203 147.112 49.8054C146.919 46.8379 148.765 44.0666 151.579 43.1032C152.54 42.7727 153.433 43.2215 153.432 43.794Z" fill="#F8FAEE"/>
<path opacity="0.5" d="M149.823 56.9838C150.084 56.3301 148.889 55.2028 147.746 53.8141C147.046 52.9628 146.529 51.9371 146.269 50.7878C145.377 46.8429 147.851 42.9218 151.797 42.0293C152.455 41.8806 153.111 41.8257 153.755 41.8561C154.843 41.907 155.898 41.6795 156.158 41.0249C156.418 40.3694 155.462 39.3957 153.952 39.3126C153.06 39.2638 152.148 39.336 151.233 39.543C145.914 40.7461 142.579 46.0334 143.782 51.3501C144.235 53.3511 145.265 55.0696 146.657 56.3736C147.97 57.6012 149.563 57.6402 149.823 56.9838Z" fill="url(#paint39_linear_1847_4)"/>
<path opacity="0.5" d="M151.886 42.4264C148.16 43.2693 145.822 46.9721 146.665 50.6976C147.509 54.4239 151.212 56.7609 154.938 55.918C158.663 55.0754 161 51.3716 160.157 47.6456C159.315 43.9197 155.611 41.5838 151.886 42.4264ZM154.869 55.6152C151.316 56.4191 147.773 54.1824 146.969 50.6296C146.165 47.0776 148.402 43.5335 151.954 42.7301C155.507 41.9268 159.051 44.1624 159.855 47.7144C160.658 51.2668 158.422 54.8113 154.869 55.6152Z" fill="url(#paint40_linear_1847_4)"/>
<path d="M151.395 31.5976L151.063 28.1247L159.318 26.2572C152.493 17.6543 146.059 15.4564 144.774 15.0876C143.772 15.9742 138.912 20.7279 136.454 31.4299L140.112 30.6024L143.214 39.1127L142.351 30.0955L150.201 28.3196L151.395 31.5976Z" fill="url(#paint41_linear_1847_4)"/>
<path opacity="0.3" d="M145.587 15.3565C147.499 18.3797 150.059 22.7026 152.572 27.7829L159.317 26.2574C153.433 18.8398 147.838 16.1819 145.587 15.3565Z" fill="url(#paint42_linear_1847_4)"/>
<path opacity="0.6" d="M145.454 19.1595C145.619 19.8905 145.16 20.6165 144.431 20.7814C143.7 20.9467 142.974 20.4888 142.809 19.7578C142.644 19.0277 143.101 18.3016 143.832 18.1363C144.561 17.9714 145.288 18.4291 145.454 19.1595Z" fill="#F8FAEE"/>
<path opacity="0.6" d="M142.394 22.9661C142.49 23.3908 142.224 23.8113 141.8 23.9069C141.376 24.0026 140.955 23.7376 140.859 23.3129C140.763 22.8891 141.029 22.4677 141.452 22.3722C141.877 22.2764 142.298 22.5423 142.394 22.9661Z" fill="#F8FAEE"/>
<path d="M171.482 112.842C171.56 113.186 171.344 113.528 171.001 113.605C170.657 113.683 170.315 113.468 170.237 113.124L169.639 110.478C169.561 110.135 169.777 109.793 170.12 109.715C170.464 109.638 170.806 109.853 170.883 110.197L171.482 112.842Z" fill="#97CEF2"/>
<path d="M151.294 97.379C151.396 97.8317 151.112 98.2815 150.66 98.384C150.207 98.486 149.757 98.2021 149.655 97.7494L149.136 95.4558C149.034 95.004 149.318 94.5542 149.77 94.4522C150.222 94.3499 150.672 94.6333 150.774 95.0851L151.294 97.379Z" fill="#97CEF2"/>
<path d="M197.685 88.3184C197.849 89.0416 197.395 89.7605 196.671 89.9251C195.948 90.0888 195.228 89.6347 195.065 88.9113L194.546 86.6177C194.382 85.8948 194.836 85.1747 195.56 85.0109C196.284 84.8481 197.003 85.3019 197.166 86.0248L197.685 88.3184Z" fill="#97CEF2"/>
<path d="M203.791 93.9968C203.894 94.4486 203.61 94.8987 203.158 95.0013C202.705 95.1032 202.256 94.8197 202.153 94.3676L201.709 92.4019C201.607 91.9495 201.89 91.4999 202.342 91.3971C202.795 91.2945 203.244 91.579 203.346 92.0308L203.791 93.9968Z" fill="#97CEF2"/>
<path d="M156.907 84.6454C156.671 84.6994 156.435 84.5503 156.381 84.3141L155.765 81.5902C155.712 81.3534 155.86 81.1179 156.097 81.0643C156.334 81.0106 156.57 81.1589 156.624 81.396L157.24 84.1199C157.293 84.3572 157.144 84.5923 156.907 84.6454Z" fill="url(#paint43_linear_1847_4)"/>
<path opacity="0.3" d="M189.831 82.3681C189.506 82.4418 189.182 82.238 189.108 81.9123L186.9 72.1529C186.826 71.8269 187.031 71.5033 187.356 71.429C187.682 71.3557 188.006 71.5595 188.08 71.8856L190.288 81.6449C190.362 81.9716 190.157 82.2948 189.831 82.3681Z" fill="url(#paint44_linear_1847_4)"/>
<path d="M184.078 76.881C183.593 76.991 183.11 76.6859 183 76.2009L182.252 72.8927C182.143 72.4072 182.447 71.9257 182.932 71.8155C183.418 71.7061 183.9 72.0097 184.009 72.4946L184.758 75.8032C184.867 76.2883 184.563 76.7707 184.078 76.881Z" fill="url(#paint45_linear_1847_4)"/>
<path d="M162.046 92.646C161.901 92.6786 161.758 92.5883 161.725 92.4446L161.42 91.0922C161.388 90.9477 161.478 90.8054 161.622 90.7721C161.766 90.7391 161.909 90.8298 161.942 90.9744L162.248 92.3262C162.28 92.4708 162.19 92.614 162.046 92.646Z" fill="url(#paint46_linear_1847_4)"/>
<path d="M139.154 91.4167C138.735 91.5116 138.319 91.2493 138.224 90.8306L137.745 88.7138C137.65 88.2952 137.914 87.8791 138.331 87.7843C138.75 87.6894 139.166 87.952 139.261 88.3712L139.74 90.4881C139.835 90.9058 139.572 91.3223 139.154 91.4167Z" fill="url(#paint47_linear_1847_4)"/>
<path d="M141.951 52.5137C141.643 52.5831 141.338 52.3902 141.269 52.0833L139.032 42.1992C138.963 41.8913 139.156 41.5858 139.463 41.5161C139.77 41.4464 140.077 41.6396 140.146 41.9465L142.382 51.8307C142.451 52.1385 142.258 52.444 141.951 52.5137Z" fill="url(#paint48_linear_1847_4)"/>
<path d="M142.764 95.1227C142.393 95.2065 142.024 94.9742 141.941 94.6033L141.573 92.9781C141.489 92.6072 141.722 92.2379 142.093 92.1549C142.464 92.0711 142.833 92.3034 142.917 92.6743L143.284 94.299C143.368 94.6704 143.135 95.0388 142.764 95.1227Z" fill="#F8FAEE"/>
<path d="M200.093 76.1265C199.677 76.2208 199.265 75.9601 199.17 75.5446L198.298 71.6894C198.204 71.2737 198.465 70.8615 198.88 70.7673C199.295 70.6732 199.708 70.9334 199.802 71.3494L200.674 75.2047C200.768 75.6197 200.508 76.0329 200.093 76.1265Z" fill="url(#paint49_linear_1847_4)"/>
<path d="M178.753 118.8C178.831 119.144 178.615 119.486 178.271 119.563C177.928 119.641 177.586 119.426 177.508 119.082L176.909 116.436C176.831 116.092 177.047 115.751 177.391 115.673C177.735 115.596 178.077 115.811 178.155 116.154L178.753 118.8Z" fill="#CEE5F1"/>
<path d="M197.548 56.491C197.626 56.835 197.41 57.1766 197.066 57.2536L197.066 57.2545C196.723 57.3318 196.381 57.1166 196.303 56.7726L195.704 54.1269C195.626 53.7829 195.841 53.4415 196.186 53.364C196.53 53.2861 196.871 53.5019 196.949 53.8456L197.548 56.491Z" fill="url(#paint50_linear_1847_4)"/>
<path d="M135.441 70.7436C135.519 71.0876 135.303 71.4293 134.959 71.5066C134.616 71.5839 134.274 71.3696 134.196 71.025L133.598 68.3794C133.52 68.0363 133.736 67.6937 134.079 67.6164C134.422 67.5387 134.765 67.7543 134.842 68.098L135.441 70.7436Z" fill="url(#paint51_linear_1847_4)"/>
<path d="M146.013 100.118C146.095 100.48 145.868 100.84 145.506 100.922C145.144 101.004 144.784 100.777 144.703 100.416C144.62 100.053 144.848 99.6936 145.21 99.6117C145.571 99.529 145.931 99.7563 146.013 100.118Z" fill="#CEE5F1"/>
<path d="M185.159 109.06C185.282 109.602 184.942 110.142 184.399 110.265C183.856 110.388 183.316 110.047 183.194 109.504C183.071 108.961 183.411 108.422 183.954 108.299C184.497 108.176 185.037 108.516 185.159 109.06Z" fill="#CEE5F1"/>
<path d="M172.71 81.5845C172.788 81.9285 172.572 82.2702 172.228 82.3475C171.885 82.4252 171.543 82.2095 171.465 81.8655L170.866 79.2199C170.789 78.8768 171.004 78.5343 171.348 78.4569C171.692 78.3791 172.033 78.5949 172.111 78.9385L172.71 81.5845Z" fill="url(#paint52_linear_1847_4)"/>
<path d="M183.72 41.8135C183.412 41.8832 183.107 41.6904 183.037 41.3831L180.801 31.4984C180.732 31.1911 180.924 30.8856 181.232 30.8159C181.54 30.7465 181.845 30.9394 181.915 31.2466L184.151 41.1308C184.221 41.4381 184.028 41.7442 183.72 41.8135Z" fill="url(#paint53_linear_1847_4)"/>
<path d="M138.583 55.5565C138.66 55.9001 138.445 56.2421 138.101 56.32C137.757 56.3979 137.416 56.1824 137.338 55.8384L136.74 53.1927C136.661 52.8493 136.877 52.5076 137.221 52.4298C137.565 52.3519 137.907 52.5677 137.984 52.9114L138.583 55.5565Z" fill="url(#paint54_linear_1847_4)"/>
<path d="M185.677 44.3725C185.779 44.8252 185.495 45.2746 185.043 45.376C184.591 45.4789 184.141 45.195 184.039 44.7426C183.937 44.2903 184.22 43.8407 184.673 43.7382C185.124 43.6364 185.574 43.9198 185.677 44.3725Z" fill="url(#paint55_linear_1847_4)"/>
<path d="M166.282 92.3992L165.821 87.575L165.222 87.7105L164.623 87.846L166.282 92.3992Z" fill="url(#paint56_linear_1847_4)"/>
<path d="M193.073 54.8216C193.124 55.048 192.982 55.2722 192.756 55.3239C192.53 55.3751 192.305 55.2338 192.254 55.007C192.203 54.7815 192.345 54.5562 192.571 54.5051C192.797 54.4538 193.022 54.5961 193.073 54.8216Z" fill="url(#paint57_linear_1847_4)"/>
<path d="M181.831 90.3027C181.615 90.3513 181.4 90.2159 181.351 89.9997L180.892 87.9715C180.844 87.7554 180.979 87.5402 181.195 87.4911C181.412 87.4426 181.626 87.5776 181.676 87.7945L182.135 89.8223C182.183 90.0394 182.047 90.2542 181.831 90.3027Z" fill="url(#paint58_linear_1847_4)"/>
<path d="M188.618 89.1857C188.293 89.259 187.969 89.0552 187.895 88.7295L185.688 78.9696C185.614 78.6444 185.818 78.3199 186.144 78.2466C186.469 78.1723 186.793 78.377 186.867 78.7028L189.075 88.463C189.148 88.7888 188.944 89.1118 188.618 89.1857Z" fill="url(#paint59_linear_1847_4)"/>
<path d="M160.185 84.2549C159.982 84.3015 159.779 84.1732 159.733 83.9705L158.354 77.8703C158.307 77.6669 158.435 77.4643 158.639 77.4183C158.842 77.3722 159.044 77.5002 159.091 77.7036L160.471 83.8038C160.517 84.0068 160.389 84.2086 160.185 84.2549Z" fill="url(#paint60_linear_1847_4)"/>
<path d="M148.936 105.447C148.985 105.661 148.851 105.874 148.636 105.922C148.422 105.971 148.209 105.836 148.16 105.622L147.949 104.69C147.901 104.476 148.036 104.263 148.25 104.215C148.464 104.166 148.677 104.301 148.725 104.515L148.936 105.447Z" fill="#CEE5F1"/>
<path d="M149.463 120.833C149.545 121.195 149.318 121.554 148.957 121.636C148.595 121.718 148.235 121.491 148.153 121.13L146.004 111.629C145.922 111.267 146.149 110.907 146.511 110.825C146.873 110.743 147.233 110.971 147.314 111.333L149.463 120.833Z" fill="#97CEF2"/>
<path d="M199.524 112.262C199.606 112.624 199.379 112.983 199.017 113.065C198.656 113.147 198.296 112.92 198.214 112.558L196.065 103.057C195.983 102.695 196.209 102.335 196.572 102.254C196.934 102.173 197.293 102.4 197.375 102.761L199.524 112.262Z" fill="#97CEF2"/>
<path d="M160.13 128.407C160.213 128.769 159.985 129.128 159.623 129.21C159.261 129.292 158.902 129.065 158.82 128.703L157.857 124.444C157.775 124.082 158.002 123.723 158.364 123.641C158.726 123.559 159.085 123.786 159.167 124.147L160.13 128.407Z" fill="#97CEF2"/>
<path d="M210.173 124.316C210.255 124.679 210.027 125.039 209.666 125.12C209.304 125.203 208.944 124.975 208.862 124.613L206.713 115.113C206.63 114.751 206.858 114.391 207.22 114.31C207.582 114.227 207.942 114.454 208.023 114.817L210.173 124.316Z" fill="#97CEF2"/>
<path d="M161.593 137.916C161.671 138.26 161.455 138.602 161.112 138.679C160.768 138.756 160.427 138.541 160.349 138.197L159.75 135.552C159.672 135.208 159.888 134.867 160.232 134.789C160.576 134.711 160.917 134.927 160.995 135.27L161.593 137.916Z" fill="#F8FAEE"/>
<path d="M198.395 122.395C198.473 122.739 198.257 123.081 197.913 123.158C197.57 123.235 197.228 123.02 197.15 122.676L196.552 120.031C196.474 119.687 196.689 119.346 197.034 119.268C197.377 119.19 197.719 119.405 197.797 119.749L198.395 122.395Z" fill="#F8FAEE"/>
<defs>
<filter id="filter0_d_1847_4" x="239.174" y="593.528" width="55.9678" height="75.5381" filterUnits="userSpaceOnUse" color-interpolation-filters="sRGB">
<feFlood flood-opacity="0" result="BackgroundImageFix"/>
<feColorMatrix in="SourceAlpha" type="matrix" values="0 0 0 0 0 0 0 0 0 0 0 0 0 0 0 0 0 0 127 0" result="hardAlpha"/>
<feOffset dy="20"/>
<feGaussianBlur stdDeviation="5"/>
<feComposite in2="hardAlpha" operator="out"/>
<feColorMatrix type="matrix" values="0 0 0 0 0 0 0 0 0 0 0 0 0 0 0 0 0 0 0.2 0"/>
<feBlend mode="normal" in2="BackgroundImageFix" result="effect1_dropShadow_1847_4"/>
<feBlend mode="normal" in="SourceGraphic" in2="effect1_dropShadow_1847_4" result="shape"/>
</filter>
<filter id="filter1_d_1847_4" x="323.284" y="288.441" width="55.9678" height="75.5381" filterUnits="userSpaceOnUse" color-interpolation-filters="sRGB">
<feFlood flood-opacity="0" result="BackgroundImageFix"/>
<feColorMatrix in="SourceAlpha" type="matrix" values="0 0 0 0 0 0 0 0 0 0 0 0 0 0 0 0 0 0 127 0" result="hardAlpha"/>
<feOffset dy="20"/>
<feGaussianBlur stdDeviation="5"/>
<feComposite in2="hardAlpha" operator="out"/>
<feColorMatrix type="matrix" values="0 0 0 0 0 0 0 0 0 0 0 0 0 0 0 0 0 0 0.2 0"/>
<feBlend mode="normal" in2="BackgroundImageFix" result="effect1_dropShadow_1847_4"/>
<feBlend mode="normal" in="SourceGraphic" in2="effect1_dropShadow_1847_4" result="shape"/>
</filter>
<filter id="filter2_d_1847_4" x="8.36108" y="306.054" width="55.9678" height="75.5381" filterUnits="userSpaceOnUse" color-interpolation-filters="sRGB">
<feFlood flood-opacity="0" result="BackgroundImageFix"/>
<feColorMatrix in="SourceAlpha" type="matrix" values="0 0 0 0 0 0 0 0 0 0 0 0 0 0 0 0 0 0 127 0" result="hardAlpha"/>
<feOffset dy="20"/>
<feGaussianBlur stdDeviation="5"/>
<feComposite in2="hardAlpha" operator="out"/>
<feColorMatrix type="matrix" values="0 0 0 0 0 0 0 0 0 0 0 0 0 0 0 0 0 0 0.2 0"/>
<feBlend mode="normal" in2="BackgroundImageFix" result="effect1_dropShadow_1847_4"/>
<feBlend mode="normal" in="SourceGraphic" in2="effect1_dropShadow_1847_4" result="shape"/>
</filter>
<linearGradient id="paint0_linear_1847_4" x1="66.6214" y1="348.815" x2="94.7425" y2="364.229" gradientUnits="userSpaceOnUse">
<stop stop-color="#FAFF00"/>
<stop offset="1" stop-color="#FE19C1"/>
</linearGradient>
<linearGradient id="paint1_linear_1847_4" x1="59.0222" y1="344.383" x2="102.3" y2="368.105" gradientUnits="userSpaceOnUse">
<stop stop-color="#FAFF00"/>
<stop offset="1" stop-color="#FE19C1"/>
</linearGradient>
<linearGradient id="paint2_linear_1847_4" x1="272.796" y1="266.214" x2="316.074" y2="289.936" gradientUnits="userSpaceOnUse">
<stop stop-color="#FAFF00"/>
<stop offset="1" stop-color="#FE19C1"/>
</linearGradient>
<linearGradient id="paint3_linear_1847_4" x1="108.168" y1="521.25" x2="143.511" y2="486.572" gradientUnits="userSpaceOnUse">
<stop stop-color="#FAFF00"/>
<stop offset="1" stop-color="#FE19C1"/>
</linearGradient>
<linearGradient id="paint4_linear_1847_4" x1="175.079" y1="675.829" x2="224.143" y2="681.192" gradientUnits="userSpaceOnUse">
<stop stop-color="#FAFF00"/>
<stop offset="1" stop-color="#FE19C1"/>
</linearGradient>
<linearGradient id="paint5_linear_1847_4" x1="280.145" y1="270.353" x2="308.272" y2="285.77" gradientUnits="userSpaceOnUse">
<stop stop-color="#FAFF00"/>
<stop offset="1" stop-color="#FE19C1"/>
</linearGradient>
<linearGradient id="paint6_linear_1847_4" x1="185.528" y1="670.795" x2="213.661" y2="686.216" gradientUnits="userSpaceOnUse">
<stop stop-color="#FAFF00"/>
<stop offset="1" stop-color="#FE19C1"/>
</linearGradient>
<linearGradient id="paint7_linear_1847_4" x1="111.822" y1="496.286" x2="139.955" y2="511.706" gradientUnits="userSpaceOnUse">
<stop stop-color="#FAFF00"/>
<stop offset="1" stop-color="#FE19C1"/>
</linearGradient>
<linearGradient id="paint8_linear_1847_4" x1="148.955" y1="94.0522" x2="141.88" y2="62.7923" gradientUnits="userSpaceOnUse">
<stop stop-color="#2828E8"/>
<stop offset="1" stop-color="#BE81E4"/>
</linearGradient>
<linearGradient id="paint9_linear_1847_4" x1="148.23" y1="80.6956" x2="142.695" y2="56.2371" gradientUnits="userSpaceOnUse">
<stop stop-color="#442990"/>
<stop offset="1" stop-color="#BE81E4"/>
</linearGradient>
<linearGradient id="paint10_linear_1847_4" x1="174.992" y1="88.1637" x2="167.917" y2="56.9006" gradientUnits="userSpaceOnUse">
<stop stop-color="#2828E8"/>
<stop offset="1" stop-color="#BE81E4"/>
</linearGradient>
<linearGradient id="paint11_linear_1847_4" x1="169.894" y1="75.7944" x2="164.357" y2="51.3315" gradientUnits="userSpaceOnUse">
<stop stop-color="#442990"/>
<stop offset="1" stop-color="#BE81E4"/>
</linearGradient>
<linearGradient id="paint12_linear_1847_4" x1="190.066" y1="92.2361" x2="186.526" y2="76.5962" gradientUnits="userSpaceOnUse">
<stop stop-color="#442990"/>
<stop offset="1" stop-color="#BE81E4"/>
</linearGradient>
<linearGradient id="paint13_linear_1847_4" x1="187.2" y1="79.5696" x2="169.27" y2="0.34132" gradientUnits="userSpaceOnUse">
<stop stop-color="#ECBFF2"/>
<stop offset="1" stop-color="#BE81E4"/>
</linearGradient>
<linearGradient id="paint14_linear_1847_4" x1="189.272" y1="88.7223" x2="180.19" y2="48.5891" gradientUnits="userSpaceOnUse">
<stop stop-color="#2828E8"/>
<stop offset="1" stop-color="#BE81E4"/>
</linearGradient>
<linearGradient id="paint15_linear_1847_4" x1="194.069" y1="71.3139" x2="184.638" y2="73.4482" gradientUnits="userSpaceOnUse">
<stop stop-color="#2828E8"/>
<stop offset="1" stop-color="#BE81E4"/>
</linearGradient>
<linearGradient id="paint16_linear_1847_4" x1="191.587" y1="60.3403" x2="182.156" y2="62.4746" gradientUnits="userSpaceOnUse">
<stop stop-color="#2828E8"/>
<stop offset="1" stop-color="#BE81E4"/>
</linearGradient>
<linearGradient id="paint17_linear_1847_4" x1="187.669" y1="81.6434" x2="185.655" y2="72.7452" gradientUnits="userSpaceOnUse">
<stop stop-color="#2828E8"/>
<stop offset="1" stop-color="#BE81E4"/>
</linearGradient>
<linearGradient id="paint18_linear_1847_4" x1="137.1" y1="104.218" x2="133.561" y2="88.579" gradientUnits="userSpaceOnUse">
<stop stop-color="#442990"/>
<stop offset="1" stop-color="#BE81E4"/>
</linearGradient>
<linearGradient id="paint19_linear_1847_4" x1="134.234" y1="91.5522" x2="116.304" y2="12.3249" gradientUnits="userSpaceOnUse">
<stop stop-color="#ECBFF2"/>
<stop offset="1" stop-color="#BE81E4"/>
</linearGradient>
<linearGradient id="paint20_linear_1847_4" x1="136.306" y1="100.702" x2="127.224" y2="60.5736" gradientUnits="userSpaceOnUse">
<stop stop-color="#2828E8"/>
<stop offset="1" stop-color="#BE81E4"/>
</linearGradient>
<linearGradient id="paint21_linear_1847_4" x1="136.853" y1="84.2584" x2="131.158" y2="85.5472" gradientUnits="userSpaceOnUse">
<stop stop-color="#2828E8"/>
<stop offset="1" stop-color="#BE81E4"/>
</linearGradient>
<linearGradient id="paint22_linear_1847_4" x1="134.371" y1="73.2848" x2="128.677" y2="74.5734" gradientUnits="userSpaceOnUse">
<stop stop-color="#2828E8"/>
<stop offset="1" stop-color="#BE81E4"/>
</linearGradient>
<linearGradient id="paint23_linear_1847_4" x1="134.703" y1="93.626" x2="132.687" y2="84.7191" gradientUnits="userSpaceOnUse">
<stop stop-color="#2828E8"/>
<stop offset="1" stop-color="#BE81E4"/>
</linearGradient>
<linearGradient id="paint24_linear_1847_4" x1="161.201" y1="87.7006" x2="164.018" y2="100.15" gradientUnits="userSpaceOnUse">
<stop stop-color="#442990"/>
<stop offset="1" stop-color="#BE81E4"/>
</linearGradient>
<linearGradient id="paint25_linear_1847_4" x1="162.944" y1="95.4018" x2="164.984" y2="104.415" gradientUnits="userSpaceOnUse">
<stop stop-color="#442990"/>
<stop offset="1" stop-color="#BE81E4"/>
</linearGradient>
<linearGradient id="paint26_linear_1847_4" x1="160.222" y1="83.3774" x2="164.847" y2="103.811" gradientUnits="userSpaceOnUse">
<stop stop-color="#442990"/>
<stop offset="1" stop-color="#BE81E4"/>
</linearGradient>
<linearGradient id="paint27_linear_1847_4" x1="161.508" y1="89.0595" x2="162.334" y2="92.7089" gradientUnits="userSpaceOnUse">
<stop stop-color="#442990"/>
<stop offset="1" stop-color="#BE81E4"/>
</linearGradient>
<linearGradient id="paint28_linear_1847_4" x1="145.565" y1="18.5866" x2="141.524" y2="0.731492" gradientUnits="userSpaceOnUse">
<stop stop-color="#2828E8"/>
<stop offset="1" stop-color="#BE81E4"/>
</linearGradient>
<linearGradient id="paint29_linear_1847_4" x1="160.722" y1="85.5574" x2="142.792" y2="6.33243" gradientUnits="userSpaceOnUse">
<stop stop-color="#ECBFF2"/>
<stop offset="1" stop-color="#BE81E4"/>
</linearGradient>
<linearGradient id="paint30_linear_1847_4" x1="148.869" y1="33.2041" x2="161.914" y2="90.8459" gradientUnits="userSpaceOnUse">
<stop stop-color="#ECBFF2"/>
<stop offset="1" stop-color="#BE81E4"/>
</linearGradient>
<linearGradient id="paint31_linear_1847_4" x1="161.677" y1="89.7973" x2="154.963" y2="60.1298" gradientUnits="userSpaceOnUse">
<stop stop-color="#2828E8"/>
<stop offset="1" stop-color="#BE81E4"/>
</linearGradient>
<linearGradient id="paint32_linear_1847_4" x1="141.758" y1="75.8907" x2="146.017" y2="74.9269" gradientUnits="userSpaceOnUse">
<stop stop-color="#ECBFF2"/>
<stop offset="1" stop-color="#BE81E4"/>
</linearGradient>
<linearGradient id="paint33_linear_1847_4" x1="168.954" y1="69.7385" x2="173.213" y2="68.7746" gradientUnits="userSpaceOnUse">
<stop stop-color="#ECBFF2"/>
<stop offset="1" stop-color="#BE81E4"/>
</linearGradient>
<linearGradient id="paint34_linear_1847_4" x1="162.155" y1="71.2766" x2="166.414" y2="70.3127" gradientUnits="userSpaceOnUse">
<stop stop-color="#ECBFF2"/>
<stop offset="1" stop-color="#BE81E4"/>
</linearGradient>
<linearGradient id="paint35_linear_1847_4" x1="155.356" y1="72.8145" x2="159.615" y2="71.8507" gradientUnits="userSpaceOnUse">
<stop stop-color="#ECBFF2"/>
<stop offset="1" stop-color="#BE81E4"/>
</linearGradient>
<linearGradient id="paint36_linear_1847_4" x1="148.557" y1="74.3529" x2="152.817" y2="73.3889" gradientUnits="userSpaceOnUse">
<stop stop-color="#ECBFF2"/>
<stop offset="1" stop-color="#BE81E4"/>
</linearGradient>
<linearGradient id="paint37_linear_1847_4" x1="187.203" y1="49.646" x2="144.894" y2="59.2208" gradientUnits="userSpaceOnUse">
<stop stop-color="#2828E8"/>
<stop offset="1" stop-color="#BE81E4"/>
</linearGradient>
<linearGradient id="paint38_linear_1847_4" x1="157.425" y1="66.9077" x2="149.75" y2="32.9956" gradientUnits="userSpaceOnUse">
<stop stop-color="#442990"/>
<stop offset="1" stop-color="#BE81E4"/>
</linearGradient>
<linearGradient id="paint39_linear_1847_4" x1="143.474" y1="49.9925" x2="157.576" y2="46.801" gradientUnits="userSpaceOnUse">
<stop stop-color="#ECBFF2"/>
<stop offset="1" stop-color="#BE81E4"/>
</linearGradient>
<linearGradient id="paint40_linear_1847_4" x1="150.333" y1="35.57" x2="160.144" y2="78.9213" gradientUnits="userSpaceOnUse">
<stop stop-color="#442990"/>
<stop offset="1" stop-color="#BE81E4"/>
</linearGradient>
<linearGradient id="paint41_linear_1847_4" x1="150.411" y1="40.0005" x2="144.088" y2="12.0608" gradientUnits="userSpaceOnUse">
<stop stop-color="#2828E8"/>
<stop offset="1" stop-color="#BE81E4"/>
</linearGradient>
<linearGradient id="paint42_linear_1847_4" x1="157.15" y1="19.7436" x2="139.026" y2="23.8453" gradientUnits="userSpaceOnUse">
<stop stop-color="#2828E8"/>
<stop offset="1" stop-color="#BE81E4"/>
</linearGradient>
<linearGradient id="paint43_linear_1847_4" x1="155.519" y1="78.5115" x2="158.901" y2="93.457" gradientUnits="userSpaceOnUse">
<stop stop-color="#442990"/>
<stop offset="1" stop-color="#BE81E4"/>
</linearGradient>
<linearGradient id="paint44_linear_1847_4" x1="191.516" y1="89.8103" x2="188.454" y2="76.2804" gradientUnits="userSpaceOnUse">
<stop stop-color="#2828E8"/>
<stop offset="1" stop-color="#BE81E4"/>
</linearGradient>
<linearGradient id="paint45_linear_1847_4" x1="186.967" y1="89.6461" x2="181.349" y2="64.823" gradientUnits="userSpaceOnUse">
<stop stop-color="#ECBFF2"/>
<stop offset="1" stop-color="#BE81E4"/>
</linearGradient>
<linearGradient id="paint46_linear_1847_4" x1="161.946" y1="92.2068" x2="163.392" y2="98.595" gradientUnits="userSpaceOnUse">
<stop stop-color="#442990"/>
<stop offset="1" stop-color="#BE81E4"/>
</linearGradient>
<linearGradient id="paint47_linear_1847_4" x1="136.687" y1="80.5187" x2="118.759" y2="1.29723" gradientUnits="userSpaceOnUse">
<stop stop-color="#ECBFF2"/>
<stop offset="1" stop-color="#BE81E4"/>
</linearGradient>
<linearGradient id="paint48_linear_1847_4" x1="147.725" y1="78.0248" x2="129.795" y2="-1.20249" gradientUnits="userSpaceOnUse">
<stop stop-color="#ECBFF2"/>
<stop offset="1" stop-color="#BE81E4"/>
</linearGradient>
<linearGradient id="paint49_linear_1847_4" x1="197.951" y1="66.6609" x2="180.019" y2="-12.5714" gradientUnits="userSpaceOnUse">
<stop stop-color="#ECBFF2"/>
<stop offset="1" stop-color="#BE81E4"/>
</linearGradient>
<linearGradient id="paint50_linear_1847_4" x1="200.806" y1="66.5799" x2="195.506" y2="52.2869" gradientUnits="userSpaceOnUse">
<stop stop-color="#2828E8"/>
<stop offset="1" stop-color="#BE81E4"/>
</linearGradient>
<linearGradient id="paint51_linear_1847_4" x1="141.559" y1="88.5465" x2="136.259" y2="74.2521" gradientUnits="userSpaceOnUse">
<stop stop-color="#2828E8"/>
<stop offset="1" stop-color="#BE81E4"/>
</linearGradient>
<linearGradient id="paint52_linear_1847_4" x1="171.997" y1="81.3254" x2="174.184" y2="90.9893" gradientUnits="userSpaceOnUse">
<stop stop-color="#442990"/>
<stop offset="1" stop-color="#BE81E4"/>
</linearGradient>
<linearGradient id="paint53_linear_1847_4" x1="189.763" y1="68.514" x2="171.833" y2="-10.7138" gradientUnits="userSpaceOnUse">
<stop stop-color="#ECBFF2"/>
<stop offset="1" stop-color="#BE81E4"/>
</linearGradient>
<linearGradient id="paint54_linear_1847_4" x1="143.243" y1="79.0396" x2="125.312" y2="-0.191057" gradientUnits="userSpaceOnUse">
<stop stop-color="#ECBFF2"/>
<stop offset="1" stop-color="#BE81E4"/>
</linearGradient>
<linearGradient id="paint55_linear_1847_4" x1="190.253" y1="68.3967" x2="172.328" y2="-10.8105" gradientUnits="userSpaceOnUse">
<stop stop-color="#ECBFF2"/>
<stop offset="1" stop-color="#BE81E4"/>
</linearGradient>
<linearGradient id="paint56_linear_1847_4" x1="162.769" y1="76.871" x2="165.586" y2="89.3189" gradientUnits="userSpaceOnUse">
<stop stop-color="#442990"/>
<stop offset="1" stop-color="#BE81E4"/>
</linearGradient>
<linearGradient id="paint57_linear_1847_4" x1="189.292" y1="40.0183" x2="178.543" y2="-7.48069" gradientUnits="userSpaceOnUse">
<stop stop-color="#2828E8"/>
<stop offset="1" stop-color="#BE81E4"/>
</linearGradient>
<linearGradient id="paint58_linear_1847_4" x1="180.235" y1="83.2488" x2="181.977" y2="90.9466" gradientUnits="userSpaceOnUse">
<stop stop-color="#442990"/>
<stop offset="1" stop-color="#BE81E4"/>
</linearGradient>
<linearGradient id="paint59_linear_1847_4" x1="188.637" y1="89.2674" x2="183.02" y2="64.4455" gradientUnits="userSpaceOnUse">
<stop stop-color="#ECBFF2"/>
<stop offset="1" stop-color="#BE81E4"/>
</linearGradient>
<linearGradient id="paint60_linear_1847_4" x1="158.237" y1="75.6459" x2="140.308" y2="-3.58064" gradientUnits="userSpaceOnUse">
<stop stop-color="#ECBFF2"/>
<stop offset="1" stop-color="#BE81E4"/>
</linearGradient>
</defs>
</svg>
