<svg width="22" height="22" viewBox="0 0 22 22" fill="none" xmlns="http://www.w3.org/2000/svg">
<path d="M10.3734 8.43863C10.4469 8.30603 10.5992 8.23775 10.747 8.27161L11.4969 8.44276C11.6088 8.17566 11.6974 7.90045 11.7611 7.62154C11.8247 7.34263 11.8643 7.05624 11.8794 6.76698L11.1291 6.59575C10.982 6.56219 10.8733 6.43603 10.865 6.28547C10.8403 5.83185 10.7398 5.39013 10.5662 4.97261C10.5083 4.83334 10.5515 4.67251 10.6695 4.57845L11.2705 4.09918C11.1315 3.84515 10.9715 3.60431 10.7931 3.38061C10.6453 3.19533 10.4833 3.01976 10.3089 2.8558C10.2469 2.79749 10.1516 2.79297 10.085 2.84604L9.59661 3.23551C9.47866 3.32957 9.3122 3.33593 9.18931 3.24844C8.81961 2.98513 8.4117 2.78846 7.97703 2.6639C7.83206 2.62235 7.73327 2.48828 7.73327 2.33746V1.71343C7.73327 1.62831 7.67032 1.55664 7.58606 1.54452C7.11255 1.47637 6.63529 1.47637 6.16161 1.54452C6.07734 1.55664 6.01439 1.62831 6.01439 1.71343V2.33742C6.01439 2.48824 5.91561 2.6223 5.77063 2.66385C5.336 2.78842 4.9281 2.98509 4.55836 3.2484C4.43551 3.33593 4.26901 3.32953 4.15106 3.23547L3.66263 2.84596C3.59607 2.79289 3.50081 2.7974 3.43881 2.85571C3.26435 3.01968 3.10232 3.19529 2.95451 3.38053C2.80674 3.56585 2.6716 3.76291 2.5506 3.96946C2.50759 4.04289 2.52439 4.13674 2.59091 4.1898L3.07817 4.57841C3.19608 4.67243 3.23935 4.8333 3.18142 4.97256C3.00775 5.39022 2.9072 5.83194 2.88258 6.28539C2.87441 6.43599 2.76562 6.56219 2.61854 6.59575L2.01006 6.73462C1.92708 6.75357 1.87122 6.83087 1.87814 6.91569C1.89756 7.15438 1.93383 7.39054 1.98655 7.62158C2.03932 7.85263 2.10914 8.08113 2.19516 8.30453C2.22576 8.38393 2.30959 8.42935 2.39261 8.41044L3.00066 8.2717C3.14851 8.23784 3.30088 8.30607 3.37427 8.43876C3.59294 8.83377 3.87511 9.18706 4.21302 9.48874C4.32551 9.58916 4.3564 9.75274 4.29101 9.88861L4.02009 10.4512C3.98318 10.5279 4.00874 10.6198 4.07938 10.6672C4.27816 10.8009 4.48535 10.9198 4.69882 11.0226C4.91225 11.1254 5.13444 11.2133 5.36286 11.2854C5.44403 11.311 5.53181 11.2737 5.56872 11.1971L5.8396 10.6345C5.90543 10.4979 6.05375 10.4217 6.20311 10.4466C6.42758 10.4845 6.65325 10.5038 6.87381 10.5038C7.09446 10.5038 7.32008 10.4845 7.54455 10.4466C7.6943 10.4214 7.84228 10.498 7.90807 10.6345L8.24206 11.3281C8.52076 11.2491 8.79116 11.1467 9.0488 11.0226C9.30657 10.8985 9.55519 10.7509 9.7907 10.5823L9.45666 9.88861C9.39122 9.75274 9.42216 9.58916 9.5346 9.48874C9.87242 9.18702 10.1546 8.83373 10.3734 8.43863V8.43863ZM8.75464 4.98833C8.75464 5.17636 8.60223 5.32877 8.4142 5.32877C8.22616 5.32877 8.07375 5.17636 8.07375 4.98833V4.64789C8.07375 4.4602 7.921 4.30745 7.73331 4.30745H6.03102C5.84334 4.30745 5.69058 4.4602 5.69058 4.64789V5.49906C5.69058 5.78067 5.91965 6.00974 6.20127 6.00974H7.56312C8.22019 6.00974 8.75472 6.54427 8.75472 7.20135V8.05252C8.75472 8.61571 8.2965 9.07388 7.73336 9.07388H7.22267V9.58456C7.22267 9.7726 7.07026 9.92501 6.88223 9.92501C6.6942 9.92501 6.54179 9.7726 6.54179 9.58456V9.07388H6.03111C5.46792 9.07388 5.00974 8.61566 5.00974 8.05252V7.71207C5.00974 7.52404 5.16215 7.37163 5.35018 7.37163C5.53822 7.37163 5.69063 7.52404 5.69063 7.71207V8.05252C5.69063 8.2402 5.84338 8.39296 6.03107 8.39296H7.73336C7.92104 8.39296 8.0738 8.2402 8.0738 8.05252V7.20135C8.0738 6.91973 7.84473 6.69067 7.56312 6.69067H6.20118C5.5441 6.69067 5.00957 6.15614 5.00957 5.49906V4.64789C5.00957 4.0847 5.46779 3.62652 6.03094 3.62652H6.54162V3.1158C6.54162 2.92777 6.69403 2.77536 6.88206 2.77536C7.07009 2.77536 7.2225 2.92777 7.2225 3.1158V3.62648H7.73318C8.29638 3.62648 8.75455 4.0847 8.75455 4.64785V4.98833H8.75464Z" fill="white"/>
<path d="M4.15837 17.7552C4.15837 17.5672 4.00596 17.4148 3.81793 17.4148H1.09423C0.906194 17.4148 0.753784 17.5672 0.753784 17.7552V21.6705C0.753784 21.7646 0.830011 21.8408 0.924026 21.8408H4.15837V17.7552Z" fill="white"/>
<path d="M15.0532 13.8401H12.3296C12.1419 13.8401 11.9891 13.9928 11.9891 14.1805V21.8409H15.3937V14.1806C15.3937 13.9928 15.2409 13.8401 15.0532 13.8401Z" fill="white"/>
<path d="M9.43568 16.3936H6.71202C6.52434 16.3936 6.37158 16.5463 6.37158 16.734V21.8409H9.77616V16.734C9.77616 16.5463 9.62341 16.3936 9.43568 16.3936V16.3936Z" fill="white"/>
<path d="M20.6708 8.90332H17.9471C17.7591 8.90332 17.6067 9.05577 17.6067 9.24376V21.8408H20.8411C20.9351 21.8408 21.0113 21.7645 21.0113 21.6705V9.24376C21.0112 9.05573 20.8588 8.90332 20.6708 8.90332V8.90332Z" fill="white"/>
<path d="M20.6658 1.17226C20.6618 1.16659 20.6578 1.16096 20.6538 1.15593C20.651 1.15241 20.648 1.14906 20.645 1.14566L20.6396 1.13948C20.6356 1.13484 20.6316 1.13015 20.6278 1.12624C20.6228 1.12096 20.6173 1.11597 20.6119 1.11103L20.6069 1.10643C20.6042 1.10381 20.6015 1.10123 20.5988 1.09891C20.5906 1.09187 20.5819 1.08538 20.5739 1.07958L20.5675 1.07472C20.5594 1.06901 20.5509 1.06385 20.5409 1.05784L20.5329 1.05298C20.5271 1.04976 20.5211 1.04679 20.5151 1.04391L20.5156 1.04417C20.5119 1.04224 20.5004 1.03657 20.4962 1.03472C20.4917 1.03274 20.487 1.03094 20.4823 1.02918L20.477 1.02724C20.4706 1.02466 20.464 1.02221 20.4608 1.02127L20.4537 1.01869C20.4496 1.0174 20.4456 1.01641 20.4381 1.01457C20.4314 1.01272 20.4248 1.01091 20.4178 1.00937C20.412 1.00812 20.4063 1.00713 20.3992 1.00597C20.3921 1.00473 20.385 1.00357 20.378 1.00279C20.3712 1.00193 20.3643 1.00146 20.3577 1.00103C20.3514 1.00056 20.3449 1.00017 20.3376 1C20.3307 1.00004 20.3235 1.00009 20.3139 1.00043C20.3084 1.0006 20.3028 1.00082 20.2977 1.00125C20.29 1.00185 20.2824 1.00279 20.2754 1.00382C20.2694 1.0046 20.2634 1.00537 20.2574 1.00649C20.2494 1.00791 20.2416 1.00971 20.23 1.01246L20.218 1.01551C20.2094 1.01796 20.2008 1.02084 20.192 1.02398C20.1888 1.02496 20.1855 1.02604 20.1823 1.02724L16.8911 2.2882C16.6783 2.36976 16.5714 2.60935 16.653 2.82222C16.7346 3.03504 16.9739 3.14186 17.187 3.06031L19.6337 2.1229C19.1814 3.23038 17.7009 6.37431 14.454 9.42118C10.6233 13.0158 5.76216 15.0338 0.396228 15.257C0.168494 15.2665 -0.0090527 15.4595 0.000357443 15.6873C0.00968165 15.9095 0.19101 16.0835 0.413201 16.0835C0.418916 16.0835 0.424759 16.0834 0.430646 16.0832C3.4541 15.9574 6.31345 15.2944 8.92938 14.1125C11.1479 13.1101 13.197 11.7347 15.0199 10.0242C17.2963 7.8881 19.2728 5.12031 20.3369 2.5858L21.2005 4.84003C21.2614 4.99884 21.4166 5.10557 21.5866 5.10557C21.6372 5.10557 21.687 5.09634 21.7345 5.07812C21.9474 4.99652 22.0542 4.75697 21.9726 4.5441L20.7164 1.26542L20.7147 1.26151C20.7123 1.25562 20.7097 1.24982 20.7071 1.24402L20.7036 1.23641C20.7017 1.23233 20.6999 1.22825 20.6973 1.22327C20.6951 1.21905 20.6928 1.21484 20.6882 1.20707L20.6857 1.20273C20.6828 1.1977 20.6799 1.19267 20.6772 1.18868C20.6749 1.18498 20.6684 1.17578 20.6658 1.17226V1.17226Z" fill="white"/>
</svg>
