<svg width="22" height="22" viewBox="0 0 22 22" fill="none" xmlns="http://www.w3.org/2000/svg">
<g clip-path="url(#clip0_873_63)">
<path d="M14.4664 14.6823C14.5174 14.1461 14.502 13.6119 14.4245 13.0903L15.6302 12.5529C15.5163 11.9688 15.3372 11.3927 15.0888 10.8351C14.8405 10.2779 14.5321 9.7595 14.1746 9.28378L12.9681 9.82079C12.6324 9.41467 12.2456 9.04612 11.813 8.72502L12.286 7.49283C11.7921 7.16066 11.2582 6.8799 10.6884 6.66122C10.1209 6.44333 9.53804 6.29267 8.94527 6.20923L8.47193 7.44261C7.93571 7.3916 7.40147 7.40702 6.87989 7.48453L6.34564 6.28476C5.1522 6.51925 4.03706 7.02542 3.0797 7.74868L3.61038 8.94054C3.20347 9.27627 2.83492 9.66341 2.51382 10.0956L1.28479 9.62426C0.949454 10.117 0.668296 10.6512 0.449221 11.2207C0.232124 11.7901 0.0834381 12.3746 0 12.9634L1.23219 13.4363C1.18118 13.9725 1.1966 14.5068 1.27411 15.0284L0.0684113 15.5654C0.182298 16.1498 0.361433 16.7256 0.60977 17.2832C0.858503 17.8407 1.16655 18.3588 1.52443 18.8345L2.73013 18.2975C3.06586 18.704 3.4526 19.0725 3.8856 19.3936L3.41266 20.6266C3.90656 20.9592 4.44041 21.2395 5.01024 21.4582C5.5777 21.6761 6.16058 21.8268 6.75334 21.9102L7.22669 20.6768C7.7629 20.7275 8.29715 20.712 8.81873 20.6345L9.35297 21.8339C10.5464 21.5994 11.6624 21.0932 12.6193 20.37L12.0882 19.1781C12.4948 18.8424 12.8637 18.4556 13.1848 18.023L14.413 18.4944C14.7484 18.0017 15.0295 17.4674 15.2486 16.8984C15.4673 16.329 15.6156 15.7441 15.699 15.1549L14.4664 14.6823ZM11.191 15.3415C10.4827 17.1875 8.41261 18.1088 6.5663 17.4006C4.72236 16.6928 3.79979 14.623 4.50763 12.7775C5.21587 10.932 7.286 10.0106 9.13113 10.718C10.9767 11.4259 11.8988 13.4964 11.191 15.3415Z" fill="white"/>
<path d="M21.1423 4.85641C21.1423 4.61757 21.1178 4.38386 21.0759 4.15688L22 3.62303C21.7762 2.77204 21.3317 2.01003 20.7239 1.40817L19.7974 1.9432C19.4439 1.64029 19.0342 1.40303 18.5862 1.24485V0.175971C18.1781 0.0640615 17.7506 0 17.3081 0C16.8656 0 16.4385 0.0648524 16.03 0.175971V1.24524C15.582 1.40342 15.1727 1.64108 14.8188 1.94359L13.8919 1.40856C13.2849 2.01042 12.84 2.77244 12.6158 3.62343L13.5403 4.15727C13.4984 4.38465 13.4735 4.61757 13.4735 4.85681C13.4735 5.09605 13.4984 5.32936 13.5403 5.55634L12.6158 6.09019C12.84 6.94118 13.2849 7.70359 13.8919 8.30505L14.8184 7.77002C15.1723 8.07293 15.5816 8.31019 16.0296 8.46837V9.53764C16.4381 9.64916 16.8652 9.71362 17.3077 9.71362C17.7502 9.71362 18.1781 9.64876 18.5858 9.53764V8.46837C19.0338 8.31019 19.4435 8.07253 19.797 7.77002L20.7235 8.30505C21.3313 7.70319 21.7758 6.94118 21.9996 6.09019L21.0755 5.55634C21.1178 5.32857 21.1423 5.09565 21.1423 4.85641ZM17.3085 6.64618C16.3199 6.64618 15.5183 5.84501 15.5183 4.85681C15.5183 3.8686 16.3199 3.06704 17.3085 3.06704C18.2959 3.06704 19.0975 3.86821 19.0975 4.85641C19.0975 5.84462 18.2959 6.64618 17.3085 6.64618Z" fill="white"/>
</g>
<defs>
<clipPath id="clip0_873_63">
<rect width="22" height="22" fill="white"/>
</clipPath>
</defs>
</svg>
