<svg width="10" height="10" viewBox="0 0 10 10" fill="none" xmlns="http://www.w3.org/2000/svg">
<path d="M5.11112 0.222168C2.41001 0.222168 0.222229 2.40995 0.222229 5.11106C0.222229 7.81217 2.41001 9.99995 5.11112 9.99995C7.81223 9.99995 10 7.81217 10 5.11106C10 2.40995 7.81223 0.222168 5.11112 0.222168ZM5.11112 1.90883C5.8689 1.90883 6.48001 2.53217 6.48001 3.27772C6.48001 4.02328 5.85667 4.64661 5.11112 4.64661C4.36556 4.64661 3.74223 4.02328 3.74223 3.27772C3.74223 2.53217 4.35334 1.90883 5.11112 1.90883ZM5.11112 8.47217C3.97445 8.47217 2.98445 7.90995 2.37334 7.04217C2.43445 6.16217 4.2189 5.72217 5.11112 5.72217C6.00334 5.72217 7.78778 6.16217 7.8489 7.04217C7.23778 7.90995 6.24778 8.47217 5.11112 8.47217Z" fill="white"/>
</svg>
