<svg width="22" height="22" viewBox="0 0 22 22" fill="none" xmlns="http://www.w3.org/2000/svg">
<path d="M17.1111 9.77778C17.5267 9.77778 17.93 9.82667 18.3333 9.88778V3.99667L9.16667 0L0 3.99667V9.99778C0 15.5467 3.91111 20.7411 9.16667 22C9.83889 21.8411 10.4867 21.6089 11.1222 21.3278C10.2789 20.13 9.77778 18.6756 9.77778 17.1111C9.77778 13.0656 13.0656 9.77778 17.1111 9.77778Z" fill="white"/>
<path d="M17.1111 12.2222C14.41 12.2222 12.2222 14.4099 12.2222 17.1111C12.2222 19.8122 14.41 21.9999 17.1111 21.9999C19.8122 21.9999 22 19.8122 22 17.1111C22 14.4099 19.8122 12.2222 17.1111 12.2222ZM17.1111 13.9088C17.8689 13.9088 18.48 14.5322 18.48 15.2777C18.48 16.0233 17.8567 16.6466 17.1111 16.6466C16.3656 16.6466 15.7422 16.0233 15.7422 15.2777C15.7422 14.5322 16.3533 13.9088 17.1111 13.9088ZM17.1111 20.4722C15.9745 20.4722 14.9845 19.9099 14.3733 19.0422C14.4345 18.1622 16.2189 17.7222 17.1111 17.7222C18.0033 17.7222 19.7878 18.1622 19.8489 19.0422C19.2378 19.9099 18.2478 20.4722 17.1111 20.4722Z" fill="white"/>
</svg>
