<svg width="16" height="16" viewBox="0 0 16 16" fill="none" xmlns="http://www.w3.org/2000/svg">
<path d="M11.4689 16.0006C11.1237 16.0006 10.8439 15.7208 10.8439 15.3756V5.49997H8.15653C7.66347 5.49997 7.22229 5.20516 7.03247 4.74884C6.84191 4.29069 6.94457 3.7676 7.29395 3.41603L10.1407 0.55239C10.4949 0.196175 10.9666 0 11.4689 0C11.9713 0 12.443 0.196175 12.7971 0.55239L15.6439 3.41603C15.9934 3.76748 16.0961 4.29069 15.9055 4.74884C15.7157 5.20516 15.2744 5.49997 14.7813 5.49997H14.0941C13.7489 5.49997 13.4691 5.22017 13.4691 4.87494C13.4691 4.52972 13.7489 4.24992 14.0941 4.24992H14.7101L11.9106 1.43377C11.7928 1.31536 11.636 1.25005 11.4689 1.25005C11.3019 1.25005 11.1451 1.31536 11.0273 1.43377L8.2277 4.24992H10.8439C11.5333 4.24992 12.0939 4.81073 12.0939 5.49997V15.3756C12.0939 15.7207 11.8141 16.0006 11.4689 16.0006Z" fill="white"/>
<path d="M4.53107 16.0006C4.02873 16.0006 3.55704 15.8044 3.2029 15.4482L0.356107 12.5846C0.00660585 12.233 -0.0960593 11.7099 0.0946219 11.2518C0.284326 10.7955 0.725628 10.5005 1.21869 10.5005H3.90605V0.625024C3.90605 0.279796 4.18584 0 4.53107 0C4.8763 0 5.1561 0.279796 5.1561 0.625024V10.5006C5.1561 11.1899 4.59528 11.7507 3.90605 11.7507H1.28986L4.08941 14.5668C4.20721 14.6853 4.36407 14.7506 4.53107 14.7506C4.69807 14.7506 4.85494 14.6853 4.97274 14.5668L7.77229 11.7507H7.1563C6.81107 11.7507 6.53127 11.4709 6.53127 11.1257C6.53127 10.7804 6.81107 10.5006 7.1563 10.5006H7.84346C8.33652 10.5006 8.7777 10.7955 8.96752 11.2518C9.15808 11.7099 9.05554 12.2331 8.70604 12.5846L5.85925 15.4482C5.50511 15.8044 5.03341 16.0006 4.53107 16.0006Z" fill="white"/>
</svg>
