<svg width="27" height="24" viewBox="0 0 27 24" fill="none" xmlns="http://www.w3.org/2000/svg">
<path d="M0.4769 11.5079L6.69825 13.8785L9.10629 21.7848C9.26037 22.2912 9.86688 22.4784 10.2695 22.1423L13.7373 19.2561C14.1008 18.9537 14.6186 18.9386 14.9985 19.2202L21.2533 23.8563C21.684 24.1759 22.2941 23.935 22.4021 23.4037L26.9841 0.902248C27.102 0.321911 26.5435 -0.162224 26.0022 0.0514974L0.46961 10.1073C-0.160481 10.3554 -0.154991 11.2662 0.4769 11.5079ZM8.71821 12.6166L20.877 4.97122C21.0956 4.83422 21.3204 5.13588 21.1327 5.31358L11.0982 14.8364C10.7455 15.1716 10.5179 15.6202 10.4535 16.1071L10.1117 18.6932C10.0664 19.0385 9.5913 19.0728 9.49797 18.7386L8.18334 14.0227C8.03277 13.4848 8.25219 12.9102 8.71821 12.6166Z" fill="white"/>
</svg>
