<svg width="22" height="24" viewBox="0 0 22 24" fill="none" xmlns="http://www.w3.org/2000/svg">
<path d="M21.3746 6.00927C20.0028 6.00927 18.7371 5.55482 17.7207 4.78817C16.555 3.90931 15.7175 2.62014 15.4217 1.13425C15.3485 0.767121 15.309 0.388255 15.3053 0H11.3866V10.7078L11.3819 16.5729C11.3819 18.141 10.3608 19.4705 8.94529 19.9381C8.5345 20.0738 8.09085 20.1381 7.62889 20.1128C7.03923 20.0804 6.48666 19.9024 6.00638 19.6151C4.98434 19.0039 4.29139 17.895 4.27261 16.6264C4.24304 14.6438 5.84582 13.0274 7.827 13.0274C8.21808 13.0274 8.59366 13.0913 8.94529 13.2073V10.2805V9.22846C8.57441 9.17353 8.19695 9.14489 7.81527 9.14489C5.64677 9.14489 3.61864 10.0463 2.1689 11.6702C1.07315 12.8974 0.415882 14.4631 0.314476 16.1048C0.181614 18.2616 0.970801 20.3118 2.50129 21.8245C2.72617 22.0465 2.96231 22.2526 3.20925 22.4428C4.52144 23.4526 6.12563 24 7.81527 24C8.19695 24 8.57441 23.9718 8.94529 23.9169C10.5237 23.6831 11.98 22.9606 13.1292 21.8245C14.5414 20.4287 15.3217 18.5757 15.3301 16.6034L15.31 7.84492C15.9837 8.36463 16.7203 8.79466 17.5109 9.12846C18.7404 9.64723 20.0441 9.91013 21.3859 9.90967V7.06418V6.00833C21.3868 6.00927 21.3756 6.00927 21.3746 6.00927Z" fill="white"/>
</svg>
