<svg width="28" height="23" viewBox="0 0 28 23" fill="none" xmlns="http://www.w3.org/2000/svg">
<path d="M27.7199 2.6536C26.694 3.10363 25.6008 3.40192 24.4611 3.54676C25.6336 2.84672 26.5284 1.74665 26.9492 0.420714C25.856 1.07248 24.649 1.53285 23.3627 1.78976C22.3247 0.684523 20.8454 0 19.2315 0C16.1002 0 13.5794 2.54153 13.5794 5.65723C13.5794 6.10553 13.6173 6.53659 13.7105 6.94695C9.00846 6.71763 4.84787 4.46405 2.05288 1.03109C1.56492 1.8777 1.2787 2.84672 1.2787 3.88988C1.2787 5.84862 2.28738 7.58492 3.79091 8.59015C2.88224 8.57291 1.99081 8.3091 1.23559 7.89356C1.23559 7.9108 1.23559 7.93322 1.23559 7.95563C1.23559 10.7041 3.19605 12.987 5.76689 13.5129C5.30652 13.6387 4.80477 13.6991 4.28405 13.6991C3.92196 13.6991 3.55642 13.6784 3.21329 13.6025C3.94609 15.8423 6.02553 17.4889 8.49808 17.5424C6.57383 19.0477 4.13059 19.9546 1.48561 19.9546C1.02179 19.9546 0.576933 19.9339 0.13208 19.877C2.6374 21.4926 5.60654 22.4151 8.80845 22.4151C19.2159 22.4151 24.9059 13.7939 24.9059 6.32106C24.9059 6.07104 24.8973 5.82965 24.8852 5.58998C26.0077 4.79338 26.9509 3.7985 27.7199 2.6536Z" fill="white"/>
</svg>
