<svg width="22" height="22" viewBox="0 0 22 22" fill="none" xmlns="http://www.w3.org/2000/svg">
<g clip-path="url(#clip0_886_51)">
<path d="M17.147 13.5879C16.6109 13.5879 16.1764 14.0224 16.1764 14.5585C16.1764 15.0945 16.6109 15.5291 17.147 15.5291H21.9999V13.5879H17.147Z" fill="white"/>
<path d="M20.7059 7.11768H2.58824C1.16108 7.11768 0 8.27876 0 9.70591H20.7059V7.11768Z" fill="white"/>
<path d="M2.58824 22.0003H20.7059V19.4121H0C0 20.8393 1.16108 22.0003 2.58824 22.0003Z" fill="white"/>
<path d="M3.88245 13.5879H9.05892V15.5291H3.88245V13.5879Z" fill="white"/>
<path d="M17.1471 16.8235C14.146 16.7093 14.1483 12.4073 17.1471 12.2941H20.7059V11H0V18.1176H20.7059C20.7059 17.6651 20.7059 17.2761 20.7059 16.8235H17.1471ZM10.3529 16.8235H2.58824V12.2941H10.3529V16.8235Z" fill="white"/>
<path d="M9.17029 5.82337H12.8301C12.2182 4.10814 9.78141 4.10922 9.17029 5.82337Z" fill="white"/>
<path d="M10.9999 3.23529C12.5623 3.23529 13.8695 4.34862 14.17 5.82353H17.4705V4.52941H16.4918C16.4233 4.3359 16.3444 4.14588 16.2555 3.96013L16.9476 3.26747L14.203 0.522867L13.5103 1.215C13.3246 1.12605 13.1346 1.04711 12.9411 0.978655V0H9.05871V0.978655C8.8652 1.04716 8.67518 1.12605 8.48943 1.215L7.79677 0.522867L5.05216 3.26747L5.74426 3.96013C5.65535 4.14592 5.57641 4.3359 5.50795 4.52941H4.5293V5.82353H7.82969C8.13027 4.34862 9.4375 3.23529 10.9999 3.23529Z" fill="white"/>
</g>
<defs>
<clipPath id="clip0_886_51">
<rect width="22" height="22" fill="white"/>
</clipPath>
</defs>
</svg>
