<svg width="22" height="22" viewBox="0 0 22 22" fill="none" xmlns="http://www.w3.org/2000/svg">
<path d="M6.38464 0C4.26719 0 2.53848 1.72871 2.53848 3.84616V4.6154H1.76924C1.3444 4.6154 1 4.9598 1 5.38464C1 5.80948 1.3444 6.15388 1.76924 6.15388H4.84616C5.12061 6.15165 5.37309 6.00336 5.50872 5.76476C5.57826 5.88267 5.61511 6.01699 5.6154 6.15388C5.6154 6.57872 5.271 6.92312 4.84616 6.92312H2.53848V9.98052H1.76924C1.3444 9.98052 1 10.3249 1 10.7498C1 11.1746 1.3444 11.519 1.76924 11.519H4.84616C5.12061 11.5168 5.37309 11.3685 5.50872 11.1299C5.57826 11.2478 5.61511 11.3821 5.6154 11.519C5.6154 11.9438 5.271 12.2882 4.84616 12.2882H2.53848V15.3847H1.76924C1.3444 15.3847 1 15.7291 1 16.1539C1 16.5788 1.3444 16.9232 1.76924 16.9232H4.84616C5.12061 16.9209 5.37309 16.7726 5.50872 16.534C5.57826 16.652 5.61511 16.7863 5.6154 16.9232C5.6154 17.348 5.271 17.6924 4.84616 17.6924H2.53848C2.53848 19.8099 4.26719 21.5386 6.38464 21.5386H17.1538C19.2713 21.5386 21 19.8099 21 17.6924V3.84616C21 1.72871 19.2713 0 17.1538 0H6.38464ZM12.5384 3.84616C14.2287 3.84616 15.6154 5.23286 15.6154 6.92308C15.6154 8.6133 14.2287 10 12.5384 10C10.8482 10 9.46152 8.6133 9.46152 6.92308C9.46152 5.23286 10.8483 3.84616 12.5384 3.84616ZM12.5384 10.7692C15.082 10.7692 17.1538 12.841 17.1538 15.3846V16.1538C17.1538 16.5786 16.8094 16.923 16.3846 16.923C15.9597 16.923 15.6153 16.5786 15.6153 16.1538V15.3846C15.6153 13.6667 14.2563 12.3076 12.5384 12.3076C10.8205 12.3076 9.46148 13.6667 9.46148 15.3846V16.1538C9.46148 16.5786 9.11707 16.923 8.69224 16.923C8.2674 16.923 7.923 16.5786 7.923 16.1538V15.3846C7.92308 12.841 9.99485 10.7692 12.5384 10.7692V10.7692Z" fill="white"/>
</svg>
