<svg width="1520" height="754" viewBox="0 0 1520 754" fill="none" xmlns="http://www.w3.org/2000/svg">
<path d="M1171.06 312.854C1158.2 306.763 1143.19 305.196 1129.06 308.469C1126.7 302.872 1125.73 296.894 1126.23 290.941C1126.73 284.987 1128.68 279.197 1131.95 273.964C1144 254.599 1171.24 248.022 1193.68 256.746C1194.95 257.225 1195.99 255.307 1194.72 254.782C1171.35 245.031 1142.2 252.498 1129.58 272.617C1126.1 278.146 1124 284.27 1123.43 290.573C1122.87 296.876 1123.85 303.213 1126.31 309.154C1116.26 311.866 1107.39 317.192 1100.86 324.432C1082.86 344.641 1089.01 376.954 1117.95 386.089C1118.8 386.363 1119.14 385.244 1118.36 384.924C1108.34 380.805 1100.47 373.487 1096.35 364.453C1092.24 355.42 1092.19 345.349 1096.21 336.283C1098.96 330.357 1103.19 325.048 1108.59 320.745C1113.98 316.442 1120.4 313.254 1127.37 311.415C1131.26 319.373 1137.73 326.148 1145.97 330.894C1154.33 335.735 1168.7 340.736 1177.74 334.297C1187.4 327.537 1179.42 316.918 1171.06 312.854ZM1145.09 327.332C1138.57 323.049 1133.42 317.363 1130.13 310.821C1137 309.281 1144.15 308.948 1151.17 309.839C1156.55 310.514 1161.8 311.868 1166.75 313.858C1173.32 316.507 1183.19 323.198 1177.79 330.597C1170.9 340.12 1152.44 332.15 1145.11 327.332H1145.09Z" fill="#D8D8D8"/>
<path d="M397.677 383.942C411.432 379.629 422.807 370.877 429.494 359.462C435.81 361.66 441.513 365.03 446.215 369.341C450.916 373.652 454.506 378.804 456.739 384.445C465.024 405.271 452.35 427.445 429.961 436.282C428.689 436.785 429.624 438.749 430.922 438.292C454.791 429.546 468.037 405.545 459.492 383.782C457.159 377.818 453.403 372.36 448.476 367.776C443.549 363.191 437.564 359.586 430.922 357.201C435.357 348.823 436.797 339.459 435.052 330.346C430.039 305.044 398.69 287.528 371.445 300.157C370.64 300.545 371.445 301.527 372.147 301.23C382.336 297.429 393.789 297.184 404.177 300.543C414.564 303.903 423.106 310.616 428.065 319.316C431.232 325.081 432.889 331.396 432.916 337.798C432.943 344.2 431.339 350.525 428.221 356.311C418.904 353.521 408.857 353.211 399.34 355.42C389.626 357.704 375.809 363.687 375.159 373.894C374.328 384.879 388.665 386.705 397.677 383.942ZM402.872 357.315C410.855 355.917 419.113 356.357 426.845 358.594C423.542 364.105 419.041 368.993 413.599 372.981C409.413 376.068 404.742 378.606 399.729 380.517C393.08 383.029 380.821 385.084 378.198 376.521C374.796 365.582 393.86 358.868 402.82 357.315H402.872Z" fill="#D8D8D8"/>
<path d="M986.552 648.635C988.422 672.133 976.864 693.873 958.475 710.566C940.087 727.259 911.439 743.633 883.986 740.253C878.442 739.498 873.135 737.741 868.403 735.092C869.935 734.11 871.441 733.105 872.896 732.055C893.466 717.28 906.816 680.696 876.272 667.383C864.481 662.245 851.183 666.858 844.066 676.129C835.366 687.547 837.807 703.236 843.911 714.95C848.093 723.18 854.701 730.276 863.052 735.503C819.029 761.696 750.488 756.558 717.607 719.038C712.029 712.665 707.645 705.549 704.62 697.96C718.4 697.808 731.827 694.108 743.241 687.319C753.397 681.13 764.305 670.717 763.63 659.071C763.032 648.635 753.085 639.843 741.839 637.536C727.84 634.682 713.269 641.944 705.685 651.992C696.465 664.026 696.023 679.806 699.997 693.485L700.621 695.494C683.521 695.091 667.036 689.8 653.662 680.422C628.131 662.154 616.833 632.901 616.184 604.767C616.184 603.214 613.379 603.077 613.405 604.63C614.106 634.613 626.651 665.944 654.961 684.35C668.502 693.036 684.77 697.822 701.53 698.052C722.671 756.215 811.757 768.707 865.468 736.873C870.011 739.358 875.012 741.128 880.246 742.102C900.011 745.733 920.555 738.22 936.97 729.018C967.903 711.616 991.928 682.044 989.279 648.68C989.175 647.242 986.422 647.082 986.552 648.635ZM715.581 646.146C729.06 636.577 750.825 637.285 758.877 652.311C766.669 666.972 750.254 681.519 736.774 688.141C726.653 693.015 715.304 695.582 703.763 695.608C697.504 677.979 698.595 658.226 715.581 646.146ZM850.274 673.549C866.611 659.847 887.311 673.252 890.869 689.762C894.038 704.446 885.882 718.627 873.753 728.332C871.268 730.272 868.667 732.094 865.961 733.79C844.222 720.568 829.314 690.881 850.274 673.526V673.549Z" fill="#D8D8D8"/>
<path d="M1172.59 30.6689C1172 35.2759 1172.73 39.9405 1174.72 44.2335C1176.77 47.6195 1179.58 50.6032 1182.98 53.0026C1190.59 58.8714 1200.36 63.7127 1210.36 62.3882C1215.35 61.5027 1220.1 59.7648 1224.33 57.2729C1233.6 52.3632 1242.98 45.7407 1244.98 36.4008C1247.31 25.5537 1238.64 15.0034 1228.15 8.99754C1217.65 2.99166 1200.23 -2.3063 1187.45 1.1191C1175.27 4.33898 1173.27 21.4203 1172.59 30.6689Z" fill="#BEDCFA"/>
<path d="M448.843 300.614C448.843 301.459 448.999 302.326 449.129 303.171C450.116 310.319 454.116 316.462 462.115 318.768C477.153 323.084 495.88 316.713 509.645 311.461C520.709 307.236 527.696 300.979 525.904 289.744C523.073 271.977 503.23 264.304 485.828 260.239C477.907 258.367 465.18 255.467 459.232 262.226C455.181 266.793 453.493 274.923 451.778 280.495C449.549 287.014 448.558 293.811 448.843 300.614Z" fill="#B088F9"/>
<path d="M249.323 3.08297C246.798 4.54939 244.648 6.46266 243.011 8.70063C241.196 11.0654 239.803 13.6607 238.882 16.3964C235.921 25.1426 241.479 31.8335 249.583 36.4464C258.309 41.3562 276.932 49.7826 285.944 41.4932C290.801 37.063 295.891 32.3588 297.943 26.2159C298.624 24.1113 298.656 21.8853 298.035 19.7664C297.414 17.6475 296.164 15.712 294.411 14.1585C288.593 8.56363 280.542 5.89181 272.802 3.06014C265.711 0.388327 256.439 -0.79916 249.323 3.08297Z" fill="#DA9FF9"/>
<path d="M901.024 392.346C894.729 396.994 888.786 401.998 883.233 407.326C844.015 444.937 823.185 499.424 827.756 552.358C829.626 573.915 835.73 595.587 848.872 613.147C867.39 637.947 898.219 652.22 929.594 657.792C1025.69 674.942 1145.79 645.164 1211.37 573.573C1240.46 541.808 1255.83 495.428 1239.37 456.264C1230.41 435.004 1213.14 417.808 1193.84 404.221C1111.74 346.468 984.448 330.689 901.024 392.346Z" fill="#98ACF8"/>
<path d="M108.838 82.5068C64.6846 106.713 15.3369 149.668 3.98695 195.705C-22.7387 303.24 135.252 368.665 234.337 367.135C297.294 366.153 362.355 336.558 387.003 285.61C403.028 252.452 400.587 213.974 387.003 179.994C343.629 71.7282 225.013 18.9769 108.838 82.5068Z" fill="#DA9FF9"/>
<path d="M1233.26 64.9228C1193.94 90.8646 1151.76 134.778 1145.3 178.875C1130.18 281.842 1284.77 331.876 1377.75 323.381C1436.81 317.923 1495.22 285.428 1513.64 235.759C1525.61 203.446 1519.74 167.457 1503.79 136.491C1453.02 37.7708 1336.53 -3.15137 1233.26 64.9228Z" fill="#BEDCFA"/>
<path d="M369.29 460.443C345.914 494.537 334.409 534.021 358.355 567.293C397.885 622.214 488.399 651.124 553.357 661.537C581.147 666.104 610.132 667.52 638.416 660.441C668.865 653.005 694.899 635.567 711.139 611.732C738.28 570.855 730.982 518.333 716.152 474.716C703.867 438.635 686.959 403.924 661.921 376.407C610.678 319.91 541.02 310.182 473.517 359.736C443.285 381.933 397.47 419.361 369.29 460.443Z" fill="#B088F9"/>
<path d="M148.761 222C148.441 222 148.153 221.888 147.897 221.664C147.673 221.408 147.561 221.12 147.561 220.8V189.648C147.561 189.296 147.673 189.008 147.897 188.784C148.121 188.528 148.409 188.4 148.761 188.4H171.417C171.769 188.4 172.057 188.528 172.281 188.784C172.537 189.008 172.665 189.296 172.665 189.648V194.4C172.665 194.752 172.537 195.04 172.281 195.264C172.057 195.488 171.769 195.6 171.417 195.6H156.249V201.696H170.361C170.713 201.696 171.001 201.824 171.225 202.08C171.481 202.304 171.609 202.592 171.609 202.944V207.312C171.609 207.664 171.481 207.968 171.225 208.224C171.001 208.448 170.713 208.56 170.361 208.56H156.249V214.8H171.801C172.153 214.8 172.441 214.928 172.665 215.184C172.921 215.408 173.049 215.696 173.049 216.048V220.8C173.049 221.152 172.921 221.44 172.665 221.664C172.441 221.888 172.153 222 171.801 222H148.761ZM185.366 222.48C183.67 222.48 182.118 222.16 180.71 221.52C179.334 220.848 178.246 219.936 177.446 218.784C176.678 217.632 176.294 216.368 176.294 214.992C176.294 212.816 177.19 211.056 178.982 209.712C180.806 208.336 183.302 207.392 186.47 206.88L192.422 205.968V205.392C192.422 204.208 192.182 203.344 191.702 202.8C191.222 202.256 190.406 201.984 189.254 201.984C188.614 201.984 188.07 202.096 187.622 202.32C187.206 202.544 186.726 202.88 186.182 203.328C185.766 203.68 185.398 203.936 185.078 204.096C184.95 204.32 184.79 204.432 184.598 204.432H179.03C178.71 204.432 178.438 204.336 178.214 204.144C178.022 203.92 177.942 203.664 177.974 203.376C178.006 202.512 178.438 201.552 179.27 200.496C180.102 199.408 181.366 198.48 183.062 197.712C184.758 196.944 186.854 196.56 189.35 196.56C193.318 196.56 196.262 197.44 198.182 199.2C200.102 200.928 201.062 203.28 201.062 206.256V220.8C201.062 221.12 200.95 221.408 200.726 221.664C200.502 221.888 200.214 222 199.862 222H193.958C193.638 222 193.35 221.888 193.094 221.664C192.87 221.408 192.758 221.12 192.758 220.8V219.12C192.054 220.112 191.078 220.928 189.83 221.568C188.582 222.176 187.094 222.48 185.366 222.48ZM187.766 216.816C189.174 216.816 190.31 216.352 191.174 215.424C192.07 214.496 192.518 213.152 192.518 211.392V210.816L188.534 211.488C185.846 212 184.502 212.96 184.502 214.368C184.502 215.104 184.806 215.696 185.414 216.144C186.054 216.592 186.838 216.816 187.766 216.816ZM207.483 222C207.163 222 206.875 221.888 206.619 221.664C206.395 221.408 206.283 221.12 206.283 220.8V198.288C206.283 197.936 206.395 197.648 206.619 197.424C206.843 197.168 207.131 197.04 207.483 197.04H213.339C213.691 197.04 213.979 197.168 214.203 197.424C214.459 197.648 214.587 197.936 214.587 198.288V200.112C215.483 199.12 216.523 198.368 217.707 197.856C218.923 197.312 220.267 197.04 221.739 197.04H223.899C224.251 197.04 224.539 197.152 224.763 197.376C224.987 197.6 225.099 197.888 225.099 198.24V203.472C225.099 203.792 224.987 204.08 224.763 204.336C224.539 204.56 224.251 204.672 223.899 204.672H219.051C217.771 204.672 216.779 205.024 216.075 205.728C215.403 206.432 215.067 207.424 215.067 208.704V220.8C215.067 221.152 214.939 221.44 214.683 221.664C214.459 221.888 214.171 222 213.819 222H207.483ZM229.608 222C229.288 222 229 221.888 228.744 221.664C228.52 221.408 228.408 221.12 228.408 220.8V198.24C228.408 197.888 228.52 197.6 228.744 197.376C229 197.152 229.288 197.04 229.608 197.04H235.512C235.864 197.04 236.152 197.152 236.376 197.376C236.6 197.6 236.712 197.888 236.712 198.24V200.064C237.576 199.008 238.68 198.16 240.024 197.52C241.4 196.88 242.968 196.56 244.728 196.56C246.552 196.56 248.168 196.976 249.576 197.808C251.016 198.64 252.136 199.872 252.936 201.504C253.768 203.136 254.184 205.104 254.184 207.408V220.8C254.184 221.12 254.072 221.408 253.848 221.664C253.624 221.888 253.336 222 252.984 222H246.6C246.248 222 245.944 221.888 245.688 221.664C245.464 221.44 245.352 221.152 245.352 220.8V207.696C245.352 206.256 245 205.152 244.296 204.384C243.624 203.616 242.632 203.232 241.32 203.232C240.04 203.232 239.032 203.632 238.296 204.432C237.56 205.2 237.192 206.288 237.192 207.696V220.8C237.192 221.12 237.08 221.408 236.856 221.664C236.632 221.888 236.344 222 235.992 222H229.608Z" fill="black"/>
<path d="M478.542 524C478.222 524 477.934 523.888 477.678 523.664C477.454 523.408 477.342 523.12 477.342 522.8V491.6C477.342 491.248 477.454 490.96 477.678 490.736C477.934 490.512 478.222 490.4 478.542 490.4H485.262C485.614 490.4 485.902 490.512 486.126 490.736C486.35 490.96 486.462 491.248 486.462 491.6V516.464H500.862C501.214 516.464 501.502 516.592 501.726 516.848C501.982 517.072 502.11 517.36 502.11 517.712V522.8C502.11 523.152 501.982 523.44 501.726 523.664C501.502 523.888 501.214 524 500.862 524H478.542ZM517.12 524.48C513.216 524.48 510.144 523.44 507.904 521.36C505.664 519.248 504.512 516.192 504.448 512.192V510.704C504.576 506.896 505.76 503.92 508 501.776C510.24 499.632 513.264 498.56 517.072 498.56C519.824 498.56 522.144 499.12 524.032 500.24C525.952 501.328 527.376 502.848 528.304 504.8C529.264 506.72 529.744 508.912 529.744 511.376V512.576C529.744 512.928 529.616 513.232 529.36 513.488C529.136 513.712 528.848 513.824 528.496 513.824H513.28V514.112C513.312 515.552 513.648 516.72 514.288 517.616C514.928 518.48 515.84 518.912 517.024 518.912C517.792 518.912 518.4 518.768 518.848 518.48C519.328 518.16 519.776 517.76 520.192 517.28C520.48 516.96 520.704 516.768 520.864 516.704C521.056 516.608 521.344 516.56 521.728 516.56H528.016C528.304 516.56 528.544 516.656 528.736 516.848C528.96 517.008 529.072 517.216 529.072 517.472C529.072 518.304 528.592 519.28 527.632 520.4C526.704 521.52 525.328 522.48 523.504 523.28C521.712 524.08 519.584 524.48 517.12 524.48ZM520.912 508.928V508.832C520.912 507.296 520.576 506.112 519.904 505.28C519.232 504.416 518.288 503.984 517.072 503.984C515.856 503.984 514.912 504.416 514.24 505.28C513.6 506.112 513.28 507.296 513.28 508.832V508.928H520.912ZM541.585 524.48C539.889 524.48 538.337 524.16 536.929 523.52C535.553 522.848 534.465 521.936 533.665 520.784C532.897 519.632 532.513 518.368 532.513 516.992C532.513 514.816 533.409 513.056 535.201 511.712C537.025 510.336 539.521 509.392 542.689 508.88L548.641 507.968V507.392C548.641 506.208 548.401 505.344 547.921 504.8C547.441 504.256 546.625 503.984 545.473 503.984C544.833 503.984 544.289 504.096 543.841 504.32C543.425 504.544 542.945 504.88 542.401 505.328C541.985 505.68 541.617 505.936 541.297 506.096C541.169 506.32 541.009 506.432 540.817 506.432H535.249C534.929 506.432 534.657 506.336 534.433 506.144C534.241 505.92 534.161 505.664 534.193 505.376C534.225 504.512 534.657 503.552 535.489 502.496C536.321 501.408 537.585 500.48 539.281 499.712C540.977 498.944 543.073 498.56 545.569 498.56C549.537 498.56 552.481 499.44 554.401 501.2C556.321 502.928 557.281 505.28 557.281 508.256V522.8C557.281 523.12 557.169 523.408 556.945 523.664C556.721 523.888 556.433 524 556.081 524H550.177C549.857 524 549.569 523.888 549.313 523.664C549.089 523.408 548.977 523.12 548.977 522.8V521.12C548.273 522.112 547.297 522.928 546.049 523.568C544.801 524.176 543.313 524.48 541.585 524.48ZM543.984 518.816C545.393 518.816 546.529 518.352 547.393 517.424C548.289 516.496 548.737 515.152 548.737 513.392V512.816L544.753 513.488C542.065 514 540.721 514.96 540.721 516.368C540.721 517.104 541.025 517.696 541.633 518.144C542.273 518.592 543.057 518.816 543.984 518.816ZM563.702 524C563.382 524 563.094 523.888 562.838 523.664C562.614 523.408 562.502 523.12 562.502 522.8V500.288C562.502 499.936 562.614 499.648 562.838 499.424C563.062 499.168 563.35 499.04 563.702 499.04H569.558C569.91 499.04 570.198 499.168 570.422 499.424C570.678 499.648 570.806 499.936 570.806 500.288V502.112C571.702 501.12 572.742 500.368 573.926 499.856C575.142 499.312 576.486 499.04 577.958 499.04H580.118C580.47 499.04 580.758 499.152 580.982 499.376C581.206 499.6 581.318 499.888 581.318 500.24V505.472C581.318 505.792 581.206 506.08 580.982 506.336C580.758 506.56 580.47 506.672 580.118 506.672H575.27C573.99 506.672 572.998 507.024 572.294 507.728C571.622 508.432 571.286 509.424 571.286 510.704V522.8C571.286 523.152 571.158 523.44 570.902 523.664C570.678 523.888 570.39 524 570.038 524H563.702ZM585.827 524C585.507 524 585.219 523.888 584.963 523.664C584.739 523.408 584.627 523.12 584.627 522.8V500.24C584.627 499.888 584.739 499.6 584.963 499.376C585.219 499.152 585.507 499.04 585.827 499.04H591.731C592.083 499.04 592.371 499.152 592.595 499.376C592.819 499.6 592.931 499.888 592.931 500.24V502.064C593.795 501.008 594.899 500.16 596.243 499.52C597.619 498.88 599.187 498.56 600.947 498.56C602.771 498.56 604.387 498.976 605.795 499.808C607.235 500.64 608.355 501.872 609.155 503.504C609.987 505.136 610.403 507.104 610.403 509.408V522.8C610.403 523.12 610.291 523.408 610.067 523.664C609.843 523.888 609.555 524 609.203 524H602.819C602.467 524 602.163 523.888 601.907 523.664C601.683 523.44 601.571 523.152 601.571 522.8V509.696C601.571 508.256 601.219 507.152 600.515 506.384C599.843 505.616 598.851 505.232 597.539 505.232C596.259 505.232 595.251 505.632 594.515 506.432C593.779 507.2 593.411 508.288 593.411 509.696V522.8C593.411 523.12 593.299 523.408 593.075 523.664C592.851 523.888 592.563 524 592.211 524H585.827Z" fill="black"/>
<path d="M980.343 524.48C977.239 524.48 974.599 524.032 972.423 523.136C970.247 522.24 968.599 521.056 967.479 519.584C966.359 518.112 965.767 516.512 965.703 514.784C965.703 514.496 965.799 514.256 965.991 514.064C966.215 513.872 966.471 513.776 966.759 513.776H973.143C973.527 513.776 973.831 513.84 974.055 513.968C974.311 514.096 974.583 514.32 974.871 514.64C975.287 515.408 975.927 516.048 976.791 516.56C977.687 517.04 978.871 517.28 980.343 517.28C982.071 517.28 983.399 517.024 984.327 516.512C985.255 515.968 985.719 515.232 985.719 514.304C985.719 513.632 985.479 513.088 984.999 512.672C984.519 512.224 983.751 511.84 982.695 511.52C981.639 511.168 980.119 510.784 978.135 510.368C974.263 509.6 971.367 508.432 969.447 506.864C967.527 505.296 966.567 503.056 966.567 500.144C966.567 498.16 967.111 496.4 968.199 494.864C969.319 493.296 970.887 492.08 972.903 491.216C974.951 490.352 977.319 489.92 980.007 489.92C982.823 489.92 985.255 490.416 987.303 491.408C989.383 492.368 990.967 493.584 992.055 495.056C993.175 496.496 993.767 497.92 993.831 499.328C993.831 499.616 993.735 499.872 993.543 500.096C993.351 500.288 993.111 500.384 992.823 500.384H986.103C985.399 500.384 984.855 500.096 984.471 499.52C984.279 498.848 983.783 498.288 982.983 497.84C982.183 497.36 981.191 497.12 980.007 497.12C978.663 497.12 977.623 497.36 976.887 497.84C976.151 498.32 975.783 499.024 975.783 499.952C975.783 500.88 976.263 501.616 977.223 502.16C978.183 502.672 979.975 503.2 982.599 503.744C985.607 504.288 987.991 504.976 989.751 505.808C991.543 506.608 992.855 507.664 993.687 508.976C994.551 510.256 994.983 511.888 994.983 513.872C994.983 516.048 994.359 517.936 993.111 519.536C991.863 521.136 990.135 522.368 987.927 523.232C985.719 524.064 983.191 524.48 980.343 524.48ZM1000.31 524C999.96 524 999.656 523.888 999.4 523.664C999.176 523.44 999.064 523.152 999.064 522.8V491.12C999.064 490.768 999.176 490.48 999.4 490.256C999.656 490.032 999.96 489.92 1000.31 489.92H1006.79C1007.14 489.92 1007.43 490.032 1007.66 490.256C1007.91 490.48 1008.04 490.768 1008.04 491.12V501.824C1009.9 499.648 1012.41 498.56 1015.58 498.56C1017.4 498.56 1019.05 498.976 1020.52 499.808C1021.99 500.64 1023.14 501.872 1023.98 503.504C1024.81 505.136 1025.22 507.104 1025.22 509.408V522.8C1025.22 523.152 1025.1 523.44 1024.84 523.664C1024.62 523.888 1024.33 524 1023.98 524H1017.45C1017.13 524 1016.84 523.888 1016.58 523.664C1016.36 523.408 1016.25 523.12 1016.25 522.8V509.696C1016.25 508.288 1015.9 507.2 1015.19 506.432C1014.49 505.632 1013.48 505.232 1012.17 505.232C1010.89 505.232 1009.88 505.632 1009.14 506.432C1008.41 507.2 1008.04 508.288 1008.04 509.696V522.8C1008.04 523.152 1007.91 523.44 1007.66 523.664C1007.43 523.888 1007.14 524 1006.79 524H1000.31ZM1042.47 524.48C1038.44 524.48 1035.33 523.552 1033.16 521.696C1031.01 519.808 1029.85 517.136 1029.65 513.68C1029.62 513.264 1029.61 512.544 1029.61 511.52C1029.61 510.496 1029.62 509.776 1029.65 509.36C1029.85 505.968 1031.05 503.328 1033.25 501.44C1035.49 499.52 1038.57 498.56 1042.47 498.56C1046.37 498.56 1049.43 499.52 1051.64 501.44C1053.88 503.328 1055.09 505.968 1055.29 509.36C1055.35 510.192 1055.38 510.912 1055.38 511.52C1055.38 512.128 1055.35 512.848 1055.29 513.68C1055.09 517.136 1053.91 519.808 1051.73 521.696C1049.59 523.552 1046.5 524.48 1042.47 524.48ZM1042.47 518.432C1043.78 518.432 1044.76 518.032 1045.4 517.232C1046.04 516.4 1046.41 515.136 1046.5 513.44C1046.53 513.12 1046.55 512.48 1046.55 511.52C1046.55 510.56 1046.53 509.92 1046.5 509.6C1046.41 507.936 1046.04 506.688 1045.4 505.856C1044.76 505.024 1043.78 504.608 1042.47 504.608C1041.16 504.608 1040.18 505.024 1039.54 505.856C1038.9 506.688 1038.53 507.936 1038.44 509.6L1038.39 511.52L1038.44 513.44C1038.53 515.136 1038.9 516.4 1039.54 517.232C1040.18 518.032 1041.16 518.432 1042.47 518.432ZM1061.2 533.12C1060.85 533.12 1060.55 533.008 1060.29 532.784C1060.07 532.56 1059.95 532.272 1059.95 531.92V500.24C1059.95 499.888 1060.07 499.6 1060.29 499.376C1060.55 499.152 1060.85 499.04 1061.2 499.04H1066.91C1067.27 499.04 1067.55 499.152 1067.78 499.376C1068 499.6 1068.11 499.888 1068.11 500.24V501.968C1069.84 499.696 1072.32 498.56 1075.55 498.56C1078.66 498.56 1081.09 499.536 1082.85 501.488C1084.64 503.408 1085.6 506.16 1085.73 509.744C1085.76 510.16 1085.78 510.752 1085.78 511.52C1085.78 512.288 1085.76 512.896 1085.73 513.344C1085.6 516.8 1084.64 519.52 1082.85 521.504C1081.06 523.488 1078.63 524.48 1075.55 524.48C1072.45 524.48 1070.13 523.424 1068.59 521.312V531.92C1068.59 532.272 1068.48 532.56 1068.26 532.784C1068.03 533.008 1067.75 533.12 1067.39 533.12H1061.2ZM1072.77 517.808C1074.21 517.808 1075.23 517.392 1075.84 516.56C1076.48 515.696 1076.85 514.512 1076.95 513.008C1076.98 512.688 1076.99 512.192 1076.99 511.52C1076.99 510.848 1076.98 510.352 1076.95 510.032C1076.85 508.528 1076.48 507.36 1075.84 506.528C1075.23 505.664 1074.21 505.232 1072.77 505.232C1071.39 505.232 1070.37 505.68 1069.7 506.576C1069.03 507.44 1068.66 508.544 1068.59 509.888C1068.56 510.304 1068.55 510.912 1068.55 511.712C1068.55 512.48 1068.56 513.072 1068.59 513.488C1068.66 514.736 1069.03 515.776 1069.7 516.608C1070.4 517.408 1071.43 517.808 1072.77 517.808Z" fill="black"/>
<path d="M1287.23 194C1286.88 194 1286.58 193.888 1286.32 193.664C1286.1 193.44 1285.98 193.152 1285.98 192.8V168.224H1277.54C1277.18 168.224 1276.88 168.112 1276.62 167.888C1276.4 167.664 1276.29 167.376 1276.29 167.024V161.648C1276.29 161.296 1276.4 161.008 1276.62 160.784C1276.88 160.528 1277.18 160.4 1277.54 160.4H1303.6C1303.95 160.4 1304.24 160.528 1304.46 160.784C1304.72 161.008 1304.85 161.296 1304.85 161.648V167.024C1304.85 167.376 1304.72 167.664 1304.46 167.888C1304.24 168.112 1303.95 168.224 1303.6 168.224H1295.15V192.8C1295.15 193.152 1295.02 193.44 1294.77 193.664C1294.54 193.888 1294.26 194 1293.9 194H1287.23ZM1307.39 194C1307.07 194 1306.78 193.888 1306.53 193.664C1306.3 193.408 1306.19 193.12 1306.19 192.8V170.288C1306.19 169.936 1306.3 169.648 1306.53 169.424C1306.75 169.168 1307.04 169.04 1307.39 169.04H1313.25C1313.6 169.04 1313.89 169.168 1314.11 169.424C1314.37 169.648 1314.49 169.936 1314.49 170.288V172.112C1315.39 171.12 1316.43 170.368 1317.61 169.856C1318.83 169.312 1320.17 169.04 1321.65 169.04H1323.81C1324.16 169.04 1324.45 169.152 1324.67 169.376C1324.89 169.6 1325.01 169.888 1325.01 170.24V175.472C1325.01 175.792 1324.89 176.08 1324.67 176.336C1324.45 176.56 1324.16 176.672 1323.81 176.672H1318.96C1317.68 176.672 1316.69 177.024 1315.98 177.728C1315.31 178.432 1314.97 179.424 1314.97 180.704V192.8C1314.97 193.152 1314.85 193.44 1314.59 193.664C1314.37 193.888 1314.08 194 1313.73 194H1307.39ZM1335.43 194.48C1333.73 194.48 1332.18 194.16 1330.77 193.52C1329.4 192.848 1328.31 191.936 1327.51 190.784C1326.74 189.632 1326.36 188.368 1326.36 186.992C1326.36 184.816 1327.25 183.056 1329.04 181.712C1330.87 180.336 1333.36 179.392 1336.53 178.88L1342.48 177.968V177.392C1342.48 176.208 1342.24 175.344 1341.76 174.8C1341.28 174.256 1340.47 173.984 1339.32 173.984C1338.68 173.984 1338.13 174.096 1337.68 174.32C1337.27 174.544 1336.79 174.88 1336.24 175.328C1335.83 175.68 1335.46 175.936 1335.14 176.096C1335.01 176.32 1334.85 176.432 1334.66 176.432H1329.09C1328.77 176.432 1328.5 176.336 1328.28 176.144C1328.08 175.92 1328 175.664 1328.04 175.376C1328.07 174.512 1328.5 173.552 1329.33 172.496C1330.16 171.408 1331.43 170.48 1333.12 169.712C1334.82 168.944 1336.92 168.56 1339.41 168.56C1343.38 168.56 1346.32 169.44 1348.24 171.2C1350.16 172.928 1351.12 175.28 1351.12 178.256V192.8C1351.12 193.12 1351.01 193.408 1350.79 193.664C1350.56 193.888 1350.28 194 1349.92 194H1344.02C1343.7 194 1343.41 193.888 1343.16 193.664C1342.93 193.408 1342.82 193.12 1342.82 192.8V191.12C1342.12 192.112 1341.14 192.928 1339.89 193.568C1338.64 194.176 1337.16 194.48 1335.43 194.48ZM1337.83 188.816C1339.24 188.816 1340.37 188.352 1341.24 187.424C1342.13 186.496 1342.58 185.152 1342.58 183.392V182.816L1338.6 183.488C1335.91 184 1334.56 184.96 1334.56 186.368C1334.56 187.104 1334.87 187.696 1335.48 188.144C1336.12 188.592 1336.9 188.816 1337.83 188.816ZM1365.71 194.48C1362.6 194.48 1360.15 193.504 1358.36 191.552C1356.6 189.6 1355.66 186.816 1355.53 183.2L1355.48 181.52L1355.53 179.792C1355.66 176.304 1356.62 173.568 1358.41 171.584C1360.2 169.568 1362.63 168.56 1365.71 168.56C1368.59 168.56 1370.91 169.488 1372.67 171.344V161.12C1372.67 160.768 1372.78 160.48 1373 160.256C1373.26 160.032 1373.55 159.92 1373.87 159.92H1380.06C1380.41 159.92 1380.7 160.032 1380.92 160.256C1381.18 160.48 1381.31 160.768 1381.31 161.12V192.8C1381.31 193.152 1381.18 193.44 1380.92 193.664C1380.7 193.888 1380.41 194 1380.06 194H1374.35C1374.03 194 1373.74 193.888 1373.48 193.664C1373.26 193.408 1373.15 193.12 1373.15 192.8V191.312C1371.42 193.424 1368.94 194.48 1365.71 194.48ZM1368.49 187.808C1369.87 187.808 1370.89 187.376 1371.56 186.512C1372.23 185.616 1372.6 184.496 1372.67 183.152C1372.73 182.256 1372.76 181.648 1372.76 181.328C1372.76 180.976 1372.73 180.384 1372.67 179.552C1372.6 178.304 1372.22 177.28 1371.51 176.48C1370.84 175.648 1369.83 175.232 1368.49 175.232C1367.05 175.232 1366.01 175.664 1365.37 176.528C1364.76 177.36 1364.41 178.528 1364.31 180.032L1364.27 181.52L1364.31 183.008C1364.41 184.512 1364.76 185.696 1365.37 186.56C1366.01 187.392 1367.05 187.808 1368.49 187.808ZM1398.48 194.48C1394.58 194.48 1391.5 193.44 1389.26 191.36C1387.02 189.248 1385.87 186.192 1385.81 182.192V180.704C1385.94 176.896 1387.12 173.92 1389.36 171.776C1391.6 169.632 1394.62 168.56 1398.43 168.56C1401.18 168.56 1403.5 169.12 1405.39 170.24C1407.31 171.328 1408.74 172.848 1409.66 174.8C1410.62 176.72 1411.1 178.912 1411.1 181.376V182.576C1411.1 182.928 1410.98 183.232 1410.72 183.488C1410.5 183.712 1410.21 183.824 1409.86 183.824H1394.64V184.112C1394.67 185.552 1395.01 186.72 1395.65 187.616C1396.29 188.48 1397.2 188.912 1398.38 188.912C1399.15 188.912 1399.76 188.768 1400.21 188.48C1400.69 188.16 1401.14 187.76 1401.55 187.28C1401.84 186.96 1402.06 186.768 1402.22 186.704C1402.42 186.608 1402.7 186.56 1403.09 186.56H1409.38C1409.66 186.56 1409.9 186.656 1410.1 186.848C1410.32 187.008 1410.43 187.216 1410.43 187.472C1410.43 188.304 1409.95 189.28 1408.99 190.4C1408.06 191.52 1406.69 192.48 1404.86 193.28C1403.07 194.08 1400.94 194.48 1398.48 194.48ZM1402.27 178.928V178.832C1402.27 177.296 1401.94 176.112 1401.26 175.28C1400.59 174.416 1399.65 173.984 1398.43 173.984C1397.22 173.984 1396.27 174.416 1395.6 175.28C1394.96 176.112 1394.64 177.296 1394.64 178.832V178.928H1402.27Z" fill="black"/>
</svg>
