<svg width="239" height="1032" viewBox="0 0 239 1032" fill="none" xmlns="http://www.w3.org/2000/svg">
<path d="M101.396 258.786C110.92 255.757 118.796 249.612 123.426 241.596C127.799 243.14 131.748 245.506 135.004 248.533C138.259 251.561 140.744 255.178 142.291 259.139C148.027 273.764 139.251 289.335 123.75 295.541C122.868 295.894 123.516 297.273 124.415 296.952C140.942 290.81 150.113 273.956 144.197 258.674C142.582 254.486 139.981 250.653 136.569 247.434C133.158 244.215 129.014 241.683 124.415 240.008C127.486 234.125 128.483 227.549 127.274 221.15C123.803 203.382 102.097 191.083 83.2328 199.951C82.6753 200.223 83.2327 200.913 83.7183 200.704C90.7733 198.035 98.7037 197.863 105.896 200.222C113.089 202.581 119.003 207.295 122.437 213.405C124.629 217.453 125.777 221.888 125.796 226.383C125.814 230.878 124.703 235.321 122.545 239.383C116.093 237.424 109.137 237.206 102.547 238.758C95.8212 240.361 86.254 244.563 85.8044 251.731C85.2289 259.444 95.1558 260.727 101.396 258.786ZM104.993 240.089C110.52 239.106 116.238 239.416 121.592 240.987C119.305 244.856 116.189 248.289 112.42 251.089C109.522 253.257 106.287 255.039 102.817 256.381C98.213 258.145 89.7248 259.588 87.9085 253.575C85.5526 245.894 98.7525 241.179 104.957 240.089H104.993Z" fill="#D8D8D8"/>
<path d="M108.897 1.48131C107.408 2.35431 106.14 3.49333 105.175 4.82564C104.105 6.23342 103.283 7.77851 102.74 9.40711C100.994 14.6139 104.272 18.5972 109.05 21.3434C114.196 24.2663 125.178 29.2828 130.493 24.3478C133.357 21.7104 136.359 18.9099 137.569 15.2529C137.971 14 137.989 12.6748 137.623 11.4134C137.257 10.1519 136.52 8.99967 135.486 8.07482C132.055 4.74408 127.307 3.15348 122.743 1.46772C118.562 -0.122875 113.094 -0.829815 108.897 1.48131Z" fill="#DA9FF9"/>
<path d="M66.7919 48.3298C40.859 62.5896 11.8751 87.8941 5.20884 115.015C-10.4882 178.363 82.3059 216.905 140.502 216.004C177.48 215.425 215.693 197.991 230.169 167.978C239.582 148.445 238.148 125.777 230.169 105.759C204.694 41.9802 135.026 10.9045 66.7919 48.3298Z" fill="#DA9FF9"/>
<path d="M87.7321 409.357C102.033 406.49 116.235 412.021 127.837 422.128C139.439 432.235 151.595 448.684 151.528 465.839C151.47 469.309 150.779 472.706 149.497 475.814C148.782 474.942 148.054 474.087 147.302 473.268C136.719 461.677 113.266 456.126 107.321 475.91C105.027 483.547 108.834 491.401 115.052 495.107C122.704 499.632 132.164 496.983 138.915 492.369C143.665 489.193 147.541 484.604 150.141 479.079C169.456 504.281 171.315 546.871 150.669 569.862C147.161 573.762 143.11 576.982 138.669 579.399C137.567 570.923 134.311 562.923 129.305 556.389C124.759 550.586 117.563 544.627 110.457 545.894C104.089 547.023 99.4151 553.792 98.821 560.887C98.0917 569.717 103.62 578.161 110.348 582.099C118.417 586.899 128.144 586.019 136.257 582.573L137.447 582.042C138.45 592.604 136.406 603.143 131.623 612.064C122.267 629.123 105.121 638.217 87.8826 640.67C86.9285 640.784 87.0496 642.521 88.0017 642.392C106.372 639.771 124.704 629.758 133.941 610.978C138.286 602.004 140.037 591.635 138.951 581.296C173.14 564.029 174.295 508.248 150.806 477.491C152.001 474.512 152.722 471.303 152.938 468.008C153.722 455.569 147.603 443.464 140.748 434.026C127.793 416.245 107.865 403.607 87.5606 407.674C86.6843 407.843 86.7876 409.55 87.7321 409.357ZM106.032 576.431C99.1668 568.827 98.009 555.37 106.652 549.314C115.089 543.445 125.228 552.493 130.283 560.312C134.018 566.19 136.426 572.993 137.287 580.098C126.913 585.24 114.697 586.011 106.032 576.431V576.431ZM113.012 491.472C103.398 482.41 110.119 468.683 120.003 465.286C128.793 462.262 138.102 466.25 144.953 473.012C146.326 474.401 147.636 475.87 148.876 477.413C142.343 491.767 125.195 503.116 112.998 491.474L113.012 491.472Z" fill="#D8D8D8"/>
<path d="M175.833 278.41C175.833 278.94 175.93 279.485 176.011 280.016C176.627 284.505 179.121 288.363 184.109 289.811C193.487 292.522 205.165 288.521 213.749 285.222C220.649 282.569 225.006 278.639 223.888 271.583C222.123 260.426 209.749 255.607 198.897 253.054C193.957 251.878 186.021 250.057 182.312 254.302C179.785 257.17 178.732 262.276 177.663 265.775C176.273 269.869 175.655 274.138 175.833 278.41Z" fill="#B088F9"/>
<path d="M15.035 377.52C0.49701 398.635 -6.65893 423.088 8.23444 443.695C32.8198 477.708 89.1142 495.613 129.514 502.062C146.798 504.891 164.825 505.768 182.416 501.383C201.353 496.778 217.545 485.978 227.645 471.217C244.525 445.901 239.986 413.372 230.763 386.359C223.122 364.014 212.606 342.517 197.035 325.475C165.164 290.485 121.841 284.46 79.8583 315.15C61.0558 328.897 32.5614 352.077 15.035 377.52Z" fill="#B088F9"/>
<path d="M108.454 835.781C115.62 836.48 123.026 834.647 129.173 830.653C131.264 832.922 132.758 835.614 133.551 838.546C134.345 841.478 134.421 844.581 133.773 847.645C131.396 858.975 119.586 866.806 107.411 866.495C106.723 866.485 106.562 867.581 107.257 867.613C120.054 868.254 132.611 859.671 135.129 847.882C135.83 844.639 135.767 841.351 134.944 838.24C134.122 835.13 132.56 832.269 130.363 829.852C134.668 826.827 137.965 822.754 139.816 818.17C144.874 805.412 136.357 791.023 121.026 791.633C120.571 791.649 120.604 792.242 121.03 792.261C126.508 792.506 131.514 794.651 135.032 798.262C138.551 801.873 140.318 806.678 139.975 811.704C139.69 815.012 138.599 818.277 136.78 821.262C134.962 824.247 132.462 826.875 129.466 828.954C126.241 825.818 121.994 823.692 117.257 822.84C112.445 821.964 104.753 822.044 101.572 826.677C98.1497 831.571 103.777 835.276 108.454 835.781ZM118.293 824.392C122.131 825.318 125.564 827.15 128.26 829.711C125.261 831.629 121.921 833.019 118.431 833.8C115.754 834.404 113.026 834.659 110.33 834.559C106.748 834.422 100.9 832.921 102.187 828.455C103.811 822.719 113.966 823.352 118.281 824.396L118.293 824.392Z" fill="#D8D8D8"/>
<path d="M181.906 782.829C185.346 780.415 188.625 777.777 191.724 774.933C213.605 754.86 227.022 724.144 227.452 693.176C227.622 680.564 225.648 667.694 219.884 656.891C211.765 641.638 196.843 631.943 181.192 627.279C133.259 612.944 70.6924 624.788 33.6501 663.409C17.219 680.545 6.99536 706.798 13.3252 730.304C16.7724 743.066 24.6537 753.844 33.7518 762.617C72.4613 799.909 136.314 814.866 181.906 782.829Z" fill="#98ACF8"/>
<path d="M18.5014 847.509C18.155 850.132 18.5817 852.788 19.7423 855.232C20.9349 857.159 22.5722 858.858 24.5543 860.224C28.9881 863.565 34.6779 866.321 40.5039 865.567C43.4131 865.063 46.1791 864.074 48.6451 862.655C54.0474 859.86 59.5101 856.09 60.6753 850.773C62.0372 844.597 56.983 838.591 50.8695 835.172C44.7561 831.753 34.6023 828.737 27.1572 830.687C20.0601 832.52 18.8948 842.244 18.5014 847.509Z" fill="#BEDCFA"/>
<path d="M61.7223 879.606C38.5133 894.763 13.6181 920.42 9.80104 946.184C0.879243 1006.34 92.1207 1035.58 147.001 1030.61C181.86 1027.42 216.336 1008.44 227.205 979.419C234.272 960.54 230.807 939.513 221.395 921.421C191.426 863.743 122.673 839.834 61.7223 879.606Z" fill="#BEDCFA"/>
<path d="M99.86 81C99.7267 81 99.6067 80.9533 99.5 80.86C99.4067 80.7533 99.36 80.6333 99.36 80.5V67.52C99.36 67.3733 99.4067 67.2533 99.5 67.16C99.5933 67.0533 99.7133 67 99.86 67H109.3C109.447 67 109.567 67.0533 109.66 67.16C109.767 67.2533 109.82 67.3733 109.82 67.52V69.5C109.82 69.6467 109.767 69.7667 109.66 69.86C109.567 69.9533 109.447 70 109.3 70H102.98V72.54H108.86C109.007 72.54 109.127 72.5933 109.22 72.7C109.327 72.7933 109.38 72.9133 109.38 73.06V74.88C109.38 75.0267 109.327 75.1533 109.22 75.26C109.127 75.3533 109.007 75.4 108.86 75.4H102.98V78H109.46C109.607 78 109.727 78.0533 109.82 78.16C109.927 78.2533 109.98 78.3733 109.98 78.52V80.5C109.98 80.6467 109.927 80.7667 109.82 80.86C109.727 80.9533 109.607 81 109.46 81H99.86ZM115.112 81.2C114.405 81.2 113.759 81.0667 113.172 80.8C112.599 80.52 112.145 80.14 111.812 79.66C111.492 79.18 111.332 78.6533 111.332 78.08C111.332 77.1733 111.705 76.44 112.452 75.88C113.212 75.3067 114.252 74.9133 115.572 74.7L118.052 74.32V74.08C118.052 73.5867 117.952 73.2267 117.752 73C117.552 72.7733 117.212 72.66 116.732 72.66C116.465 72.66 116.239 72.7067 116.052 72.8C115.879 72.8933 115.679 73.0333 115.452 73.22C115.279 73.3667 115.125 73.4733 114.992 73.54C114.939 73.6333 114.872 73.68 114.792 73.68H112.472C112.339 73.68 112.225 73.64 112.132 73.56C112.052 73.4667 112.019 73.36 112.032 73.24C112.045 72.88 112.225 72.48 112.572 72.04C112.919 71.5867 113.445 71.2 114.152 70.88C114.859 70.56 115.732 70.4 116.772 70.4C118.425 70.4 119.652 70.7667 120.452 71.5C121.252 72.22 121.652 73.2 121.652 74.44V80.5C121.652 80.6333 121.605 80.7533 121.512 80.86C121.419 80.9533 121.299 81 121.152 81H118.692C118.559 81 118.439 80.9533 118.332 80.86C118.239 80.7533 118.192 80.6333 118.192 80.5V79.8C117.899 80.2133 117.492 80.5533 116.972 80.82C116.452 81.0733 115.832 81.2 115.112 81.2ZM116.112 78.84C116.699 78.84 117.172 78.6467 117.532 78.26C117.905 77.8733 118.092 77.3133 118.092 76.58V76.34L116.432 76.62C115.312 76.8333 114.752 77.2333 114.752 77.82C114.752 78.1267 114.879 78.3733 115.132 78.56C115.399 78.7467 115.725 78.84 116.112 78.84ZM124.328 81C124.194 81 124.074 80.9533 123.968 80.86C123.874 80.7533 123.828 80.6333 123.828 80.5V71.12C123.828 70.9733 123.874 70.8533 123.968 70.76C124.061 70.6533 124.181 70.6 124.328 70.6H126.768C126.914 70.6 127.034 70.6533 127.128 70.76C127.234 70.8533 127.288 70.9733 127.288 71.12V71.88C127.661 71.4667 128.094 71.1533 128.588 70.94C129.094 70.7133 129.654 70.6 130.268 70.6H131.168C131.314 70.6 131.434 70.6467 131.528 70.74C131.621 70.8333 131.668 70.9533 131.668 71.1V73.28C131.668 73.4133 131.621 73.5333 131.528 73.64C131.434 73.7333 131.314 73.78 131.168 73.78H129.148C128.614 73.78 128.201 73.9267 127.908 74.22C127.628 74.5133 127.488 74.9267 127.488 75.46V80.5C127.488 80.6467 127.434 80.7667 127.328 80.86C127.234 80.9533 127.114 81 126.968 81H124.328ZM133.546 81C133.413 81 133.293 80.9533 133.186 80.86C133.093 80.7533 133.046 80.6333 133.046 80.5V71.1C133.046 70.9533 133.093 70.8333 133.186 70.74C133.293 70.6467 133.413 70.6 133.546 70.6H136.006C136.153 70.6 136.273 70.6467 136.366 70.74C136.46 70.8333 136.506 70.9533 136.506 71.1V71.86C136.866 71.42 137.326 71.0667 137.886 70.8C138.46 70.5333 139.113 70.4 139.846 70.4C140.606 70.4 141.28 70.5733 141.866 70.92C142.466 71.2667 142.933 71.78 143.266 72.46C143.613 73.14 143.786 73.96 143.786 74.92V80.5C143.786 80.6333 143.74 80.7533 143.646 80.86C143.553 80.9533 143.433 81 143.286 81H140.626C140.48 81 140.353 80.9533 140.246 80.86C140.153 80.7667 140.106 80.6467 140.106 80.5V75.04C140.106 74.44 139.96 73.98 139.666 73.66C139.386 73.34 138.973 73.18 138.426 73.18C137.893 73.18 137.473 73.3467 137.166 73.68C136.86 74 136.706 74.4533 136.706 75.04V80.5C136.706 80.6333 136.66 80.7533 136.566 80.86C136.473 80.9533 136.353 81 136.206 81H133.546Z" fill="black"/>
<path d="M94.86 363C94.7267 363 94.6067 362.953 94.5 362.86C94.4067 362.753 94.36 362.633 94.36 362.5V349.5C94.36 349.353 94.4067 349.233 94.5 349.14C94.6067 349.047 94.7267 349 94.86 349H97.66C97.8067 349 97.9267 349.047 98.02 349.14C98.1133 349.233 98.16 349.353 98.16 349.5V359.86H104.16C104.307 359.86 104.427 359.913 104.52 360.02C104.627 360.113 104.68 360.233 104.68 360.38V362.5C104.68 362.647 104.627 362.767 104.52 362.86C104.427 362.953 104.307 363 104.16 363H94.86ZM110.934 363.2C109.307 363.2 108.027 362.767 107.094 361.9C106.161 361.02 105.681 359.747 105.654 358.08V357.46C105.707 355.873 106.201 354.633 107.134 353.74C108.067 352.847 109.327 352.4 110.914 352.4C112.061 352.4 113.027 352.633 113.814 353.1C114.614 353.553 115.207 354.187 115.594 355C115.994 355.8 116.194 356.713 116.194 357.74V358.24C116.194 358.387 116.141 358.513 116.034 358.62C115.941 358.713 115.821 358.76 115.674 358.76H109.334V358.88C109.347 359.48 109.487 359.967 109.754 360.34C110.021 360.7 110.401 360.88 110.894 360.88C111.214 360.88 111.467 360.82 111.654 360.7C111.854 360.567 112.041 360.4 112.214 360.2C112.334 360.067 112.427 359.987 112.494 359.96C112.574 359.92 112.694 359.9 112.854 359.9H115.474C115.594 359.9 115.694 359.94 115.774 360.02C115.867 360.087 115.914 360.173 115.914 360.28C115.914 360.627 115.714 361.033 115.314 361.5C114.927 361.967 114.354 362.367 113.594 362.7C112.847 363.033 111.961 363.2 110.934 363.2ZM112.514 356.72V356.68C112.514 356.04 112.374 355.547 112.094 355.2C111.814 354.84 111.421 354.66 110.914 354.66C110.407 354.66 110.014 354.84 109.734 355.2C109.467 355.547 109.334 356.04 109.334 356.68V356.72H112.514ZM121.128 363.2C120.421 363.2 119.774 363.067 119.188 362.8C118.614 362.52 118.161 362.14 117.828 361.66C117.508 361.18 117.348 360.653 117.348 360.08C117.348 359.173 117.721 358.44 118.468 357.88C119.228 357.307 120.268 356.913 121.588 356.7L124.068 356.32V356.08C124.068 355.587 123.968 355.227 123.768 355C123.568 354.773 123.228 354.66 122.748 354.66C122.481 354.66 122.254 354.707 122.068 354.8C121.894 354.893 121.694 355.033 121.468 355.22C121.294 355.367 121.141 355.473 121.008 355.54C120.954 355.633 120.888 355.68 120.808 355.68H118.488C118.354 355.68 118.241 355.64 118.148 355.56C118.068 355.467 118.034 355.36 118.048 355.24C118.061 354.88 118.241 354.48 118.588 354.04C118.934 353.587 119.461 353.2 120.168 352.88C120.874 352.56 121.748 352.4 122.788 352.4C124.441 352.4 125.668 352.767 126.468 353.5C127.268 354.22 127.668 355.2 127.668 356.44V362.5C127.668 362.633 127.621 362.753 127.528 362.86C127.434 362.953 127.314 363 127.168 363H124.708C124.574 363 124.454 362.953 124.348 362.86C124.254 362.753 124.208 362.633 124.208 362.5V361.8C123.914 362.213 123.508 362.553 122.988 362.82C122.468 363.073 121.848 363.2 121.128 363.2ZM122.128 360.84C122.714 360.84 123.188 360.647 123.548 360.26C123.921 359.873 124.108 359.313 124.108 358.58V358.34L122.448 358.62C121.328 358.833 120.768 359.233 120.768 359.82C120.768 360.127 120.894 360.373 121.148 360.56C121.414 360.747 121.741 360.84 122.128 360.84ZM130.343 363C130.21 363 130.09 362.953 129.983 362.86C129.89 362.753 129.843 362.633 129.843 362.5V353.12C129.843 352.973 129.89 352.853 129.983 352.76C130.076 352.653 130.196 352.6 130.343 352.6H132.783C132.93 352.6 133.05 352.653 133.143 352.76C133.25 352.853 133.303 352.973 133.303 353.12V353.88C133.676 353.467 134.11 353.153 134.603 352.94C135.11 352.713 135.67 352.6 136.283 352.6H137.183C137.33 352.6 137.45 352.647 137.543 352.74C137.636 352.833 137.683 352.953 137.683 353.1V355.28C137.683 355.413 137.636 355.533 137.543 355.64C137.45 355.733 137.33 355.78 137.183 355.78H135.163C134.63 355.78 134.216 355.927 133.923 356.22C133.643 356.513 133.503 356.927 133.503 357.46V362.5C133.503 362.647 133.45 362.767 133.343 362.86C133.25 362.953 133.13 363 132.983 363H130.343ZM139.562 363C139.429 363 139.309 362.953 139.202 362.86C139.109 362.753 139.062 362.633 139.062 362.5V353.1C139.062 352.953 139.109 352.833 139.202 352.74C139.309 352.647 139.429 352.6 139.562 352.6H142.022C142.169 352.6 142.289 352.647 142.382 352.74C142.475 352.833 142.522 352.953 142.522 353.1V353.86C142.882 353.42 143.342 353.067 143.902 352.8C144.475 352.533 145.129 352.4 145.862 352.4C146.622 352.4 147.295 352.573 147.882 352.92C148.482 353.267 148.949 353.78 149.282 354.46C149.629 355.14 149.802 355.96 149.802 356.92V362.5C149.802 362.633 149.755 362.753 149.662 362.86C149.569 362.953 149.449 363 149.302 363H146.642C146.495 363 146.369 362.953 146.262 362.86C146.169 362.767 146.122 362.647 146.122 362.5V357.04C146.122 356.44 145.975 355.98 145.682 355.66C145.402 355.34 144.989 355.18 144.442 355.18C143.909 355.18 143.489 355.347 143.182 355.68C142.875 356 142.722 356.453 142.722 357.04V362.5C142.722 362.633 142.675 362.753 142.582 362.86C142.489 362.953 142.369 363 142.222 363H139.562Z" fill="black"/>
<path d="M102.66 666.2C101.367 666.2 100.267 666.013 99.36 665.64C98.4533 665.267 97.7667 664.773 97.3 664.16C96.8333 663.547 96.5867 662.88 96.56 662.16C96.56 662.04 96.6 661.94 96.68 661.86C96.7733 661.78 96.88 661.74 97 661.74H99.66C99.82 661.74 99.9467 661.767 100.04 661.82C100.147 661.873 100.26 661.967 100.38 662.1C100.553 662.42 100.82 662.687 101.18 662.9C101.553 663.1 102.047 663.2 102.66 663.2C103.38 663.2 103.933 663.093 104.32 662.88C104.707 662.653 104.9 662.347 104.9 661.96C104.9 661.68 104.8 661.453 104.6 661.28C104.4 661.093 104.08 660.933 103.64 660.8C103.2 660.653 102.567 660.493 101.74 660.32C100.127 660 98.92 659.513 98.12 658.86C97.32 658.207 96.92 657.273 96.92 656.06C96.92 655.233 97.1467 654.5 97.6 653.86C98.0667 653.207 98.72 652.7 99.56 652.34C100.413 651.98 101.4 651.8 102.52 651.8C103.693 651.8 104.707 652.007 105.56 652.42C106.427 652.82 107.087 653.327 107.54 653.94C108.007 654.54 108.253 655.133 108.28 655.72C108.28 655.84 108.24 655.947 108.16 656.04C108.08 656.12 107.98 656.16 107.86 656.16H105.06C104.767 656.16 104.54 656.04 104.38 655.8C104.3 655.52 104.093 655.287 103.76 655.1C103.427 654.9 103.013 654.8 102.52 654.8C101.96 654.8 101.527 654.9 101.22 655.1C100.913 655.3 100.76 655.593 100.76 655.98C100.76 656.367 100.96 656.673 101.36 656.9C101.76 657.113 102.507 657.333 103.6 657.56C104.853 657.787 105.847 658.073 106.58 658.42C107.327 658.753 107.873 659.193 108.22 659.74C108.58 660.273 108.76 660.953 108.76 661.78C108.76 662.687 108.5 663.473 107.98 664.14C107.46 664.807 106.74 665.32 105.82 665.68C104.9 666.027 103.847 666.2 102.66 666.2ZM110.98 666C110.834 666 110.707 665.953 110.6 665.86C110.507 665.767 110.46 665.647 110.46 665.5V652.3C110.46 652.153 110.507 652.033 110.6 651.94C110.707 651.847 110.834 651.8 110.98 651.8H113.68C113.827 651.8 113.947 651.847 114.04 651.94C114.147 652.033 114.2 652.153 114.2 652.3V656.76C114.974 655.853 116.02 655.4 117.34 655.4C118.1 655.4 118.787 655.573 119.4 655.92C120.014 656.267 120.494 656.78 120.84 657.46C121.187 658.14 121.36 658.96 121.36 659.92V665.5C121.36 665.647 121.307 665.767 121.2 665.86C121.107 665.953 120.987 666 120.84 666H118.12C117.987 666 117.867 665.953 117.76 665.86C117.667 665.753 117.62 665.633 117.62 665.5V660.04C117.62 659.453 117.474 659 117.18 658.68C116.887 658.347 116.467 658.18 115.92 658.18C115.387 658.18 114.967 658.347 114.66 658.68C114.354 659 114.2 659.453 114.2 660.04V665.5C114.2 665.647 114.147 665.767 114.04 665.86C113.947 665.953 113.827 666 113.68 666H110.98ZM128.546 666.2C126.866 666.2 125.573 665.813 124.666 665.04C123.773 664.253 123.286 663.14 123.206 661.7C123.193 661.527 123.186 661.227 123.186 660.8C123.186 660.373 123.193 660.073 123.206 659.9C123.286 658.487 123.786 657.387 124.706 656.6C125.64 655.8 126.92 655.4 128.546 655.4C130.173 655.4 131.446 655.8 132.366 656.6C133.3 657.387 133.806 658.487 133.886 659.9C133.913 660.247 133.926 660.547 133.926 660.8C133.926 661.053 133.913 661.353 133.886 661.7C133.806 663.14 133.313 664.253 132.406 665.04C131.513 665.813 130.226 666.2 128.546 666.2ZM128.546 663.68C129.093 663.68 129.5 663.513 129.766 663.18C130.033 662.833 130.186 662.307 130.226 661.6C130.24 661.467 130.246 661.2 130.246 660.8C130.246 660.4 130.24 660.133 130.226 660C130.186 659.307 130.033 658.787 129.766 658.44C129.5 658.093 129.093 657.92 128.546 657.92C128 657.92 127.593 658.093 127.326 658.44C127.06 658.787 126.906 659.307 126.866 660L126.846 660.8L126.866 661.6C126.906 662.307 127.06 662.833 127.326 663.18C127.593 663.513 128 663.68 128.546 663.68ZM136.351 669.8C136.205 669.8 136.078 669.753 135.971 669.66C135.878 669.567 135.831 669.447 135.831 669.3V656.1C135.831 655.953 135.878 655.833 135.971 655.74C136.078 655.647 136.205 655.6 136.351 655.6H138.731C138.878 655.6 138.998 655.647 139.091 655.74C139.185 655.833 139.231 655.953 139.231 656.1V656.82C139.951 655.873 140.985 655.4 142.331 655.4C143.625 655.4 144.638 655.807 145.371 656.62C146.118 657.42 146.518 658.567 146.571 660.06C146.585 660.233 146.591 660.48 146.591 660.8C146.591 661.12 146.585 661.373 146.571 661.56C146.518 663 146.118 664.133 145.371 664.96C144.625 665.787 143.611 666.2 142.331 666.2C141.038 666.2 140.071 665.76 139.431 664.88V669.3C139.431 669.447 139.385 669.567 139.291 669.66C139.198 669.753 139.078 669.8 138.931 669.8H136.351ZM141.171 663.42C141.771 663.42 142.198 663.247 142.451 662.9C142.718 662.54 142.871 662.047 142.911 661.42C142.925 661.287 142.931 661.08 142.931 660.8C142.931 660.52 142.925 660.313 142.911 660.18C142.871 659.553 142.718 659.067 142.451 658.72C142.198 658.36 141.771 658.18 141.171 658.18C140.598 658.18 140.171 658.367 139.891 658.74C139.611 659.1 139.458 659.56 139.431 660.12C139.418 660.293 139.411 660.547 139.411 660.88C139.411 661.2 139.418 661.447 139.431 661.62C139.458 662.14 139.611 662.573 139.891 662.92C140.185 663.253 140.611 663.42 141.171 663.42Z" fill="black"/>
<path d="M97.96 903C97.8133 903 97.6867 902.953 97.58 902.86C97.4867 902.767 97.44 902.647 97.44 902.5V892.26H93.92C93.7733 892.26 93.6467 892.213 93.54 892.12C93.4467 892.027 93.4 891.907 93.4 891.76V889.52C93.4 889.373 93.4467 889.253 93.54 889.16C93.6467 889.053 93.7733 889 93.92 889H104.78C104.927 889 105.047 889.053 105.14 889.16C105.247 889.253 105.3 889.373 105.3 889.52V891.76C105.3 891.907 105.247 892.027 105.14 892.12C105.047 892.213 104.927 892.26 104.78 892.26H101.26V902.5C101.26 902.647 101.207 902.767 101.1 902.86C101.007 902.953 100.887 903 100.74 903H97.96ZM106.359 903C106.225 903 106.105 902.953 105.999 902.86C105.905 902.753 105.859 902.633 105.859 902.5V893.12C105.859 892.973 105.905 892.853 105.999 892.76C106.092 892.653 106.212 892.6 106.359 892.6H108.799C108.945 892.6 109.065 892.653 109.159 892.76C109.265 892.853 109.319 892.973 109.319 893.12V893.88C109.692 893.467 110.125 893.153 110.619 892.94C111.125 892.713 111.685 892.6 112.299 892.6H113.199C113.345 892.6 113.465 892.647 113.559 892.74C113.652 892.833 113.699 892.953 113.699 893.1V895.28C113.699 895.413 113.652 895.533 113.559 895.64C113.465 895.733 113.345 895.78 113.199 895.78H111.179C110.645 895.78 110.232 895.927 109.939 896.22C109.659 896.513 109.519 896.927 109.519 897.46V902.5C109.519 902.647 109.465 902.767 109.359 902.86C109.265 902.953 109.145 903 108.999 903H106.359ZM118.042 903.2C117.335 903.2 116.688 903.067 116.102 902.8C115.528 902.52 115.075 902.14 114.742 901.66C114.422 901.18 114.262 900.653 114.262 900.08C114.262 899.173 114.635 898.44 115.382 897.88C116.142 897.307 117.182 896.913 118.502 896.7L120.982 896.32V896.08C120.982 895.587 120.882 895.227 120.682 895C120.482 894.773 120.142 894.66 119.662 894.66C119.395 894.66 119.168 894.707 118.982 894.8C118.808 894.893 118.608 895.033 118.382 895.22C118.208 895.367 118.055 895.473 117.922 895.54C117.868 895.633 117.802 895.68 117.722 895.68H115.402C115.268 895.68 115.155 895.64 115.062 895.56C114.982 895.467 114.948 895.36 114.962 895.24C114.975 894.88 115.155 894.48 115.502 894.04C115.848 893.587 116.375 893.2 117.082 892.88C117.788 892.56 118.662 892.4 119.702 892.4C121.355 892.4 122.582 892.767 123.382 893.5C124.182 894.22 124.582 895.2 124.582 896.44V902.5C124.582 902.633 124.535 902.753 124.442 902.86C124.348 902.953 124.228 903 124.082 903H121.622C121.488 903 121.368 902.953 121.262 902.86C121.168 902.753 121.122 902.633 121.122 902.5V901.8C120.828 902.213 120.422 902.553 119.902 902.82C119.382 903.073 118.762 903.2 118.042 903.2ZM119.042 900.84C119.628 900.84 120.102 900.647 120.462 900.26C120.835 899.873 121.022 899.313 121.022 898.58V898.34L119.362 898.62C118.242 898.833 117.682 899.233 117.682 899.82C117.682 900.127 117.808 900.373 118.062 900.56C118.328 900.747 118.655 900.84 119.042 900.84ZM130.657 903.2C129.364 903.2 128.344 902.793 127.597 901.98C126.864 901.167 126.471 900.007 126.417 898.5L126.397 897.8L126.417 897.08C126.471 895.627 126.871 894.487 127.617 893.66C128.364 892.82 129.377 892.4 130.657 892.4C131.857 892.4 132.824 892.787 133.557 893.56V889.3C133.557 889.153 133.604 889.033 133.697 888.94C133.804 888.847 133.924 888.8 134.057 888.8H136.637C136.784 888.8 136.904 888.847 136.997 888.94C137.104 889.033 137.157 889.153 137.157 889.3V902.5C137.157 902.647 137.104 902.767 136.997 902.86C136.904 902.953 136.784 903 136.637 903H134.257C134.124 903 134.004 902.953 133.897 902.86C133.804 902.753 133.757 902.633 133.757 902.5V901.88C133.037 902.76 132.004 903.2 130.657 903.2ZM131.817 900.42C132.391 900.42 132.817 900.24 133.097 899.88C133.377 899.507 133.531 899.04 133.557 898.48C133.584 898.107 133.597 897.853 133.597 897.72C133.597 897.573 133.584 897.327 133.557 896.98C133.531 896.46 133.371 896.033 133.077 895.7C132.797 895.353 132.377 895.18 131.817 895.18C131.217 895.18 130.784 895.36 130.517 895.72C130.264 896.067 130.117 896.553 130.077 897.18L130.057 897.8L130.077 898.42C130.117 899.047 130.264 899.54 130.517 899.9C130.784 900.247 131.217 900.42 131.817 900.42ZM144.313 903.2C142.686 903.2 141.406 902.767 140.473 901.9C139.54 901.02 139.06 899.747 139.033 898.08V897.46C139.086 895.873 139.58 894.633 140.513 893.74C141.446 892.847 142.706 892.4 144.293 892.4C145.44 892.4 146.406 892.633 147.193 893.1C147.993 893.553 148.586 894.187 148.973 895C149.373 895.8 149.573 896.713 149.573 897.74V898.24C149.573 898.387 149.52 898.513 149.413 898.62C149.32 898.713 149.2 898.76 149.053 898.76H142.713V898.88C142.726 899.48 142.866 899.967 143.133 900.34C143.4 900.7 143.78 900.88 144.273 900.88C144.593 900.88 144.846 900.82 145.033 900.7C145.233 900.567 145.42 900.4 145.593 900.2C145.713 900.067 145.806 899.987 145.873 899.96C145.953 899.92 146.073 899.9 146.233 899.9H148.853C148.973 899.9 149.073 899.94 149.153 900.02C149.246 900.087 149.293 900.173 149.293 900.28C149.293 900.627 149.093 901.033 148.693 901.5C148.306 901.967 147.733 902.367 146.973 902.7C146.226 903.033 145.34 903.2 144.313 903.2ZM145.893 896.72V896.68C145.893 896.04 145.753 895.547 145.473 895.2C145.193 894.84 144.8 894.66 144.293 894.66C143.786 894.66 143.393 894.84 143.113 895.2C142.846 895.547 142.713 896.04 142.713 896.68V896.72H145.893Z" fill="black"/>
</svg>
